<svg width="24" height="24" viewBox="0 0 24 24" fill="none" xmlns="http://www.w3.org/2000/svg">
<g clip-path="url(#clip0_10340_55101)">
<path d="M15.5856 20.8002L13.9597 16.0393C13.6381 15.0994 12.8429 14.6106 12.1311 14.6106C11.4457 14.6106 10.6586 15.1356 10.3057 16.0306L8.4213 20.8002H6.18344L8.35268 14.5995L8.35331 14.5976C8.56349 13.9772 9.08177 13.4024 9.78337 12.9803C10.483 12.5595 11.3492 12.3007 12.2295 12.3007C14.0262 12.3007 15.415 13.3056 15.8429 14.5963L17.8559 20.8002H15.5856Z" fill="currentColor"/>
<path d="M14.5213 4.55611C14.5213 5.85056 13.4097 6.91203 12 6.91203C10.5902 6.91203 9.47864 5.85056 9.47864 4.55611C9.47864 3.26166 10.5902 2.2002 12 2.2002C13.4097 2.2002 14.5213 3.26167 14.5213 4.55611Z" fill="currentColor"/>
<path d="M19.8 10.7613H4.19995V8.35903H19.8V10.7613Z" fill="currentColor"/>
</g>
<defs>
<clipPath id="clip0_10340_55101">
<rect width="16" height="19" fill="white" transform="translate(4 2)"/>
</clipPath>
</defs>
</svg>
