<?xml version="1.0" encoding="UTF-8"?>
<svg version="1.1" xmlns="http://www.w3.org/2000/svg" width="2430" height="1728">
<path d="M0 0 C801.9 0 1603.8 0 2430 0 C2430 570.24 2430 1140.48 2430 1728 C1628.1 1728 826.2 1728 0 1728 C0 1157.76 0 587.52 0 0 Z " fill="#FEFEFE" transform="translate(0,0)"/>
<path d="M0 0 C1.79656862 -0.00256327 1.79656862 -0.00256327 3.62943155 -0.00517833 C6.92249655 -0.00788494 10.21540077 -0.00170367 13.50844681 0.00837779 C17.0713403 0.01706799 20.63422718 0.01408821 24.1971283 0.01257324 C30.35968967 0.01152789 36.52220847 0.01776776 42.68475914 0.02904892 C51.5946107 0.04534862 60.50444182 0.05051649 69.41430668 0.0530249 C83.87227018 0.05739501 98.33021102 0.0706855 112.78816223 0.08963013 C126.82722358 0.10800667 140.86627877 0.12215448 154.90534973 0.13064575 C155.77167549 0.1311712 156.63800124 0.13169665 157.53057929 0.13223802 C161.87696701 0.13484822 166.22335477 0.1373756 170.56974256 0.13986182 C206.58974935 0.160573 242.60973039 0.19577984 278.62971497 0.24050903 C278.91695466 0.78831622 279.20419436 1.33612341 279.50013828 1.90053082 C280.8133797 4.40387909 282.12790817 6.90654935 283.44245911 9.40921021 C283.89430824 10.27100639 284.34615738 11.13280258 284.81169891 12.02071381 C287.75445022 17.62035683 290.74115669 23.16943565 294.06721497 28.55300903 C294.74506042 29.65370728 294.74506042 29.65370728 295.43659973 30.77664185 C299.59591441 37.4022007 304.22176856 43.55554243 309.22932434 49.55935669 C310.64379705 51.2574144 312.03519407 52.97273751 313.42658997 54.68972778 C338.000501 84.60105372 372.86305988 108.12869915 409.62971497 120.24050903 C410.27714661 120.45900513 410.92457825 120.67750122 411.59162903 120.90261841 C425.47306369 125.56393719 439.42415002 128.96395637 453.94221497 130.92800903 C455.39458557 131.12668579 455.39458557 131.12668579 456.876297 131.32937622 C461.7097762 131.93607562 466.38943897 132.30168404 471.26252747 132.18972778 C472.15673401 132.18175171 473.05094055 132.17377563 473.97224426 132.16555786 C476.54088167 132.14691101 476.54088167 132.14691101 478.98445129 131.89553833 C481.66654039 131.85136409 483.21579232 132.04032917 485.62971497 133.24050903 C488.47501001 136.66544576 490.5363099 140.4158834 492.60502625 144.33407593 C494.30605884 147.49884664 496.1847993 150.55508834 498.03987122 153.63113403 C498.80308132 154.91639745 499.56494165 156.20246326 500.32551575 157.48928833 C502.79807712 161.66958626 505.27355155 165.84814835 507.75080872 170.02566528 C508.16806213 170.72935745 508.58531555 171.43304962 509.01521301 172.1580658 C512.73674073 178.42982868 516.49235204 184.68065376 520.25471497 190.92800903 C525.67384434 199.93227014 531.01274895 208.98096601 536.31721497 218.05300903 C541.09316695 226.22092402 545.87937753 234.38131708 550.75471497 242.49050903 C551.21563538 243.25734009 551.67655579 244.02417114 552.15144348 244.8142395 C554.28388031 248.35690141 556.42135996 251.8964602 558.56330872 255.43338013 C559.94482226 257.71490143 561.32521018 259.99705041 562.70344543 262.2805481 C564.04303376 264.49927115 565.38567453 266.71615491 566.73176575 268.93093872 C567.6441803 270.44349243 567.6441803 270.44349243 568.57502747 271.98660278 C569.11659485 272.88048706 569.65816223 273.77437134 570.21614075 274.69534302 C571.58375005 277.15774836 572.64734366 279.60375805 573.62971497 282.24050903 C592.07858261 273.2602514 610.01630746 263.3370537 627.84284973 253.18704224 C636.13553803 248.48148604 644.52622571 243.97026482 652.9334259 239.47341919 C661.0486447 235.12123773 669.07427452 230.62846153 677.07575989 226.07131958 C684.98459587 221.57767832 692.96732508 217.23034902 700.97712708 212.91970825 C706.36127708 210.02004038 711.71950662 207.08276083 717.04743958 204.08108521 C733.62034298 194.74913411 747.6517076 189.08306262 766.87971497 188.99050903 C767.93545715 188.96988403 768.99119934 188.94925903 770.07893372 188.92800903 C782.20911385 188.86862015 792.70593807 192.16408009 803.62971497 197.24050903 C804.5462384 197.65945435 805.46276184 198.07839966 806.40705872 198.51004028 C814.3876903 202.48318111 820.38129336 208.00107796 826.62971497 214.24050903 C827.61778137 215.2111731 827.61778137 215.2111731 828.62580872 216.20144653 C845.58271733 234.13739145 850.34268907 257.06945283 850.03596497 280.90847778 C849.68281161 290.66938433 847.35931997 299.26312555 843.62971497 308.24050903 C843.35176086 308.91275513 843.07380676 309.58500122 842.78742981 310.27761841 C839.25868967 318.52168149 834.65536239 325.60022362 828.62971497 332.24050903 C827.89108215 333.07195435 827.15244934 333.90339966 826.39143372 334.76004028 C816.76745351 345.01406829 804.42037165 351.58593897 792.07069397 358.01245117 C788.77926742 359.72618106 785.49951615 361.46198628 782.21955872 363.19754028 C781.23838074 363.71617393 781.23838074 363.71617393 780.23738098 364.24528503 C774.51357026 367.28072514 768.87461613 370.45441866 763.25471497 373.67800903 C753.46118287 379.28536206 743.51835191 384.57981757 733.53797913 389.84375 C724.99451719 394.35273679 716.51235752 398.93656337 708.12971497 403.74050903 C698.37835145 409.32884471 688.47710365 414.60162959 678.53742981 419.84402466 C669.99415276 424.35292082 661.51217872 428.93666584 653.12971497 433.74050903 C643.38441276 439.32537108 633.49009387 444.59671101 623.55555725 449.83395386 C614.62557609 454.54436363 605.77196749 459.35607091 597.00471497 464.36550903 C593.54926577 466.32897477 590.09152942 468.28828698 586.62971497 470.24050903 C585.62352112 470.8085022 585.62352112 470.8085022 584.59700012 471.38796997 C564.64844667 482.49443349 541.37580579 486.18891169 518.94221497 480.74050903 C506.36790287 476.94549879 495.47812888 470.90565695 485.62971497 462.24050903 C484.78924622 461.58695435 483.94877747 460.93339966 483.08283997 460.26004028 C467.60260098 447.51595819 457.90759447 424.7833472 447.91558838 407.81513977 C443.64959398 400.5719661 439.35876085 393.34356296 435.06721497 386.11550903 C434.46520264 385.10105209 434.46520264 385.10105209 433.85102844 384.06610107 C428.53426927 375.10728425 423.188833 366.16656223 417.81721497 357.24050903 C412.73582998 348.78460558 407.68910192 340.30910669 402.69221497 331.80300903 C402.08208557 330.7711145 401.47195618 329.73921997 400.84333801 328.67605591 C400.28944397 327.7292395 399.73554993 326.7824231 399.16487122 325.80691528 C398.67381897 324.97103882 398.18276672 324.13516235 397.67683411 323.2739563 C396.62971497 321.24050903 396.62971497 321.24050903 396.62971497 319.24050903 C395.96971497 319.24050903 395.30971497 319.24050903 394.62971497 319.24050903 C394.4118634 319.89019653 394.19401184 320.53988403 393.96955872 321.20925903 C392.13760275 325.35385912 389.69038999 328.96899237 387.19221497 332.74050903 C386.33176575 334.0514856 386.33176575 334.0514856 385.45393372 335.38894653 C384.18631867 337.31978633 382.9168596 339.24941641 381.64582825 341.17800903 C379.6118849 344.26759311 377.58641084 347.36256661 375.56330872 350.45925903 C357.31423158 378.3819511 338.9948645 406.26155919 320.45588684 433.9927063 C304.59250667 457.7492554 288.91755864 481.63619661 273.33283997 505.57644653 C270.80671781 509.45365725 268.25170129 513.3097342 265.67658997 517.15457153 C265.05574524 518.08873901 264.43490051 519.02290649 263.79524231 519.98538208 C262.63724491 521.72679922 261.4714047 523.46303748 260.29621887 525.19290161 C259.79525696 525.949823 259.29429504 526.70674438 258.77815247 527.48660278 C258.11565491 528.47164795 258.11565491 528.47164795 257.43977356 529.47659302 C256.30745912 531.4125602 256.30745912 531.4125602 257.62971497 534.24050903 C260.0262312 535.79576276 260.0262312 535.79576276 263.04377747 537.20925903 C264.20006653 537.78160278 265.35635559 538.35394653 266.54768372 538.94363403 C267.78328339 539.54275204 269.0189602 540.141711 270.25471497 540.74050903 C271.96207825 541.58355591 271.96207825 541.58355591 273.70393372 542.44363403 C279.42613345 545.26391368 285.17447712 548.02784052 290.93806458 550.76248169 C303.41639581 556.68713772 315.7734545 562.8049753 328.05421448 569.12866211 C333.11591904 571.73461037 338.18307675 574.32989958 343.25080872 576.92410278 C344.2788562 577.45042801 345.30690369 577.97675323 346.36610413 578.51902771 C358.72748024 584.83795346 371.15233358 591.02972351 383.58796692 597.20095825 C392.06213896 601.41271737 400.48794726 605.69383819 408.82878113 610.16493225 C413.48856416 612.65980941 418.19885012 615.03393246 422.94221497 617.36550903 C433.19467325 622.45983827 442.78045331 627.9264994 451.62971497 635.24050903 C452.19819153 635.66332153 452.76666809 636.08613403 453.35237122 636.52175903 C464.78160018 645.38413989 471.84893214 658.29728259 477.62971497 671.24050903 C478.0615509 672.16863403 478.49338684 673.09675903 478.93830872 674.05300903 C481.32951999 679.51863479 482.42128976 684.86912622 483.23518372 690.77175903 C483.50218173 693.23582795 483.50218173 693.23582795 484.62971497 695.24050903 C487.08693572 727.02801024 475.43717494 751.95862777 462.09065247 779.86160278 C458.03719858 788.33601953 454.11791708 796.86548774 450.25471497 805.42800903 C444.62056134 817.90043234 438.89689126 830.32904501 433.12971497 842.74050903 C427.08448163 855.75343576 421.08543445 868.78519343 415.16584778 881.85574341 C410.03854021 893.17462131 404.84586738 904.46231933 399.62971497 915.74050903 C394.35978717 927.13659723 389.10891634 938.54058603 383.91999817 949.97381592 C383.01070833 951.97730353 382.1005691 953.98040344 381.19026184 955.98342896 C378.27384033 962.40305553 375.36462541 968.82581946 372.46824646 975.2545166 C371.03921164 978.42294422 369.60485148 981.58894467 368.16957092 984.75454712 C367.48941209 986.25794686 366.81154176 987.76238458 366.13624573 989.26797485 C359.68159191 1003.65524202 352.84708367 1016.0071839 341.62971497 1027.24050903 C340.89881653 1027.98300903 340.16791809 1028.72550903 339.41487122 1029.49050903 C323.66700605 1044.50523336 302.05132909 1050.64971848 280.69392395 1050.61135864 C261.20270301 1050.12484148 244.02064476 1042.88999733 228.62971497 1031.24050903 C227.63198059 1030.52121216 227.63198059 1030.52121216 226.61408997 1029.78738403 C213.49777396 1019.61304545 205.35745012 1002.70661749 200.62971497 987.24050903 C200.40412903 986.51476685 200.17854309 985.78902466 199.94612122 985.04129028 C195.69486483 968.2414978 198.01749308 948.12823301 204.75080872 932.31472778 C205.20973511 931.21970947 205.20973511 931.21970947 205.67793274 930.10256958 C208.8174422 922.67606332 212.16779887 915.34774657 215.56376648 908.03573608 C217.43782336 904.00046975 219.30022934 899.9598196 221.16487122 895.92019653 C221.54281326 895.10231659 221.92075531 894.28443665 222.31015015 893.44177246 C225.62606323 886.262052 228.90049568 879.06395583 232.16365051 871.86013794 C237.93119856 859.1282094 243.76298077 846.42702507 249.62971497 833.74050903 C255.81877107 820.35634977 261.96315044 806.95317371 268.05378723 793.5239563 C268.65590177 792.19639297 269.25803401 790.86883766 269.86018372 789.54129028 C270.15931168 788.88177872 270.45843964 788.22226715 270.76663208 787.54277039 C274.68280238 778.91326557 278.62549193 770.29586381 282.56721497 761.67800903 C282.92494995 760.89583008 283.28268494 760.11365112 283.65126038 759.30776978 C285.64358473 754.95179013 287.63641169 750.5960408 289.62971497 746.24050903 C285.94990013 743.08403023 282.14889018 740.80523132 277.80940247 738.70144653 C277.15742889 738.37894928 276.50545532 738.05645203 275.83372498 737.72418213 C274.44432238 737.03750759 273.05360982 736.35347816 271.66169739 735.67190552 C268.02768695 733.89212474 264.40334483 732.09285219 260.77815247 730.29519653 C260.06588501 729.94257751 259.35361755 729.5899585 258.61976624 729.22665405 C253.07961402 726.47871408 247.58804422 723.64787257 242.12971497 720.74050903 C234.65932333 716.76674028 227.12498441 712.94425449 219.54182434 709.19070435 C217.67681316 708.26391381 215.81658298 707.32823662 213.95783997 706.38894653 C206.86642545 702.8107269 199.73658852 699.32757575 192.5650177 695.91238403 C184.17167621 691.91477359 175.81956325 687.89195056 167.62971497 683.49050903 C159.05868507 678.89158148 150.32740834 674.65091854 141.56721497 670.42800903 C129.07658309 664.40643894 116.6356264 658.30218844 104.25471497 652.05691528 C100.87737602 650.35526473 97.49071116 648.6870339 94.06721497 647.08035278 C61.2638556 631.5916115 35.07173888 603.67427939 22.29768372 569.69754028 C10.33413595 535.39721753 9.08634708 497.01697906 24.84846497 463.66140747 C31.79322477 449.49429935 39.78573034 435.90796647 47.80891418 422.33377075 C50.90654097 417.07137716 53.95587007 411.78126909 57.00471497 406.49050903 C57.62378723 405.4171228 58.2428595 404.34373657 58.88069153 403.23782349 C63.8463281 394.61966543 68.77719735 385.98187851 73.70378113 377.34136963 C78.92787642 368.18177762 84.22240521 359.0652423 89.55183411 349.96658325 C93.47305734 343.25868407 97.3208869 336.5127841 101.12971497 329.74050903 C106.09028621 320.9217157 111.14694081 312.16389495 116.25862122 303.43191528 C120.57820028 296.05144245 124.86237797 288.65130029 129.12971497 281.24050903 C134.50871395 271.90179579 139.92230996 262.58410495 145.36018372 253.27957153 C149.64193642 245.94767139 153.89176188 238.59780097 158.12971497 231.24050903 C165.25066382 218.8801367 172.43397518 206.55754111 179.62971497 194.24050903 C184.24971497 186.32050903 188.86971497 178.40050903 193.62971497 170.24050903 C144.12971497 170.24050903 94.62971497 170.24050903 43.62971497 170.24050903 C42.96971497 171.89050903 42.30971497 173.54050903 41.62971497 175.24050903 C40.59282225 177.18047415 39.52179949 179.10239061 38.42658997 181.01004028 C37.78326721 182.13361938 37.13994446 183.25719849 36.47712708 184.41482544 C35.77811624 185.62762624 35.07897557 186.84035222 34.37971497 188.05300903 C33.65500017 189.31510882 32.93047472 190.57731735 32.20613098 191.83963013 C27.13054469 200.67530779 22.00915181 209.48419866 16.86238098 218.27859497 C12.4804941 225.76761535 8.14394851 233.28201367 3.81721497 240.80300903 C-0.3805242 248.09493613 -4.60314977 255.36567919 -8.96061707 262.56326294 C-14.25788058 271.33173742 -19.3703018 280.21038883 -24.5221405 289.06472778 C-28.13873593 295.27934777 -31.75772622 301.49258822 -35.38713074 307.69973755 C-38.00707658 312.18074581 -40.61863476 316.6653546 -43.19059753 321.17410278 C-47.70261615 329.04838205 -52.26865698 336.4622648 -58.37028503 343.24050903 C-59.0315741 343.9946106 -59.69286316 344.74871216 -60.37419128 345.52566528 C-71.23414956 357.18562048 -86.15317583 364.92359862 -101.37028503 369.24050903 C-102.39895691 369.54988403 -102.39895691 369.54988403 -103.44841003 369.86550903 C-122.63195007 374.6949317 -145.12155042 371.02578824 -162.15007019 361.21511841 C-166.06139442 358.77808788 -169.73109948 356.06936927 -173.37028503 353.24050903 C-174.19270691 352.6024231 -175.01512878 351.96433716 -175.86247253 351.30691528 C-186.16434217 342.73390613 -193.21862514 331.50436647 -198.37028503 319.24050903 C-198.87946472 318.04812622 -199.38864441 316.85574341 -199.91325378 315.62722778 C-207.12031983 296.58678983 -205.81545121 272.20191021 -197.85075378 253.71316528 C-191.70604104 240.40834434 -183.75867026 227.87292263 -176.37028503 215.24050903 C-175.17320942 213.1860901 -173.9765801 211.13141104 -172.78044128 209.07644653 C-168.74118885 202.14053932 -164.69101014 195.21103251 -160.64079285 188.28152466 C-158.90421667 185.30985397 -157.16825849 182.33782384 -155.43278503 179.36550903 C-154.85850769 178.38195435 -154.28423035 177.39839966 -153.69255066 176.38504028 C-149.37179582 168.97665574 -145.08607603 161.54847728 -140.80778503 154.11550903 C-135.66537874 145.18403082 -130.46736033 136.28831362 -125.21159363 127.42312622 C-119.47008308 117.73531332 -113.80306765 108.00445423 -108.13639832 98.2727356 C-104.63853767 92.26728505 -101.13615976 86.26446412 -97.6315155 80.26296997 C-94.6429458 75.14377713 -91.6622405 70.02024891 -88.69450378 64.88894653 C-73.9741353 39.46374849 -60.04313574 15.85398146 -31.24528503 4.86550903 C-30.62524597 4.6269519 -30.00520691 4.38839478 -29.36637878 4.14260864 C-19.77033503 0.69247181 -10.12559703 -0.05361497 0 0 Z " fill="#000000" transform="translate(994.3702850341797,424.7594909667969)"/>
<path d="M0 0 C2 1 2 1 2.74267578 2.66381836 C3.09048096 3.74095093 3.09048096 3.74095093 3.4453125 4.83984375 C3.71311523 5.64631348 3.98091797 6.4527832 4.25683594 7.28369141 C4.68657715 8.59732666 4.68657715 8.59732666 5.125 9.9375 C28.89403128 79.71070567 83.11926061 113.83106397 146 145 C146 149.18281956 143.67849411 150.88465748 140.9375 153.75 C140.43379883 154.28786133 139.93009766 154.82572266 139.41113281 155.37988281 C136.20987971 158.78211144 132.93226971 162.09954627 129.59765625 165.37109375 C127.87905293 167.12331278 126.28436665 168.94887141 124.6875 170.8125 C121.92381971 174.02333755 119.01380404 177.02267165 116 180 C113.04816975 182.91626603 110.19611141 185.84605835 107.5 189 C104.01787024 193.07343481 100.22444574 196.79035118 96.4140625 200.5546875 C93.71248706 203.29123479 91.20921265 206.14979366 88.7109375 209.0703125 C86.2530504 211.84245001 83.60376396 214.40550689 80.96484375 217.00390625 C79.07769256 218.92107177 77.31314625 220.89575322 75.5625 222.9375 C72.99334729 225.92801716 70.30682744 228.73116684 67.5 231.5 C64.71378859 234.2485599 62.04691608 237.02859791 59.5 240 C56.24835372 243.79358733 52.74286906 247.27392647 49.1875 250.78125 C47.20279658 252.79430632 45.33903084 254.85446403 43.5 257 C40.24835372 260.79358733 36.74286906 264.27392647 33.1875 267.78125 C31.20279658 269.79430632 29.33903084 271.85446403 27.5 274 C24.95308392 276.97140209 22.28621141 279.7514401 19.5 282.5 C16.75499458 285.20803565 14.1272909 287.94169249 11.625 290.875 C8.29685865 294.76041153 4.69264303 298.33697227 1.05395508 301.92651367 C-2.24009366 305.1933248 -5.31466808 308.57876379 -8.32421875 312.10546875 C-10.76897472 314.86935371 -13.41081552 317.41984517 -16.0390625 320.0078125 C-17.90478806 321.90327074 -19.64659255 323.85446735 -21.375 325.875 C-24.11621449 329.06682509 -27.00685888 332.04302977 -30 335 C-33.58558699 338.54232199 -36.94891662 342.17555661 -40.22265625 346.00390625 C-42.95099285 349.06803813 -45.89667908 351.90481832 -48.81640625 354.78515625 C-50.77974671 356.77659461 -52.62079669 358.81302578 -54.4375 360.9375 C-57.15619248 364.1103592 -60.02751675 367.06338382 -63 370 C-65.95183025 372.91626603 -68.80388859 375.84605835 -71.5 379 C-74.98452107 383.07623219 -78.78081981 386.79550873 -82.59375 390.5625 C-84.65449345 392.65000635 -86.59515626 394.77169223 -88.5 397 C-91.98452107 401.07623219 -95.78081981 404.79550873 -99.59375 408.5625 C-101.65449345 410.65000635 -103.59515626 412.77169223 -105.5 415 C-108.98452107 419.07623219 -112.78081981 422.79550873 -116.59375 426.5625 C-118.65449345 428.65000635 -120.59515626 430.77169223 -122.5 433 C-125.98452107 437.07623219 -129.78081981 440.79550873 -133.59375 444.5625 C-135.65449345 446.65000635 -137.59515626 448.77169223 -139.5 451 C-142.19611141 454.15394165 -145.04816975 457.08373397 -148 460 C-150.93118191 462.89591958 -153.76403174 465.80242571 -156.4375 468.9375 C-159.74211116 472.80459816 -163.32845304 476.35777845 -166.94628906 479.92675781 C-170.24025803 483.19348513 -173.31474342 486.57885208 -176.32421875 490.10546875 C-178.76897472 492.86935371 -181.41081552 495.41984517 -184.0390625 498.0078125 C-185.90478806 499.90327074 -187.64659255 501.85446735 -189.375 503.875 C-192.90662215 507.98716278 -196.73660954 511.75373381 -200.59375 515.55859375 C-202.66736193 517.66250196 -204.59754125 519.8055737 -206.5 522.0625 C-221.4266511 539.31493162 -242.28156008 550.15469362 -265.02294922 552.18017578 C-285.39438287 553.52287127 -306.30478205 547.60562198 -322.5625 535.0625 C-324.06524815 533.73455068 -325.54477612 532.37986407 -327 531 C-327.825 530.26394531 -328.65 529.52789063 -329.5 528.76953125 C-345.48511283 513.83222307 -354.01356754 493.6940981 -355.16015625 471.96484375 C-355.9511439 441.46023322 -341.81992413 419.01523945 -321.5390625 397.60058594 C-318.23800542 394.16757036 -314.83988842 390.83243255 -311.453125 387.484375 C-308.76954144 384.76660566 -306.2853468 381.93173761 -303.80859375 379.02734375 C-301.63041508 376.58571366 -299.32751992 374.29951968 -297 372 C-294.08946199 369.12442341 -291.27575978 366.24125906 -288.625 363.125 C-285.58569277 359.56713798 -282.32636306 356.28558006 -279 353 C-275.10103905 349.14878387 -271.39175698 345.23578266 -267.83984375 341.05859375 C-265.04302058 337.92923959 -262.03524652 335.01458371 -259.04882812 332.06835938 C-255.79982958 328.84617513 -252.77548608 325.50650526 -249.80859375 322.02734375 C-246.82349884 318.68120064 -243.59117232 315.58406048 -240.40234375 312.43359375 C-238.36285627 310.36757635 -236.444922 308.26994451 -234.5625 306.0625 C-231.69827645 302.71074904 -228.63665907 299.59443583 -225.5 296.5 C-222.38420877 293.42609473 -219.34122762 290.33297855 -216.5 287 C-213.2176661 283.14956985 -209.64745151 279.61854421 -206.04907227 276.06860352 C-202.79999393 272.84633552 -199.77556137 269.50659355 -196.80859375 266.02734375 C-193.8259411 262.6839383 -190.59643308 259.5892363 -187.41015625 256.44140625 C-184.73145468 253.72797273 -182.25391882 250.89222977 -179.77734375 247.99609375 C-177.04900715 244.93196187 -174.10332092 242.09518168 -171.18359375 239.21484375 C-169.22025329 237.22340539 -167.37920331 235.18697422 -165.5625 233.0625 C-162.0553056 228.96941697 -158.24274842 225.22775296 -154.41015625 221.44140625 C-151.73145468 218.72797273 -149.25391882 215.89222977 -146.77734375 212.99609375 C-144.05022777 209.93333273 -141.10595363 207.09776507 -138.1875 204.21875 C-136.20279658 202.20569368 -134.33903084 200.14553597 -132.5 198 C-129.95308392 195.02859791 -127.28621141 192.2485599 -124.5 189.5 C-121.73439592 186.77170593 -119.08712969 184.01483166 -116.5625 181.0625 C-113.05650315 176.97081459 -109.24538109 173.23033117 -105.4140625 169.4453125 C-102.71248706 166.70876521 -100.20921265 163.85020634 -97.7109375 160.9296875 C-95.88200137 158.86691479 -93.96419542 156.9340928 -92 155 C-88.12008577 151.17261846 -84.51893113 147.15945567 -81 143 C-80.24074219 142.17628906 -79.48148438 141.35257813 -78.69921875 140.50390625 C-74.84247772 135.85698598 -72.28449927 130.38824955 -69.5 125.0625 C-68.25329891 122.7111458 -67.00505804 120.36069875 -65.75390625 118.01171875 C-65.4392189 117.41973694 -65.12453156 116.82775513 -64.80030823 116.21783447 C-61.77737805 110.54701301 -58.62285562 104.95569249 -55.4375 99.375 C-51.02679866 91.63421915 -46.72170163 83.84546082 -42.5 76 C-37.73904492 67.15322002 -32.85262299 58.38795245 -27.8815918 49.65771484 C-23.92945483 42.69695032 -20.10091431 35.67601659 -16.3125 28.625 C-11.10647451 18.93951716 -5.6702408 9.42053551 0 0 Z " fill="#000000" transform="translate(959,995)"/>
<path d="M0 0 C0.80159546 0.0027594 1.60319092 0.0055188 2.42907715 0.00836182 C42.47214065 0.26124659 78.39131185 15.68288869 107.55078125 43.01171875 C111.71739178 47.2447824 115.37851532 51.79922186 119 56.5 C120.09248047 57.85158203 120.09248047 57.85158203 121.20703125 59.23046875 C134.9463572 76.67532219 143.91847531 96.97988178 149 118.5 C149.24991699 119.54269043 149.24991699 119.54269043 149.50488281 120.60644531 C158.31579638 159.04245956 149.09017111 200.80571638 128.69335938 234.02172852 C124.31904946 240.94866358 119.3766481 247.32276809 114 253.5 C112.81083984 254.89025391 112.81083984 254.89025391 111.59765625 256.30859375 C87.41151535 283.85710494 52.1799184 300.65576987 16 304.5 C10.45481129 304.80976244 4.92782482 304.88969269 -0.625 304.875 C-1.36779205 304.87478851 -2.11058411 304.87457703 -2.87588501 304.87435913 C-14.96502914 304.8401233 -26.34708852 303.85538926 -38 300.5 C-39.25296875 300.16097656 -40.5059375 299.82195312 -41.796875 299.47265625 C-58.73068312 294.36707676 -74.82730564 286.03152273 -89 275.5 C-89.93585938 274.80648438 -90.87171875 274.11296875 -91.8359375 273.3984375 C-121.07074377 250.50784139 -140.26015452 218.70927712 -148 182.5 C-148.24556641 181.3562793 -148.24556641 181.3562793 -148.49609375 180.18945312 C-156.52085829 141.15991651 -147.30633821 100.82839852 -126 67.5 C-120.37338158 59.26858954 -113.8253891 51.75276153 -107 44.5 C-106.41347656 43.84902344 -105.82695313 43.19804687 -105.22265625 42.52734375 C-78.75761663 14.324993 -37.9902118 -0.2393882 0 0 Z " fill="#000000" transform="translate(1475,180.5)"/>
</svg>
