<?xml version="1.0" encoding="UTF-8"?>
<svg version="1.1" xmlns="http://www.w3.org/2000/svg" width="3082" height="1344">
<path d="M0 0 C1017.06 0 2034.12 0 3082 0 C3082 443.52 3082 887.04 3082 1344 C2064.94 1344 1047.88 1344 0 1344 C0 900.48 0 456.96 0 0 Z " fill="#FEFEFE" transform="translate(0,0)"/>
<path d="M0 0 C9.1642432 9.05110439 9.68490918 25.31117736 10.14453125 37.6171875 C10.1477286 39.87451684 10.12100859 42.12002376 10.0234375 44.375 C10.6834375 44.375 11.3434375 44.375 12.0234375 44.375 C12.53098947 48.06150112 13.02811262 51.74933775 13.5234375 55.4375 C13.66652344 56.47583984 13.80960938 57.51417969 13.95703125 58.58398438 C14.66545455 63.8971591 15.20591903 69.01460518 15.0234375 74.375 C15.6834375 74.375 16.3434375 74.375 17.0234375 74.375 C18.84261124 87.67045067 18.84261124 87.67045067 19.53125 93.83984375 C19.61391113 94.575979 19.69657227 95.31211426 19.78173828 96.07055664 C19.93798242 97.47943685 20.09027509 98.88876337 20.23779297 100.29858398 C20.6325671 103.84766391 21.19752222 107.259617 22.02734375 110.734375 C23.18056508 115.71317606 23.58189987 120.66234124 23.9609375 125.75 C24.53717394 132.74498387 25.28288658 139.64315214 26.4609375 146.5625 C27.99210634 155.56565605 28.99803961 164.60332153 29.93334961 173.6862793 C30.60265664 180.06535957 31.47395602 186.36033592 32.57055664 192.67993164 C33.15443578 196.15456336 33.56648603 199.62377358 33.9609375 203.125 C34.77556172 210.01258098 35.967426 216.78519741 37.296875 223.58984375 C38.15363687 228.05329671 38.88782688 232.53010788 39.59375 237.01953125 C39.99182825 239.51491145 39.99182825 239.51491145 41.0234375 242.375 C41.45606742 246.23919855 41.62954682 250.11800002 41.8359375 254 C41.91263672 255.05574219 41.98933594 256.11148437 42.06835938 257.19921875 C42.43700971 264.36791313 41.46487634 269.11456843 38.0234375 275.375 C37.56195312 276.48359375 37.10046875 277.5921875 36.625 278.734375 C34.62947133 282.02456373 32.858637 282.99772272 29.3984375 284.625 C28.41617187 285.10453125 27.43390625 285.5840625 26.421875 286.078125 C18.80157067 288.9861032 11.04376994 289.81377484 2.9609375 290.5 C1.99994141 290.58636719 1.03894531 290.67273438 0.04882812 290.76171875 C-2.29255698 290.97139503 -4.63427328 291.1757244 -6.9765625 291.375 C-6.85128174 292.22578125 -6.72600098 293.0765625 -6.59692383 293.953125 C-5.98996176 298.09312933 -5.38790981 302.23381492 -4.7890625 306.375 C-4.67773987 307.14420776 -4.56641724 307.91341553 -4.45172119 308.70593262 C-3.08978605 318.15267074 -1.79868978 327.60457947 -0.63671875 337.078125 C-0.5282814 337.9609314 -0.41984406 338.84373779 -0.30812073 339.7532959 C0.21574061 344.03628108 0.73071173 348.3201493 1.23510742 352.60546875 C2.26073445 361.17873654 3.53282779 369.60104253 5.34692383 378.04492188 C6.86776091 385.53110658 7.72229309 393.13424189 8.44921875 400.734375 C9.76207173 414.38339354 12.00762653 427.79713248 14.57397461 441.26391602 C15.5199492 446.28927221 16.28881448 451.19819091 16.5859375 456.3125 C16.76927045 460.28504219 16.76927045 460.28504219 17.53491211 464.16235352 C18.16612326 467.02125738 18.11772751 469.7003188 18.0859375 472.625 C18.07691406 473.70265625 18.06789063 474.7803125 18.05859375 475.890625 C18.04119141 477.12039063 18.04119141 477.12039063 18.0234375 478.375 C18.83586251 478.37348112 19.64828752 478.37196224 20.48533148 478.37039733 C68.67682355 478.2808112 116.86830677 478.21221648 165.0598655 478.17073868 C170.85118977 478.16573608 176.64251387 478.16055877 182.43383789 478.15527344 C183.58674653 478.1542242 184.73965517 478.15317495 185.92750043 478.15209392 C204.57520419 478.1347067 223.22285844 478.10317829 241.87053286 478.06638882 C261.01641197 478.02893254 280.1622652 478.00675424 299.30817944 477.99864602 C311.11444505 477.99316797 322.92057067 477.97588973 334.72679318 477.94333413 C342.83175197 477.92212836 350.93663879 477.91581364 359.04162329 477.92099449 C363.71206478 477.92354685 368.3822623 477.91973958 373.05265999 477.8981781 C377.33987434 477.87853158 381.62668359 477.87784561 385.91391767 477.89140442 C387.45392208 477.89307702 388.99395311 477.88815712 390.53390615 477.87546727 C401.54378594 477.79011623 411.40777159 479.46505359 422.0234375 482.375 C422.0234375 483.035 422.0234375 483.695 422.0234375 484.375 C422.63832031 484.57996094 423.25320313 484.78492188 423.88671875 484.99609375 C427.265625 486.12239583 430.64453125 487.24869792 434.0234375 488.375 C434.0234375 489.035 434.0234375 489.695 434.0234375 490.375 C434.60609375 490.47087402 435.18875 490.56674805 435.7890625 490.66552734 C438.5106603 491.52970602 439.75461234 492.71868654 441.7734375 494.7265625 C442.464375 495.41363281 443.1553125 496.10070312 443.8671875 496.80859375 C444.57875 497.53175781 445.2903125 498.25492188 446.0234375 499 C446.735 499.69996094 447.4465625 500.39992188 448.1796875 501.12109375 C452.33100914 505.2956504 455.34077889 509.14142048 458.0234375 514.375 C458.66345703 515.42558594 459.30347656 516.47617187 459.96289062 517.55859375 C469.02930589 533.46998546 467.74602218 552.99032943 467.54162598 570.67584229 C467.51712315 573.47006955 467.52293122 576.26391509 467.52889252 579.058218 C467.53270036 582.42175477 467.51191575 585.78495385 467.4921875 589.1484375 C467.49198608 590.38902924 467.49178467 591.62962097 467.49157715 592.9078064 C467.34382342 603.64454623 467.34382342 603.64454623 464.0234375 608.375 C459.04879752 612.97654199 455.52804389 613.50024294 448.87635517 613.5136652 C448.14013946 613.51650742 447.40392375 613.51934964 446.64539847 613.52227798 C444.15903971 613.53065192 441.67272739 613.5318953 439.18635559 613.53321838 C437.39360194 613.5377819 435.60084935 613.54278161 433.80809802 613.54818195 C428.86659537 613.56179645 423.92509962 613.56919098 418.98358309 613.57560861 C413.66046946 613.58359804 408.33737025 613.59730081 403.01426697 613.61032104 C393.78658817 613.63210451 384.55890792 613.65024215 375.33121681 613.66592598 C361.98940998 613.68860759 348.64761911 613.71675277 335.30582579 613.74624526 C313.66132905 613.79394215 292.0168258 613.83720064 270.37231445 613.87768555 C249.3426869 613.91702981 228.31306514 613.95845346 207.28344727 614.00268555 C205.98787936 614.00540982 204.69231145 614.00813409 203.3574839 614.01094092 C196.85820881 614.02462022 190.3589338 614.03834053 183.85965884 614.05208123 C129.91426381 614.16607894 75.96885623 614.272881 22.0234375 614.375 C21.32578467 619.09543829 20.63464372 623.81677261 19.94900513 628.53897095 C19.71588297 630.13854424 19.48111516 631.73787873 19.24453735 633.33694458 C17.74692509 643.46878653 16.54315292 653.52261491 15.8984375 663.75 C15.41941089 671.06970692 14.6972135 677.8448673 12.75 684.9453125 C11.49355666 690.87626547 11.13724391 696.91490691 10.66992188 702.95214844 C10.59837891 703.86770508 10.52683594 704.78326172 10.453125 705.7265625 C10.39366699 706.54979004 10.33420898 707.37301758 10.27294922 708.22119141 C10.0234375 710.375 10.0234375 710.375 9.0234375 713.375 C8.74872105 716.72828488 8.57838688 720.0816044 8.40234375 723.44140625 C8.11028467 726.47340107 7.67677231 729.22841585 7.046875 732.19140625 C5.78923634 738.19064411 5.34713476 744.18122064 4.90039062 750.28515625 C4.40252898 756.42993507 3.57160137 762.47599567 2.6171875 768.5625 C0.78636886 780.33026973 -0.37649007 792.15073931 -1.5390625 804 C-1.95138046 808.20110796 -2.3702312 812.40149162 -2.79296875 816.6015625 C-2.88260391 817.53714996 -2.97223907 818.47273743 -3.06459045 819.43667603 C-3.60422156 824.79108566 -4.41617139 829.99664619 -5.55397034 835.25764465 C-6.09886086 837.98776357 -6.25429093 840.65777786 -6.3515625 843.4375 C-6.75870028 850.23299961 -7.79304222 856.8505173 -8.9140625 863.5625 C-10.32988811 872.03972418 -11.50728467 880.47541932 -12.32568359 889.03027344 C-12.8329681 894.26727351 -13.60525031 899.40619802 -14.5390625 904.5859375 C-15.17920911 908.66687217 -15.46236627 912.7588825 -15.73046875 916.87890625 C-15.9765625 919.375 -15.9765625 919.375 -16.9765625 922.375 C-17.16057266 923.72598911 -17.3062284 925.08244088 -17.42553711 926.44067383 C-17.4990892 927.25615189 -17.5726413 928.07162994 -17.64842224 928.91181946 C-17.72448196 929.79298935 -17.80054169 930.67415924 -17.87890625 931.58203125 C-17.96153214 932.49901291 -18.04415802 933.41599457 -18.12928772 934.36076355 C-18.48209954 938.27739197 -18.82662913 942.19473765 -19.17163086 946.11206055 C-20.15758325 957.25266465 -21.20966918 968.32571193 -22.9765625 979.375 C-23.6365625 979.375 -24.2965625 979.375 -24.9765625 979.375 C-24.9765625 980.695 -24.9765625 982.015 -24.9765625 983.375 C-25.6365625 983.375 -26.2965625 983.375 -26.9765625 983.375 C-27.2653125 983.9525 -27.5540625 984.53 -27.8515625 985.125 C-28.89322917 987.20833333 -29.93489583 989.29166667 -30.9765625 991.375 C-31.9665625 991.375 -32.9565625 991.375 -33.9765625 991.375 C-33.9765625 992.035 -33.9765625 992.695 -33.9765625 993.375 C-42.08705908 993.46784297 -50.19733215 993.53883673 -58.30822945 993.58224869 C-62.07481841 993.60308854 -65.84104274 993.63133908 -69.60742188 993.67675781 C-73.24492837 993.72034598 -76.88208503 993.74416419 -80.51983261 993.75450897 C-81.90489074 993.76187726 -83.28993057 993.77626605 -84.67483902 993.79792023 C-98.19384641 994.00081824 -98.19384641 994.00081824 -102.9765625 989.375 C-104.3515625 987.125 -104.3515625 987.125 -104.9765625 985.375 C-105.9665625 985.375 -106.9565625 985.375 -107.9765625 985.375 C-108.03516107 982.02090806 -108.07035832 978.66694983 -108.1015625 975.3125 C-108.11832031 974.36955078 -108.13507813 973.42660156 -108.15234375 972.45507812 C-108.19049663 966.98014032 -107.56336028 962.64669484 -105.9765625 957.375 C-105.50595549 953.71899425 -105.24335863 950.05085782 -104.9765625 946.375 C-104.51873419 940.06714335 -103.75583546 934.46614011 -101.9765625 928.375 C-101.68355393 924.9887532 -101.51932685 921.64196802 -101.41015625 918.24804688 C-101.21854686 913.911843 -100.33939496 910.46349738 -98.9765625 906.375 C-98.6613446 903.4709092 -98.42052538 900.59947688 -98.2265625 897.6875 C-97.32772562 886.17753486 -95.68483802 874.79584981 -94.0390625 863.375 C-92.00589504 849.24124631 -90.17428453 835.1373484 -88.91430664 820.91210938 C-88.45084168 815.74201875 -87.89781482 810.65252775 -86.99609375 805.5390625 C-85.60640651 797.61393065 -84.95636523 789.61523783 -84.22387695 781.60864258 C-84.03955143 779.6098553 -83.84994772 777.61155693 -83.66015625 775.61328125 C-83.55243896 774.43805908 -83.44472168 773.26283691 -83.33374023 772.05200195 C-82.9765625 769.375 -82.9765625 769.375 -81.9765625 768.375 C-81.62583888 765.90315177 -81.33208156 763.44686503 -81.07421875 760.96484375 C-80.99159286 760.20514786 -80.90896698 759.44545197 -80.82383728 758.66273499 C-80.55811803 756.21308141 -80.29832385 753.76284474 -80.0390625 751.3125 C-79.69857903 748.13390128 -79.35561543 744.95557486 -79.01171875 741.77734375 C-78.92680679 740.98940933 -78.84189484 740.20147491 -78.75440979 739.3896637 C-78.04675714 732.8805396 -77.2424684 726.38635408 -76.41625977 719.89135742 C-75.7654644 714.68680122 -75.21230388 709.47343445 -74.67773438 704.25585938 C-74.34525913 701.14268206 -73.97016942 698.35582077 -72.9765625 695.375 C-72.62786925 692.55175677 -72.31751523 689.73647861 -72.0390625 686.90625 C-71.95333984 686.06276001 -71.86761719 685.21927002 -71.77929688 684.35021973 C-71.59907853 682.57524994 -71.42023181 680.80014042 -71.24267578 679.02490234 C-70.99086024 676.51737396 -70.73315912 674.01054537 -70.47265625 671.50390625 C-67.89045383 646.64898779 -67.89045383 646.64898779 -65.7890625 621.75 C-65.71751953 620.80189453 -65.64597656 619.85378906 -65.57226562 618.87695312 C-65.34904749 615.71072309 -65.15907981 612.54384814 -64.9765625 609.375 C-64.9338623 608.68301514 -64.89116211 607.99103027 -64.84716797 607.27807617 C-63.81585085 590.1738822 -63.82161946 573.07011223 -63.84619141 555.94238281 C-63.85190761 551.91980509 -63.84848783 547.89729323 -63.84275436 543.87471771 C-61.82819108 518.90829752 -61.82819108 518.90829752 -65.9765625 495.375 C-66.16269084 493.77524329 -66.29773212 492.16938804 -66.40625 490.5625 C-66.47787354 489.57813965 -66.54949707 488.5937793 -66.62329102 487.57958984 C-66.69862061 486.5220752 -66.7739502 485.46456055 -66.8515625 484.375 C-67.48941735 476.00120657 -68.43558228 467.8134115 -69.9387207 459.55395508 C-70.94285718 453.93323208 -71.40888939 448.37108025 -71.73046875 442.66796875 C-72.05936001 438.26709044 -72.79567551 433.96818657 -73.515625 429.6171875 C-73.97314338 426.39904972 -74.18812874 423.24532756 -74.3515625 420 C-74.72781133 414.03840219 -75.63852578 408.30776458 -76.7265625 402.4375 C-78.71443403 391.627697 -80.16657017 380.77616684 -81.5390625 369.875 C-81.64648773 369.02406769 -81.75391296 368.17313538 -81.86459351 367.29641724 C-82.7280244 360.44620648 -83.57846375 353.59440726 -84.42578125 346.7421875 C-85.67855275 336.64559343 -87.07151919 326.63191623 -88.9140625 316.625 C-90.74223961 306.66808905 -91.93552282 296.68198166 -93.0390625 286.625 C-94.62152326 272.1581836 -94.62152326 272.1581836 -96.6640625 257.75 C-96.78338135 256.98719727 -96.9027002 256.22439453 -97.02563477 255.43847656 C-97.35579169 252.11993091 -97.35579169 252.11993091 -98.9765625 249.375 C-99.19243252 247.62124345 -99.34773719 245.85994622 -99.4765625 244.09765625 C-99.5590625 243.02708984 -99.6415625 241.95652344 -99.7265625 240.85351562 C-99.8090625 239.72623047 -99.8915625 238.59894531 -99.9765625 237.4375 C-100.1394251 235.21976945 -100.30591035 233.00230101 -100.4765625 230.78515625 C-100.54875 229.79652588 -100.6209375 228.80789551 -100.6953125 227.78930664 C-100.83851658 225.36716271 -100.83851658 225.36716271 -101.9765625 223.375 C-102.24337633 221.60961524 -102.46374592 219.8370974 -102.66015625 218.0625 C-102.78326172 216.98613281 -102.90636719 215.90976562 -103.03320312 214.80078125 C-103.2836299 212.54822449 -103.53364194 210.29562157 -103.78320312 208.04296875 C-104.33938148 203.18433293 -104.91618122 198.3856096 -105.94140625 193.6015625 C-107.31293931 187.11413902 -108.05071186 180.53927975 -108.83642578 173.9609375 C-109.10197493 171.74656079 -109.37680084 169.53346529 -109.65234375 167.3203125 C-109.82607951 165.88808849 -109.99927518 164.45579884 -110.171875 163.0234375 C-110.32672363 161.74645996 -110.48157227 160.46948242 -110.64111328 159.15380859 C-110.99316073 155.1880223 -111.03337097 151.35324746 -110.9765625 147.375 C-111.6365625 147.375 -112.2965625 147.375 -112.9765625 147.375 C-114.6104102 140.3007871 -115.53041773 133.21403302 -116.27880859 126.00219727 C-116.36685078 122.38362585 -116.36685078 122.38362585 -117.9765625 119.375 C-118.31529679 116.76899909 -118.59695114 114.1776613 -118.84375 111.5625 C-119.00902513 109.91144938 -119.17439305 108.26040804 -119.33984375 106.609375 C-119.59412625 104.01908397 -119.84639264 101.4286179 -120.09619141 98.83789062 C-121.09724354 88.52645184 -122.35824861 78.36483259 -124.29125977 68.18408203 C-125.2408141 62.90622427 -125.87884132 57.61524601 -126.50390625 52.2890625 C-126.97473062 48.39016975 -127.5356674 44.51107681 -128.1015625 40.625 C-128.40880026 38.21026354 -128.70129759 35.79358976 -128.9765625 33.375 C-129.09902344 32.30121094 -129.22148438 31.22742188 -129.34765625 30.12109375 C-129.77337073 23.31835011 -128.58453295 18.83961748 -124.24609375 13.5 C-116.19248953 5.95927592 -105.08532692 5.43498674 -94.62890625 4.1953125 C-87.25974255 3.31784019 -79.92915603 2.21067592 -72.59359741 1.09155273 C-70.37834002 0.7540793 -68.16249427 0.42070825 -65.9465332 0.08789062 C-64.5684883 -0.12087055 -63.19047573 -0.32984524 -61.8125 -0.5390625 C-60.59095215 -0.7242041 -59.3694043 -0.9093457 -58.11083984 -1.10009766 C-55.67975162 -1.50723582 -53.36071536 -2.0224156 -50.9765625 -2.625 C-49.22769269 -2.69124507 -47.47653502 -2.71052595 -45.7265625 -2.6875 C-44.83453125 -2.67847656 -43.9425 -2.66945312 -43.0234375 -2.66015625 C-42.34796875 -2.64855469 -41.6725 -2.63695312 -40.9765625 -2.625 C-40.9765625 -3.285 -40.9765625 -3.945 -40.9765625 -4.625 C-10.31839407 -8.48310659 -10.31839407 -8.48310659 0 0 Z " fill="#010101" transform="translate(1397.9765625,179.625)"/>
<path d="M0 0 C28.38 0 56.76 0 86 0 C86.45375 6.744375 86.9075 13.48875 87.375 20.4375 C88.20208165 32.71768894 89.0466657 44.98909615 90.125 57.25 C91.09340733 68.3628869 91.4115161 79.48530799 91.65869141 90.63378906 C91.6901123 91.93799805 91.7215332 93.24220703 91.75390625 94.5859375 C91.77783447 95.7517334 91.8017627 96.9175293 91.82641602 98.11865234 C91.87955825 101.06968541 91.87955825 101.06968541 93 104 C93.28014783 106.88471597 93.51717037 109.75814968 93.71875 112.6484375 C93.81295227 113.92275131 93.81295227 113.92275131 93.90905762 115.22280884 C94.10968796 117.93995347 94.30533795 120.6574217 94.5 123.375 C94.69490739 126.08541592 94.89098741 128.79571936 95.09094238 131.50576782 C95.21529492 133.19172575 95.33675788 134.87789997 95.45495605 136.56430054 C95.78362402 141.03527394 95.78362402 141.03527394 96.52734375 145.44970703 C97.2806374 149.51422432 97.21895856 153.5932819 97.28125 157.71875 C97.29965942 158.65424683 97.31806885 159.58974365 97.33703613 160.55358887 C97.41542779 164.54424018 97.48333884 168.5350544 97.55224609 172.52587891 C97.60413332 175.44441622 97.66131884 178.36281736 97.71875 181.28125 C97.73232544 182.18033081 97.74590088 183.07941162 97.7598877 184.0057373 C97.84186534 188.14629961 98.09776249 191.94565831 99 196 C99.13053031 197.88713857 99.22199265 199.77724965 99.28125 201.66796875 C99.33732422 203.25448242 99.33732422 203.25448242 99.39453125 204.87304688 C99.46521627 207.09438922 99.53552487 209.31574357 99.60546875 211.53710938 C99.66154297 213.11782227 99.66154297 213.11782227 99.71875 214.73046875 C99.74904297 215.69364014 99.77933594 216.65681152 99.81054688 217.64916992 C99.8541484 220.01989641 99.8541484 220.01989641 101 222 C101.13956585 223.48468566 101.22540334 224.97465876 101.28125 226.46484375 C101.31863281 227.34720703 101.35601563 228.22957031 101.39453125 229.13867188 C101.44673828 230.5240918 101.44673828 230.5240918 101.5 231.9375 C101.56893872 233.75926946 101.64169401 235.58089957 101.71875 237.40234375 C101.74904297 238.21179443 101.77933594 239.02124512 101.81054688 239.85522461 C101.93289495 242.18456286 101.93289495 242.18456286 103 245 C103.46487593 248.67421472 103.71210454 252.37063123 104 256.0625 C104.13245117 257.72369873 104.13245117 257.72369873 104.26757812 259.41845703 C104.9578342 268.49788092 105.318104 277.57066853 105.60327148 286.67041016 C105.82661538 293.1400525 106.28954283 299.51145186 107.0625 305.9375 C107.8324997 312.42789745 108.21424851 318.83749502 108.25 325.375 C108.259104 326.16640381 108.26820801 326.95780762 108.27758789 327.77319336 C108.25041142 332.88514367 107.81661719 336.71278282 104.59765625 340.765625 C104.09105469 341.25546875 103.58445312 341.7453125 103.0625 342.25 C102.55847656 342.75015625 102.05445313 343.2503125 101.53515625 343.765625 C98.44839954 346.24759731 95.34306759 346.13900997 91.55395508 346.17700195 C90.43882034 346.18983719 89.32368561 346.20267242 88.17475891 346.21589661 C86.36542122 346.22697701 86.36542122 346.22697701 84.51953125 346.23828125 C83.27757492 346.246353 82.03561859 346.25442474 80.75602722 346.26274109 C78.12401602 346.27658308 75.49213009 346.28759843 72.86010742 346.29516602 C70.17042286 346.30401206 67.48125728 346.32485271 64.79174805 346.35668945 C60.90918405 346.39939169 57.02730104 346.41554094 53.14453125 346.42578125 C51.94842728 346.44328934 50.7523233 346.46079742 49.51997375 346.47883606 C42.52510708 346.46074071 37.93774828 345.78574787 32 342 C29 338.8125 29 338.8125 29 336 C28.34 336 27.68 336 27 336 C26.68454181 334.33389071 26.37281161 332.6670755 26.0625 331 C25.88847656 330.071875 25.71445313 329.14375 25.53515625 328.1875 C24.24086615 320.47844366 23.82844513 312.99191377 23.625 305.1875 C23.29456932 294.97084319 22.44928036 284.9170955 21.22924805 274.77148438 C19.90447618 263.636693 18.97470701 252.47982224 18.09033203 241.30297852 C17.46847223 233.59092295 16.60388661 225.9640831 15.45727539 218.30932617 C14.72259122 212.99237802 14.34561914 207.6668474 14 202.3125 C13.91878906 201.11423584 13.83757812 199.91597168 13.75390625 198.68139648 C13.24330073 190.80677925 12.84631708 182.93035632 12.5 175.046875 C12.4580249 174.09971115 12.4160498 173.1525473 12.37280273 172.17668152 C12.16572045 167.46817804 11.96801494 162.75955538 11.78515625 158.05004883 C11.43362993 149.45719949 10.82876295 141.10753288 9.47705078 132.60327148 C8.47440484 125.03006196 8.27995909 117.37661608 7.9375 109.75 C7.82168917 107.22527576 7.70391361 104.70070501 7.58070374 102.17633057 C7.50495607 100.62067515 7.4335165 99.06480241 7.3669281 97.50872803 C7.24141021 93.62620701 7.24141021 93.62620701 6 90 C5.8726473 88.67023002 5.79816194 87.33512109 5.75390625 86 C5.72103516 85.19433594 5.68816406 84.38867188 5.65429688 83.55859375 C5.59422364 81.88421207 5.53682567 80.20973173 5.48242188 78.53515625 C5.2674369 73.39985481 4.57188553 68.62368541 3.49243164 63.60351562 C2.59472595 58.85729176 2.28858399 54.06242884 1.9375 49.25 C1.85516113 48.1674292 1.77282227 47.0848584 1.68798828 45.96948242 C1.15670719 38.75510604 0.71741371 31.5382583 0.375 24.3125 C0.3349585 23.4781543 0.29491699 22.64380859 0.25366211 21.78417969 C-0.05470719 14.50637812 0 7.30476906 0 0 Z " fill="#020202" transform="translate(1754,827)"/>
<path d="M0 0 C49.08900865 -0.02287505 98.17801676 -0.04050265 147.26702968 -0.05106533 C153.05879779 -0.05231608 158.85056589 -0.0536104 164.64233398 -0.05493164 C166.37193261 -0.05532511 166.37193261 -0.05532511 168.13647262 -0.05572652 C186.82135788 -0.06008111 205.50624007 -0.06796751 224.19112351 -0.0771528 C243.35502776 -0.08649519 262.5189304 -0.09205686 281.68283683 -0.09408849 C293.51364761 -0.0954625 305.34444972 -0.09980651 317.17525784 -0.10791647 C325.28151704 -0.11319114 333.38777173 -0.11480264 341.49403252 -0.11350138 C346.17504884 -0.11285913 350.85604997 -0.11386277 355.5370636 -0.11920547 C359.81982873 -0.12405808 364.10256842 -0.12432632 368.38533471 -0.12089889 C369.93723087 -0.12047504 371.4891286 -0.12175509 373.04102167 -0.12488318 C375.14619773 -0.12888083 377.25128124 -0.1267423 379.3564558 -0.12304783 C380.52713358 -0.12342755 381.69781136 -0.12380727 382.90396422 -0.1241985 C385.72364493 -0.01108607 388.25928051 0.35279346 391 1 C391 1.33 391 1.66 391 2 C390.23762465 2.00331015 389.47524929 2.00662029 388.68977165 2.01003075 C370.13621879 2.09126462 351.58274889 2.18335839 333.02931023 2.28752708 C324.05699237 2.3376407 315.0846836 2.38408379 306.11230469 2.421875 C298.29163396 2.4548246 290.47103394 2.49467226 282.65044129 2.54279006 C278.50982162 2.56802552 274.36924869 2.58981553 270.22857285 2.60334396 C266.32978593 2.61619112 262.43115953 2.63827409 258.53246117 2.66738319 C257.10304819 2.67643823 255.67360939 2.68214436 254.24416924 2.68421364 C252.28879055 2.68755068 250.33344834 2.70423014 248.37814331 2.7215271 C246.73827359 2.72982324 246.73827359 2.72982324 245.06527519 2.73828697 C241.77519438 3.01919389 239.09258382 3.87404281 236 5 C233.78010559 5.24050903 233.78010559 5.24050903 231.69458008 5.22705078 C230.90388626 5.22689972 230.11319244 5.22674866 229.29853821 5.22659302 C228.46396591 5.21627045 227.62939362 5.20594788 226.76953125 5.1953125 C225.46117561 5.19106766 225.46117561 5.19106766 224.12638855 5.18673706 C221.35494922 5.17559862 218.58384043 5.15052455 215.8125 5.125 C213.93815577 5.11496032 212.0638064 5.1058362 210.18945312 5.09765625 C206.76531421 5.08134653 203.3412972 5.06003138 199.91723633 5.03173828 C197.61154229 5.01305706 195.30576971 5 193 5 C192.29875 4.814375 191.5975 4.62875 190.875 4.4375 C190.25625 4.293125 189.6375 4.14875 189 4 C188.67 4.33 188.34 4.66 188 5 C186.07332493 5.08748207 184.14348139 5.10697334 182.21484375 5.09765625 C181.04501953 5.09443359 179.87519531 5.09121094 178.66992188 5.08789062 C177.43822266 5.07951172 176.20652344 5.07113281 174.9375 5.0625 C173.08415039 5.05573242 173.08415039 5.05573242 171.19335938 5.04882812 C168.12885883 5.03699608 165.06445279 5.02051173 162 5 C162 4.34 162 3.68 162 3 C108.54 2.67 55.08 2.34 0 2 C0 1.34 0 0.68 0 0 Z " fill="#262626" transform="translate(1417,658)"/>
<path d="M0 0 C0.33 0 0.66 0 1 0 C1.1941739 8.62897039 0.62384338 16.99529127 -0.375 25.5625 C-0.65259828 28.03382559 -0.92994127 30.50517987 -1.20703125 32.9765625 C-1.34318848 34.17313477 -1.4793457 35.36970703 -1.61962891 36.60253906 C-2.04759989 40.42516054 -2.43996597 44.2504756 -2.82470703 48.07763672 C-3.51594536 54.93750296 -4.39244708 61.7168271 -5.50390625 68.5234375 C-6.12263056 72.85937948 -6.53047219 77.20238136 -6.9375 81.5625 C-7.65824158 89.24580867 -8.67593474 96.83702078 -9.89208984 104.45654297 C-10.998994 111.55111118 -11.7129376 118.65999467 -12.265625 125.81835938 C-12.44307289 127.88579465 -12.71250953 129.94497552 -13 132 C-13.66 132.33 -14.32 132.66 -15 133 C-15.26122313 125.72928965 -14.87665563 118.60130594 -14.125 111.375 C-14.04652832 110.60051514 -13.96805664 109.82603027 -13.88720703 109.02807617 C-13.44644048 105.01337811 -12.83542762 101.11726913 -11.96875 97.171875 C-10.77264101 91.42586123 -10.55373561 85.72859118 -10.375 79.875 C-10.33632812 78.823125 -10.29765625 77.77125 -10.2578125 76.6875 C-10.16463659 74.12516244 -10.07882618 71.56281221 -10 69 C-9.34 69 -8.68 69 -8 69 C-7.95101563 67.94941406 -7.90203125 66.89882813 -7.8515625 65.81640625 C-7.77643721 64.39841649 -7.70089378 62.98044884 -7.625 61.5625 C-7.57859375 60.53092773 -7.57859375 60.53092773 -7.53125 59.47851562 C-7.32187312 55.72717988 -6.87786733 52.22797607 -5.98828125 48.57421875 C-4.85054831 43.78737777 -4.67706692 39.15298664 -4.5625 34.25 C-4.31275941 27.20068157 -3.51643592 20.76524894 -1.69921875 13.921875 C-0.60041132 9.33021041 -0.27335827 4.7036475 0 0 Z " fill="#BCBCBC" transform="translate(1330,816)"/>
<path d="M0 0 C0.33 0 0.66 0 1 0 C1.06058594 0.69867187 1.12117188 1.39734375 1.18359375 2.1171875 C1.26738281 3.02726563 1.35117188 3.93734375 1.4375 4.875 C1.51871094 5.77992188 1.59992188 6.68484375 1.68359375 7.6171875 C1.86989285 10.01110861 1.86989285 10.01110861 3 12 C4.77591186 28.6745389 4.19775817 45.65806594 4.18867874 62.40803528 C4.1874915 64.82984555 4.18803408 67.25165151 4.18869019 69.67346191 C4.18734154 92.83263767 3.89045683 115.90429235 2 139 C1.90444824 140.17626953 1.80889648 141.35253906 1.71044922 142.56445312 C1.47854496 145.37675244 1.24210677 148.18856363 1 151 C0.67 151 0.34 151 0 151 C-0.12113386 141.94187911 0.01516435 132.91558729 0.35488892 123.86329651 C0.99650112 106.59308445 1.15703801 89.34124077 1.13037109 72.06030273 C1.1245969 68.27263559 1.12802632 64.48503818 1.13394356 60.69737339 C1.13759348 57.70207715 1.13639177 54.70679694 1.13381577 51.71150017 C1.13316272 50.31522551 1.13391586 48.91894925 1.13629532 47.52267647 C1.14793413 38.80880128 0.83740096 30.17774535 0.22361755 21.48985291 C-0.06493099 16.98666457 -0.11466362 12.51014661 -0.0625 8 C-0.05798828 7.21367188 -0.05347656 6.42734375 -0.04882812 5.6171875 C-0.03741086 3.74475574 -0.0195038 1.87236499 0 0 Z " fill="#B8B8B7" transform="translate(1331,665)"/>
<path d="M0 0 C0.33 0 0.66 0 1 0 C0.61430421 14.96542282 -0.58317696 29.66703692 -2.54101562 44.50585938 C-3.044784 48.34093014 -3.53122197 52.17807496 -4.015625 56.015625 C-6.72185676 77.3563211 -6.72185676 77.3563211 -8.09375 85.8984375 C-8.85589378 90.75955873 -9.27561392 95.45954993 -9.4375 100.375 C-9.78634205 108.47092634 -11.17378834 116.10938736 -13 124 C-13.33 124 -13.66 124 -14 124 C-13.55856249 114.06004513 -12.65696531 104.2008747 -11.5625 94.3125 C-11.44028076 93.19770264 -11.31806152 92.08290527 -11.19213867 90.93432617 C-10.56343448 85.3773001 -9.84301026 79.85210045 -8.96875 74.328125 C-8.08093237 68.70923528 -7.4452249 63.10194384 -6.9375 57.4375 C-6.78275289 55.72760841 -6.62530392 54.01795868 -6.46484375 52.30859375 C-6.399021 51.57439209 -6.33319824 50.84019043 -6.26538086 50.08374023 C-5.99915576 47.99337114 -5.51403269 46.04123125 -5 44 C-4.69815782 40.40723961 -4.49274045 36.81395808 -4.28125 33.21484375 C-4 30 -4 30 -3 27 C-2.79785824 25.3607567 -2.63593241 23.71636908 -2.5 22.0703125 C-2.4175 21.10996094 -2.335 20.14960937 -2.25 19.16015625 C-2.1675 18.15855469 -2.085 17.15695312 -2 16.125 C-1.83590948 14.14822197 -1.66932469 12.17164907 -1.5 10.1953125 C-1.39171875 8.88071045 -1.39171875 8.88071045 -1.28125 7.53955078 C-0.99815244 4.98331739 -0.54153126 2.51304349 0 0 Z " fill="#A6A5A4" transform="translate(1410,863)"/>
<path d="M0 0 C1.485 0.99 1.485 0.99 3 2 C3.38476562 4.3972168 3.38476562 4.3972168 3.40625 7.44921875 C3.42623047 8.59181152 3.44621094 9.7344043 3.46679688 10.91162109 C3.47775391 12.15766113 3.48871094 13.40370117 3.5 14.6875 C3.55435061 17.34040623 3.61404396 19.99218126 3.6875 22.64453125 C3.70647339 23.3305542 3.72544678 24.01657715 3.74499512 24.72338867 C3.98403222 32.14348068 4.72014152 39.49258522 5.5 46.875 C6.57858029 57.15172327 7.39458103 67.36716502 7.70898438 77.69677734 C7.8694246 82.86706148 8.32171252 87.87214664 9 93 C9.34902308 98.73047202 9.26530402 103.61990296 7 109 C5.80870267 104.79806492 5.97570225 100.76735538 6.0625 96.4375 C6.13217739 89.85957792 5.85688178 83.46665565 5.0625 76.9375 C4.15520392 69.41506168 3.73730812 61.94754123 3.5 54.375 C3.20793047 45.24969061 2.72569352 36.16412695 2 27.0625 C1.91685547 25.99628418 1.83371094 24.93006836 1.74804688 23.83154297 C1.32178935 18.3301192 1.32178935 18.3301192 0 13 C-0.06937062 10.77181559 -0.08457084 8.54165476 -0.0625 6.3125 C-0.05347656 5.13300781 -0.04445313 3.95351562 -0.03515625 2.73828125 C-0.02355469 1.83464844 -0.01195312 0.93101563 0 0 Z " fill="#C0C0BF" transform="translate(1855,1056)"/>
<path d="M0 0 C0.66 0.33 1.32 0.66 2 1 C4.08877543 7.61445553 5.21969116 15.34092653 3 22 C3.66 22 4.32 22 5 22 C5.79459715 25.88550718 6.52320525 29.77752351 7.1875 33.6875 C7.38730469 34.82574219 7.58710937 35.96398437 7.79296875 37.13671875 C7.86128906 38.08160156 7.92960937 39.02648437 8 40 C7.34 40.66 6.68 41.32 6 42 C5.60235737 43.98821313 5.26224651 45.98944339 5 48 C4.67 48 4.34 48 4 48 C2.39956393 39.09479759 1.2534824 30.18477504 0.3125 21.1875 C0.17005859 19.91712891 0.02761719 18.64675781 -0.11914062 17.33789062 C-0.24869141 16.10619141 -0.37824219 14.87449219 -0.51171875 13.60546875 C-0.62990967 12.50356201 -0.74810059 11.40165527 -0.86987305 10.26635742 C-1.01115056 6.72010625 -0.60002442 3.49162853 0 0 Z " fill="#080908" transform="translate(1305,448)"/>
<path d="M0 0 C0.33 0 0.66 0 1 0 C2.62442943 8.53366927 4.2207765 17.06195579 5.5703125 25.64453125 C5.96839075 28.13991145 5.96839075 28.13991145 7 31 C7.14889747 32.84466442 7.2479101 34.69357275 7.31640625 36.54296875 C7.35830078 37.61611328 7.40019531 38.68925781 7.44335938 39.79492188 C7.48267578 40.91447266 7.52199219 42.03402344 7.5625 43.1875 C7.60568359 44.31865234 7.64886719 45.44980469 7.69335938 46.61523438 C7.79949099 49.41003354 7.90154385 52.20492162 8 55 C7.01 55.495 7.01 55.495 6 56 C6 51.38 6 46.76 6 42 C5.34 42 4.68 42 4 42 C4 44.64 4 47.28 4 50 C3.67 50 3.34 50 3 50 C2.66254646 47.60468244 2.3299171 45.20885732 2 42.8125 C1.90460938 42.13896484 1.80921875 41.46542969 1.7109375 40.77148438 C1.21675387 37.15335423 0.88653869 33.65203599 1 30 C1.33 30 1.66 30 2 30 C2.21065469 23.18883177 1.9723283 16.9816823 0.4453125 10.3359375 C-0.22041935 6.84376519 -0.13130177 3.54514767 0 0 Z " fill="#3D3D3B" transform="translate(1432,391)"/>
<path d="M0 0 C0.33 0 0.66 0 1 0 C2.81917374 13.29545067 2.81917374 13.29545067 3.5078125 19.46484375 C3.59047363 20.200979 3.67313477 20.93711426 3.75830078 21.69555664 C3.91454492 23.10443685 4.06683759 24.51376337 4.21435547 25.92358398 C4.60754462 29.45841469 5.16727229 32.85920505 5.9921875 36.3203125 C7.19330075 41.5091663 7.67846413 46.70013163 8.125 52 C8.21136719 52.93328125 8.29773437 53.8665625 8.38671875 54.828125 C8.89244688 60.57576535 9.08275621 66.23071012 9 72 C8.67 72 8.34 72 8 72 C6.93213938 64.59754871 5.96325371 57.2848868 5.5625 49.8125 C5.16099761 43.29180381 3.82314018 37.26059457 2 31 C1.34 32.32 0.68 33.64 0 35 C-0.33848652 33.10507994 -0.67056911 31.20901534 -1 29.3125 C-1.185625 28.25675781 -1.37125 27.20101563 -1.5625 26.11328125 C-1.95068074 23.35095938 -2.08259976 20.78257957 -2 18 C-1.34 18.33 -0.68 18.66 0 19 C0 12.73 0 6.46 0 0 Z " fill="#4C4B4B" transform="translate(1414,254)"/>
<path d="M0 0 C2.57009706 2.57009706 2.35523647 3.83045327 2.59765625 7.41015625 C2.67693359 8.48201172 2.75621094 9.55386719 2.83789062 10.65820312 C2.91201172 11.78162109 2.98613281 12.90503906 3.0625 14.0625 C3.21610763 16.28282849 3.37345235 18.50290271 3.53515625 20.72265625 C3.600979 21.71015869 3.66680176 22.69766113 3.73461914 23.71508789 C3.75610319 25.96303877 3.75610319 25.96303877 5 27 C5.34593681 28.63562836 5.63612818 30.28311453 5.90234375 31.93359375 C6.06959961 32.96693848 6.23685547 34.0002832 6.40917969 35.06494141 C6.58352539 36.17788574 6.75787109 37.29083008 6.9375 38.4375 C7.11571289 39.56591309 7.29392578 40.69432617 7.47753906 41.85693359 C8.5234414 48.59984878 9.48748819 55.34396133 10.25 62.125 C10.36976196 63.17772095 10.36976196 63.17772095 10.49194336 64.25170898 C10.94091267 68.51665793 11.06680296 72.71347679 11 77 C10.67 77 10.34 77 10 77 C4.70162561 48.86411816 4.70162561 48.86411816 3.54541016 35.51245117 C3.27390221 31.63025784 3.27390221 31.63025784 2 28 C1.59782587 25.53998595 1.24480118 23.09709259 0.9375 20.625 C0.84807129 19.9134375 0.75864258 19.201875 0.66650391 18.46875 C-0.05899709 12.29991867 -0.21168646 6.20946957 0 0 Z " fill="#989797" transform="translate(1296,403)"/>
<path d="M0 0 C0.33 0 0.66 0 1 0 C1.08564209 1.05912598 1.17128418 2.11825195 1.25952148 3.20947266 C1.57939489 7.15694904 1.90260837 11.10414618 2.22680664 15.05126953 C2.36638345 16.75627382 2.50506692 18.46135149 2.64282227 20.16650391 C2.84153463 22.62422428 3.04350921 25.08165863 3.24609375 27.5390625 C3.3065538 28.29555084 3.36701385 29.05203918 3.42930603 29.83145142 C3.69168954 32.98203583 4.00963419 36.05758839 4.53173828 39.1784668 C5.00340455 42.02051427 5.17258348 44.72718295 5.24609375 47.60546875 C5.27775635 48.66330566 5.30941895 49.72114258 5.34204102 50.81103516 C5.38929321 52.48238525 5.38929321 52.48238525 5.4375 54.1875 C5.79630489 65.2027327 6.64309411 76.0657098 8 87 C8.66 87 9.32 87 10 87 C10 87.66 10 88.32 10 89 C9.01 88.67 8.02 88.34 7 88 C3.35323543 80.36361266 3.65555379 71.23777327 3.41577148 62.97119141 C3.12244541 53.85429994 2.30341699 44.82565543 1.4375 35.75 C0.30711911 23.80875952 -0.42751116 12.00198003 0 0 Z " fill="#A6A6A5" transform="translate(1773,1076)"/>
<path d="M0 0 C0.33 0.66 0.66 1.32 1 2 C2.32 1.34 3.64 0.68 5 0 C3.66666667 3.33333333 2.33333333 6.66666667 1 10 C0.34 9.67 -0.32 9.34 -1 9 C-1 10.98 -1 12.96 -1 15 C-0.34 15 0.32 15 1 15 C1.33 19.29 1.66 23.58 2 28 C1.34 26.68 0.68 25.36 0 24 C0 28.29 0 32.58 0 37 C-4.30742976 28.38514047 -5.25873561 15.52833581 -4 6 C-2.92035283 3.50742328 -1.82499712 2.05312176 0 0 Z " fill="#1F1F1F" transform="translate(1273,195)"/>
<path d="M0 0 C0.33 0 0.66 0 1 0 C2.50318645 10.18664217 3.31447535 20.25690992 3.65795898 30.54736328 C3.68962158 31.44310059 3.72128418 32.33883789 3.75390625 33.26171875 C3.77783447 34.05537842 3.8017627 34.84903809 3.82641602 35.66674805 C4.01319539 38.17736759 4.50234912 40.5333214 5 43 C5.44861853 47.22114279 5.74309495 51.45479161 6.0625 55.6875 C6.15337891 56.82123047 6.24425781 57.95496094 6.33789062 59.12304688 C6.84699233 65.76433604 7.12766747 72.33954095 7 79 C6.67 79 6.34 79 6 79 C5.91435791 78.1121582 5.82871582 77.22431641 5.74047852 76.30957031 C5.42045579 73.00691853 5.09773392 69.70455344 4.77319336 66.40234375 C4.63344246 64.97471459 4.49475946 63.54698046 4.35717773 62.11914062 C4.15891576 60.06351464 3.95678106 58.00830023 3.75390625 55.953125 C3.57323608 54.09929199 3.57323608 54.09929199 3.38891602 52.20800781 C3.08860842 49.17293297 3.08860842 49.17293297 2.48632812 46.95117188 C1.22440019 41.88825617 1.2881184 36.43934753 0.9375 31.25 C0.84807129 29.94716064 0.75864258 28.64432129 0.66650391 27.30200195 C0.07050319 18.1809205 -0.25902584 9.13785604 0 0 Z " fill="#525252" transform="translate(1767,997)"/>
<path d="M0 0 C0.33 0 0.66 0 1 0 C2.04926327 6.46171295 2.34036414 12.87777175 2.60546875 19.41210938 C2.64285156 20.23130859 2.68023438 21.05050781 2.71875 21.89453125 C2.74904297 22.63550049 2.77933594 23.37646973 2.81054688 24.13989258 C2.89840065 26.09203694 2.89840065 26.09203694 4 28 C4.21499574 30.69715147 4.377246 33.37649083 4.5 36.078125 C4.5609082 37.28441559 4.5609082 37.28441559 4.62304688 38.51507568 C4.75292378 41.09319475 4.87701047 43.6715438 5 46.25 C5.12331825 48.81415242 5.24799989 51.37820211 5.37695312 53.94207764 C5.45715207 55.5379809 5.53413321 57.13405012 5.60742188 58.73028564 C5.81582399 62.89318644 6.25185828 66.89118257 7 71 C7.11196073 73.67810075 7.04625299 76.31732686 7 79 C4.09471966 76.09471966 4.44743645 72.90675836 4.18359375 68.9921875 C4.12220718 68.19273712 4.06082062 67.39328674 3.99757385 66.5696106 C3.80228451 64.00530067 3.61946422 61.44028685 3.4375 58.875 C3.24950358 56.33137706 3.05891954 53.78796766 2.86671448 51.24465942 C2.74794267 49.66209757 2.63199687 48.07932011 2.51939392 46.49630737 C2.25685979 42.89797721 1.93669898 39.32453529 1.47705078 35.74560547 C1.11502965 32.90316528 0.82916932 30.12338535 0.68359375 27.265625 C0.64161865 26.44932617 0.59964355 25.63302734 0.55639648 24.79199219 C0.51716064 23.95313477 0.4779248 23.11427734 0.4375 22.25 C0.37381226 20.94144043 0.37381226 20.94144043 0.30883789 19.60644531 C0.00807359 13.06830135 -0.1197291 6.54519057 0 0 Z " fill="#A8A8A7" transform="translate(1758,891)"/>
<path d="M0 0 C0.33 0 0.66 0 1 0 C1.19417161 8.62886879 0.62452292 16.99541581 -0.375 25.5625 C-0.65278232 28.02078382 -0.93012418 30.47911744 -1.20703125 32.9375 C-1.34318848 34.13246094 -1.4793457 35.32742188 -1.61962891 36.55859375 C-1.96496762 39.68304462 -2.27961298 42.80791734 -2.57421875 45.9375 C-2.70014404 47.2512561 -2.70014404 47.2512561 -2.82861328 48.59155273 C-2.98035425 50.19465334 -3.12621779 51.79832531 -3.26513672 53.40258789 C-3.61629309 57.011236 -3.94686368 58.92029552 -6 62 C-5.78559689 56.8254561 -5.55496508 51.65196142 -5.31030273 46.47875977 C-5.22951509 44.72472034 -5.15290089 42.97048286 -5.08081055 41.21606445 C-4.69213688 31.8262448 -4.16336286 22.88384713 -1.68164062 13.76367188 C-0.56511419 9.23678104 -0.26989376 4.64403399 0 0 Z " fill="#828282" transform="translate(1330,816)"/>
<path d="M0 0 C0.99 0.495 0.99 0.495 2 1 C2.36303711 2.93017578 2.36303711 2.93017578 2.52734375 5.4453125 C2.59759766 6.35796875 2.66785156 7.270625 2.74023438 8.2109375 C2.87014772 10.13005341 2.99780955 12.04932327 3.12304688 13.96875 C3.62385594 20.41159094 4.22262179 26.22262179 9 31 C9.125 34.625 9.125 34.625 9 38 C8.34 38 7.68 38 7 38 C7.33 43.28 7.66 48.56 8 54 C6.19903522 50.39807043 5.63284137 48.47760886 5.18359375 44.61328125 C5.05919922 43.59298828 4.93480469 42.57269531 4.80664062 41.52148438 C4.68482422 40.46251953 4.56300781 39.40355469 4.4375 38.3125 C4.18996174 36.20398181 3.93885754 34.09587812 3.68359375 31.98828125 C3.57587646 31.05540283 3.46815918 30.12252441 3.35717773 29.16137695 C3.21974569 27.02562709 3.21974569 27.02562709 2 26 C1.7714679 24.0769127 1.60481143 22.14639772 1.46484375 20.21484375 C1.33432617 18.46010742 1.33432617 18.46010742 1.20117188 16.66992188 C1.11416016 15.43822266 1.02714844 14.20652344 0.9375 12.9375 C0.84662109 11.70193359 0.75574219 10.46636719 0.66210938 9.19335938 C0.43732402 6.12918006 0.2168144 3.06475198 0 0 Z " fill="#535352" transform="translate(1278,273)"/>
<path d="M0 0 C1.909989 2.8649835 2.32765469 3.9310771 2.78125 7.17578125 C2.89992432 7.9968335 3.01859863 8.81788574 3.14086914 9.66381836 C3.25938232 10.5378833 3.37789551 11.41194824 3.5 12.3125 C3.62818115 13.21170166 3.7563623 14.11090332 3.88842773 15.03735352 C4.26558139 17.69068749 4.63330688 20.34520353 5 23 C5.35134088 25.47957815 5.7071566 27.95849015 6.0625 30.4375 C6.29453125 32.09652344 6.29453125 32.09652344 6.53125 33.7890625 C6.84122562 35.91239548 7.17421973 38.0325081 7.53125 40.1484375 C9.03138193 49.08304679 9.58871727 57.96260319 10 67 C7.44899488 63.17349232 7.22879172 59.58565228 6.6875 55.125 C6.43555118 53.16007211 6.18288953 51.19523555 5.9296875 49.23046875 C5.71650879 47.55283447 5.71650879 47.55283447 5.49902344 45.84130859 C4.92037235 41.3870541 4.30998703 36.93768077 3.6953125 32.48828125 C3.34958751 29.97550538 3.00409342 27.46269783 2.65859985 24.94989014 C2.42843414 23.27908314 2.19746073 21.6083872 1.96566772 19.93780518 C1.63666054 17.56182924 1.3120046 15.18529459 0.98828125 12.80859375 C0.88842926 12.09480057 0.78857727 11.38100739 0.68569946 10.64558411 C0.20272817 7.0705273 -0.11077248 3.60820568 0 0 Z " fill="#A4A3A1" transform="translate(1394,494)"/>
<path d="M0 0 C0.33 0 0.66 0 1 0 C1.02887814 3.47914941 1.04675687 6.95826831 1.0625 10.4375 C1.07087891 11.43072266 1.07925781 12.42394531 1.08789062 13.44726562 C1.09111328 14.39150391 1.09433594 15.33574219 1.09765625 16.30859375 C1.10289307 17.18314209 1.10812988 18.05769043 1.11352539 18.95874023 C1 21 1 21 0 22 C-0.3720248 23.5956376 -0.69819799 25.20210335 -1 26.8125 C-1.93907564 31.77932977 -1.93907564 31.77932977 -2.52514648 33.90209961 C-3.01111707 36.04911515 -3.114304 37.91187259 -3.09765625 40.109375 C-3.09443359 40.86347656 -3.09121094 41.61757812 -3.08789062 42.39453125 C-3.07951172 43.17183594 -3.07113281 43.94914062 -3.0625 44.75 C-3.05573242 45.93916016 -3.05573242 45.93916016 -3.04882812 47.15234375 C-3.03708565 49.10159508 -3.01915146 51.05080738 -3 53 C-3.66 53 -4.32 53 -5 53 C-5.05859857 49.64590806 -5.09379582 46.29194983 -5.125 42.9375 C-5.14175781 41.99455078 -5.15851563 41.05160156 -5.17578125 40.08007812 C-5.21394035 34.60424735 -4.58587008 30.27257911 -3 25 C-2.50723587 21.26093732 -2.22271824 17.50992044 -1.9375 13.75 C-1.78320143 11.78619999 -1.62578903 9.82264145 -1.46484375 7.859375 C-1.36610962 6.56725098 -1.36610962 6.56725098 -1.26538086 5.24902344 C-1 3 -1 3 0 0 Z " fill="#646464" transform="translate(1295,1112)"/>
<path d="M0 0 C5.44214143 5.44214143 5.32107143 14.16909129 5.34817982 21.40784264 C5.33967049 23.55593557 5.3166073 25.70358732 5.29296875 27.8515625 C5.28736165 29.3618426 5.28309683 30.87212822 5.28010559 32.38241577 C5.26874435 36.32472248 5.23935436 40.26668859 5.20599365 44.2088623 C5.17510274 48.24466344 5.16155994 52.28052053 5.14648438 56.31640625 C5.11447455 64.21109242 5.06338633 72.10550364 5 80 C4.34 80 3.68 80 3 80 C3.00666183 79.22707108 3.01332367 78.45414215 3.02018738 77.65779114 C3.08068461 70.31850374 3.12616838 62.97933987 3.15543652 55.63986683 C3.17099016 51.86795595 3.1920359 48.09625373 3.22631836 44.32446289 C3.25928481 40.6739724 3.27693011 37.02368064 3.28463173 33.3730526 C3.29010925 31.99101324 3.300802 30.60898284 3.31719017 29.2270298 C3.41088824 20.9864733 2.77387836 13.57767716 0.64595032 5.59989929 C0 3 0 3 0 0 Z " fill="#8F8F8E" transform="translate(1861,705)"/>
<path d="M0 0 C0.33 0 0.66 0 1 0 C0.93723877 0.61673584 0.87447754 1.23347168 0.80981445 1.86889648 C0.38566539 6.06841199 -0.02924165 10.26757826 -0.39453125 14.47265625 C-1.61460421 28.09138836 -3.71391122 41.52305742 -6 55 C-6.33 55 -6.66 55 -7 55 C-6.98259766 53.57107422 -6.98259766 53.57107422 -6.96484375 52.11328125 C-6.95582031 50.85902344 -6.94679688 49.60476563 -6.9375 48.3125 C-6.92589844 47.07113281 -6.91429687 45.82976562 -6.90234375 44.55078125 C-6.98544638 41.52916966 -7.35948549 38.9348165 -8 36 C-7.6875 33.75 -7.6875 33.75 -7 32 C-6.34 31.67 -5.68 31.34 -5 31 C-4.58904522 28.60732995 -4.29437273 26.28647634 -4.0625 23.875 C-3.18209642 15.79513749 -1.71205694 7.94394418 0 0 Z " fill="#2D2D2C" transform="translate(1393,1001)"/>
<path d="M0 0 C0.33 0 0.66 0 1 0 C1.08228099 4.19633064 0.83366379 7.90454428 0 12 C-0.18041366 13.69409587 -0.33442196 15.39116778 -0.46484375 17.08984375 C-0.54283203 18.03923828 -0.62082031 18.98863281 -0.70117188 19.96679688 C-0.85839085 21.94307837 -1.01205235 23.91964618 -1.16210938 25.89648438 C-1.5834151 30.94872786 -2.35215479 35.18989314 -4 40 C-4.29872909 43.42859519 -4.45920317 46.81710174 -4.56640625 50.25390625 C-4.73147488 54.05048481 -5.17004521 56.68982729 -7 60 C-6.23414015 39.56363462 -4.0948576 20.0451326 0 0 Z " fill="#B9B9B8" transform="translate(1302,1052)"/>
<path d="M0 0 C0.33 0 0.66 0 1 0 C1 5.61 1 11.22 1 17 C1.66 16.67 2.32 16.34 3 16 C2.37346437 23.39312039 2.37346437 23.39312039 0.5 26.4375 C-2.09484662 30.87036297 -2 35.94809584 -2 41 C-1.34 41.33 -0.68 41.66 0 42 C-2.5 44.5 -2.5 44.5 -5 47 C-4.85982174 44.02046641 -4.71313658 41.04150696 -4.5625 38.0625 C-4.52318359 37.21236328 -4.48386719 36.36222656 -4.44335938 35.48632812 C-4.40146484 34.67744141 -4.35957031 33.86855469 -4.31640625 33.03515625 C-4.27974854 32.2862915 -4.24309082 31.53742676 -4.20532227 30.76586914 C-4 29 -4 29 -3 28 C-2.70035594 25.93221142 -2.46045389 23.8557051 -2.24609375 21.77734375 C-2.11396484 20.51728516 -1.98183594 19.25722656 -1.84570312 17.95898438 C-1.7095409 16.61849918 -1.57347444 15.27800426 -1.4375 13.9375 C-1.29792894 12.59305707 -1.15796014 11.24865537 -1.01757812 9.90429688 C-0.67445862 6.6032506 -0.33545333 3.30183269 0 0 Z " fill="#1A1A1A" transform="translate(1319,920)"/>
<path d="M0 0 C2.23412457 3.62264378 2.38943458 6.87908183 2.6328125 11.08203125 C2.67437469 11.77326584 2.71593689 12.46450043 2.75875854 13.17668152 C2.84511848 14.64318363 2.92722313 16.10994166 3.00537109 17.5769043 C3.12258998 19.76746217 3.25341316 21.95685333 3.38671875 24.14648438 C3.92988712 33.44144327 4.10698975 42.68934394 4 52 C1.42496317 49.42496317 1.71427685 48.31247515 1.62109375 44.73046875 C1.58693359 43.67666016 1.55277344 42.62285156 1.51757812 41.53710938 C1.49115234 40.43173828 1.46472656 39.32636719 1.4375 38.1875 C1.37730898 36.0142199 1.31362957 33.841033 1.24609375 31.66796875 C1.22216553 30.70141357 1.1982373 29.7348584 1.17358398 28.73901367 C1.06276622 26.01812551 1.06276622 26.01812551 0.49072266 23.46337891 C-0.02370126 20.88102203 -0.11379371 18.54837545 -0.09765625 15.91796875 C-0.09443359 14.98662109 -0.09121094 14.05527344 -0.08789062 13.09570312 C-0.07951172 12.13599609 -0.07113281 11.17628906 -0.0625 10.1875 C-0.05798828 9.20845703 -0.05347656 8.22941406 -0.04882812 7.22070312 C-0.03708684 4.81373889 -0.02066419 2.40690143 0 0 Z " fill="#969695" transform="translate(1851,997)"/>
<path d="M0 0 C0.99 0.495 0.99 0.495 2 1 C2.50244141 3.60449219 2.50244141 3.60449219 2.8515625 7.046875 C2.98046875 8.284375 3.109375 9.521875 3.2421875 10.796875 C3.36851563 12.10140625 3.49484375 13.4059375 3.625 14.75 C3.7590625 16.0390625 3.893125 17.328125 4.03125 18.65625 C5.08694224 29.0408145 5.08694224 29.0408145 5 34 C5.66 34 6.32 34 7 34 C8.37292913 42.3969326 9.31274919 50.48627215 9 59 C8.67 59 8.34 59 8 59 C7.13389072 54.14733101 6.27671281 49.29319567 5.42773438 44.4375 C5.1525645 42.86940864 4.87538388 41.3016681 4.59570312 39.734375 C-0.31581963 12.17120254 -0.31581963 12.17120254 0 0 Z " fill="#929290" transform="translate(1404,565)"/>
<path d="M0 0 C0.33 0 0.66 0 1 0 C1 1.98 1 3.96 1 6 C1.66 6 2.32 6 3 6 C3.33 5.34 3.66 4.68 4 4 C3.93990608 6.75230148 3.85287379 9.4992444 3.75 12.25 C3.73582031 13.02730469 3.72164062 13.80460938 3.70703125 14.60546875 C3.45777721 20.43801335 3.45777721 20.43801335 1.078125 23.359375 C0.39234375 23.90078125 -0.2934375 24.4421875 -1 25 C-1.66 25.99 -2.32 26.98 -3 28 C-2.6891977 24.83316436 -2.37604334 21.66656534 -2.0625 18.5 C-1.97548828 17.613125 -1.88847656 16.72625 -1.79882812 15.8125 C-1.27446908 10.53006818 -0.68264462 5.26435854 0 0 Z " fill="#0F100F" transform="translate(1323,888)"/>
<path d="M0 0 C0.33 0 0.66 0 1 0 C1.03758423 1.0372522 1.03758423 1.0372522 1.07592773 2.09545898 C1.19152161 5.20967866 1.31441242 8.32356789 1.4375 11.4375 C1.47681641 12.52611328 1.51613281 13.61472656 1.55664062 14.73632812 C1.59853516 15.77080078 1.64042969 16.80527344 1.68359375 17.87109375 C1.72025146 18.82943115 1.75690918 19.78776855 1.79467773 20.77514648 C1.75834424 22.97138925 1.75834424 22.97138925 3 24 C3.07226502 25.85287502 3.0838122 27.70833878 3.0625 29.5625 C3.05347656 30.57441406 3.04445313 31.58632813 3.03515625 32.62890625 C3.02355469 33.41136719 3.01195312 34.19382812 3 35 C1.515 35.495 1.515 35.495 0 36 C-0.33 38.97 -0.66 41.94 -1 45 C-1.33 45 -1.66 45 -2 45 C-1.35365823 29.99905169 -0.68831554 14.99908166 0 0 Z " fill="#232423" transform="translate(1334,767)"/>
<path d="M0 0 C2.66162631 3.07487763 3.45403929 5.26567447 3.87890625 9.2890625 C3.99556641 10.31386719 4.11222656 11.33867187 4.23242188 12.39453125 C4.34134766 13.46058594 4.45027344 14.52664062 4.5625 15.625 C5.51923488 24.53823294 5.51923488 24.53823294 7.08203125 33.359375 C7.88900565 37.17172584 8.21598332 40.71271718 8.125 44.625 C8.10695313 45.64851563 8.08890625 46.67203125 8.0703125 47.7265625 C8.03550781 48.85191406 8.03550781 48.85191406 8 50 C7.67 50 7.34 50 7 50 C5.67713754 45.03926578 5.91106803 40.08888488 6 35 C5.34 35 4.68 35 4 35 C3.52051123 30.85420385 3.04146782 26.70835636 2.5625 22.5625 C2.42779297 21.39783203 2.29308594 20.23316406 2.15429688 19.03320312 C1.42173997 12.69033232 0.69914881 6.34664212 0 0 Z " fill="#ADACAB" transform="translate(1404,189)"/>
<path d="M0 0 C0.33 0 0.66 0 1 0 C2.40718756 5.28237127 3.4081656 10.3803582 4.03515625 15.82421875 C4.11873886 16.53351028 4.20232147 17.24280182 4.28843689 17.97358704 C4.5513624 20.21101915 4.80734724 22.44916939 5.0625 24.6875 C5.32234935 26.93639115 5.58371597 29.18508851 5.84727478 31.43354797 C6.08492279 33.46535232 6.31810085 35.49767803 6.55102539 37.5300293 C6.8194778 39.60480583 7.13690516 41.67545124 7.55249023 43.72583008 C8.16344063 46.83057799 8.06185024 49.84563797 8 53 C7.67 53 7.34 53 7 53 C4.60224304 41.26250852 2.54636633 29.61582603 1.39453125 17.6875 C1.07390304 14.14937729 1.07390304 14.14937729 0.453125 11.30078125 C-0.02555616 8.8702364 -0.09941971 6.66112044 -0.0625 4.1875 C-0.05347656 3.39730469 -0.04445313 2.60710937 -0.03515625 1.79296875 C-0.02355469 1.20128906 -0.01195312 0.60960937 0 0 Z " fill="#B4B4B3" transform="translate(1428,354)"/>
<path d="M0 0 C4.3781073 7.45014058 4.68296412 18.53124497 4 27 C2.48046875 29.2421875 2.48046875 29.2421875 1 31 C-0.68640199 20.39378581 -1.13775306 10.70102882 0 0 Z " fill="#0B0B0B" transform="translate(1287,312)"/>
<path d="M0 0 C0.33 0 0.66 0 1 0 C1.21840664 13.34707218 0.56539296 26.66815423 0 40 C-0.33 40 -0.66 40 -1 40 C-1.02505615 39.40461426 -1.0501123 38.80922852 -1.07592773 38.19580078 C-1.19177494 35.50530864 -1.31455196 32.8151766 -1.4375 30.125 C-1.47681641 29.18785156 -1.51613281 28.25070312 -1.55664062 27.28515625 C-1.59853516 26.38925781 -1.64042969 25.49335937 -1.68359375 24.5703125 C-1.72025146 23.74289551 -1.75690918 22.91547852 -1.79467773 22.06298828 C-1.88238327 19.93820571 -1.88238327 19.93820571 -3 18 C-3.58192025 11.25196323 -3.19670909 5.99382954 0 0 Z " fill="#111110" transform="translate(1763,899)"/>
<path d="M0 0 C0.33 0 0.66 0 1 0 C2.59183217 6.22126343 3.349362 12.15276449 3.5625 18.5625 C3.73677868 23.15678276 3.91731141 27.70799276 4.515625 32.26953125 C5.41136994 39.16821201 5.74754499 45.47458064 3 52 C1.80874192 47.79820338 1.97512637 43.76730029 2.0625 39.4375 C2.15224673 31.7080628 1.62469679 24.20854675 0.71557617 16.53759766 C0.06611522 10.98403187 -0.18352756 5.59759044 0 0 Z " fill="#ABABAB" transform="translate(1859,1113)"/>
<path d="M0 0 C0.33 0 0.66 0 1 0 C1.87461616 6.95007484 2.13390774 13.8778603 2.1875 20.875 C2.20683594 22.10536987 2.20683594 22.10536987 2.2265625 23.3605957 C2.23359223 27.64653221 2.14701544 31.15797238 0 35 C-0.99 35.495 -0.99 35.495 -2 36 C-2.33 34.68 -2.66 33.36 -3 32 C-2.34 32 -1.68 32 -1 32 C-1.01160156 31.03578125 -1.02320313 30.0715625 -1.03515625 29.078125 C-1.04417969 27.81484375 -1.05320312 26.5515625 -1.0625 25.25 C-1.07410156 23.99703125 -1.08570313 22.7440625 -1.09765625 21.453125 C-1.0178906 18.63261179 -0.66839722 16.67358886 0 14 C0.06831987 11.5842094 0.08487642 9.16665287 0.0625 6.75 C0.05347656 5.48671875 0.04445313 4.2234375 0.03515625 2.921875 C0.02355469 1.95765625 0.01195312 0.9934375 0 0 Z " fill="#1D1D1D" transform="translate(1860,1131)"/>
<path d="M0 0 C0.33 0 0.66 0 1 0 C1.05534912 0.70084717 1.11069824 1.40169434 1.16772461 2.1237793 C1.42124727 5.31193885 1.67932776 8.49971373 1.9375 11.6875 C2.02451172 12.79029297 2.11152344 13.89308594 2.20117188 15.02929688 C2.28818359 16.09599609 2.37519531 17.16269531 2.46484375 18.26171875 C2.543396 19.24100342 2.62194824 20.22028809 2.70288086 21.22924805 C2.955306 23.98592288 2.955306 23.98592288 3.52734375 26.609375 C4.22986482 30.16262208 4.1043863 33.70705636 4.0625 37.3125 C4.05798828 38.05306641 4.05347656 38.79363281 4.04882812 39.55664062 C4.03712175 41.37112899 4.01918898 43.18557534 4 45 C0.15654839 39.23482259 0.73681228 31.70490753 0.4375 24.9375 C0.3950415 24.01880127 0.35258301 23.10010254 0.30883789 22.15356445 C-0.01206215 14.763824 -0.11188561 7.39688229 0 0 Z " fill="#6C6B6A" transform="translate(1847,946)"/>
<path d="M0 0 C0.99 0 1.98 0 3 0 C4.78409802 3.06246747 5.22880021 5.22079273 5.125 8.75 C5.10695313 9.54921875 5.08890625 10.3484375 5.0703125 11.171875 C5.03550781 12.07679688 5.03550781 12.07679688 5 13 C4.34 13 3.68 13 3 13 C3 13.66 3 14.32 3 15 C3.99 15.33 4.98 15.66 6 16 C6 16.99 6 17.98 6 19 C5.34 19 4.68 19 4 19 C4 20.98 4 22.96 4 25 C3.67 25 3.34 25 3 25 C2.855625 23.865625 2.71125 22.73125 2.5625 21.5625 C2.38828522 18.19222799 2.38828522 18.19222799 1 17 C0.76298761 14.14122091 0.57780818 11.30116703 0.4375 8.4375 C0.39431641 7.63119141 0.35113281 6.82488281 0.30664062 5.99414062 C0.20024738 3.99631195 0.09959112 1.9981793 0 0 Z " fill="#1B1C1B" transform="translate(1298,412)"/>
<path d="M0 0 C0.33 0 0.66 0 1 0 C1.33675279 2.89547264 1.66951734 5.79131072 2 8.6875 C2.09539062 9.50412109 2.19078125 10.32074219 2.2890625 11.16210938 C2.73870522 15.12860052 3.13034543 19.00002463 3 23 C2.67 23 2.34 23 2 23 C1.67 24.65 1.34 26.3 1 28 C0.67 28 0.34 28 0 28 C-0.99 21.07 -1.98 14.14 -3 7 C-2.01 7 -1.02 7 0 7 C0 4.69 0 2.38 0 0 Z " fill="#101010" transform="translate(1429,368)"/>
<path d="M0 0 C0.99 0.495 0.99 0.495 2 1 C3.31855778 5.41416337 3.2188971 10.01055892 3.31640625 14.58203125 C3.33718735 15.39621017 3.35796844 16.2103891 3.37937927 17.04924011 C3.44449463 19.63691179 3.50358208 22.22468053 3.5625 24.8125 C3.60572142 26.57227545 3.64933685 28.33204128 3.69335938 30.09179688 C3.8001368 34.39443309 3.90151018 38.69716643 4 43 C3.67 43 3.34 43 3 43 C2.94465088 42.2886792 2.88930176 41.5773584 2.83227539 40.84448242 C2.57957911 37.62516867 2.32110798 34.40634403 2.0625 31.1875 C1.97548828 30.06794922 1.88847656 28.94839844 1.79882812 27.79492188 C1.66831055 26.18520508 1.66831055 26.18520508 1.53515625 24.54296875 C1.456604 23.55321045 1.37805176 22.56345215 1.29711914 21.54370117 C1.07382992 18.88144162 1.07382992 18.88144162 0 16 C-0.07051114 13.26134713 -0.09357765 10.54972412 -0.0625 7.8125 C-0.05798828 7.06291016 -0.05347656 6.31332031 -0.04882812 5.54101562 C-0.03706354 3.69397617 -0.01912865 1.84697787 0 0 Z " fill="#BAB9B9" transform="translate(1845,912)"/>
<path d="M0 0 C0.33 0 0.66 0 1 0 C1.04898437 0.99257812 1.09796875 1.98515625 1.1484375 3.0078125 C1.57638476 11.00111449 2.31725318 18.82878951 3.5234375 26.75 C4.66213629 34.51555243 5.12857218 42.15709694 5 50 C0.93152882 43.89729322 1.67297927 36.42058124 1.39453125 29.3046875 C1.19836814 24.33484239 1.19836814 24.33484239 0.47265625 19.42578125 C-0.25481679 15.69222126 -0.10383164 11.98047259 -0.0625 8.1875 C-0.05573242 7.00510742 -0.05573242 7.00510742 -0.04882812 5.79882812 C-0.03711312 3.86585239 -0.01917998 1.93291607 0 0 Z " fill="#C5C5C5" transform="translate(1768,1026)"/>
<path d="M0 0 C0 0.66 0 1.32 0 2 C-11.10256885 7.96249068 -24.51689255 9.60402133 -37 9 C-37.33 10.32 -37.66 11.64 -38 13 C-38 11.35 -38 9.7 -38 8 C-32.35333619 6.58833405 -26.78110657 5.7062653 -21 5.0625 C-14.09325256 4.27556397 -6.48709907 0 0 0 Z " fill="#BEBEBD" transform="translate(1429,463)"/>
<path d="M0 0 C1.32 0 2.64 0 4 0 C4.38863565 2.12254855 4.76053209 4.24816828 5.125 6.375 C5.33382813 7.55835938 5.54265625 8.74171875 5.7578125 9.9609375 C5.83773438 10.96382813 5.91765625 11.96671875 6 13 C5.34 13.66 4.68 14.32 4 15 C3.60235737 16.98821313 3.26224651 18.98944339 3 21 C2.67 21 2.34 21 2 21 C0.65504172 13.90294338 -0.24091535 7.2274605 0 0 Z " fill="#121211" transform="translate(1307,475)"/>
<path d="M0 0 C0.33 0 0.66 0 1 0 C1 1.65 1 3.3 1 5 C1.66 5 2.32 5 3 5 C2.48316747 10.2975334 0.97319519 13.66762987 -2 18 C-4.25 18.9375 -4.25 18.9375 -6 19 C-6.66 17.68 -7.32 16.36 -8 15 C-7.38125 14.773125 -6.7625 14.54625 -6.125 14.3125 C-1.56954827 11.49883864 -1.16411521 4.90591408 0 0 Z " fill="#0D0D0D" transform="translate(1435,443)"/>
<path d="M0 0 C2.52775351 3.79163027 2.22443035 6.80874031 2.125 11.1875 C2.11597656 11.93708984 2.10695313 12.68667969 2.09765625 13.45898438 C2.07412578 15.30612654 2.03825561 17.15310412 2 19 C1.34 19 0.68 19 0 19 C-0.33 21.64 -0.66 24.28 -1 27 C-1.33 27 -1.66 27 -2 27 C-2.33 21.39 -2.66 15.78 -3 10 C-2.34 10 -1.68 10 -1 10 C-0.67 6.7 -0.34 3.4 0 0 Z " fill="#151514" transform="translate(1849,988)"/>
<path d="M0 0 C0.33 0 0.66 0 1 0 C1.22786458 2.05078125 1.45572917 4.1015625 1.68359375 6.15234375 C1.81886614 8.01140229 1.81886614 8.01140229 3 9 C3.08790975 11.29151417 3.10694038 13.58572524 3.09765625 15.87890625 C3.09553383 16.90889992 3.09553383 16.90889992 3.09336853 17.95970154 C3.08775479 20.16067801 3.07520007 22.36155409 3.0625 24.5625 C3.05748676 26.05143083 3.05292355 27.54036324 3.04882812 29.02929688 C3.03778093 32.68623075 3.02050713 36.34310558 3 40 C2.67 40 2.34 40 2 40 C-0.38776806 13.24874212 -0.38776806 13.24874212 0 0 Z " fill="#60605F" transform="translate(1755,848)"/>
<path d="M0 0 C0.33 0.66 0.66 1.32 1 2 C1.99 1.67 2.98 1.34 4 1 C4.04241723 3.33294775 4.04092937 5.66702567 4 8 C3.67 8.33 3.34 8.66 3 9 C2.95936168 10.66617115 2.957279 12.33388095 3 14 C3.66 12.68 4.32 11.36 5 10 C6.06546953 13.1964086 6.07427838 15.65747276 6 19 C5.34 18.67 4.68 18.34 4 18 C3.67 19.98 3.34 21.96 3 24 C2.67 24 2.34 24 2 24 C0.70098079 15.95072024 -0.33853295 8.16240568 0 0 Z " fill="#111111" transform="translate(1289,344)"/>
<path d="M0 0 C0.33 0 0.66 0 1 0 C0.94670532 1.24088379 0.94670532 1.24088379 0.89233398 2.50683594 C0.73474124 6.2543336 0.58602118 10.00213232 0.4375 13.75 C0.38142578 15.05195312 0.32535156 16.35390625 0.26757812 17.6953125 C0.21923828 18.94570312 0.17089844 20.19609375 0.12109375 21.484375 C0.0739624 22.63647461 0.02683105 23.78857422 -0.02172852 24.97558594 C-0.00297528 27.58586711 0.26965019 29.52569704 1 32 C1.06548492 33.58211573 1.08578381 35.16670081 1.0625 36.75 C1.05347656 37.54921875 1.04445313 38.3484375 1.03515625 39.171875 C1.02355469 39.77515625 1.01195312 40.3784375 1 41 C0.34 41 -0.32 41 -1 41 C-2.20577495 37.38267516 -2.14891634 34.07701559 -2.125 30.3125 C-2.12234131 29.56516602 -2.11968262 28.81783203 -2.11694336 28.04785156 C-1.95572421 8.61176038 -1.95572421 8.61176038 0 0 Z " fill="#2E2E2E" transform="translate(1298,1087)"/>
<path d="M0 0 C4.57178362 3.80981968 5.6394694 7.89943682 6.3125 13.6875 C5.92862999 16.52813807 4.76227763 17.7913407 3 20 C2.51933465 18.10454608 2.04053257 16.20861961 1.5625 14.3125 C1.29566406 13.25675781 1.02882813 12.20101562 0.75390625 11.11328125 C0.50511719 10.08589844 0.25632812 9.05851563 0 8 C-0.21785156 7.10667969 -0.43570312 6.21335938 -0.66015625 5.29296875 C-1 3 -1 3 0 0 Z " fill="#0E0E0E" transform="translate(1399,182)"/>
<path d="M0 0 C0.33 0 0.66 0 1 0 C0.85999343 4.1668836 0.71194282 8.33344499 0.5625 12.5 C0.52318359 13.67304687 0.48386719 14.84609375 0.44335938 16.0546875 C-0.01583082 28.62943442 -0.01583082 28.62943442 -1 34 C-1.99 34.495 -1.99 34.495 -3 35 C-3.26597018 27.59716337 -2.84237025 20.35537083 -2.0625 13 C-1.97564941 12.1752417 -1.88879883 11.3504834 -1.79931641 10.50073242 C-1.40047304 6.91372242 -0.93520895 3.49222974 0 0 Z " fill="#C7C7C6" transform="translate(1318,914)"/>
<path d="M0 0 C0.99 0.33 1.98 0.66 3 1 C2.67 1.66 2.34 2.32 2 3 C2.66 3.33 3.32 3.66 4 4 C-1.06922851 6.8595648 -7.34143008 9.7291995 -13.2734375 8.546875 C-13.84320312 8.36640625 -14.41296875 8.1859375 -15 8 C-11.535 7.505 -11.535 7.505 -8 7 C-8 6.34 -8 5.68 -8 5 C-10.31 5 -12.62 5 -15 5 C-11.3558226 2.5705484 -9.28758728 2.83820425 -5 3 C-5 3.66 -5 4.32 -5 5 C-4.34 5.33 -3.68 5.66 -3 6 C-2.690625 5.195625 -2.38125 4.39125 -2.0625 3.5625 C-1 1 -1 1 0 0 Z " fill="#1D1D1C" transform="translate(1423,460)"/>
<path d="M0 0 C0.33 0 0.66 0 1 0 C0.85903487 3.62520605 0.71131601 7.25010841 0.5625 10.875 C0.50352539 12.39480469 0.50352539 12.39480469 0.44335938 13.9453125 C0.17743851 20.32741336 -0.28289437 26.65251529 -1 33 C-1.66 33 -2.32 33 -3 33 C-3.33 33.99 -3.66 34.98 -4 36 C-3.855625 34.74703125 -3.71125 33.4940625 -3.5625 32.203125 C-2.84519697 25.7524492 -2.30181508 19.28689548 -1.75 12.8203125 C-1.6675 11.88445313 -1.585 10.94859375 -1.5 9.984375 C-1.4278125 9.14616211 -1.355625 8.30794922 -1.28125 7.44433594 C-0.9912289 4.92377064 -0.53118613 2.47997526 0 0 Z " fill="#7E7D7C" transform="translate(1410,863)"/>
<path d="M0 0 C0.99 0.33 1.98 0.66 3 1 C2.84759391 3.66710654 2.50635081 5.4505871 0.66796875 7.4453125 C-3.50625 11 -3.50625 11 -6 11 C-6 10.34 -6 9.68 -6 9 C-6.5775 9.20625 -7.155 9.4125 -7.75 9.625 C-10.53731028 10.08955171 -11.58030999 9.33184618 -14 8 C-13.40832031 7.92523437 -12.81664062 7.85046875 -12.20703125 7.7734375 C-7.78988902 7.03844809 -4.84623795 6.43946501 -1.9375 2.875 C-1.298125 1.92625 -0.65875 0.9775 0 0 Z " fill="#0F0F0E" transform="translate(1861,781)"/>
<path d="M0 0 C0.33 0 0.66 0 1 0 C1.33 3.3 1.66 6.6 2 10 C2.33 10 2.66 10 3 10 C3.28994872 19.13338455 2.1741788 27.96301675 1 37 C0.67 37 0.34 37 0 37 C0.33 29.74 0.66 22.48 1 15 C0.01 15.495 0.01 15.495 -1 16 C-1.02712153 14.083412 -1.04645097 12.1667127 -1.0625 10.25 C-1.07410156 9.18265625 -1.08570313 8.1153125 -1.09765625 7.015625 C-1.01510087 4.46631499 -0.74617558 2.42066409 0 0 Z " fill="#262525" transform="translate(1411,823)"/>
<path d="M0 0 C0.33 0 0.66 0 1 0 C1.22331199 1.58129029 1.42804644 3.16521089 1.625 4.75 C1.74101563 5.63171875 1.85703125 6.5134375 1.9765625 7.421875 C2.00283587 10.31194584 1.31715213 11.48191505 0 14 C-0.45275278 16.81496741 -0.45275278 16.81496741 -0.625 19.75 C-0.69976563 20.73484375 -0.77453125 21.7196875 -0.8515625 22.734375 C-0.90054687 23.48203125 -0.94953125 24.2296875 -1 25 C-1.33 25 -1.66 25 -2 25 C-2.85373239 17.97195301 -3.12109311 11.07721931 -3 4 C-2.01 4 -1.02 4 0 4 C0 2.68 0 1.36 0 0 Z " fill="#1C1C1B" transform="translate(1334,650)"/>
<path d="M0 0 C0.33 0 0.66 0 1 0 C3.38775192 10.79568687 5.45258649 21.91163102 5 33 C-0.57349899 23.04039963 -0.41829422 11.06155818 0 0 Z " fill="#9C9C9C" transform="translate(1291,368)"/>
<path d="M0 0 C4.08586929 8.17173858 4.31141609 17.96893328 4 27 C2.68 26.67 1.36 26.34 0 26 C-0.33 23.69 -0.66 21.38 -1 19 C-0.34 18.67 0.32 18.34 1 18 C0.67 12.06 0.34 6.12 0 0 Z " fill="#2A2A29" transform="translate(1390,472)"/>
<path d="M0 0 C0.33 0 0.66 0 1 0 C4.44419134 16.70842825 4.44419134 16.70842825 4 25 C3.67 25 3.34 25 3 25 C2.34 21.37 1.68 17.74 1 14 C0.67 15.98 0.34 17.96 0 20 C-0.33 20 -0.66 20 -1 20 C-0.96744792 17.98177083 -0.93489583 15.96354167 -0.90234375 13.9453125 C-0.87350758 11.91814596 -0.87350758 11.91814596 -2 10 C-1.66015625 7.6171875 -1.66015625 7.6171875 -1.0625 4.875 C-0.86785156 3.96492188 -0.67320313 3.05484375 -0.47265625 2.1171875 C-0.31667969 1.41851562 -0.16070313 0.71984375 0 0 Z " fill="#2D2D2C" transform="translate(1423,326)"/>
<path d="M0 0 C0.33 0 0.66 0 1 0 C1.25729927 16.38138686 1.25729927 16.38138686 0 23 C-0.66 23.66 -1.32 24.32 -2 25 C-2.46290221 27.66242821 -2.46290221 27.66242821 -2.625 30.625 C-2.69976563 31.62789062 -2.77453125 32.63078125 -2.8515625 33.6640625 C-2.90054687 34.43492187 -2.94953125 35.20578125 -3 36 C-3.33 36 -3.66 36 -4 36 C-4.37385833 28.31513437 -3.6407905 21.6489365 -1.734375 14.203125 C-0.65697109 9.50381006 -0.27922413 4.80458071 0 0 Z " fill="#ACACAB" transform="translate(1330,816)"/>
<path d="M0 0 C0.33 0 0.66 0 1 0 C1.50954907 3.33194499 2.00587014 6.66573634 2.5 10 C2.64308594 10.93457031 2.78617188 11.86914062 2.93359375 12.83203125 C3.7350261 18.28940391 4.15609327 23.48470461 4 29 C-0.42594024 24.57405976 0.08551127 14.50387696 -0.125 8.33984375 C-0.125 5.55666196 -0.09323434 2.78149114 0 0 Z " fill="#9F9E9E" transform="translate(1309,496)"/>
<path d="M0 0 C0.99 1.485 0.99 1.485 2 3 C2.66 2.01 3.32 1.02 4 0 C6.29612756 11.52164009 6.29612756 11.52164009 6 17 C3 13.25 3 13.25 3 11 C2.34 11 1.68 11 1 11 C-0.20272819 8.59454362 -0.10071472 7.05003047 -0.0625 4.375 C-0.05347656 3.55773437 -0.04445313 2.74046875 -0.03515625 1.8984375 C-0.02355469 1.27195312 -0.01195312 0.64546875 0 0 Z " fill="#111111" transform="translate(1398,550)"/>
<path d="M0 0 C0.33 0.66 0.66 1.32 1 2 C2.32 1.34 3.64 0.68 5 0 C3.66666667 3.33333333 2.33333333 6.66666667 1 10 C0.34 9.34 -0.32 8.68 -1 8 C-2.58272601 9.58272601 -2.34735747 11.38034003 -2.5625 13.5625 C-2.64628906 14.38878906 -2.73007813 15.21507812 -2.81640625 16.06640625 C-2.87699219 16.70449219 -2.93757813 17.34257812 -3 18 C-3.33 18 -3.66 18 -4 18 C-4.738041 5.33029613 -4.738041 5.33029613 0 0 Z " fill="#262625" transform="translate(1273,195)"/>
<path d="M0 0 C2.625 0.9375 2.625 0.9375 5 2 C5 2.66 5 3.32 5 4 C6.32 4 7.64 4 9 4 C8.67 5.32 8.34 6.64 8 8 C4.4257023 7.67506385 2.44287547 7.36129314 -0.375 5.0625 C-2 3 -2 3 -2 1 C-1.34 0.67 -0.68 0.34 0 0 Z " fill="#1A1A1A" transform="translate(1295,1164)"/>
<path d="M0 0 C0.33 0 0.66 0 1 0 C1 1.98 1 3.96 1 6 C1.7425 6.0825 2.485 6.165 3.25 6.25 C6.51221354 7.1396946 7.80954878 8.48503749 10 11 C8.66666667 11.66666667 7.33333333 12.33333333 6 13 C1.125 8.375 1.125 8.375 0 5 C-0.66 5 -1.32 5 -2 5 C-2 4.01 -2 3.02 -2 2 C-1.34 2 -0.68 2 0 2 C0 1.34 0 0.68 0 0 Z " fill="#1B1B1A" transform="translate(1783,1158)"/>
<path d="M0 0 C1.91819906 2.15797395 2.9436607 3.46477662 3.25 6.375 C2.53146018 13.9196681 0.2308397 20.16874114 -3 27 C-3.99 26.67 -4.98 26.34 -6 26 C-5.0234375 24.33984375 -4.046875 22.6796875 -3.0703125 21.01953125 C-0.43264782 16.04262381 0.23116996 12.36759263 0.125 6.6875 C0.10695313 5.43324219 0.08890625 4.17898438 0.0703125 2.88671875 C0.04710937 1.93410156 0.02390625 0.98148437 0 0 Z " fill="#CAC9C9" transform="translate(1439,432)"/>
<path d="M0 0 C0.66 0 1.32 0 2 0 C2.27599507 1.76696843 2.51996915 3.53896215 2.75 5.3125 C2.88921875 6.29863281 3.0284375 7.28476562 3.171875 8.30078125 C3 11 3 11 1.015625 12.85546875 C0.35046875 13.23316406 -0.3146875 13.61085938 -1 14 C-2.33650858 9.99047425 -2.20225023 6.17983803 -2 2 C-1.34 1.34 -0.68 0.68 0 0 Z " fill="#161615" transform="translate(1321,559)"/>
<path d="M0 0 C5.43116348 8.14674521 4.58640622 19.51999515 5 29 C2.96085152 25.94127728 2.61167555 24.57552592 2.1484375 21.03515625 C2.01953125 20.07029297 1.890625 19.10542969 1.7578125 18.11132812 C1.63148437 17.10521484 1.50515625 16.09910156 1.375 15.0625 C1.2409375 14.06025391 1.106875 13.05800781 0.96875 12.02539062 C0.43756723 7.9629265 0 4.10513015 0 0 Z " fill="#828280" transform="translate(1399,532)"/>
<path d="M0 0 C0.33 0 0.66 0 1 0 C1.98248524 4.0527516 2.08159574 7.83861737 2 12 C1.34 12 0.68 12 0 12 C0 14.64 0 17.28 0 20 C-2.75992564 15.14822595 -2.68988832 10.2591276 -1.546875 4.859375 C-1.08163776 3.2243984 -0.54780999 1.60919185 0 0 Z " fill="#131312" transform="translate(1418,292)"/>
<path d="M0 0 C1.00798335 3.23876616 0.99260851 5.83949039 0.66015625 9.203125 C0.56669922 10.1828125 0.47324219 11.1625 0.37695312 12.171875 C0.27318359 13.18765625 0.16941406 14.2034375 0.0625 15.25 C-0.03740234 16.28125 -0.13730469 17.3125 -0.24023438 18.375 C-0.4874052 20.91732849 -0.74087545 23.4588667 -1 26 C-1.33 26 -1.66 26 -2 26 C-2.12086218 19.56744599 -1.82351864 13.38226945 -1 7 C-1.66 7 -2.32 7 -3 7 C-3.1875 4.625 -3.1875 4.625 -3 2 C-2.01 1.34 -1.02 0.68 0 0 Z " fill="#1C1B1A" transform="translate(1403,913)"/>
<path d="M0 0 C1.32 0.33 2.64 0.66 4 1 C4.33 3.64 4.66 6.28 5 9 C3.68 9.99 2.36 10.98 1 12 C0.01751476 7.9472484 -0.08159574 4.16138263 0 0 Z " fill="#0F0F0F" transform="translate(1313,518)"/>
<path d="M0 0 C0.33 0 0.66 0 1 0 C1.47545004 9.45617311 0.10435896 17.83100739 -2 27 C-2.33 27 -2.66 27 -3 27 C-2.56408185 17.85719039 -1.9577539 8.97145478 0 0 Z " fill="#C3C2C1" transform="translate(1399,960)"/>
<path d="M0 0 C-1.98 0.99 -1.98 0.99 -4 2 C-2.68 2.66 -1.36 3.32 0 4 C-2.31 4.33 -4.62 4.66 -7 5 C-6.67 4.01 -6.34 3.02 -6 2 C-6.66 2.165 -7.32 2.33 -8 2.5 C-11.73099794 3.12183299 -15.21873378 3.06408926 -19 3 C-19 2.67 -19 2.34 -19 2 C-12.56971459 0.67611771 -6.5705166 -0.24794402 0 0 Z " fill="#282827" transform="translate(1355,177)"/>
<path d="M0 0 C1.46953125 -0.03867188 1.46953125 -0.03867188 2.96875 -0.078125 C5.8800704 0.29926839 6.72708047 0.97395465 8.5 3.25 C6.16705225 3.29241723 3.83297433 3.29092937 1.5 3.25 C1.17 2.92 0.84 2.59 0.5 2.25 C-0.84267413 2.16368126 -2.18974322 2.14293527 -3.53515625 2.15234375 C-4.34404297 2.15556641 -5.15292969 2.15878906 -5.98632812 2.16210938 C-6.83646484 2.17048828 -7.68660156 2.17886719 -8.5625 2.1875 C-9.41650391 2.19201172 -10.27050781 2.19652344 -11.15039062 2.20117188 C-13.26695663 2.21299627 -15.38348685 2.23093231 -17.5 2.25 C-17.5 1.92 -17.5 1.59 -17.5 1.25 C-11.67510908 0.60788604 -5.85987286 0.14292373 0 0 Z " fill="#343434" transform="translate(1374.5,173.75)"/>
<path d="M0 0 C3.65646331 3.65646331 4.79304546 9.36449726 5.19140625 14.4375 C5.18809328 16.2927611 5.10291153 18.14759239 5 20 C3.07815459 16.59916921 2.23082631 13.23685016 1.375 9.4375 C1.11460938 8.30183594 0.85421875 7.16617188 0.5859375 5.99609375 C0 3 0 3 0 0 Z " fill="#BCBBBA" transform="translate(1861,705)"/>
<path d="M0 0 C-0.639375 0.309375 -1.27875 0.61875 -1.9375 0.9375 C-3.93610821 1.8345163 -3.93610821 1.8345163 -5 3 C-6.68608966 3.07205511 -8.37500659 3.08386068 -10.0625 3.0625 C-10.98160156 3.05347656 -11.90070313 3.04445313 -12.84765625 3.03515625 C-13.55792969 3.02355469 -14.26820312 3.01195312 -15 3 C-15.33 4.32 -15.66 5.64 -16 7 C-16 5.35 -16 3.7 -16 2 C-10.54538831 0.61470179 -5.63281599 -0.2396943 0 0 Z " fill="#9D9D9B" transform="translate(1407,469)"/>
<path d="M0 0 C0.33 0 0.66 0 1 0 C1.91657981 5.38490641 2.11138159 10.54230189 2 16 C0.68 15.34 -0.64 14.68 -2 14 C-2 12.35 -2 10.7 -2 9 C-1.34 9 -0.68 9 0 9 C0 6.03 0 3.06 0 0 Z " fill="#1D1D1C" transform="translate(1405,198)"/>
<path d="M0 0 C0.66 0.99 1.32 1.98 2 3 C2.66 2.01 3.32 1.02 4 0 C4 2.64 4 5.28 4 8 C3.01 8 2.02 8 1 8 C0.67 10.31 0.34 12.62 0 15 C-0.33 15 -0.66 15 -1 15 C-1.10251672 9.87416389 -1.03590199 5.05002222 0 0 Z " fill="#181818" transform="translate(1327,856)"/>
<path d="M0 0 C0.66 0 1.32 0 2 0 C2 0.66 2 1.32 2 2 C2.928125 2.1546875 2.928125 2.1546875 3.875 2.3125 C6 3 6 3 8 6 C5.525 5.01 5.525 5.01 3 4 C3 4.99 3 5.98 3 7 C-1.875 5.25 -1.875 5.25 -3 3 C-2.01 3 -1.02 3 0 3 C0 2.01 0 1.02 0 0 Z " fill="#383838" transform="translate(1830,668)"/>
<path d="M0 0 C0.66 0 1.32 0 2 0 C2.27632268 1.43267304 2.52019671 2.87163335 2.75 4.3125 C2.88921875 5.11300781 3.0284375 5.91351563 3.171875 6.73828125 C3 9 3 9 1.015625 10.79296875 C0.35046875 11.19128906 -0.3146875 11.58960938 -1 12 C-1.02687279 10.18757948 -1.04633715 8.37504767 -1.0625 6.5625 C-1.07410156 5.55316406 -1.08570313 4.54382813 -1.09765625 3.50390625 C-1 1 -1 1 0 0 Z " fill="#080808" transform="translate(1389,477)"/>
<path d="M0 0 C0.99 0 1.98 0 3 0 C3.08090971 1.62418745 3.13914995 3.24951745 3.1875 4.875 C3.22230469 5.77992188 3.25710938 6.68484375 3.29296875 7.6171875 C3.19628906 8.40351563 3.09960938 9.18984375 3 10 C2.01 10.66 1.02 11.32 0 12 C0 8.04 0 4.08 0 0 Z " fill="#0A0A0A" transform="translate(1302,431)"/>
<path d="M0 0 C2 2 2 2 2.125 5.625 C2.08375 6.73875 2.0425 7.8525 2 9 C1.34 8.67 0.68 8.34 0 8 C-0.33 9.98 -0.66 11.96 -1 14 C-1.33 14 -1.66 14 -2 14 C-2.33 9.71 -2.66 5.42 -3 1 C-2.01 2.485 -2.01 2.485 -1 4 C-0.67 2.68 -0.34 1.36 0 0 Z " fill="#171717" transform="translate(1293,354)"/>
<path d="M0 0 C0.33 0 0.66 0 1 0 C1.04898437 0.85464844 1.09796875 1.70929687 1.1484375 2.58984375 C1.22320313 3.69457031 1.29796875 4.79929687 1.375 5.9375 C1.44460938 7.03964844 1.51421875 8.14179687 1.5859375 9.27734375 C1.72257812 10.17582031 1.85921875 11.07429687 2 12 C2.66 12.33 3.32 12.66 4 13 C2.33333333 14.66666667 0.66666667 16.33333333 -1 18 C-0.505 9.09 -0.505 9.09 0 0 Z " fill="#464646" transform="translate(1315,949)"/>
<path d="M0 0 C0.99 0.33 1.98 0.66 3 1 C2.67 1.66 2.34 2.32 2 3 C2.66 3.33 3.32 3.66 4 4 C-1.41538462 7.07692308 -1.41538462 7.07692308 -4.375 6.6875 C-4.91125 6.460625 -5.4475 6.23375 -6 6 C-5.01 6 -4.02 6 -3 6 C-2.690625 5.195625 -2.38125 4.39125 -2.0625 3.5625 C-1 1 -1 1 0 0 Z " fill="#171716" transform="translate(1423,460)"/>
<path d="M0 0 C0.33 0 0.66 0 1 0 C1.66 2.64 2.32 5.28 3 8 C2.34 8 1.68 8 1 8 C1.03480469 8.61488281 1.06960938 9.22976563 1.10546875 9.86328125 C1.13253906 10.67152344 1.15960937 11.47976563 1.1875 12.3125 C1.23970703 13.51326172 1.23970703 13.51326172 1.29296875 14.73828125 C0.93801608 17.47851584 0.10633718 18.29171079 -2 20 C-1.41339754 13.32271667 -0.76418989 6.65936905 0 0 Z " fill="#191919" transform="translate(1306,1028)"/>
<path d="M0 0 C3.26460973 1.80412643 4.88929795 2.83394693 7 6 C6.01 6.99 5.02 7.98 4 9 C0 2.25 0 2.25 0 0 Z " fill="#171717" transform="translate(1392,176)"/>
<path d="M0 0 C0.33 0 0.66 0 1 0 C1 1.98 1 3.96 1 6 C1.66 6 2.32 6 3 6 C2.67 7.65 2.34 9.3 2 11 C1.01 10.67 0.02 10.34 -1 10 C-1.125 3.375 -1.125 3.375 0 0 Z " fill="#141515" transform="translate(1325,875)"/>
<path d="M0 0 C0.33 0 0.66 0 1 0 C1.84681133 5.08086796 2.09038099 9.84828377 2 15 C1.01 14.34 0.02 13.68 -1 13 C-0.67 8.71 -0.34 4.42 0 0 Z " fill="#1B1B1A" transform="translate(1412,247)"/>
<path d="M0 0 C3.67230705 3.07999946 4.56802365 5.2482602 5 10 C2 9 2 9 0.8125 6.6875 C0 4 0 4 0 0 Z " fill="#1E1E1D" transform="translate(1399,182)"/>
<path d="M0 0 C2.26609984 4.53219967 1.92735976 6.17772925 1 11 C0.01 10.67 -0.98 10.34 -2 10 C-1.34 6.7 -0.68 3.4 0 0 Z " fill="#101010" transform="translate(1862,713)"/>
<path d="M0 0 C1 3 1 3 0 6 C-2.0625 6.6875 -2.0625 6.6875 -4 7 C-4.66 5.68 -5.32 4.36 -6 3 C-5.38125 2.87625 -4.7625 2.7525 -4.125 2.625 C-1.80879168 2.12802644 -1.80879168 2.12802644 0 0 Z " fill="#1C1D1C" transform="translate(1433,455)"/>
<path d="M0 0 C1.32 1.65 2.64 3.3 4 5 C3.03114628 6.68496298 2.03013277 8.35178756 1 10 C0.67 10 0.34 10 0 10 C0 6.7 0 3.4 0 0 Z " fill="#252525" transform="translate(1303,1048)"/>
<path d="M0 0 C0.33 0 0.66 0 1 0 C1.34833144 4.87664009 0.41685712 7.77050005 -2 12 C-2.99 11.67 -3.98 11.34 -5 11 C-4.360625 9.9275 -3.72125 8.855 -3.0625 7.75 C-1.59398727 5.19177818 -0.47145458 2.94659114 0 0 Z " fill="#A5A5A5" transform="translate(1438,447)"/>
<path d="M0 0 C0.33 0 0.66 0 1 0 C1.33 4.62 1.66 9.24 2 14 C1.01 14.66 0.02 15.32 -1 16 C-0.67 10.72 -0.34 5.44 0 0 Z " fill="#212221" transform="translate(1331,816)"/>
<path d="M0 0 C7.75 0.75 7.75 0.75 10 3 C5.25 4.125 5.25 4.125 3 3 C3 2.34 3 1.68 3 1 C2.01 0.67 1.02 0.34 0 0 Z " fill="#0B0B0B" transform="translate(1382,174)"/>
<path d="M0 0 C0.33 0 0.66 0 1 0 C2.45295405 8.19256018 2.45295405 8.19256018 0.5625 11.5625 C0.046875 12.036875 -0.46875 12.51125 -1 13 C-1.07654536 8.48382401 -1.10228696 4.40914783 0 0 Z " fill="#363636" transform="translate(1302,1059)"/>
<path d="M0 0 C0.66 0 1.32 0 2 0 C1.6875 2.375 1.6875 2.375 1 5 C0.01 5.66 -0.98 6.32 -2 7 C-1.125 1.125 -1.125 1.125 0 0 Z " fill="#151515" transform="translate(1862,782)"/>
<path d="M0 0 C0.99 0.33 1.98 0.66 3 1 C3 1.99 3 2.98 3 4 C2.34 4 1.68 4 1 4 C1 5.98 1 7.96 1 10 C0.67 10 0.34 10 0 10 C0 6.7 0 3.4 0 0 Z " fill="#131312" transform="translate(1301,427)"/>
</svg>
