<?xml version="1.0" encoding="UTF-8"?>
<svg version="1.1" xmlns="http://www.w3.org/2000/svg" width="1018" height="1222">
<path d="M0 0 C335.94 0 671.88 0 1018 0 C1018 403.26 1018 806.52 1018 1222 C682.06 1222 346.12 1222 0 1222 C0 818.74 0 415.48 0 0 Z " fill="#F6F6F6" transform="translate(0,0)"/>
<path d="M0 0 C46.86 0 93.72 0 142 0 C142 7.59 142 15.18 142 23 C129.13 23.33 116.26 23.66 103 24 C102.01 27.465 102.01 27.465 101 31 C100.37006102 32.51579066 99.70744161 34.01879413 99 35.5 C97.67465045 38.3441808 96.84815725 40.65075466 96.125 43.75 C94.69300443 47.88687609 92.75985767 49.94481978 89 52 C86.94091513 52.76089278 84.86333514 53.47287944 82.7734375 54.14453125 C81.69239746 54.49491455 80.61135742 54.84529785 79.49755859 55.20629883 C78.67336426 55.46822021 77.84916992 55.7301416 77 56 C76.6894082 67.97872293 76.40158834 79.95794613 76.125 91.9375 C76.10281025 92.89739586 76.0806205 93.85729172 76.05775833 94.84627533 C75.33914495 126.1493554 74.84440843 157.45307314 74.45703125 188.76171875 C74.44604243 189.64888824 74.43505362 190.53605773 74.4237318 191.45011115 C74.20100468 209.47228304 73.98830889 227.49456838 73.78646713 245.51698619 C73.70892546 252.44002046 73.62966191 259.36303379 73.54940933 266.28603715 C73.49400878 271.08439659 73.44140959 275.88277449 73.39132476 280.68119222 C73.35929271 283.68896326 73.32461566 286.69670043 73.28937888 289.70443547 C73.26718998 291.66125612 73.24801741 293.61811034 73.22911263 295.57496548 C73.13640369 303.2558609 72.94528662 310.92903731 72.69917016 318.60668798 C72.12581331 336.53162118 71.84815835 354.43066429 71.85461628 372.36638069 C71.8548264 376.0368141 71.84924546 379.70724047 71.84455872 383.37767029 C71.83637916 390.51858943 71.83350975 397.65950031 71.83294634 404.80042376 C71.83246499 410.62728943 71.83038017 416.45415247 71.82724571 422.2810173 C71.81847357 438.93628607 71.81382087 455.59154848 71.81457619 472.24681957 C71.81461614 473.13796677 71.8146561 474.02911397 71.81469727 474.94726562 C71.81475859 476.28568864 71.81475859 476.28568864 71.81482115 477.65115051 C71.81522657 492.07249299 71.80567411 506.49380925 71.7915589 520.91514416 C71.77705569 535.8552181 71.77029627 550.79527937 71.77115268 565.7353605 C71.77147991 574.06979709 71.76889058 582.4042059 71.75797462 590.73863602 C71.71619915 624.22760572 71.81538343 657.66138723 73.47294617 691.12020874 C73.51081045 691.89765182 73.54867473 692.6750949 73.58768642 693.47609687 C73.83089872 698.02717308 74.24393885 702.53446384 74.78592712 707.05983126 C75.05740614 709.52027891 75.14258523 711.95917665 75.17578125 714.43359375 C75.60479418 734.20943996 77.27273978 753.98258507 83.94921875 772.73046875 C85.05238725 776.1630042 85.57145307 779.42591861 86 783 C86.31966139 784.66934283 86.64731066 786.3373217 87 788 C87.66 788 88.32 788 89 788 C95.12783558 802.62587172 95.12783558 802.62587172 96.51953125 810.0390625 C97.21017583 812.8577908 98.49856249 815.22225046 99.85546875 817.7734375 C103.34835832 824.56847864 106.12093754 831.46393649 107.53125 838.9765625 C108.01068066 841.04610483 108.720573 842.7697798 109.625 844.6875 C111.03925531 848.09456961 111.2665823 850.35670854 111 854 C111.66 854 112.32 854 113 854 C113.50367757 855.45706726 114.00282556 856.91570096 114.5 858.375 C114.7784375 859.18710937 115.056875 859.99921875 115.34375 860.8359375 C116 863 116 863 116 865 C116.66 865 117.32 865 118 865 C122.02659238 878.74123515 122.02659238 878.74123515 123.4453125 885.5859375 C124.14093657 888.61337185 125.02074298 891.57591152 125.875 894.5625 C127.72845501 901.42097771 129.0230247 908.30575641 130.1875 915.3125 C130.35427246 916.31418213 130.52104492 917.31586426 130.69287109 918.34790039 C133.86945249 938.09134954 135.40880997 958.77357008 129 978 C128.01 978 127.02 978 126 978 C126.103125 978.66 126.20625 979.32 126.3125 980 C125.91918156 983.77585704 124.41324268 985.85681763 122.2890625 988.9375 C120.90596655 990.98343457 120.90596655 990.98343457 120.140625 993.44140625 C116.0786187 1002.55309846 104.84453013 1008.50761732 96 1012 C95.34 1012 94.68 1012 94 1012 C93.67 1012.99 93.34 1013.98 93 1015 C87.12608469 1018.78767577 80.16571806 1020.083822 73.375 1021.171875 C71.83440918 1021.42260773 71.83440918 1021.42260773 70.26269531 1021.67840576 C56.58473849 1023.72425618 42.80386654 1023.925004 29 1024.25 C26.26682738 1024.32474759 23.53380846 1024.40450842 20.80078125 1024.484375 C14.20089908 1024.6735065 7.60075228 1024.84434382 1 1025 C0.67 1025.99 0.34 1026.98 0 1028 C1.41539062 1028.16435547 1.41539062 1028.16435547 2.859375 1028.33203125 C4.14328125 1028.49058594 5.4271875 1028.64914062 6.75 1028.8125 C8.00296875 1028.96332031 9.2559375 1029.11414062 10.546875 1029.26953125 C12.93030697 1029.59934846 15.12054504 1030.03650675 17.42651367 1030.73486328 C26.86396056 1033.58680648 36.12781198 1033.38667883 45.89233398 1033.28125 C48.82353417 1033.24988192 51.75419474 1033.24024504 54.68554688 1033.234375 C56.56771485 1033.22521043 58.4498774 1033.21483641 60.33203125 1033.203125 C61.19883011 1033.19887512 62.06562897 1033.19462524 62.95869446 1033.19024658 C67.7284158 1033.13447302 72.27938762 1032.76525112 77 1032 C78.76875798 1031.89392386 80.54061764 1031.82627825 82.3125 1031.8125 C83.15425781 1031.79832031 83.99601563 1031.78414062 84.86328125 1031.76953125 C87 1032 87 1032 89 1034 C89.1953125 1036.1640625 89.1953125 1036.1640625 89.125 1038.625 C89.10695313 1039.44226562 89.08890625 1040.25953125 89.0703125 1041.1015625 C89.04710937 1041.72804688 89.02390625 1042.35453125 89 1043 C70.54510166 1053.11417101 37.23760353 1049.60071647 17 1046 C16.34 1045.67 15.68 1045.34 15 1045 C13.50198623 1044.87036419 12.00131211 1044.77064228 10.5 1044.6875 C4.93301518 1044.1850938 -0.06451061 1042.64223169 -5 1040 C-5.33 1039.34 -5.66 1038.68 -6 1038 C-9.02934491 1037.34227572 -9.02934491 1037.34227572 -12 1037 C-12 1036.34 -12 1035.68 -12 1035 C-12.72058594 1034.87367187 -13.44117188 1034.74734375 -14.18359375 1034.6171875 C-16.95852361 1034.00908914 -19.42642813 1033.17616931 -22.0625 1032.125 C-23.31740234 1031.63386719 -23.31740234 1031.63386719 -24.59765625 1031.1328125 C-27 1030 -27 1030 -28.70082092 1028.45523071 C-31.92512642 1026.41445519 -34.38923218 1026.60721337 -38.18920898 1026.58349609 C-38.90708588 1026.57491074 -39.62496277 1026.56632538 -40.36459351 1026.55747986 C-42.74185987 1026.53237096 -45.11870664 1026.52802934 -47.49609375 1026.5234375 C-49.16644025 1026.50910432 -50.83677504 1026.4933432 -52.50709534 1026.47622681 C-56.91966374 1026.43431151 -61.33215999 1026.40939131 -65.74487305 1026.38873291 C-73.57872933 1026.34877875 -81.41243676 1026.27871218 -89.24609375 1026.2109375 C-90.08296911 1026.20385458 -90.91984447 1026.19677166 -91.7820797 1026.18947411 C-128.06459485 1025.87188407 -128.06459485 1025.87188407 -139.8125 1022.9375 C-140.62396484 1022.75123047 -141.43542969 1022.56496094 -142.27148438 1022.37304688 C-144.18478857 1021.93151514 -146.09313113 1021.46854492 -148 1021 C-148 1020.34 -148 1019.68 -148 1019 C-148.66 1019 -149.32 1019 -150 1019 C-150 1018.34 -150 1017.68 -150 1017 C-150.66 1017 -151.32 1017 -152 1017 C-152.70941909 1010.26051865 -152.70941909 1010.26051865 -150.96728516 1007.16503906 C-146.89703026 1002.28629935 -142.98627682 1000.2495552 -137 998.3125 C-136.15985352 998.02415283 -135.31970703 997.73580566 -134.45410156 997.4387207 C-131.97711866 996.59961326 -129.49139132 995.79514678 -127 995 C-126.33806641 994.78182617 -125.67613281 994.56365234 -124.99414062 994.33886719 C-106.9522112 988.43124721 -85.60324847 986.22118388 -67 991 C-67 991.66 -67 992.32 -67 993 C-64.03 993.66 -61.06 994.32 -58 995 C-58 995.66 -58 996.32 -58 997 C-56.7315625 996.87625 -56.7315625 996.87625 -55.4375 996.75 C-51.83324845 997.01212739 -49.84227889 998.00978154 -46.8125 999.91015625 C-44.00211045 1001.60002411 -41.03268631 1002.76216885 -38 1004 C-38 1004.99 -38 1005.98 -38 1007 C-37.05125 1007.309375 -36.1025 1007.61875 -35.125 1007.9375 C-32 1009 -32 1009 -30 1010 C-27.51089052 1010.10248701 -25.05587616 1010.13395541 -22.56640625 1010.1171875 C-21.74878311 1010.11411591 -20.93115997 1010.11104431 -20.08876038 1010.10787964 C-6.93514533 1010.01636831 6.2159073 1009.62672698 19.36401367 1009.25537109 C23.30038732 1009.14464905 27.23695873 1009.04447871 31.17366886 1008.94656563 C34.24611824 1008.86824751 37.31831767 1008.78220641 40.39050102 1008.6941185 C41.84189682 1008.65380449 43.29337389 1008.61630119 44.74492073 1008.58185196 C51.97421171 1008.40771388 58.92790536 1008.11232395 65.98701477 1006.4667511 C69.00309332 1005.76741265 72.05416682 1005.43655741 75.125 1005.0625 C83.13745973 1003.94023365 88.6949291 1002.22859538 95 997 C97.2783428 995.69288681 99.58419322 994.45873902 101.9140625 993.24609375 C105.87619842 990.87919982 107.34772181 988.71462832 108.6875 984.3125 C108.93886719 983.50425781 109.19023438 982.69601562 109.44921875 981.86328125 C109.63097656 981.24839844 109.81273437 980.63351562 110 980 C110.66 980 111.32 980 112 980 C112.12117188 979.36191406 112.24234375 978.72382812 112.3671875 978.06640625 C112.53476562 977.24011719 112.70234375 976.41382813 112.875 975.5625 C113.11863281 974.32693359 113.11863281 974.32693359 113.3671875 973.06640625 C113.57601563 972.38449219 113.78484375 971.70257812 114 971 C114.66 970.67 115.32 970.34 116 970 C118.50009093 962.63271076 118.38466387 954.6229577 118.375 946.9375 C118.37483887 945.72682861 118.37467773 944.51615723 118.37451172 943.26879883 C118.18952533 928.30145248 116.87031131 911.45955603 110.9375 897.5 C110 895 110 895 109.5625 891.5 C109.25587331 888.08916935 109.25587331 888.08916935 107.65625 885.92578125 C105.28249922 881.7325281 104.20088062 877.31774149 102.9375 872.6875 C102.68162109 871.77548828 102.42574219 870.86347656 102.16210938 869.92382812 C100.68761623 864.63612133 99.30633731 859.33160636 98 854 C97.34 854 96.68 854 96 854 C93.68663251 848.99423871 92.24639771 844.25981316 91.125 838.875 C89.66051065 832.18321909 87.69157451 826.12551613 84.953125 819.83203125 C83.90916621 816.73010451 83.82663537 814.25058679 84 811 C83.34 811 82.68 811 82 811 C81.60167969 809.75863281 81.20335937 808.51726563 80.79296875 807.23828125 C80.25813538 805.59624897 79.72296115 803.95432768 79.1875 802.3125 C78.92646484 801.49587891 78.66542969 800.67925781 78.39648438 799.83789062 C76.98319335 795.52822541 75.45502996 791.84387548 73 788 C72.30643577 785.67451993 71.63850788 783.34119555 71 781 C70.67 780.360625 70.34 779.72125 70 779.0625 C68.74217421 776.4682343 68.21787631 773.79177234 67.56640625 770.99609375 C67.01771648 768.79405927 67.01771648 768.79405927 65.5 766.1875 C58.32989616 750.95102935 59.84157207 729.90402499 59.4375 713.296875 C59.41832079 712.50955553 59.39914158 711.72223606 59.37938118 710.91105843 C59.22286395 704.35229143 59.0837607 697.79317027 58.94787598 691.23394775 C58.84541505 686.30423956 58.73579529 681.37479713 58.61624146 676.44547272 C58.56383501 674.16740685 58.52182252 671.88930767 58.48022461 669.61102295 C58.44699491 668.20388518 58.41324917 666.79675948 58.37890625 665.38964844 C58.3538501 664.17613708 58.32879395 662.96262573 58.30297852 661.71234131 C58.10185013 657.93748985 58.10185013 657.93748985 56.99651623 654.13466454 C55.57109987 647.83367408 55.72699994 641.56478374 55.75276184 635.13302612 C55.75117149 633.73606373 55.74870565 632.3391021 55.74544543 630.94214261 C55.73905971 627.12222121 55.74507845 623.30240654 55.75320971 619.48249221 C55.75980851 615.35568525 55.75483352 611.22888979 55.75132751 607.1020813 C55.74629399 599.02565176 55.75191634 590.94926327 55.76117782 582.87283884 C55.77157669 573.46549678 55.77149124 564.05816354 55.77100524 554.65081681 C55.77050494 537.86599813 55.77965774 521.08119852 55.79418945 504.29638672 C55.8082807 488.01187798 55.81536 471.72738602 55.81469727 455.44287109 C55.81465731 454.43958892 55.81461735 453.43630675 55.81457619 452.40262209 C55.81453583 451.40106774 55.81449548 450.39951339 55.8144539 449.3676089 C55.81376393 430.82211054 55.81965424 412.27661929 55.82860712 393.73112323 C55.8316223 387.17449691 55.83268653 380.6178719 55.83313942 374.06124496 C55.83382181 366.07199142 55.8382901 358.08274988 55.84747223 350.09350143 C55.85208644 346.0177312 55.85513709 341.94197633 55.85387802 337.86620331 C55.85278114 334.13449626 55.85631269 330.40282314 55.86352655 326.67112316 C55.86619273 324.68345815 55.8639832 322.69578845 55.8615945 320.70812309 C55.87706454 315.01908799 56.03938343 309.60582324 57 304 C57.09461949 302.47364037 57.15891632 300.94487572 57.182724 299.41577148 C57.2056859 298.15139425 57.2056859 298.15139425 57.22911167 296.86147404 C57.2410805 295.95714854 57.25304934 295.05282305 57.26538086 294.12109375 C57.29010546 292.65876769 57.29010546 292.65876769 57.31532955 291.16689968 C57.36922403 287.92381837 57.41695779 284.68067513 57.46484375 281.4375 C57.502328 279.12752054 57.54027162 276.8175485 57.5786438 274.50758362 C57.6599665 269.57508571 57.73889602 264.6425579 57.81594849 259.70999146 C58.01896059 246.75307721 58.24026961 233.79646719 58.4609375 220.83984375 C58.48302591 219.53623335 58.50511433 218.23262295 58.52787209 216.8895092 C58.9444098 192.36499355 59.4357515 167.84272681 59.99946976 143.32116699 C60.06198261 140.58514488 60.12320557 137.84909676 60.18405151 135.11303711 C60.90064072 102.99582505 60.90064072 102.99582505 61.6854248 89.88641357 C62.08879802 83.02559507 62.11350761 76.18283229 62.0625 69.3125 C62.05573242 67.50942383 62.05573242 67.50942383 62.04882812 65.66992188 C62.03731405 62.77988889 62.02106633 59.88997626 62 57 C61.30422852 56.88462891 60.60845703 56.76925781 59.89160156 56.65039062 C58.9837793 56.48732422 58.07595703 56.32425781 57.140625 56.15625 C56.23860352 55.99962891 55.33658203 55.84300781 54.40722656 55.68164062 C52 55 52 55 49.75 52.5 C49.1725 51.345 48.595 50.19 48 49 C47.50757813 48.28714844 47.01515625 47.57429688 46.5078125 46.83984375 C42.46587476 40.89297363 41.09753144 35.71596173 40.32421875 28.58984375 C40.27831973 26.07372171 40.27831973 26.07372171 39 25 C36.11747355 24.83976438 33.25621473 24.74045971 30.37109375 24.68359375 C29.50686295 24.66281265 28.64263214 24.64203156 27.75221252 24.62062073 C24.98072555 24.55502886 22.20914079 24.49619582 19.4375 24.4375 C17.56314077 24.39432392 15.68879157 24.35070994 13.81445312 24.30664062 C9.20973434 24.19851032 4.60494559 24.09950917 0 24 C0 16.08 0 8.16 0 0 Z " fill="#040404" transform="translate(481,109)"/>
<path d="M0 0 C47.52 0 95.04 0 144 0 C144 8.91 144 17.82 144 27 C131.13 27.33 118.26 27.66 105 28 C104.67 31.96 104.34 35.92 104 40 C101.5625 42.9375 101.5625 42.9375 99 45 C97.680982 47.66533035 97.680982 47.66533035 97 50 C96.34 50 95.68 50 95 50 C95 50.66 95 51.32 95 52 C92.03685715 54.05773809 89.45900259 55.13524935 86 56 C85.505 56.99 85.505 56.99 85 58 C82.4375 58.625 82.4375 58.625 80 59 C80.00444122 59.81684265 80.00888245 60.6336853 80.01345825 61.47528076 C80.05456652 69.40828502 80.08448358 77.3412335 80.10362434 85.2743187 C80.11379714 89.34682725 80.12742724 93.41924376 80.15087891 97.49169922 C80.26650506 118.15592616 79.80279225 138.71630076 78.77761841 159.35557556 C77.9934276 175.24992377 77.54687934 191.13757307 77.23242188 207.04753113 C77.21376639 207.98524434 77.1951109 208.92295755 77.17589009 209.88908631 C77.0402962 216.72455395 76.9075524 223.56007577 76.77560425 230.39561462 C76.69663162 234.48501659 76.61762611 238.57441792 76.53857422 242.66381836 C76.51737573 243.76139387 76.49617725 244.85896937 76.47433639 245.98980474 C76.24046358 258.07136448 76.00112649 270.1527282 75.73370361 282.2335968 C74.04877572 358.35997497 73.74226574 434.44386964 73.85594583 510.58432084 C73.87212067 521.54262146 73.8828348 532.50091851 73.89013672 543.45922852 C73.89066217 544.245516 73.89118761 545.03180349 73.89172898 545.84191786 C73.89434148 549.79152885 73.89686831 553.74113989 73.89935279 557.69075096 C73.91965527 589.79385375 73.95463551 621.89692246 74 654 C74.66 654 75.32 654 76 654 C76.02505615 655.00788574 76.0501123 656.01577148 76.07592773 657.05419922 C76.17097758 660.83766742 76.27094904 664.62099306 76.37231445 668.40429688 C76.41529822 670.03349443 76.45699424 671.66272654 76.49731445 673.29199219 C76.78542723 685.03924169 76.78542723 685.03924169 77.7746582 696.74365234 C78.2104805 701.10754152 78.24953788 705.49330826 78.375 709.875 C78.75331908 720.9889827 79.56626092 732.04681079 80.5 743.125 C80.56580261 743.91275818 80.63160522 744.70051636 80.69940186 745.512146 C81.30373161 752.70200023 81.92456885 759.86315274 83 767 C80.727756 763.591634 80.17890463 760.57142181 79.5 756.625 C79.30881592 755.54109985 79.30881592 755.54109985 79.11376953 754.43530273 C78.85677018 752.96671188 78.60299647 751.4975527 78.35253906 750.02783203 C78.05663296 748.32575717 77.73101681 746.62888437 77.3984375 744.93359375 C75.8328986 736.34649605 75.60055772 727.72567682 75.34130859 719.01977539 C75.3098877 717.98715576 75.2784668 716.95453613 75.24609375 715.890625 C75.22216553 714.97313477 75.1982373 714.05564453 75.17358398 713.11035156 C75.0370616 710.66408542 74.8127587 708.28983289 74.52209187 705.86058998 C74.00664115 701.28374995 73.69695327 696.71960317 73.47294617 692.12020874 C73.43050659 691.26354244 73.38806702 690.40687615 73.3443414 689.52425027 C71.74667043 656.12070992 71.71737528 622.73659677 71.76116182 589.30518196 C71.77183649 580.92453882 71.77148564 572.54390461 71.77100524 564.16325597 C71.77050972 549.18467383 71.77952884 534.20611339 71.79418945 519.22753906 C71.80830195 504.80077724 71.81535824 490.37403445 71.81469727 475.94726562 C71.81463733 474.61054483 71.81463733 474.61054483 71.81457619 473.24681957 C71.81453583 472.35697386 71.81449548 471.46712814 71.8144539 470.55031741 C71.81375912 453.9502781 71.81967742 437.35024662 71.82860712 420.75020988 C71.83158435 414.95121616 71.83268188 409.15222392 71.83313942 403.35322952 C71.83383101 396.26746269 71.83842448 389.18170911 71.84747223 382.09594788 C71.8519965 378.50262485 71.85517183 374.90931841 71.85387802 371.31599236 C71.84884532 353.37188482 72.19074991 335.46695559 72.76560688 317.53418159 C73.0289171 309.29594325 73.18575708 301.06274518 73.26538086 292.82080078 C73.28174997 291.37722238 73.29840896 289.93364725 73.31532097 288.49007511 C73.35033253 285.45698877 73.38357263 282.42389121 73.4152317 279.39076805 C73.46627382 274.51122869 73.52221743 269.63175163 73.57878113 264.75227356 C73.65921376 257.78822204 73.73822906 250.82415614 73.81622314 243.8600769 C74.01868209 225.82715807 74.23367175 207.79439038 74.45703125 189.76171875 C74.46801 188.87439316 74.47898874 187.98706757 74.49030018 187.07285333 C74.87982621 155.69069655 75.39967621 124.31393649 76.125 92.9375 C76.14727032 91.97293129 76.16954063 91.00836258 76.19248581 90.01456451 C76.4476659 79.00935101 76.71466913 68.00447411 77 57 C77.68852051 56.72865234 78.37704102 56.45730469 79.08642578 56.17773438 C79.9886084 55.82001953 80.89079102 55.46230469 81.8203125 55.09375 C82.71508301 54.73990234 83.60985352 54.38605469 84.53173828 54.02148438 C89.09636271 52.13242516 92.96783446 49.9418152 96 46 C96.90038896 43.50308802 97.62329357 41.0065848 98.2890625 38.4375 C98.97150151 36.09770912 99.89452078 34.16251114 101 32 C101.67188497 29.66816393 102.33915417 27.33498858 103 25 C104 24 104 24 107.69360352 23.88647461 C109.33871292 23.88663376 110.98382731 23.89233012 112.62890625 23.90234375 C113.92525246 23.90446617 113.92525246 23.90446617 115.24778748 23.90663147 C118.01939292 23.91224761 120.7909188 23.92480281 123.5625 23.9375 C125.4368478 23.94251292 127.31119685 23.94707619 129.18554688 23.95117188 C133.79042021 23.96137319 138.3951206 23.98094533 143 24 C143 16.41 143 8.82 143 1 C96.14 1 49.28 1 1 1 C1 8.92 1 16.84 1 25 C5.18816406 24.96519531 5.18816406 24.96519531 9.4609375 24.9296875 C12.1581985 24.91410043 14.85545453 24.90195031 17.55273438 24.89013672 C19.43068682 24.88006466 21.30862353 24.86640638 23.18652344 24.84912109 C25.8822009 24.82492547 28.57767146 24.81352917 31.2734375 24.8046875 C32.11619232 24.79436493 32.95894714 24.78404236 33.82723999 24.77340698 C35.88621247 24.77300856 37.94467935 24.87742412 40 25 C42.77042109 27.77042109 42.39796106 29.76533805 42.625 33.625 C42.69976563 34.81351563 42.77453125 36.00203125 42.8515625 37.2265625 C42.90054688 38.14179688 42.94953125 39.05703125 43 40 C42.01 39.505 42.01 39.505 41 39 C40.34 35.37 39.68 31.74 39 28 C19.695 27.505 19.695 27.505 0 27 C0 18.09 0 9.18 0 0 Z " fill="#888888" transform="translate(480,108)"/>
<path d="M0 0 C0.47308594 0.39832031 0.94617188 0.79664063 1.43359375 1.20703125 C2.09488281 1.73683594 2.75617187 2.26664063 3.4375 2.8125 C4.07558594 3.33457031 4.71367188 3.85664063 5.37109375 4.39453125 C7.83655226 5.90018273 9.93325665 6.71869815 12.66430664 7.6003418 C13.88169273 7.99626778 13.88169273 7.99626778 15.12367249 8.40019226 C15.74286057 8.59812881 16.36204865 8.79606537 17 9 C17.30273939 32.93193722 17.40543498 56.85129433 16.3671875 80.765625 C16.33594221 81.48931337 16.30469692 82.21300175 16.27250481 82.95862007 C16.1412103 85.98818802 16.00860145 89.01769672 15.8752203 92.0471735 C13.81927415 138.76002288 13.51017183 185.45819738 13.29125977 232.20776367 C13.28456539 233.62869455 13.27786868 235.04962541 13.27116966 236.47055626 C13.26620415 237.52658541 13.26620415 237.52658541 13.26113832 238.60394847 C13.25444363 240.02761747 13.24773619 241.45128642 13.24101603 242.8749553 C13.22410498 246.46671675 13.20758045 250.05847925 13.1917572 253.65024567 C13.11662072 270.48218781 12.99003672 287.31221274 12.76147461 304.14282227 C12.75049527 304.95169376 12.73951594 305.76056525 12.72820389 306.59394801 C12.68314088 309.90055849 12.63773942 313.2071642 12.59210378 316.51376683 C11.97791673 361.02049715 11.81200964 405.52123414 11.81488943 450.03191626 C11.8145843 456.94292522 11.80638737 463.8538951 11.79418945 470.76489258 C11.72067338 513.47248878 11.89062896 556.16150233 12.82372832 598.86036229 C12.88538597 601.69268327 12.94517427 604.52503906 13.00473976 607.35740471 C13.39723358 625.73829157 13.94561183 644.09721258 15.00708008 662.45288086 C15.04875348 663.18886981 15.09042689 663.92485876 15.13336313 664.68315041 C15.14238242 672.05734025 15.14238242 672.05734025 17 679 C17.13023601 680.77055027 17.20262385 682.54551109 17.24609375 684.3203125 C17.27775635 685.40650879 17.30941895 686.49270508 17.34204102 687.61181641 C17.37354248 688.77116699 17.40504395 689.93051758 17.4375 691.125 C17.75842407 701.19910469 18.45019206 711.03909849 20 721 C9.92897515 708.89830528 12.8088084 682.5582637 12.4375 667.296875 C12.41832079 666.5095442 12.39914158 665.7222134 12.37938118 664.91102409 C12.22286397 658.35226854 12.08376047 651.79315884 11.94787598 645.23394775 C11.84541505 640.30423956 11.73579529 635.37479713 11.61624146 630.44547272 C11.56383501 628.16740685 11.52182252 625.88930767 11.48022461 623.61102295 C11.44699491 622.20388518 11.41324917 620.79675948 11.37890625 619.38964844 C11.3538501 618.17613708 11.32879395 616.96262573 11.30297852 615.71234131 C11.10185013 611.93748985 11.10185013 611.93748985 9.99651623 608.13466454 C8.57109987 601.83367408 8.72699994 595.56478374 8.75276184 589.13302612 C8.75117149 587.73606373 8.74870565 586.3391021 8.74544543 584.94214261 C8.73905971 581.12222121 8.74507845 577.30240654 8.75320971 573.48249221 C8.75980851 569.35568525 8.75483352 565.22888979 8.75132751 561.1020813 C8.74629399 553.02565176 8.75191634 544.94926327 8.76117782 536.87283884 C8.77157669 527.46549678 8.77149124 518.05816354 8.77100524 508.65081681 C8.77050494 491.86599813 8.77965774 475.08119852 8.79418945 458.29638672 C8.8082807 442.01187798 8.81536 425.72738602 8.81469727 409.44287109 C8.81465731 408.43958892 8.81461735 407.43630675 8.81457619 406.40262209 C8.81453583 405.40106774 8.81449548 404.39951339 8.8144539 403.3676089 C8.81376393 384.82211054 8.81965424 366.27661929 8.82860712 347.73112323 C8.8316223 341.17449691 8.83268653 334.6178719 8.83313942 328.06124496 C8.83382181 320.07199142 8.8382901 312.08274988 8.84747223 304.09350143 C8.85208644 300.0177312 8.85513709 295.94197633 8.85387802 291.86620331 C8.85278114 288.13449626 8.85631269 284.40282314 8.86352655 280.67112316 C8.86619273 278.68345815 8.8639832 276.69578845 8.8615945 274.70812309 C8.87706454 269.01908799 9.03938343 263.60582324 10 258 C10.09461949 256.47364037 10.15891632 254.94487572 10.182724 253.41577148 C10.19803193 252.57285333 10.21333986 251.72993517 10.22911167 250.86147404 C10.24706492 249.5049858 10.24706492 249.5049858 10.26538086 248.12109375 C10.29010546 246.65876769 10.29010546 246.65876769 10.31532955 245.16689968 C10.36922403 241.92381837 10.41695779 238.68067513 10.46484375 235.4375 C10.502328 233.12752054 10.54027162 230.8175485 10.5786438 228.50758362 C10.6599665 223.57508571 10.73889602 218.6425579 10.81594849 213.70999146 C11.01896059 200.75307721 11.24026961 187.79646719 11.4609375 174.83984375 C11.48302591 173.53623335 11.50511433 172.23262295 11.52787209 170.8895092 C11.9444098 146.36499355 12.4357515 121.84272681 12.99946976 97.32116699 C13.06198261 94.58514488 13.12320557 91.84909676 13.18405151 89.11303711 C13.90064072 56.99582505 13.90064072 56.99582505 14.6854248 43.88641357 C15.08879802 37.02559507 15.11350761 30.18283229 15.0625 23.3125 C15.05798828 22.11044922 15.05347656 20.90839844 15.04882812 19.66992188 C15.03731405 16.77988889 15.02106633 13.88997626 15 11 C14.307854 10.88970459 13.61570801 10.77940918 12.90258789 10.66577148 C11.99758545 10.50665283 11.09258301 10.34753418 10.16015625 10.18359375 C9.26176025 10.03204834 8.36336426 9.88050293 7.43774414 9.72436523 C5 9 5 9 2.4375 6.0625 C1 3 1 3 0 0 Z " fill="#727272" transform="translate(528,155)"/>
<path d="M0 0 C47.52 0 95.04 0 144 0 C144 8.91 144 17.82 144 27 C131.13 27.33 118.26 27.66 105 28 C104.67 31.96 104.34 35.92 104 40 C101.5625 42.9375 101.5625 42.9375 99 45 C97.680982 47.66533035 97.680982 47.66533035 97 50 C96.34 50 95.68 50 95 50 C95 50.66 95 51.32 95 52 C89.78459571 55.57627723 85.24750615 56.95874897 79 58 C78.01 111.13 77.02 164.26 76 219 C75.67 219 75.34 219 75 219 C74.93562713 209.2500646 74.8970133 199.50011225 74.875 189.75 C74.87328796 188.99734612 74.87157593 188.24469223 74.86981201 187.46923065 C74.8106526 157.84466425 75.31881968 128.24100209 76 98.625 C76.02391563 97.58480209 76.04783127 96.54460419 76.07247162 95.47288513 C76.36852796 82.64826423 76.67775864 69.82398883 77 57 C77.68852051 56.72865234 78.37704102 56.45730469 79.08642578 56.17773438 C79.9886084 55.82001953 80.89079102 55.46230469 81.8203125 55.09375 C82.71508301 54.73990234 83.60985352 54.38605469 84.53173828 54.02148438 C89.09636271 52.13242516 92.96783446 49.9418152 96 46 C96.90038896 43.50308802 97.62329357 41.0065848 98.2890625 38.4375 C98.97150151 36.09770912 99.89452078 34.16251114 101 32 C101.67188497 29.66816393 102.33915417 27.33498858 103 25 C104 24 104 24 107.69360352 23.88647461 C109.33871292 23.88663376 110.98382731 23.89233012 112.62890625 23.90234375 C113.92525246 23.90446617 113.92525246 23.90446617 115.24778748 23.90663147 C118.01939292 23.91224761 120.7909188 23.92480281 123.5625 23.9375 C125.4368478 23.94251292 127.31119685 23.94707619 129.18554688 23.95117188 C133.79042021 23.96137319 138.3951206 23.98094533 143 24 C143 16.41 143 8.82 143 1 C96.14 1 49.28 1 1 1 C1 8.92 1 16.84 1 25 C5.18816406 24.96519531 5.18816406 24.96519531 9.4609375 24.9296875 C12.1581985 24.91410043 14.85545453 24.90195031 17.55273438 24.89013672 C19.43068682 24.88006466 21.30862353 24.86640638 23.18652344 24.84912109 C25.8822009 24.82492547 28.57767146 24.81352917 31.2734375 24.8046875 C32.11619232 24.79436493 32.95894714 24.78404236 33.82723999 24.77340698 C35.88621247 24.77300856 37.94467935 24.87742412 40 25 C42.77042109 27.77042109 42.39796106 29.76533805 42.625 33.625 C42.69976563 34.81351563 42.77453125 36.00203125 42.8515625 37.2265625 C42.90054688 38.14179688 42.94953125 39.05703125 43 40 C42.01 39.505 42.01 39.505 41 39 C40.34 35.37 39.68 31.74 39 28 C19.695 27.505 19.695 27.505 0 27 C0 18.09 0 9.18 0 0 Z " fill="#4C4C4C" transform="translate(480,108)"/>
<path d="M0 0 C0.33 0 0.66 0 1 0 C1.02331138 10.17163892 1.04100993 20.34327134 1.05181217 30.51493168 C1.05700027 35.23953771 1.06402267 39.96412529 1.07543945 44.6887207 C1.08641468 49.25990921 1.09230739 53.83108012 1.09487724 58.40228081 C1.09670541 60.13431512 1.1002744 61.86634863 1.10573006 63.59837532 C1.11313573 66.05006008 1.11398293 68.50167477 1.11352539 70.95336914 C1.11712067 71.64749908 1.12071594 72.34162903 1.12442017 73.05679321 C1.11503779 77.79179814 0.84365919 82.47894833 0.50474548 87.2020874 C0.00133523 94.41423103 -0.16382715 101.58541167 -0.18945312 108.81323242 C-0.20218293 110.79315398 -0.21491301 112.77307555 -0.2276535 114.75299704 C-0.24026324 116.84713335 -0.25064828 118.94126973 -0.26036072 121.03542137 C-0.28087298 125.4295997 -0.30847811 129.82371735 -0.33703613 134.21784973 C-0.40173034 144.33206183 -0.45751677 154.44631904 -0.51302338 164.56058502 C-0.56407977 173.85060841 -0.6170952 183.14060949 -0.67754889 192.4305771 C-0.70563623 196.78681088 -0.72932122 201.14303823 -0.74947357 205.49931562 C-0.75971619 207.5602628 -0.77210239 209.62118417 -0.78541565 211.68211365 C-0.80152836 214.17797867 -0.8144231 216.67386778 -0.82322693 219.16976929 C-0.86120886 224.27876291 -0.99061039 229.31000783 -1.50474548 234.3941803 C-2.40266394 244.2688971 -2.13032247 254.21239172 -2.11352539 264.11816406 C-2.11324299 266.45487975 -2.11340229 268.79159552 -2.1139679 271.12831116 C-2.11425379 277.44352268 -2.10839072 283.75871506 -2.10139394 290.07392216 C-2.09576162 296.01366803 -2.09476923 301.9534132 -2.09374207 307.89316139 C-2.09155922 319.64964373 -2.08492004 331.4061191 -2.07543945 343.16259766 C-2.06624542 354.57568324 -2.05917435 365.98876692 -2.05493164 377.40185547 C-2.05466892 378.10662074 -2.05440619 378.81138601 -2.05413551 379.5375078 C-2.05283037 383.07348506 -2.05156669 386.60946234 -2.05032361 390.14543962 C-2.03997492 419.43029758 -2.02230269 448.71514871 -2 478 C-4.0485049 474.92724265 -4.25038476 474.31689936 -4.25447559 470.85550976 C-4.2603073 470.00643775 -4.266139 469.15736574 -4.27214742 468.28256428 C-4.26836859 467.34854216 -4.26458975 466.41452004 -4.26069641 465.45219421 C-4.26452638 464.45873548 -4.26835636 463.46527675 -4.27230239 462.44171321 C-4.2826848 459.0882863 -4.27864204 455.73503027 -4.2746582 452.3815918 C-4.27894069 449.97446252 -4.28405278 447.56733461 -4.2899313 445.1602087 C-4.30185848 439.2516949 -4.30417368 433.34322245 -4.30195418 427.43470125 C-4.30033862 422.57113941 -4.30285942 417.70759519 -4.30814362 412.8440361 C-4.30889195 412.14709025 -4.30964029 411.45014439 -4.3104113 410.73207897 C-4.31193815 409.31326936 -4.31346617 407.89445974 -4.31499533 406.47565013 C-4.33203882 389.88750314 -4.32548948 373.29938996 -4.31589527 356.71124083 C-4.31206083 349.71320109 -4.31149516 342.71516277 -4.31123286 335.71712214 C-4.30835013 261.15699109 -4.16815173 186.60880269 -2.5625 112.0625 C-2.54562527 111.27839359 -2.52875054 110.49428718 -2.51136446 109.68641996 C-2.13681397 92.35770042 -1.71780425 75.03030258 -1.2697134 57.70332813 C-0.9421806 44.94756592 -0.66804376 32.1907731 -0.40234375 19.43359375 C-0.38106478 18.41633776 -0.3597858 17.39908176 -0.33786201 16.35099983 C-0.223951 10.9006926 -0.11126911 5.45036179 0 0 Z " fill="#D6D6D6" transform="translate(557,284)"/>
<path d="M0 0 C0.66 0 1.32 0 2 0 C-1.25891236 14.33921438 -9.13814595 24.05068004 -21.375 32 C-23.554185 33.28161085 -25.48538748 34.17938233 -27.875 35.0625 C-30.17743876 35.83867992 -30.17743876 35.83867992 -31.3125 38.125 C-31.539375 38.74375 -31.76625 39.3625 -32 40 C-33.98 40 -35.96 40 -38 40 C-38 40.66 -38 41.32 -38 42 C-41.78979199 42.82140822 -45.58212497 43.63045801 -49.375 44.4375 C-50.43589844 44.66759766 -51.49679687 44.89769531 -52.58984375 45.13476562 C-58.41455973 46.36760428 -64.12022948 47.3374094 -70.06103516 47.77368164 C-72.07915889 47.89770306 -72.07915889 47.89770306 -74 49 C-76.40560273 49.15608023 -78.78702772 49.25804458 -81.1953125 49.31640625 C-82.25647781 49.3475779 -82.25647781 49.3475779 -83.33908081 49.37937927 C-85.60095425 49.44481078 -87.86294462 49.50372974 -90.125 49.5625 C-91.65756422 49.60569133 -93.19011657 49.64930582 -94.72265625 49.69335938 C-98.48165073 49.80048555 -102.24076292 49.9017709 -106 50 C-100.92260585 51.52081695 -96.36407511 52.34350044 -91.0625 52.625 C-90.37865234 52.66367188 -89.69480469 52.70234375 -88.99023438 52.7421875 C-87.32720487 52.83522412 -85.66364153 52.91863787 -84 53 C-84 53.33 -84 53.66 -84 54 C-81.77110504 54.05428973 -79.54182529 54.09292338 -77.3125 54.125 C-75.45044922 54.15980469 -75.45044922 54.15980469 -73.55078125 54.1953125 C-70.12034245 54.20665124 -70.12034245 54.20665124 -67.64160156 53.0065918 C-62.77474297 51.15205779 -57.58709176 51.6728455 -52.4375 51.6875 C-51.30119141 51.67138672 -50.16488281 51.65527344 -48.99414062 51.63867188 C-47.35541992 51.63770508 -47.35541992 51.63770508 -45.68359375 51.63671875 C-44.19170532 51.63224731 -44.19170532 51.63224731 -42.66967773 51.62768555 C-39.60109005 52.05563216 -38.20486037 52.85208571 -36 55 C-36 55.66 -36 56.32 -36 57 C-35.34 57 -34.68 57 -34 57 C-34 59.31 -34 61.62 -34 64 C-34.66 64 -35.32 64 -36 64 C-36 64.66 -36 65.32 -36 66 C-36.66 65.67 -37.32 65.34 -38 65 C-37.98839844 64.36191406 -37.97679687 63.72382812 -37.96484375 63.06640625 C-37.95582031 62.24011719 -37.94679688 61.41382813 -37.9375 60.5625 C-37.92589844 59.73878906 -37.91429687 58.91507813 -37.90234375 58.06640625 C-37.76732652 56.00836062 -37.76732652 56.00836062 -39 55 C-40.53896858 54.89976067 -42.08277741 54.87034072 -43.625 54.875 C-44.46289062 54.87242188 -45.30078125 54.86984375 -46.1640625 54.8671875 C-49.05107839 54.94893023 -49.05107839 54.94893023 -52.07299805 55.49560547 C-56.63128346 56.08108372 -61.07790202 56.1806201 -65.66796875 56.203125 C-66.58403397 56.20882507 -67.50009918 56.21452515 -68.44392395 56.22039795 C-70.37609721 56.229806 -72.30828622 56.23636515 -74.24047852 56.24023438 C-77.16126274 56.24991306 -80.08133439 56.28096569 -83.00195312 56.3125 C-92.82037356 56.36758274 -101.55672314 55.97382216 -111 53 C-113.18105605 52.58917674 -115.36753525 52.20349813 -117.5625 51.875 C-120.54082481 51.42409824 -123.13628156 50.95457281 -126 50 C-125.67 48.68 -125.34 47.36 -125 46 C-123.97120728 45.97573944 -123.97120728 45.97573944 -122.92163086 45.95098877 C-116.33575062 45.79260898 -109.75053549 45.617377 -103.16555786 45.42494583 C-99.78316074 45.32665115 -96.4009826 45.23589683 -93.01806641 45.15625 C-79.45337653 44.833161 -66.0362228 44.35456519 -52.625 42.171875 C-51.6752832 42.0197052 -50.72556641 41.8675354 -49.74707031 41.71075439 C-42.3577032 40.37621151 -35.33289868 38.49557634 -30 33 C-28.00067843 31.91761834 -25.976305 30.88103727 -23.9375 29.875 C-15.03585242 25.16060788 -7.21766853 19.8422802 -4 10 C-3.46375 9.13375 -2.9275 8.2675 -2.375 7.375 C-0.93071062 4.88031835 -0.40517614 2.83623295 0 0 Z " fill="#C7C7C7" transform="translate(607,1087)"/>
<path d="M0 0 C0.33 0 0.66 0 1 0 C1.14645608 28.2479982 0.94584544 56.48871438 0.59428024 84.73426437 C0.56300547 87.27149293 0.53283955 89.80873245 0.50296021 92.34597778 C0.4541465 96.46422864 0.40181772 100.58242286 0.34712219 104.70059967 C0.32749367 106.20244478 0.30867536 107.70430084 0.29090881 109.20616913 C0.19466531 117.23088742 0.0325427 125.25065613 -0.23480988 133.27170658 C-0.87754184 152.6047911 -1.1435674 171.9106234 -1.11606562 191.25361681 C-1.11163109 195.19306949 -1.11321647 199.13252123 -1.1139679 203.07197571 C-1.11448514 209.85235624 -1.1114236 216.63272695 -1.10573006 223.41310501 C-1.09750426 233.21565764 -1.09498867 243.01820566 -1.09374207 252.82076137 C-1.09156867 268.73565348 -1.0849557 284.65054039 -1.07543945 300.56542969 C-1.06622056 315.9993487 -1.0591618 331.43326628 -1.05493164 346.8671875 C-1.05466892 347.82305447 -1.05440619 348.77892145 -1.05413551 349.76375408 C-1.0528302 354.56040752 -1.05156656 359.35706097 -1.05032361 364.15371442 C-1.04000445 403.76914659 -1.02243358 443.38457295 -1 483 C-1.66 483 -2.32 483 -3 483 C-3.02287844 435.83892452 -3.04050438 388.67784963 -3.05106533 341.5167697 C-3.05231607 335.95160948 -3.05361039 330.38644927 -3.05493164 324.82128906 C-3.05519395 323.71334484 -3.05545626 322.60540063 -3.05572652 321.46388234 C-3.0600803 303.51362333 -3.06796626 285.56336752 -3.0771528 267.61311041 C-3.08649743 249.20065958 -3.09205733 230.78821044 -3.09408849 212.37575734 C-3.09546203 201.0101977 -3.09980352 189.6446471 -3.10791647 178.27909024 C-3.1131939 170.49006439 -3.11480201 162.70104323 -3.11350138 154.91201572 C-3.11285957 150.41517451 -3.11385789 145.91834911 -3.11920547 141.4215107 C-3.12406413 137.30584777 -3.12432236 133.19021132 -3.12089889 129.07454719 C-3.12047564 127.58454397 -3.12175057 126.09453912 -3.12488318 124.60453914 C-3.12889166 122.58047379 -3.12613765 120.55639843 -3.12304783 118.53233147 C-3.12342755 117.40759985 -3.12380727 116.28286823 -3.1241985 115.12405384 C-3.00005299 112.00133301 -2.54818255 109.0730576 -2 106 C-1.89298311 103.49994621 -1.83450114 100.99758989 -1.81054688 98.49536133 C-1.80225357 97.767323 -1.79396027 97.03928467 -1.78541565 96.28918457 C-1.76808068 94.71294579 -1.75289628 93.13668218 -1.73963928 91.56040382 C-1.71836434 89.03627548 -1.69134588 86.5122628 -1.66296387 83.98820496 C-1.60343972 78.59635071 -1.55151377 73.20443573 -1.5 67.8125 C-1.43176061 60.77729058 -1.35978704 53.74213365 -1.28125 46.70703125 C-1.27186401 45.85508305 -1.26247803 45.00313484 -1.25280762 44.12537003 C-1.08506955 29.40457853 -0.67366514 14.70725236 0 0 Z " fill="#2B2B2B" transform="translate(554,292)"/>
<path d="M0 0 C0.75474609 -0.00459229 1.50949219 -0.00918457 2.28710938 -0.01391602 C7.68905702 0.00155702 7.68905702 0.00155702 8.8125 1.125 C12.26782858 1.62842536 15.73082312 2.02681156 19.19921875 2.4296875 C22.86732786 3.13555066 25.57143716 4.30283564 28.8125 6.125 C28.8125 7.445 28.8125 8.765 28.8125 10.125 C21.5015251 10.14824056 14.19055825 10.16597456 6.87955379 10.17681217 C3.4842237 10.18201547 0.088919 10.18906641 -3.30639648 10.20043945 C-7.21597991 10.21345213 -11.12555329 10.21824932 -15.03515625 10.22265625 C-16.24583267 10.22781754 -17.45650909 10.23297882 -18.70387268 10.23829651 C-24.30572174 10.23866745 -29.67260743 10.14210527 -35.1875 9.125 C-35.5175 8.135 -35.8475 7.145 -36.1875 6.125 C-35.18847656 5.84785156 -34.18945312 5.57070312 -33.16015625 5.28515625 C-31.85672209 4.91944451 -30.55333931 4.55354962 -29.25 4.1875 C-28.59064453 4.00509766 -27.93128906 3.82269531 -27.25195312 3.63476562 C-23.94928827 2.89903899 -23.94928827 2.89903899 -21.1875 1.125 C-14.18358391 0.08213749 -7.06826051 0.0246047 0 0 Z " fill="#F2F2F2" transform="translate(393.1875,1111.875)"/>
<path d="M0 0 C1.4540625 0.0309375 1.4540625 0.0309375 2.9375 0.0625 C-0.0625 2.0625 -0.0625 2.0625 -2.0625 2.0625 C-2.05805878 2.87934265 -2.05361755 3.6961853 -2.04904175 4.53778076 C-2.00793348 12.47078502 -1.97801642 20.4037335 -1.95887566 28.3368187 C-1.94870286 32.40932725 -1.93507276 36.48174376 -1.91162109 40.55419922 C-1.80161077 60.21658406 -2.16308929 79.78955547 -3.14190102 99.42895699 C-4.17649032 120.20801477 -4.66854228 140.98388315 -5.06745148 161.78368378 C-5.14597823 165.83131473 -5.22876739 169.87885474 -5.31142807 173.92640305 C-6.01921886 208.63640012 -6.59893719 243.34839975 -7.0625 278.0625 C-7.3925 278.0625 -7.7225 278.0625 -8.0625 278.0625 C-8.08573256 264.70983627 -8.10347055 251.3571774 -8.11431217 238.00449753 C-8.11951719 231.80344679 -8.12657135 225.60240994 -8.13793945 219.40136719 C-8.14885325 213.41022862 -8.15479476 207.41910337 -8.15737724 201.42795563 C-8.15921624 199.14918051 -8.1628072 196.87040607 -8.16823006 194.59163666 C-8.17555337 191.38496867 -8.17648622 188.17835478 -8.17602539 184.97167969 C-8.17962067 184.04234619 -8.18321594 183.1130127 -8.18692017 182.15551758 C-8.17979542 177.53461069 -8.00254352 172.99080771 -7.57872009 168.38853455 C-6.90594227 160.91337471 -6.80662107 153.43613255 -6.68945312 145.93676758 C-6.66172362 144.35042716 -6.63363199 142.76409304 -6.60520935 141.17776489 C-6.54516867 137.78779752 -6.48751576 134.39780132 -6.43174744 131.007761 C-6.34347085 125.65065584 -6.24893279 120.29367205 -6.15344238 114.93669128 C-5.91749776 101.64629211 -5.68980241 88.35575308 -5.46356201 75.06518555 C-5.28709445 64.70433919 -5.10841424 54.34354115 -4.92301702 43.98285025 C-4.82789284 38.65267917 -4.73740569 33.32245536 -4.650383 27.99214613 C-4.59549731 24.69028004 -4.5365811 21.38849511 -4.47651863 18.08671951 C-4.44940806 16.5503918 -4.4240001 15.01403302 -4.40037346 13.47764778 C-4.36803609 11.38971934 -4.32975401 9.30198438 -4.28991699 7.21418762 C-4.26006336 5.458045 -4.26006336 5.458045 -4.22960663 3.66642475 C-3.98805672 -0.09750612 -3.83652041 0.07829633 0 0 Z " fill="#AFAFAF" transform="translate(562.0625,164.9375)"/>
<path d="M0 0 C1.65 0.33 3.3 0.66 5 1 C5.02991699 5.10415034 5.04709539 9.20827159 5.0625 13.3125 C5.07087891 14.44107422 5.07925781 15.56964844 5.08789062 16.73242188 C5.1039102 22.48344793 5.02036258 28.18894276 4.6723938 33.93009472 C3.85481896 47.43617265 3.61153587 60.95759536 3.32575035 74.48315024 C3.24939011 78.07131287 3.16992268 81.65940709 3.09094238 85.24751282 C2.9578487 91.31511234 2.82706542 97.38275821 2.69775391 103.45043945 C2.56821331 109.52796516 2.43649916 115.60543787 2.30224609 121.68286133 C2.10517634 130.60492544 1.91055547 139.52703985 1.71875 148.44921875 C1.70296024 149.1827411 1.68717049 149.91626346 1.67090225 150.67201376 C1.29998752 167.94162053 0.96784171 185.21108738 0.71875 202.48291016 C0.69682167 203.98521457 0.67489226 205.48751896 0.65296173 206.98982334 C0.55995421 213.40925333 0.46994707 219.82867909 0.39202404 226.24831152 C0.35235573 229.44007825 0.3074079 232.63177312 0.26367188 235.82348633 C0.24575592 237.52928706 0.24575592 237.52928706 0.22747803 239.26954842 C0.15061389 244.60869344 -0.07114531 249.73837584 -1 255 C-1.33 255 -1.66 255 -2 255 C-2.05371094 233.4564586 -1.92795341 211.91712231 -1.6875 190.375 C-1.67331528 189.08280611 -1.67331528 189.08280611 -1.65884399 187.76450729 C-1.16932592 143.69450171 0.12965615 99.64823605 1.46916199 55.597229 C2.01237597 37.73236826 2.51606044 19.86655769 3 2 C2.01 1.67 1.02 1.34 0 1 C0 0.67 0 0.34 0 0 Z " fill="#DADADA" transform="translate(539,165)"/>
<path d="M0 0 C0.47308594 0.39832031 0.94617188 0.79664063 1.43359375 1.20703125 C2.09488281 1.73683594 2.75617187 2.26664063 3.4375 2.8125 C4.07558594 3.33457031 4.71367188 3.85664063 5.37109375 4.39453125 C7.83655226 5.90018273 9.93325665 6.71869815 12.66430664 7.6003418 C13.88169273 7.99626778 13.88169273 7.99626778 15.12367249 8.40019226 C15.74286057 8.59812881 16.36204865 8.79606537 17 9 C17.39786423 40.45167775 16.84779014 71.76540447 15.5625 103.1875 C14.31292324 133.76998857 13.56460311 164.32170661 13.29125977 194.9284668 C13.27130671 197.13319113 13.2512205 199.33791407 13.23089027 201.54263496 C13.21768977 202.9745724 13.20470496 204.40651185 13.19194603 205.83845329 C13.03465898 222.89837796 12.533018 239.94825591 12 257 C11.67 257 11.34 257 11 257 C10.78494506 214.48590882 11.27738532 172.02098801 12.27960455 129.51926756 C12.42322048 123.41029023 12.55938607 117.30116402 12.69367355 111.19197536 C12.85822259 103.70760541 13.02720261 96.22334055 13.19779706 88.73910618 C13.24529835 86.64444951 13.29206895 84.54977762 13.33868217 82.45510101 C13.92148425 56.39824758 13.92148425 56.39824758 14.67418575 43.92830276 C15.0892829 37.05075732 15.11364552 30.20140858 15.0625 23.3125 C15.05798828 22.11044922 15.05347656 20.90839844 15.04882812 19.66992188 C15.03731405 16.77988889 15.02106633 13.88997626 15 11 C14.307854 10.88970459 13.61570801 10.77940918 12.90258789 10.66577148 C11.99758545 10.50665283 11.09258301 10.34753418 10.16015625 10.18359375 C9.26176025 10.03204834 8.36336426 9.88050293 7.43774414 9.72436523 C5 9 5 9 2.4375 6.0625 C1 3 1 3 0 0 Z " fill="#8B8B8B" transform="translate(528,155)"/>
<path d="M0 0 C10.56 0 21.12 0 32 0 C32 9.30769231 32 9.30769231 29 13 C28.34 13 27.68 13 27 13 C27 13.66 27 14.32 27 15 C24.1225645 14.58893779 23.15022686 14.1709478 21.1875 11.9375 C19.03108747 9.67740383 19.03108747 9.67740383 15.4375 9.4375 C13.7359375 9.7159375 13.7359375 9.7159375 12 10 C10.3553326 12.46326712 10.3553326 12.46326712 9 15 C6.5625 15.6875 6.5625 15.6875 4 15 C-0.8691596 9.86764259 0 7.72052841 0 0 Z " fill="#F2F2F2" transform="translate(536,134)"/>
<path d="M0 0 C3.95338908 0.51565945 7.81879227 1.16099649 11.71655273 2.0012207 C16.38621245 2.93824249 20.90649984 3.42128482 25.66015625 3.60546875 C26.96038475 3.66192818 26.96038475 3.66192818 28.28688049 3.7195282 C37.74891752 4.07657406 47.21609748 4.11254594 56.68359375 4.17578125 C58.37684146 4.18794556 60.07008894 4.20014264 61.76333618 4.21237183 C72.28307325 4.28597021 72.28307325 4.28597021 82.80297852 4.32592773 C87.14569289 4.33601038 91.48791239 4.36529041 95.83043098 4.40724754 C97.46938402 4.41950496 99.10840676 4.42468847 100.7474041 4.42244911 C103.0267265 4.42009353 105.30461251 4.44226143 107.58374023 4.4699707 C108.87497299 4.47583694 110.16620575 4.48170319 111.49656677 4.48774719 C115.5818005 5.08506768 117.80099297 6.44055959 121 9 C121 9.33 121 9.66 121 10 C119.35 10 117.7 10 116 10 C116 9.34 116 8.68 116 8 C114.46570847 8.00333092 114.46570847 8.00333092 112.90042114 8.00672913 C103.27668722 8.02697135 93.65295759 8.04197737 84.02920723 8.05181217 C79.08114868 8.05703824 74.13310727 8.06413091 69.18505859 8.07543945 C64.41293036 8.0862781 59.64081864 8.09227892 54.86867905 8.09487724 C53.04495865 8.09672972 51.22123918 8.10034696 49.39752579 8.10573006 C46.84979525 8.11295343 44.30213361 8.11399039 41.75439453 8.11352539 C40.99482452 8.11712067 40.23525452 8.12071594 39.45266724 8.12442017 C34.22810432 8.11405216 34.22810432 8.11405216 32 7 C30.16344126 6.90565623 28.32639424 6.8164845 26.48828125 6.76000977 C17.58388461 6.47154927 9.34510495 5.37111709 1 2 C0.67 1.34 0.34 0.68 0 0 Z " fill="#E4E4E4" transform="translate(335,1130)"/>
<path d="M0 0 C46.86 0 93.72 0 142 0 C142 0.33 142 0.66 142 1 C95.47 1 48.94 1 1 1 C1 7.93 1 14.86 1 22 C5.18816406 21.96519531 5.18816406 21.96519531 9.4609375 21.9296875 C12.1581985 21.91410043 14.85545453 21.90195031 17.55273438 21.89013672 C19.43068682 21.88006466 21.30862353 21.86640638 23.18652344 21.84912109 C25.8822009 21.82492547 28.57767146 21.81352917 31.2734375 21.8046875 C32.11619232 21.79436493 32.95894714 21.78404236 33.82723999 21.77340698 C35.88621247 21.77300856 37.94467935 21.87742412 40 22 C42 24 42 24 42.1953125 26.1640625 C42.17210937 26.97617188 42.14890625 27.78828125 42.125 28.625 C42.10695313 29.44226563 42.08890625 30.25953125 42.0703125 31.1015625 C42.04710937 31.72804687 42.02390625 32.35453125 42 33 C41.67 33 41.34 33 41 33 C40.855625 31.865625 40.71125 30.73125 40.5625 29.5625 C40.38828522 26.19222799 40.38828522 26.19222799 39 25 C36.11747355 24.83976438 33.25621473 24.74045971 30.37109375 24.68359375 C29.50686295 24.66281265 28.64263214 24.64203156 27.75221252 24.62062073 C24.98072555 24.55502886 22.20914079 24.49619582 19.4375 24.4375 C17.56314077 24.39432392 15.68879157 24.35070994 13.81445312 24.30664062 C9.20973434 24.19851032 4.60494559 24.09950917 0 24 C0 16.08 0 8.16 0 0 Z " fill="#202020" transform="translate(481,109)"/>
<path d="M0 0 C0.66 0 1.32 0 2 0 C-1.25891236 14.33921438 -9.13814595 24.05068004 -21.375 32 C-23.554185 33.28161085 -25.48538748 34.17938233 -27.875 35.0625 C-30.17743876 35.83867992 -30.17743876 35.83867992 -31.3125 38.125 C-31.539375 38.74375 -31.76625 39.3625 -32 40 C-33.98 40 -35.96 40 -38 40 C-38 40.66 -38 41.32 -38 42 C-64.72530669 48.80280534 -93.65542724 47.21670291 -121 47 C-121 47.99 -121 48.98 -121 50 C-119.35 50.33 -117.7 50.66 -116 51 C-119.81489674 52.46726798 -122.29011622 51.43336419 -126 50 C-125.67 48.68 -125.34 47.36 -125 46 C-123.97120728 45.97573944 -123.97120728 45.97573944 -122.92163086 45.95098877 C-116.33575062 45.79260898 -109.75053549 45.617377 -103.16555786 45.42494583 C-99.78316074 45.32665115 -96.4009826 45.23589683 -93.01806641 45.15625 C-79.45337653 44.833161 -66.0362228 44.35456519 -52.625 42.171875 C-51.6752832 42.0197052 -50.72556641 41.8675354 -49.74707031 41.71075439 C-42.3577032 40.37621151 -35.33289868 38.49557634 -30 33 C-28.00067843 31.91761834 -25.976305 30.88103727 -23.9375 29.875 C-15.03585242 25.16060788 -7.21766853 19.8422802 -4 10 C-3.46375 9.13375 -2.9275 8.2675 -2.375 7.375 C-0.93071062 4.88031835 -0.40517614 2.83623295 0 0 Z " fill="#636363" transform="translate(607,1087)"/>
<path d="M0 0 C0 3.11227195 -0.45627049 5.94152152 -1 9 C-0.34 9 0.32 9 1 9 C1 9.66 1 10.32 1 11 C8.27511321 13.4507267 15.15873186 14.41251927 22.77929688 14.70874023 C27.91395178 14.91395178 27.91395178 14.91395178 29 16 C31.79908707 16.1252097 34.57470329 16.18608723 37.37524414 16.20532227 C38.25321152 16.21522186 39.13117889 16.22512146 40.03575134 16.23532104 C42.95219175 16.26703427 45.86864848 16.29173211 48.78515625 16.31640625 C50.80155371 16.33696731 52.81794677 16.35796354 54.83433533 16.37937927 C60.15260266 16.43468759 65.47090945 16.4840581 70.78924561 16.53222656 C76.21174651 16.5823778 81.63418982 16.63809707 87.05664062 16.69335938 C97.70437793 16.80104802 108.35216515 16.90246906 119 17 C119 17.66 119 18.32 119 19 C109.32313597 19.02340727 99.64628203 19.04105711 89.96939564 19.05181217 C85.473646 19.05698 80.97791605 19.06396335 76.48217773 19.07543945 C23.27779018 19.20718413 23.27779018 19.20718413 10.1875 15.9375 C9.37603516 15.75123047 8.56457031 15.56496094 7.72851562 15.37304688 C5.81521143 14.93151514 3.90686887 14.46854492 2 14 C2 13.34 2 12.68 2 12 C1.34 12 0.68 12 0 12 C0 11.34 0 10.68 0 10 C-0.66 10 -1.32 10 -2 10 C-2.1953125 3.9453125 -2.1953125 3.9453125 -2 2 C-1.34 1.34 -0.68 0.68 0 0 Z " fill="#3B3B3B" transform="translate(331,1116)"/>
<path d="M0 0 C0.495 0.99 0.495 0.99 1 2 C0.30551758 2.01458252 -0.38896484 2.02916504 -1.10449219 2.04418945 C-4.32015765 2.11969836 -7.53489827 2.21601054 -10.75 2.3125 C-11.84183594 2.33505859 -12.93367188 2.35761719 -14.05859375 2.38085938 C-21.57851173 2.62559043 -28.88739208 3.39240283 -36 6 C-36.33 6.66 -36.66 7.32 -37 8 C-19.84 8 -2.68 8 15 8 C15 7.34 15 6.68 15 6 C13.68 5.67 12.36 5.34 11 5 C11 4.34 11 3.68 11 3 C14.71888239 3.50712033 17.73454239 4.11608215 21 6 C21 7.32 21 8.64 21 10 C13.6890251 10.02324056 6.37805825 10.04097456 -0.93294621 10.05181217 C-4.3282763 10.05701547 -7.723581 10.06406641 -11.11889648 10.07543945 C-15.02847991 10.08845213 -18.93805329 10.09324932 -22.84765625 10.09765625 C-24.05833267 10.10281754 -25.26900909 10.10797882 -26.51637268 10.11329651 C-32.11822174 10.11366745 -37.48510743 10.01710527 -43 9 C-43.33 8.01 -43.66 7.02 -44 6 C-43.00097656 5.72285156 -42.00195312 5.44570312 -40.97265625 5.16015625 C-39.66922209 4.79444451 -38.36583931 4.42854962 -37.0625 4.0625 C-36.40314453 3.88009766 -35.74378906 3.69769531 -35.06445312 3.50976562 C-31.76178827 2.77403899 -31.76178827 2.77403899 -29 1 C-19.42595689 -0.42554686 -9.65096759 -0.10291316 0 0 Z " fill="#696969" transform="translate(401,1112)"/>
<path d="M0 0 C-3.54959704 3.14002815 -4.80391802 3.13398634 -10 4 C-10.99 57.13 -11.98 110.26 -13 165 C-13.33 165 -13.66 165 -14 165 C-14.06437287 155.2500646 -14.1029867 145.50011225 -14.125 135.75 C-14.12671204 134.99734612 -14.12842407 134.24469223 -14.13018799 133.46923065 C-14.1893474 103.84466425 -13.68118032 74.24100209 -13 44.625 C-12.97608437 43.58480209 -12.95216873 42.54460419 -12.92752838 41.47288513 C-12.63147204 28.64826423 -12.32224136 15.82398883 -12 3 C-10.3789897 2.30314502 -8.75303934 1.61777139 -7.125 0.9375 C-6.22007812 0.55464844 -5.31515625 0.17179688 -4.3828125 -0.22265625 C-2 -1 -2 -1 0 0 Z " fill="#636363" transform="translate(569,162)"/>
<path d="M0 0 C0 0.66 0 1.32 0 2 C-33.14893881 16.62217439 -83.87220225 9.14082317 -119 9 C-119.33 8.34 -119.66 7.68 -120 7 C-118.89229248 7.01015137 -117.78458496 7.02030273 -116.64331055 7.03076172 C-100.58230866 7.12738801 -84.53781401 6.7114435 -68.48510742 6.25537109 C-64.56448996 6.14445092 -60.6436709 6.04434509 -56.72270679 5.94656563 C-53.65883871 5.86826721 -50.59522216 5.78222643 -47.53162193 5.6941185 C-46.08580814 5.65382143 -44.63991334 5.61631608 -43.19394875 5.58185196 C-35.22708426 5.38904012 -27.75911491 4.81099498 -20 3 C-17.54496833 2.62362741 -15.08680597 2.26666282 -12.625 1.9375 C-8.48102132 1.38160042 -4.15321108 0 0 0 Z " fill="#666666" transform="translate(569,1112)"/>
<path d="M0 0 C4.6875 0.78125 4.6875 0.78125 9.375 1.5625 C10.674375 1.7790625 10.674375 1.7790625 12 2 C12 2.66 12 3.32 12 4 C12.77077881 4.02505615 13.54155762 4.0501123 14.33569336 4.07592773 C17.86975836 4.19285494 21.40361916 4.31513823 24.9375 4.4375 C26.14986328 4.47681641 27.36222656 4.51613281 28.61132812 4.55664062 C38.78694559 4.91513121 38.78694559 4.91513121 43.671875 5.51953125 C58.2854541 7.31441785 80.4618585 8.76907075 94 2 C93.67 2.99 93.34 3.98 93 5 C91.1015625 5.9140625 91.1015625 5.9140625 88.625 6.625 C87.83351563 6.86476563 87.04203125 7.10453125 86.2265625 7.3515625 C76.42031971 9.32230863 66.40061252 9.19933545 56.4375 9.1875 C55.73566589 9.18789276 55.03383179 9.18828552 54.31072998 9.18869019 C26.33990842 9.16995421 26.33990842 9.16995421 20 6 C18.50198623 5.87036419 17.00131211 5.77064228 15.5 5.6875 C9.84493749 5.19288812 5.1285752 3.34605036 0 1 C0 0.67 0 0.34 0 0 Z " fill="#323232" transform="translate(476,1148)"/>
<path d="M0 0 C0.33 0 0.66 0 1 0 C1.02505615 1.00788574 1.0501123 2.01577148 1.07592773 3.05419922 C1.17097758 6.83766742 1.27094904 10.62099306 1.37231445 14.40429688 C1.41529822 16.03349443 1.45699424 17.66272654 1.49731445 19.29199219 C1.78542723 31.03924169 1.78542723 31.03924169 2.7746582 42.74365234 C3.2104805 47.10754152 3.24953788 51.49330826 3.375 55.875 C3.75331908 66.9889827 4.56626092 78.04681079 5.5 89.125 C5.56580261 89.91275818 5.63160522 90.70051636 5.69940186 91.512146 C6.30373161 98.70200023 6.92456885 105.86315274 8 113 C5.72735959 109.59103938 5.18150846 106.57175778 4.5 102.625 C4.38269531 101.98433594 4.26539063 101.34367188 4.14453125 100.68359375 C3.89064386 99.27219827 3.64717543 97.8589066 3.41162109 96.44433594 C3.12129393 94.72028166 2.80968912 92.99974469 2.48291016 91.28222656 C0.67329195 81.04909039 0.54607949 70.86067281 0.375 60.5 C0.33699566 58.56802742 0.29866108 56.63606131 0.26000977 54.70410156 C-0.08436577 36.47005471 -0.10725377 18.23644153 0 0 Z " fill="#B8B8B8" transform="translate(555,762)"/>
<path d="M0 0 C2.97 0.99 5.94 1.98 9 3 C9 3.99 9 4.98 9 6 C10.4540625 6.433125 10.4540625 6.433125 11.9375 6.875 C15 8 15 8 16 10 C67.10967939 10.85312841 67.10967939 10.85312841 118 7 C117.67 7.99 117.34 8.98 117 10 C95.83249508 11.67640579 74.77740273 12.34993691 53.54663086 12.31567383 C49.52894925 12.30973852 45.51170795 12.32722826 41.49409962 12.3500185 C38.35515165 12.36470063 35.21631347 12.36563793 32.07733727 12.36250877 C30.59298478 12.36301945 29.10862576 12.36820923 27.62430763 12.37832069 C25.57580822 12.39063244 23.52822057 12.38393954 21.47973633 12.37231445 C20.32081375 12.37294388 19.16189117 12.3735733 17.96784973 12.3742218 C14.67393909 11.95888636 13.46689958 11.13020566 11 9 C10.01 8.67 9.02 8.34 8 8 C8 7.34 8 6.68 8 6 C7.4225 5.896875 6.845 5.79375 6.25 5.6875 C3.64338842 4.89103535 2.0264689 3.80934723 0 2 C0 1.34 0 0.68 0 0 Z " fill="#1D1D1D" transform="translate(434,1110)"/>
<path d="M0 0 C0.87946289 -0.00064453 1.75892578 -0.00128906 2.66503906 -0.00195312 C9.02168747 0.04963163 15.07216338 0.6005328 21.25 2.1875 C21.25 2.8475 21.25 3.5075 21.25 4.1875 C25.705 5.1775 25.705 5.1775 30.25 6.1875 C30.25 6.8475 30.25 7.5075 30.25 8.1875 C31.61125 8.06375 31.61125 8.06375 33 7.9375 C36.25 8.1875 36.25 8.1875 40.25 12.1875 C36.62 11.1975 32.99 10.2075 29.25 9.1875 C29.25 8.5275 29.25 7.8675 29.25 7.1875 C27.27 7.1875 25.29 7.1875 23.25 7.1875 C23.25 6.5275 23.25 5.8675 23.25 5.1875 C22.445625 5.208125 21.64125 5.22875 20.8125 5.25 C18.25 5.1875 18.25 5.1875 17.25 4.1875 C10.71282222 3.26483527 4.28306636 3.00477594 -2.3125 3 C-3.20646484 2.98775391 -4.10042969 2.97550781 -5.02148438 2.96289062 C-10.63918718 2.95056209 -15.34337974 3.69055302 -20.75 5.1875 C-23.11543047 5.34141597 -25.37683227 5.28638199 -27.75 5.1875 C-27.75 5.8475 -27.75 6.5075 -27.75 7.1875 C-29.05324219 7.38666016 -29.05324219 7.38666016 -30.3828125 7.58984375 C-31.53523438 7.76644531 -32.68765625 7.94304687 -33.875 8.125 C-35.01195312 8.29902344 -36.14890625 8.47304687 -37.3203125 8.65234375 C-40.46732669 9.14339266 -43.60930783 9.65768719 -46.75 10.1875 C-39.99783671 3.43533671 -25.84898619 2.67092766 -16.75 1.1875 C-15.08130859 0.90519531 -15.08130859 0.90519531 -13.37890625 0.6171875 C-8.90212783 0.08710609 -4.50425694 -0.00341102 0 0 Z " fill="#616161" transform="translate(392.75,1097.8125)"/>
<path d="M0 0 C0.99 0.495 0.99 0.495 2 1 C2.5625 3.1796875 2.5625 3.1796875 3 5.875 C3.5722779 9.38020217 3.98046184 10.97069276 6 14 C6.58006111 16.42465543 7.07390707 18.79844286 7.5 21.25 C7.62673096 21.96961914 7.75346191 22.68923828 7.8840332 23.43066406 C8.14140953 24.91656819 8.39440995 26.40323681 8.64306641 27.890625 C8.9547489 29.73257898 9.29345953 31.56991845 9.63671875 33.40625 C11.05831455 42.03664719 11.20754317 50.57884602 11.25 59.3125 C11.25926514 60.50520508 11.26853027 61.69791016 11.27807617 62.92675781 C11.25412443 69.65766675 11.2255214 76.56636244 9 83 C8.01 83.495 8.01 83.495 7 84 C7.0721875 83.23300781 7.144375 82.46601562 7.21875 81.67578125 C8.54776564 65.78296917 8.34350517 50.23739388 6.625 34.375 C6.49899414 33.19462158 6.37298828 32.01424316 6.24316406 30.7980957 C5.65559459 24.54912813 5.65559459 24.54912813 3 19 C1.28926905 12.8055886 0.61737392 6.37953047 0 0 Z " fill="#8F8F8F" transform="translate(589,996)"/>
<path d="M0 0 C0.75212265 0.00718552 1.5042453 0.01437103 2.27915955 0.02177429 C3.05081955 0.02223251 3.82247955 0.02269073 4.61752319 0.02316284 C6.24913571 0.02618517 7.88074535 0.03407091 9.51231384 0.0464325 C12.01868329 0.06469517 14.52468362 0.06694216 17.03111267 0.06669617 C18.61379818 0.07161106 20.19648117 0.07743925 21.77915955 0.08427429 C22.91037987 0.08594353 22.91037987 0.08594353 24.06445312 0.08764648 C29.3467021 0.13619185 29.3467021 0.13619185 30.4627533 1.25224304 C30.53455294 2.77152342 30.54667337 4.29391786 30.5252533 5.81474304 C30.51622986 6.6410321 30.50720642 7.46732117 30.49790955 8.31864929 C30.48630798 8.95673523 30.47470642 9.59482117 30.4627533 10.25224304 C29.8027533 10.25224304 29.1427533 10.25224304 28.4627533 10.25224304 C28.4627533 11.24224304 28.4627533 12.23224304 28.4627533 13.25224304 C27.8027533 13.25224304 27.1427533 13.25224304 26.4627533 13.25224304 C26.7927533 9.95224304 27.1227533 6.65224304 27.4627533 3.25224304 C16.9027533 3.25224304 6.3427533 3.25224304 -4.5372467 3.25224304 C-4.2072467 6.88224304 -3.8772467 10.51224304 -3.5372467 14.25224304 C-4.1972467 14.25224304 -4.8572467 14.25224304 -5.5372467 14.25224304 C-7.53200155 10.13806118 -7.88082757 6.8046895 -7.5372467 2.25224304 C-5.01140064 -0.27360303 -3.44518177 0.01519981 0 0 Z " fill="#3A3A3A" transform="translate(540.5372467041016,130.7477569580078)"/>
<path d="M0 0 C1.13630859 -0.01611328 2.27261719 -0.03222656 3.44335938 -0.04882812 C5.08208008 -0.04979492 5.08208008 -0.04979492 6.75390625 -0.05078125 C7.74849854 -0.05376221 8.74309082 -0.05674316 9.76782227 -0.05981445 C12.83640995 0.36813216 14.23263963 1.16458571 16.4375 3.3125 C16.4375 3.9725 16.4375 4.6325 16.4375 5.3125 C17.0975 5.3125 17.7575 5.3125 18.4375 5.3125 C18.4375 7.6225 18.4375 9.9325 18.4375 12.3125 C17.7775 12.3125 17.1175 12.3125 16.4375 12.3125 C16.4375 12.9725 16.4375 13.6325 16.4375 14.3125 C15.4475 13.8175 15.4475 13.8175 14.4375 13.3125 C14.44910156 12.67441406 14.46070313 12.03632812 14.47265625 11.37890625 C14.48167969 10.55261719 14.49070312 9.72632813 14.5 8.875 C14.51160156 8.05128906 14.52320313 7.22757813 14.53515625 6.37890625 C14.67017348 4.32086062 14.67017348 4.32086062 13.4375 3.3125 C11.89853142 3.21226067 10.35472259 3.18284072 8.8125 3.1875 C7.97460938 3.18492188 7.13671875 3.18234375 6.2734375 3.1796875 C3.38913034 3.26054811 3.38913034 3.26054811 0.38208008 3.81030273 C-4.27644467 4.40339461 -8.82137863 4.47461658 -13.51171875 4.48046875 C-14.44675735 4.48379715 -15.38179596 4.48712555 -16.34516907 4.49055481 C-18.31091828 4.49559432 -20.27667597 4.49796406 -22.24243164 4.49780273 C-25.25095531 4.5000007 -28.25911864 4.51821911 -31.26757812 4.53710938 C-33.18229042 4.54004161 -35.09700444 4.54202754 -37.01171875 4.54296875 C-38.35867073 4.55374702 -38.35867073 4.55374702 -39.73283386 4.56474304 C-40.57083023 4.56166641 -41.4088266 4.55858978 -42.2722168 4.55541992 C-43.37305855 4.55755745 -43.37305855 4.55755745 -44.49613953 4.55973816 C-46.8681087 4.2759342 -48.49825488 3.48632923 -50.5625 2.3125 C-49.58901611 2.32297363 -48.61553223 2.33344727 -47.61254883 2.34423828 C-43.98774925 2.38054206 -40.36296564 2.4034381 -36.73803711 2.42236328 C-35.17160333 2.43239726 -33.60518817 2.44602754 -32.03881836 2.46337891 C-29.78234247 2.48774225 -27.52611506 2.49900916 -25.26953125 2.5078125 C-24.57350296 2.51813507 -23.87747467 2.52845764 -23.16035461 2.53909302 C-15.30895008 2.54088923 -8.14106686 -0.02316752 0 0 Z " fill="#A1A1A1" transform="translate(554.5625,1138.6875)"/>
<path d="M0 0 C3.95402671 0.51574261 7.81972243 1.16139426 11.71801758 2.00219727 C16.38095532 2.93801894 20.89002533 3.41169632 25.63671875 3.58984375 C26.50229904 3.62665756 27.36787933 3.66347137 28.25968933 3.70140076 C43.87472055 4.29340076 59.51228861 4.3583238 75.13623047 4.53222656 C79.64228563 4.58319818 84.14828789 4.638482 88.65429688 4.69335938 C97.43615272 4.79969733 106.2180539 4.90139789 115 5 C115.495 5.99 115.495 5.99 116 7 C103.07285455 6.96181673 90.14599588 6.90227188 77.21907616 6.81609726 C71.21537623 6.77673232 65.21182058 6.74449007 59.20800781 6.72900391 C53.40470173 6.71376489 47.60179258 6.6791914 41.79866409 6.63169098 C39.59414766 6.61695162 37.38957454 6.6089633 35.185009 6.60811615 C11.21890168 6.58965895 11.21890168 6.58965895 1 2 C0.67 1.34 0.34 0.68 0 0 Z " fill="#959595" transform="translate(335,1130)"/>
<path d="M0 0 C0.47308594 0.39832031 0.94617188 0.79664063 1.43359375 1.20703125 C2.09488281 1.73683594 2.75617187 2.26664063 3.4375 2.8125 C4.07558594 3.33457031 4.71367188 3.85664063 5.37109375 4.39453125 C7.83655226 5.90018273 9.93325665 6.71869815 12.66430664 7.6003418 C13.88169273 7.99626778 13.88169273 7.99626778 15.12367249 8.40019226 C15.74286057 8.59812881 16.36204865 8.79606537 17 9 C17.02587724 16.35676296 17.04308113 23.71351374 17.05493164 31.0703125 C17.05988463 33.56022581 17.06664883 36.05013634 17.07543945 38.54003906 C17.13446293 55.7193427 16.80970704 72.83900017 16 90 C15.67 90 15.34 90 15 90 C15 63.93 15 37.86 15 11 C11.7 10.34 8.4 9.68 5 9 C2.38697191 6.00457755 1.24596631 3.73789893 0 0 Z " fill="#5B5B5B" transform="translate(528,155)"/>
<path d="M0 0 C10.56 0 21.12 0 32 0 C32 0.66 32 1.32 32 2 C21.77 2 11.54 2 1 2 C1 3.65 1 5.3 1 7 C1.66 7 2.32 7 3 7 C3.268125 7.969375 3.53625 8.93875 3.8125 9.9375 C4.204375 10.948125 4.59625 11.95875 5 13 C5.99 13.33 6.98 13.66 8 14 C8 12.68 8 11.36 8 10 C8.66 10 9.32 10 10 10 C10 9.34 10 8.68 10 8 C13.96 8 17.92 8 22 8 C22.33 8.99 22.66 9.98 23 11 C25.475 11.495 25.475 11.495 28 12 C28 11.34 28 10.68 28 10 C28.66 10 29.32 10 30 10 C29.67 10.99 29.34 11.98 29 13 C28.34 13 27.68 13 27 13 C27 13.66 27 14.32 27 15 C24.1225645 14.58893779 23.15022686 14.1709478 21.1875 11.9375 C19.03108747 9.67740383 19.03108747 9.67740383 15.4375 9.4375 C13.7359375 9.7159375 13.7359375 9.7159375 12 10 C10.3553326 12.46326712 10.3553326 12.46326712 9 15 C6.5625 15.6875 6.5625 15.6875 4 15 C-0.8691596 9.86764259 0 7.72052841 0 0 Z " fill="#B3B3B3" transform="translate(536,134)"/>
<path d="M0 0 C0.33 0 0.66 0 1 0 C1.02505615 0.83136475 1.0501123 1.66272949 1.07592773 2.51928711 C1.17185531 5.64487302 1.27103303 8.7703353 1.37231445 11.89575195 C1.43621405 13.89722123 1.49646484 15.89880593 1.55664062 17.90039062 C1.75325429 23.90466953 2.02435498 29.82400604 2.7746582 35.78393555 C3.1461939 39.43770531 3.19471266 43.098152 3.29125977 46.76782227 C3.54538513 56.38680072 4.09127321 65.71915193 5.98388672 75.16577148 C6.92106565 79.89742458 7.12301427 84.20244333 7 89 C3.4523234 85.38592304 3.49452203 81.61472432 3.375 76.8125 C3.64131802 72.02312237 3.64131802 72.02312237 2 68 C1.85511537 66.47535067 1.77294948 64.94462108 1.71875 63.4140625 C1.68136719 62.48335937 1.64398437 61.55265625 1.60546875 60.59375 C1.57066406 59.6140625 1.53585937 58.634375 1.5 57.625 C1.43108101 55.70037352 1.35832899 53.77587945 1.28125 51.8515625 C1.25095703 50.99385254 1.22066406 50.13614258 1.18945312 49.25244141 C1.07495932 46.83220799 1.07495932 46.83220799 0 44 C-0.08630926 42.54218278 -0.11770981 41.08072526 -0.11352539 39.62036133 C-0.11344986 38.73967484 -0.11337433 37.85898834 -0.11329651 36.95161438 C-0.10813522 36.00465195 -0.10297394 35.05768951 -0.09765625 34.08203125 C-0.0962413 33.10965012 -0.09482635 32.13726898 -0.09336853 31.13542175 C-0.08776817 28.02774996 -0.07521562 24.92015004 -0.0625 21.8125 C-0.05748505 19.70638125 -0.05292213 17.60026137 -0.04882812 15.49414062 C-0.03779862 10.32939936 -0.02053375 5.16471187 0 0 Z " fill="#343434" transform="translate(553,780)"/>
<path d="M0 0 C0.33 0 0.66 0 1 0 C1 8.25 1 16.5 1 25 C5.18816406 24.96519531 5.18816406 24.96519531 9.4609375 24.9296875 C12.1581985 24.91410043 14.85545453 24.90195031 17.55273438 24.89013672 C19.43068682 24.88006466 21.30862353 24.86640638 23.18652344 24.84912109 C25.8822009 24.82492547 28.57767146 24.81352917 31.2734375 24.8046875 C32.11619232 24.79436493 32.95894714 24.78404236 33.82723999 24.77340698 C35.88621247 24.77300856 37.94467935 24.87742412 40 25 C42.77042109 27.77042109 42.39796106 29.76533805 42.625 33.625 C42.69976563 34.81351563 42.77453125 36.00203125 42.8515625 37.2265625 C42.90054688 38.14179688 42.94953125 39.05703125 43 40 C42.01 39.505 42.01 39.505 41 39 C40.34 35.37 39.68 31.74 39 28 C19.695 27.505 19.695 27.505 0 27 C0 18.09 0 9.18 0 0 Z " fill="#7E7E7E" transform="translate(480,108)"/>
<path d="M0 0 C2.475 0.495 2.475 0.495 5 1 C5.02991699 5.10415034 5.04709539 9.20827159 5.0625 13.3125 C5.07087891 14.44107422 5.07925781 15.56964844 5.08789062 16.73242188 C5.10671651 23.4909157 4.9204076 30.19213088 4.53125 36.9375 C3.8830804 48.18157166 3.65990703 59.42825742 3.4375 70.6875 C3.3941547 72.76888594 3.35053633 74.85026622 3.30664062 76.93164062 C3.20129265 81.9543676 3.09959226 86.97715574 3 92 C2.67 92 2.34 92 2 92 C1.88826906 61.98314036 1.87495416 31.9992276 3 2 C2.01 1.67 1.02 1.34 0 1 C0 0.67 0 0.34 0 0 Z " fill="#BFBFBF" transform="translate(539,165)"/>
<path d="M0 0 C15.65048908 1.80508708 15.65048908 1.80508708 20.8125 3.0625 C30.87792648 5.50047934 41.39375786 5.19966062 51.6875 5.1875 C52.39355377 5.18789276 53.09960754 5.18828552 53.82705688 5.18869019 C65.80129038 5.18070453 77.2463295 4.4205147 89 2 C86.2944929 5.72007226 82.29529965 6.29453487 78 7 C73.96886185 7.26648967 69.95274443 7.25709574 65.9140625 7.23046875 C64.77593109 7.23001053 63.63779968 7.22955231 62.46517944 7.2290802 C60.07329254 7.22607214 57.68140734 7.21822949 55.28955078 7.20581055 C51.61614102 7.18745573 47.94298227 7.18530175 44.26953125 7.18554688 C41.94270614 7.18063484 39.61588274 7.1748079 37.2890625 7.16796875 C35.63603622 7.16629951 35.63603622 7.16629951 33.94961548 7.16459656 C32.93450897 7.15821671 31.91940247 7.15183685 30.87353516 7.14526367 C29.53072983 7.13954597 29.53072983 7.13954597 28.16079712 7.13371277 C26 7 26 7 24 6 C21.64946307 5.68039671 19.29436973 5.3939521 16.9375 5.125 C10.96718229 4.39954737 5.61471839 3.16708429 0 1 C0 0.67 0 0.34 0 0 Z " fill="#ADADAD" transform="translate(480,1151)"/>
<path d="M0 0 C0.69891357 0.00045822 1.39782715 0.00091644 2.11791992 0.00138855 C3.59393006 0.00440624 5.06993714 0.01227814 6.54589844 0.0246582 C8.80415136 0.04290131 11.06199361 0.04516788 13.3203125 0.04492188 C24.36942518 0.08277714 24.36942518 0.08277714 27.8125 1.23046875 C28.3075 2.22046875 28.3075 2.22046875 28.8125 3.23046875 C29.8025 3.56046875 30.7925 3.89046875 31.8125 4.23046875 C31.8125 4.89046875 31.8125 5.55046875 31.8125 6.23046875 C14.6525 6.23046875 -2.5075 6.23046875 -20.1875 6.23046875 C-19.8575 5.24046875 -19.5275 4.25046875 -19.1875 3.23046875 C-15.7225 2.73546875 -15.7225 2.73546875 -12.1875 2.23046875 C-13.1775 2.89046875 -14.1675 3.55046875 -15.1875 4.23046875 C-2.3175 4.23046875 10.5525 4.23046875 23.8125 4.23046875 C24.1425 3.57046875 24.4725 2.91046875 24.8125 2.23046875 C13.2625 2.23046875 1.7125 2.23046875 -10.1875 2.23046875 C-6.44428287 -0.26500934 -4.46934702 -0.01406322 0 0 Z " fill="#C6C6C6" transform="translate(384.1875,1113.76953125)"/>
<path d="M0 0 C8.90642145 16.12250609 7.08748409 45.09533047 2.8515625 62.48828125 C2 65 2 65 0 68 C0.144375 66.9790625 0.28875 65.958125 0.4375 64.90625 C2.69203974 47.74524757 4.77491747 26.87761592 0.46875 9.90625 C-0.33832851 6.62413074 -0.05610469 3.36628146 0 0 Z " fill="#676767" transform="translate(609,1019)"/>
<path d="M0 0 C0.99 0.33 1.98 0.66 3 1 C3.14622803 1.95366455 3.29245605 2.9073291 3.44311523 3.88989258 C3.9865391 7.42936453 4.53340001 10.96829831 5.08129883 14.50708008 C5.31791406 16.03851094 5.55359801 17.570086 5.78833008 19.10180664 C6.12596591 21.30393463 6.46695177 23.50552168 6.80859375 25.70703125 C6.96490517 26.73374687 6.96490517 26.73374687 7.12437439 27.78120422 C7.56991888 30.63383282 8.08458844 33.25376532 9 36 C9.0853013 38.87694671 9.11585645 41.72900182 9.09765625 44.60546875 C9.0962413 45.44467361 9.09482635 46.28387848 9.09336853 47.14851379 C9.08777215 49.82821216 9.07522035 52.5078269 9.0625 55.1875 C9.05748453 57.00455608 9.05292171 58.82161348 9.04882812 60.63867188 C9.03780391 65.09248013 9.02054178 69.54622589 9 74 C8.01 74.495 8.01 74.495 7 75 C7.01571045 74.21165771 7.0314209 73.42331543 7.04760742 72.61108398 C7.43036379 50.35145935 6.05133001 29.23359282 0.76953125 7.51953125 C0 4 0 4 0 0 Z " fill="#C2C2C2" transform="translate(606,1001)"/>
<path d="M0 0 C1.875 0.125 1.875 0.125 4 1 C6.02705496 5.41656346 6.55914765 10.08844567 7.125 14.875 C7.21136719 15.56335938 7.29773438 16.25171875 7.38671875 16.9609375 C7.59659566 18.63995275 7.79907087 20.31989048 8 22 C8.99 22.33 9.98 22.66 11 23 C11 24.32 11 25.64 11 27 C11.66 27 12.32 27 13 27 C13 28.65 13 30.3 13 32 C13.66 32 14.32 32 15 32 C17.09631797 37.54026892 18.0262904 43.18359307 19 49 C19.20625 50.216875 19.4125 51.43375 19.625 52.6875 C19.74875 53.450625 19.8725 54.21375 20 55 C16.79094527 51.79094527 16.00029163 48.15824618 15.125 43.8125 C13.61313588 36.73369434 10.75498945 30.37113056 7.375 24 C5.24491783 19.85023626 4.22411291 16.05567543 3.46875 11.47265625 C2.7187785 7.51655658 1.36912285 3.77877905 0 0 Z " fill="#868686" transform="translate(571,900)"/>
<path d="M0 0 C1.06742432 -0.01297119 2.13484863 -0.02594238 3.23461914 -0.03930664 C4.24258545 -0.04051514 5.25055176 -0.04172363 6.2890625 -0.04296875 C7.1960791 -0.04707764 8.1030957 -0.05118652 9.03759766 -0.05541992 C11.375 0.1875 11.375 0.1875 14.375 2.1875 C13.40228149 2.17178955 13.40228149 2.17178955 12.40991211 2.15576172 C-12.0387154 1.81376233 -32.78949497 5.28374804 -55.625 14.1875 C-55.625 13.5275 -55.625 12.8675 -55.625 12.1875 C-54.635 12.1875 -53.645 12.1875 -52.625 12.1875 C-52.625 11.5275 -52.625 10.8675 -52.625 10.1875 C-50.21070231 9.34669981 -47.79396007 8.51468598 -45.375 7.6875 C-44.35212891 7.32978516 -44.35212891 7.32978516 -43.30859375 6.96484375 C-39.86086997 5.79328713 -37.30797096 5.1875 -33.625 5.1875 C-33.625 4.5275 -33.625 3.8675 -33.625 3.1875 C-32.490625 3.043125 -31.35625 2.89875 -30.1875 2.75 C-26.81722799 2.57578522 -26.81722799 2.57578522 -25.625 1.1875 C-17.18810272 -0.08510462 -8.51085122 0.05645567 0 0 Z " fill="#BABABA" transform="translate(392.625,1096.8125)"/>
<path d="M0 0 C8.91 0 17.82 0 27 0 C27 0.33 27 0.66 27 1 C16.11 1.495 16.11 1.495 5 2 C8.3 2.33 11.6 2.66 15 3 C17.33559664 3.65869356 19.66912847 4.3247765 22 5 C24.63966722 5.27566968 27.28721063 5.48427667 29.9375 5.625 C30.62134766 5.66367188 31.30519531 5.70234375 32.00976562 5.7421875 C33.67279513 5.83522412 35.33635847 5.91863787 37 6 C32.70370977 8.86419349 29.15687024 8.14117388 24.125 7.875 C23.18567627 7.82931885 22.24635254 7.7836377 21.27856445 7.73657227 C13.6999347 7.26246078 7.08154603 5.82473543 0 3 C0 2.01 0 1.02 0 0 Z " fill="#BBBBBB" transform="translate(486,1134)"/>
<path d="M0 0 C2.033202 0.00503308 4.06640523 0.00959274 6.09960938 0.01367188 C11.00393751 0.02451578 15.9082045 0.04167701 20.8125 0.0625 C20.8125 0.3925 20.8125 0.7225 20.8125 1.0625 C1.3425 1.7225 -18.1275 2.3825 -38.1875 3.0625 C-38.5175 4.0525 -38.8475 5.0425 -39.1875 6.0625 C-38.1975 6.3925 -37.2075 6.7225 -36.1875 7.0625 C-37.8375 6.7325 -39.4875 6.4025 -41.1875 6.0625 C-41.5175 4.4125 -41.8475 2.7625 -42.1875 1.0625 C-28.1114563 0.15015431 -14.10265401 -0.06174644 0 0 Z " fill="#292929" transform="translate(520.1875,1130.9375)"/>
<path d="M0 0 C0 0.66 0 1.32 0 2 C-18.66692645 10.65603444 -43.93185988 7.31351445 -64 7 C-64 6.67 -64 6.34 -64 6 C-62.53361084 5.970271 -62.53361084 5.970271 -61.03759766 5.93994141 C-57.36581239 5.86312629 -53.69438486 5.77453493 -50.02294922 5.68261719 C-48.44229257 5.64463765 -46.86155858 5.60973435 -45.28076172 5.578125 C-36.65752225 5.40358758 -28.42626935 4.99480651 -20 3 C-17.54496833 2.62362741 -15.08680597 2.26666282 -12.625 1.9375 C-8.48102132 1.38160042 -4.15321108 0 0 0 Z " fill="#8E8E8E" transform="translate(569,1112)"/>
<path d="M0 0 C0.99 0.33 1.98 0.66 3 1 C3 2.98 3 4.96 3 7 C3.66 7 4.32 7 5 7 C5 9.31 5 11.62 5 14 C5.66 14 6.32 14 7 14 C7.33 16.64 7.66 19.28 8 22 C8.66 22 9.32 22 10 22 C10.144375 23.134375 10.28875 24.26875 10.4375 25.4375 C10.61171478 28.80777201 10.61171478 28.80777201 12 30 C12.04080783 31.99958364 12.04254356 34.00045254 12 36 C9.10816862 33.59537934 8.53644188 31.80186207 8 28.125 C7.39909404 24.03132812 6.11868963 21.52764452 4 18 C3.20145222 15.66845413 2.47512072 13.3112562 1.8125 10.9375 C1.46832031 9.72964844 1.12414062 8.52179687 0.76953125 7.27734375 C0 4 0 4 0 0 Z " fill="#323232" transform="translate(583,974)"/>
<path d="M0 0 C0.66 0 1.32 0 2 0 C-1.24684931 14.28613698 -9.08177918 24.04974147 -21.3125 31.9375 C-22.53236836 32.64136655 -23.76101681 33.33035263 -25 34 C-26.670625 34.928125 -26.670625 34.928125 -28.375 35.875 C-29.24125 36.24625 -30.1075 36.6175 -31 37 C-31.66 36.67 -32.32 36.34 -33 36 C-30.41967783 32.99711636 -27.45941551 31.61287011 -23.9375 29.875 C-15.03585242 25.16060788 -7.21766853 19.8422802 -4 10 C-3.46375 9.13375 -2.9275 8.2675 -2.375 7.375 C-0.93071062 4.88031835 -0.40517614 2.83623295 0 0 Z " fill="#464646" transform="translate(607,1087)"/>
<path d="M0 0 C0.66 0 1.32 0 2 0 C2.22786458 2.05078125 2.45572917 4.1015625 2.68359375 6.15234375 C2.81886614 8.01140229 2.81886614 8.01140229 4 9 C4.2094361 10.97509873 4.36803822 12.95571682 4.5 14.9375 C4.67735084 19.12167415 4.67735084 19.12167415 6 23 C6.08683445 25.77160626 6.1155579 28.51774765 6.09765625 31.2890625 C6.0962413 32.10748627 6.09482635 32.92591003 6.09336853 33.76913452 C6.0877629 36.38779325 6.07520948 39.00636704 6.0625 41.625 C6.05748572 43.39843627 6.05292269 45.17187387 6.04882812 46.9453125 C6.03779164 51.29690782 6.02052325 55.6484395 6 60 C5.01 60.495 5.01 60.495 4 61 C4.02094727 60.16154541 4.04189453 59.32309082 4.06347656 58.45922852 C4.44759868 40.6328019 3.94401732 23.80206964 0.3671875 6.24121094 C0 4 0 4 0 0 Z " fill="#202020" transform="translate(595,1012)"/>
<path d="M0 0 C0.33 0 0.66 0 1 0 C1.08040527 0.86052979 1.16081055 1.72105957 1.24365234 2.60766602 C1.55073337 5.87888939 1.86047583 9.14984019 2.171875 12.4206543 C2.30473561 13.82159917 2.43661182 15.22263783 2.56738281 16.6237793 C3.7052699 28.80354765 5.26348247 40.88966934 7 53 C-2.87161508 41.13792303 -0.34927246 14.80527146 0 0 Z " fill="#9C9C9C" transform="translate(541,823)"/>
<path d="M0 0 C8.4844046 -0.06966731 16.96868866 -0.1228958 25.45330906 -0.15543652 C29.39353641 -0.17105847 33.33356732 -0.19223273 37.27368164 -0.22631836 C41.07975622 -0.25903646 44.88564244 -0.27687909 48.69184685 -0.28463173 C50.1402476 -0.290153 51.58863864 -0.3009346 53.03695869 -0.31719017 C67.02030825 -0.46782123 67.02030825 -0.46782123 73 3 C73 3.33 73 3.66 73 4 C71.35 4 69.7 4 68 4 C68 3.34 68 2.68 68 2 C34.34 1.505 34.34 1.505 0 1 C0 0.67 0 0.34 0 0 Z " fill="#CBCBCB" transform="translate(383,1136)"/>
<path d="M0 0 C4.43748635 -0.02896822 8.87494847 -0.04678788 13.3125 -0.0625 C14.57513672 -0.07087891 15.83777344 -0.07925781 17.13867188 -0.08789062 C18.95141602 -0.09272461 18.95141602 -0.09272461 20.80078125 -0.09765625 C21.91622314 -0.10289307 23.03166504 -0.10812988 24.1809082 -0.11352539 C27 0 27 0 30 1 C30 1.66 30 2.32 30 3 C34.455 3.99 34.455 3.99 39 5 C39 5.66 39 6.32 39 7 C40.36125 6.87625 40.36125 6.87625 41.75 6.75 C45 7 45 7 49 11 C45.37 10.01 41.74 9.02 38 8 C38 7.34 38 6.68 38 6 C36.02 6 34.04 6 32 6 C32 5.34 32 4.68 32 4 C31.195625 4.020625 30.39125 4.04125 29.5625 4.0625 C27 4 27 4 26 3 C24.0769127 2.7714679 22.14639772 2.60481143 20.21484375 2.46484375 C19.04501953 2.37783203 17.87519531 2.29082031 16.66992188 2.20117188 C14.82237305 2.0706543 14.82237305 2.0706543 12.9375 1.9375 C11.70193359 1.84662109 10.46636719 1.75574219 9.19335938 1.66210938 C6.12918006 1.43732402 3.06475198 1.2168144 0 1 C0 0.67 0 0.34 0 0 Z " fill="#4C4C4C" transform="translate(384,1099)"/>
<path d="M0 0 C0.33 0 0.66 0 1 0 C3.48811497 17.15804087 3.19220725 35.67508997 -3 52 C-3.66 52 -4.32 52 -5 52 C-5.33 53.32 -5.66 54.64 -6 56 C-6.19441301 52.29967247 -5.73773872 50.00126606 -4.125 46.6875 C1.8380878 32.22384022 0.23806816 15.30961406 0 0 Z " fill="#DBDBDB" transform="translate(596,1037)"/>
<path d="M0 0 C1.67404804 2.03797153 2.89007488 3.53281826 3.5 6.125 C3.88573402 8.40123363 3.88573402 8.40123363 7 10 C7.89678704 12.64959808 8.61667726 15.16418675 9.25 17.875 C9.435625 18.59558594 9.62125 19.31617188 9.8125 20.05859375 C10.75722037 23.94482981 10.98944106 26.04223577 10 30 C9.01 26.37 8.02 22.74 7 19 C6.34 19 5.68 19 5 19 C2.14796197 12.77737158 0 6.94667263 0 0 Z " fill="#777777" transform="translate(572,944)"/>
<path d="M0 0 C0.99 0.495 0.99 0.495 2 1 C2.5625 3.1796875 2.5625 3.1796875 3 5.875 C3.5722779 9.38020217 3.98046184 10.97069276 6 14 C6.62318199 16.56991104 7.15749634 19.08999245 7.625 21.6875 C7.7590625 22.37005859 7.893125 23.05261719 8.03125 23.75585938 C8.92250036 28.57133962 9.12088039 33.10434438 9 38 C8.67 38 8.34 38 8 38 C7.80664062 36.87980469 7.61328125 35.75960938 7.4140625 34.60546875 C7.1514114 33.13274651 6.88837017 31.66009381 6.625 30.1875 C6.49867188 29.44951172 6.37234375 28.71152344 6.2421875 27.95117188 C5.59836518 24.39405354 5.03003944 22.04505916 3 19 C1.28926905 12.8055886 0.61737392 6.37953047 0 0 Z " fill="#898989" transform="translate(589,996)"/>
<path d="M0 0 C1.6874269 0.00015917 3.37485866 0.00585622 5.06225586 0.01586914 C6.39189613 0.01799156 6.39189613 0.01799156 7.74839783 0.02015686 C10.59133215 0.02577324 13.43418892 0.03832848 16.27709961 0.05102539 C18.19962452 0.05603828 20.12215065 0.06060155 22.04467773 0.06469727 C26.7680151 0.07574798 31.49129419 0.09302356 36.21459961 0.11352539 C36.21459961 0.44352539 36.21459961 0.77352539 36.21459961 1.11352539 C23.34459961 1.44352539 10.47459961 1.77352539 -2.78540039 2.11352539 C-3.11540039 6.07352539 -3.44540039 10.03352539 -3.78540039 14.11352539 C-5.10540039 15.43352539 -6.42540039 16.75352539 -7.78540039 18.11352539 C-6.91040039 13.36352539 -6.91040039 13.36352539 -5.78540039 11.11352539 C-5.47494513 8.52208634 -5.27566127 5.92980807 -5.06665039 3.32836914 C-4.58600426 -0.45671911 -4.06058443 0.12177825 0 0 Z " fill="#999999" transform="translate(587.785400390625,133.886474609375)"/>
<path d="M0 0 C0.69891357 0.00045822 1.39782715 0.00091644 2.11791992 0.00138855 C3.59393006 0.00440624 5.06993714 0.01227814 6.54589844 0.0246582 C8.80415136 0.04290131 11.06199361 0.04516788 13.3203125 0.04492188 C24.36942518 0.08277714 24.36942518 0.08277714 27.8125 1.23046875 C29 3.29296875 29 3.29296875 29.8125 5.23046875 C27.8325 5.23046875 25.8525 5.23046875 23.8125 5.23046875 C24.1425 4.24046875 24.4725 3.25046875 24.8125 2.23046875 C13.2625 2.23046875 1.7125 2.23046875 -10.1875 2.23046875 C-6.44428287 -0.26500934 -4.46934702 -0.01406322 0 0 Z " fill="#CBCBCB" transform="translate(384.1875,1113.76953125)"/>
<path d="M0 0 C2.62201165 1.31100583 2.86500715 2.30439197 4 5 C4.43611316 6.5767168 4.87038447 8.15397851 5.29296875 9.734375 C6.5987674 13.91870216 8.3264894 17.95330196 9.9765625 22.01171875 C11 25 11 25 11 29 C10.34 29 9.68 29 9 29 C8.85304688 28.12988281 8.85304688 28.12988281 8.703125 27.2421875 C7.67536025 21.87300267 6.0751272 18.56609797 3 14 C1.21363731 9.27405314 0 5.07014225 0 0 Z " fill="#888888" transform="translate(550,886)"/>
<path d="M0 0 C0.66 0 1.32 0 2 0 C1.55397709 6.69034366 -1.07345542 12.02812122 -4 18 C-4.66 18 -5.32 18 -6 18 C-6 18.66 -6 19.32 -6 20 C-8.375 21.6875 -8.375 21.6875 -11 23 C-11.66 22.67 -12.32 22.34 -13 22 C-11.9275 21.2575 -10.855 20.515 -9.75 19.75 C-5.47145253 16.13700435 -4.30789201 12.08146209 -2.82421875 6.8046875 C-2.09775816 4.33265574 -1.23345383 2.25145721 0 0 Z " fill="#3F3F3F" transform="translate(581,140)"/>
<path d="M0 0 C2.97 0.99 5.94 1.98 9 3 C9 3.66 9 4.32 9 5 C-4.86 5 -18.72 5 -33 5 C-33 4.67 -33 4.34 -33 4 C-20.79 4 -8.58 4 4 4 C4 3.34 4 2.68 4 2 C2.68 1.67 1.36 1.34 0 1 C0 0.67 0 0.34 0 0 Z " fill="#939393" transform="translate(412,1116)"/>
<path d="M0 0 C0.99 0.33 1.98 0.66 3 1 C3.67678186 5.16508837 4.33959148 9.33228675 5 13.5 C5.19078125 14.67304687 5.3815625 15.84609375 5.578125 17.0546875 C6.53113107 23.11308323 7.24289989 28.86677782 7 35 C6.67 35 6.34 35 6 35 C5.30463669 31.14082942 4.61093338 27.28136434 3.91870117 23.42163086 C3.56840388 21.47038608 3.21683004 19.51937062 2.86523438 17.56835938 C2.64287109 16.32763672 2.42050781 15.08691406 2.19140625 13.80859375 C1.88505249 12.10401001 1.88505249 12.10401001 1.57250977 10.36499023 C0.98591425 6.91720943 0.47947533 3.46416109 0 0 Z " fill="#ACACAC" transform="translate(606,1001)"/>
<path d="M0 0 C4.6875 0.78125 4.6875 0.78125 9.375 1.5625 C10.674375 1.7790625 10.674375 1.7790625 12 2 C12 2.66 12 3.32 12 4 C12.6290625 3.97679687 13.258125 3.95359375 13.90625 3.9296875 C19.71336086 3.80724842 24.41818195 4.44441136 30 6 C32.32975154 6.4038236 34.65284444 6.70660556 37 7 C37 7.33 37 7.66 37 8 C31.78596863 8.18960114 27.39978766 7.75262729 22.34765625 6.49609375 C19.90068757 5.97901385 17.55662619 5.78503001 15.0625 5.625 C9.58579967 5.16932478 4.96278197 3.27020877 0 1 C0 0.67 0 0.34 0 0 Z " fill="#515151" transform="translate(476,1148)"/>
<path d="M0 0 C3.1875 -0.3125 3.1875 -0.3125 7 0 C9.75 2.4375 9.75 2.4375 12 5 C12.99 5.33 13.98 5.66 15 6 C15 5.34 15 4.68 15 4 C17 2.375 17 2.375 19 1 C18.45838092 4.79133356 17.00716275 6.66109564 14 9 C11.25 9.25 11.25 9.25 9 9 C9 7.35 9 5.7 9 4 C8.34 4 7.68 4 7 4 C6.67 3.34 6.34 2.68 6 2 C3.69 2 1.38 2 -1 2 C-0.67 1.34 -0.34 0.68 0 0 Z " fill="#545454" transform="translate(548,143)"/>
<path d="M0 0 C2.38833147 0.14860808 4.77990874 0.24778427 7.171875 0.31640625 C7.8542926 0.33718735 8.53671021 0.35796844 9.23980713 0.37937927 C11.40977356 0.44452052 13.57985624 0.50359404 15.75 0.5625 C17.22527221 0.60571897 18.70053287 0.64933432 20.17578125 0.69335938 C23.78373166 0.80016518 27.39181133 0.90153153 31 1 C31 1.33 31 1.66 31 2 C18.13 2 5.26 2 -8 2 C-6.09087067 -1.81825867 -3.48307294 -0.89709816 0 0 Z " fill="#E7E7E7" transform="translate(376,1117)"/>
<path d="M0 0 C0.99 0 1.98 0 3 0 C3.33 4.29 3.66 8.58 4 13 C4.66 13 5.32 13 6 13 C8.42857143 20.42857143 8.42857143 20.42857143 7 24 C7 23.01 7 22.02 7 21 C6.34 21 5.68 21 5 21 C1.95122754 14.46691615 1.11563549 7.06569147 0 0 Z " fill="#ABABAB" transform="translate(563,876)"/>
<path d="M0 0 C0 0.99 0 1.98 0 3 C-7.15533979 5.60758587 -13.40237976 6.38999191 -21 6 C-21 5.34 -21 4.68 -21 4 C-20.39937744 3.91435791 -19.79875488 3.82871582 -19.17993164 3.74047852 C-16.47348342 3.35211985 -13.76800164 2.95739671 -11.0625 2.5625 C-10.11697266 2.42779297 -9.17144531 2.29308594 -8.19726562 2.15429688 C-7.29814453 2.02216797 -6.39902344 1.89003906 -5.47265625 1.75390625 C-4.64000244 1.63345947 -3.80734863 1.5130127 -2.94946289 1.38891602 C-1.00312641 1.18816006 -1.00312641 1.18816006 0 0 Z " fill="#474747" transform="translate(569,1150)"/>
<path d="M0 0 C4.84659077 0.59104765 8.60748167 1.97944157 13 4 C13 4.66 13 5.32 13 6 C14.98 6 16.96 6 19 6 C19.33 6.66 19.66 7.32 20 8 C18.20793453 7.85915204 16.41635083 7.71216299 14.625 7.5625 C13.62726563 7.48128906 12.62953125 7.40007812 11.6015625 7.31640625 C9 7 9 7 7 6 C7 5.34 7 4.68 7 4 C5.35 3.67 3.7 3.34 2 3 C2 2.34 2 1.68 2 1 C1.34 0.67 0.68 0.34 0 0 Z " fill="#8C8C8C" transform="translate(456,1140)"/>
<path d="M0 0 C0.66 0.33 1.32 0.66 2 1 C-1.54959704 4.14002815 -2.80391802 4.13398634 -8 5 C-8.33 13.25 -8.66 21.5 -9 30 C-9.33 30 -9.66 30 -10 30 C-10 21.42 -10 12.84 -10 4 C-6.7 2.68 -3.4 1.36 0 0 Z " fill="#424242" transform="translate(567,161)"/>
<path d="M0 0 C8.91 0 17.82 0 27 0 C27 0.33 27 0.66 27 1 C16.11 1.495 16.11 1.495 5 2 C6.32 2.99 7.64 3.98 9 5 C2.25 4.125 2.25 4.125 0 3 C0 2.01 0 1.02 0 0 Z " fill="#ADADAD" transform="translate(486,1134)"/>
<path d="M0 0 C0.66 0 1.32 0 2 0 C2.28875 0.969375 2.5775 1.93875 2.875 2.9375 C3.64214682 6.10664203 3.64214682 6.10664203 6 7 C7.5183512 10.795878 7.06687163 14.9877022 7 19 C4.6870518 16.6870518 4.50419025 15.52095125 3.875 12.375 C3.70742188 11.55773437 3.53984375 10.74046875 3.3671875 9.8984375 C3.24601563 9.27195312 3.12484375 8.64546875 3 8 C2.34 8 1.68 8 1 8 C0.67 5.36 0.34 2.72 0 0 Z " fill="#939393" transform="translate(591,955)"/>
<path d="M0 0 C3.68734775 -0.08776185 7.37442347 -0.14064603 11.0625 -0.1875 C12.62000977 -0.22520508 12.62000977 -0.22520508 14.20898438 -0.26367188 C20.29159162 -0.32160147 24.62114303 0.09312836 30 3 C26.90842747 4.54578627 24.31526981 3.60277633 21 3 C20.67 2.67 20.34 2.34 20 2 C18.43827255 1.91314397 16.87270656 1.89297781 15.30859375 1.90234375 C14.36435547 1.90556641 13.42011719 1.90878906 12.44726562 1.91210938 C11.45404297 1.92048828 10.46082031 1.92886719 9.4375 1.9375 C8.44041016 1.94201172 7.44332031 1.94652344 6.41601562 1.95117188 C3.94395151 1.96299993 1.47200482 1.97948151 -1 2 C-0.67 1.34 -0.34 0.68 0 0 Z " fill="#3E3E3E" transform="translate(381,1111)"/>
<path d="M0 0 C0.99 0.33 1.98 0.66 3 1 C3 2.98 3 4.96 3 7 C3.66 7 4.32 7 5 7 C5.33 11.29 5.66 15.58 6 20 C3.30434515 17.30434515 2.9017293 14.78319847 1.875 11.125 C1.52179687 9.89007812 1.16859375 8.65515625 0.8046875 7.3828125 C0 4 0 4 0 0 Z " fill="#595959" transform="translate(583,974)"/>
<path d="M0 0 C3.3 0 6.6 0 10 0 C10.66 1.32 11.32 2.64 12 4 C12.66 4 13.32 4 14 4 C14 6.31 14 8.62 14 11 C13.34 11 12.68 11 12 11 C12 11.66 12 12.32 12 13 C11.34 12.67 10.68 12.34 10 12 C10.01160156 11.36191406 10.02320313 10.72382812 10.03515625 10.06640625 C10.04417969 9.24011719 10.05320312 8.41382813 10.0625 7.5625 C10.07410156 6.73878906 10.08570313 5.91507813 10.09765625 5.06640625 C10.23267348 3.00836062 10.23267348 3.00836062 9 2 C7.48530552 1.76807135 5.96245438 1.58784762 4.4375 1.4375 C3.61121094 1.35371094 2.78492188 1.26992187 1.93359375 1.18359375 C1.29550781 1.12300781 0.65742187 1.06242187 0 1 C0 0.67 0 0.34 0 0 Z " fill="#9A9A9A" transform="translate(559,1140)"/>
<path d="M0 0 C0.66 0 1.32 0 2 0 C-0.00108174 8.80475965 -3.49654245 17.66222629 -11 23 C-9.84826645 20.53199953 -8.95216435 18.95216435 -7 17 C-6.2504886 15.27286504 -5.50401381 13.54410492 -4.79296875 11.80078125 C-4 10 -4 10 -2.375 7.375 C-0.93071062 4.88031835 -0.40517614 2.83623295 0 0 Z " fill="#888888" transform="translate(607,1087)"/>
<path d="M0 0 C0.33 0 0.66 0 1 0 C1.3152595 5.98993047 0.68219822 9.63560356 -2 15 C-2.66 15 -3.32 15 -4 15 C-4.33 15.99 -4.66 16.98 -5 18 C-5.66 18 -6.32 18 -7 18 C-7 17.34 -7 16.68 -7 16 C-6.34 16 -5.68 16 -5 16 C-4.87882813 15.36191406 -4.75765625 14.72382812 -4.6328125 14.06640625 C-4.46523438 13.24011719 -4.29765625 12.41382813 -4.125 11.5625 C-3.88136719 10.32693359 -3.88136719 10.32693359 -3.6328125 9.06640625 C-3.42398438 8.38449219 -3.21515625 7.70257812 -3 7 C-2.34 6.67 -1.68 6.34 -1 6 C-0.34227572 2.97065509 -0.34227572 2.97065509 0 0 Z " fill="#434343" transform="translate(598,1073)"/>
<path d="M0 0 C2.0625 0.4375 2.0625 0.4375 4 1 C3.67 1.66 3.34 2.32 3 3 C1.02 3 -0.96 3 -3 3 C-3 3.66 -3 4.32 -3 5 C-8.07476794 6.26305335 -12.72796354 7.27036084 -18 7 C-18 6.67 -18 6.34 -18 6 C-16.78441406 5.65066406 -15.56882812 5.30132813 -14.31640625 4.94140625 C-12.73172137 4.4819414 -11.14708863 4.0222967 -9.5625 3.5625 C-8.76005859 3.33240234 -7.95761719 3.10230469 -7.13085938 2.86523438 C-3.25946753 2.01294138 -3.25946753 2.01294138 0 0 Z " fill="#A1A1A1" transform="translate(572,1124)"/>
<path d="M0 0 C2.97 0.99 5.94 1.98 9 3 C9 3.99 9 4.98 9 6 C10.98 6.66 12.96 7.32 15 8 C11.98968256 8.93423645 11.13349732 9.04449911 8 8 C8 7.34 8 6.68 8 6 C7.4225 5.896875 6.845 5.79375 6.25 5.6875 C3.64338842 4.89103535 2.0264689 3.80934723 0 2 C0 1.34 0 0.68 0 0 Z " fill="#575757" transform="translate(434,1110)"/>
<path d="M0 0 C1.875 0.125 1.875 0.125 4 1 C6.28258584 5.67930096 6.17523261 9.91825435 6 15 C4.19969878 12.29954818 3.06622934 9.93322119 1.875 6.9375 C1.52179687 6.05964844 1.16859375 5.18179688 0.8046875 4.27734375 C0 2 0 2 0 0 Z " fill="#B8B8B8" transform="translate(571,900)"/>
<path d="M0 0 C0.66 0.33 1.32 0.66 2 1 C0.5682479 6.01113235 -1.98445693 7.94469549 -6 11 C-6.33 9.68 -6.66 8.36 -7 7 C-5.47005208 5.76302083 -3.94010417 4.52604167 -2.41015625 3.2890625 C-0.86733563 2.0333609 -0.86733563 2.0333609 0 0 Z " fill="#909090" transform="translate(588,1093)"/>
<path d="M0 0 C0.33 0 0.66 0 1 0 C1.268125 1.010625 1.53625 2.02125 1.8125 3.0625 C2.56111864 5.74233775 3.50092521 8.17283232 4.6875 10.6875 C6 14 6 14 5.6875 16.4375 C5.460625 16.953125 5.23375 17.46875 5 18 C5 17.34 5 16.68 5 16 C4.34 16 3.68 16 3 16 C0.54970669 10.28264895 -0.33266291 6.20970773 0 0 Z " fill="#C9C9C9" transform="translate(544,866)"/>
<path d="M0 0 C2.51884651 2.51884651 2.8257588 4.43644242 3.6875 7.875 C3.95949219 8.92429687 4.23148438 9.97359375 4.51171875 11.0546875 C4.97540921 13.85166838 4.94575698 15.372192 4 18 C3.79503906 17.44570313 3.59007812 16.89140625 3.37890625 16.3203125 C3.10949219 15.59585938 2.84007812 14.87140625 2.5625 14.125 C2.29566406 13.40570312 2.02882813 12.68640625 1.75390625 11.9453125 C1.02083146 9.96351155 1.02083146 9.96351155 0 8 C-0.13415472 5.3276379 -0.04318541 2.67749512 0 0 Z " fill="#646464" transform="translate(598,974)"/>
<path d="M0 0 C0.391875 0.474375 0.78375 0.94875 1.1875 1.4375 C3.40808374 3.35179633 5.13375709 3.61266988 8 4 C8.66 2.68 9.32 1.36 10 0 C9.67 2.31 9.34 4.62 9 7 C6.01644824 7.24862931 4.35134151 7.18991433 1.6875 5.75 C0 4 0 4 0 0 Z " fill="#3F3F3F" transform="translate(537,145)"/>
<path d="M0 0 C0.66 0.33 1.32 0.66 2 1 C1.525625 1.495 1.05125 1.99 0.5625 2.5 C-1.62167907 5.99468651 -1.65913911 8.90966936 -2 13 C-2.66 13 -3.32 13 -4 13 C-4 9.7 -4 6.4 -4 3 C-2.68 2.67 -1.36 2.34 0 2 C0 1.34 0 0.68 0 0 Z " fill="#BDBDBD" transform="translate(331,1113)"/>
<path d="M0 0 C-1.0625 1.4375 -1.0625 1.4375 -3 3 C-5.33247761 3.33926947 -7.66585471 3.67240066 -10 4 C-12.38028291 5.42675173 -12.38028291 5.42675173 -14 7 C-12.62697042 3.63820077 -11.38114791 2.2787119 -8.125 0.6875 C-7.44695312 0.34074219 -6.76890625 -0.00601562 -6.0703125 -0.36328125 C-3.64262754 -1.10990889 -2.36734455 -0.82273185 0 0 Z " fill="#525252" transform="translate(346,1109)"/>
<path d="M0 0 C2.05078125 0.03255208 4.1015625 0.06510417 6.15234375 0.09765625 C0.88383467 3.60999564 -3.55923437 4.34919313 -9.84765625 4.09765625 C-9.84765625 3.43765625 -9.84765625 2.77765625 -9.84765625 2.09765625 C-8.71328125 1.95328125 -7.57890625 1.80890625 -6.41015625 1.66015625 C-3.51115113 1.2024186 -2.54328457 0.13442307 0 0 Z " fill="#D2D2D2" transform="translate(368.84765625,1097.90234375)"/>
<path d="M0 0 C4.29 0 8.58 0 13 0 C13 0.33 13 0.66 13 1 C8.545 1.495 8.545 1.495 4 2 C3.67 2.99 3.34 3.98 3 5 C3.99 5.33 4.98 5.66 6 6 C4.35 5.67 2.7 5.34 1 5 C0.67 3.35 0.34 1.7 0 0 Z " fill="#212121" transform="translate(478,1132)"/>
<path d="M0 0 C0.99 0 1.98 0 3 0 C3.33 2.31 3.66 4.62 4 7 C4.66 7 5.32 7 6 7 C6 8.98 6 10.96 6 13 C2.57068046 9.2440786 1.43570917 4.76533255 0 0 Z " fill="#313131" transform="translate(569,935)"/>
<path d="M0 0 C2 2 2 2 2 5 C2.66 5 3.32 5 4 5 C4.33 7.64 4.66 10.28 5 13 C4.34 13 3.68 13 3 13 C0.33409063 8.44573816 -0.31563182 5.26053037 0 0 Z " fill="#AAAAAA" transform="translate(561,915)"/>
<path d="M0 0 C2.59168238 1.29584119 2.92542197 2.33651601 4 5 C4.4140625 7.578125 4.4140625 7.578125 4.625 10.25 C4.69976563 11.14203125 4.77453125 12.0340625 4.8515625 12.953125 C4.90054688 13.62859375 4.94953125 14.3040625 5 15 C3 14 3 14 2.1484375 11.85546875 C1.89320313 10.97503906 1.63796875 10.09460938 1.375 9.1875 C1.11460937 8.31480469 0.85421875 7.44210937 0.5859375 6.54296875 C0 4 0 4 0 0 Z " fill="#B8B8B8" transform="translate(550,886)"/>
<path d="M0 0 C1.27609323 0.90933009 2.54565553 1.82782853 3.8125 2.75 C4.87404297 3.51570312 4.87404297 3.51570312 5.95703125 4.296875 C8.02977691 6.02482358 9.47375854 7.78526476 11 10 C8.25 9.875 8.25 9.875 5 9 C2.62410573 6.0461855 1.1967663 3.59029889 0 0 Z " fill="#949494" transform="translate(528,155)"/>
<path d="M0 0 C0 0.66 0 1.32 0 2 C-3.82745451 3.74685308 -7.12442723 4.34886333 -11.3125 4.625 C-12.38113281 4.69976563 -13.44976563 4.77453125 -14.55078125 4.8515625 C-15.76314453 4.92503906 -15.76314453 4.92503906 -17 5 C-14.34728256 2.34728256 -12.14463182 2.17327113 -8.5 1.375 C-7.3346875 1.11460938 -6.169375 0.85421875 -4.96875 0.5859375 C-2 0 -2 0 0 0 Z " fill="#4E4E4E" transform="translate(569,1112)"/>
<path d="M0 0 C5.77807024 -0.2358396 10.51324804 0.13216954 16 2 C16 2.33 16 2.66 16 3 C10.21101581 3.20674944 5.57067277 2.59162079 0 1 C0 0.67 0 0.34 0 0 Z " fill="#D6D6D6" transform="translate(492,1137)"/>
<path d="M0 0 C0.66 0 1.32 0 2 0 C0.125 7.625 0.125 7.625 -1 11 C-1.66 11 -2.32 11 -3 11 C-3.33 12.32 -3.66 13.64 -4 15 C-4.22822613 11.04170312 -3.55050009 8.32148459 -2 4.6875 C-1.62875 3.80449219 -1.2575 2.92148438 -0.875 2.01171875 C-0.58625 1.34785156 -0.2975 0.68398437 0 0 Z " fill="#C2C2C2" transform="translate(594,1078)"/>
<path d="M0 0 C4.6875 0.78125 4.6875 0.78125 9.375 1.5625 C10.674375 1.7790625 10.674375 1.7790625 12 2 C12 2.66 12 3.32 12 4 C12.66 4.33 13.32 4.66 14 5 C8.94744036 4.36843005 4.70406799 2.86540627 0 1 C0 0.67 0 0.34 0 0 Z " fill="#676767" transform="translate(476,1148)"/>
<path d="M0 0 C-4.70406799 1.86540627 -8.94744036 3.36843005 -14 4 C-12.68502831 1.37005663 -11.72800782 1.07684519 -9 0 C-2.475 -1.2375 -2.475 -1.2375 0 0 Z " fill="#A6A6A6" transform="translate(571,1111)"/>
<path d="M0 0 C3 1 3 1 4.1875 3.25 C4.99938294 5.99791147 5.16260121 8.15447889 5 11 C4.34 11 3.68 11 3 11 C2.01 7.37 1.02 3.74 0 0 Z " fill="#C8C8C8" transform="translate(588,944)"/>
<path d="M0 0 C0.99 0.33 1.98 0.66 3 1 C4.47694566 4.91390601 5.60226148 7.99434629 4 12 C4 11.01 4 10.02 4 9 C3.34 9 2.68 9 2 9 C0.50178941 5.62902617 0 3.79557881 0 0 Z " fill="#6C6C6C" transform="translate(566,888)"/>
<path d="M0 0 C0.66 0 1.32 0 2 0 C2.52955234 1.78910903 3.0483937 3.58139148 3.5625 5.375 C3.85253906 6.37273438 4.14257812 7.37046875 4.44140625 8.3984375 C5 11 5 11 4 13 C0.88303339 8.66335081 0.44033187 5.19591612 0 0 Z " fill="#3C3C3C" transform="translate(549,878)"/>
<path d="M0 0 C-0.99 0.33 -1.98 0.66 -3 1 C-1.68 1.66 -0.36 2.32 1 3 C-1.97 3 -4.94 3 -8 3 C-7.67 2.01 -7.34 1.02 -7 0 C-3.86650268 -1.04449911 -3.01031744 -0.93423645 0 0 Z " fill="#BFBFBF" transform="translate(372,1117)"/>
<path d="M0 0 C-3.64116773 3.33773709 -7.28607242 3.97864902 -12 5 C-11.67 4.01 -11.34 3.02 -11 2 C-9.00390625 1.015625 -9.00390625 1.015625 -6.5625 0.25 C-5.75941406 -0.01296875 -4.95632813 -0.2759375 -4.12890625 -0.546875 C-2 -1 -2 -1 0 0 Z " fill="#323232" transform="translate(569,162)"/>
<path d="M0 0 C0 0.99 0 1.98 0 3 C-0.66 3 -1.32 3 -2 3 C-2 3.66 -2 4.32 -2 5 C-4.375 6.6875 -4.375 6.6875 -7 8 C-7.66 7.67 -8.32 7.34 -9 7 C-7.87720538 6.01830524 -6.75168527 5.03972702 -5.625 4.0625 C-4.68527344 3.24458984 -4.68527344 3.24458984 -3.7265625 2.41015625 C-2 1 -2 1 0 0 Z " fill="#888888" transform="translate(577,155)"/>
<path d="M0 0 C4.02992782 0.55312735 8.02022924 1.1558062 12 2 C12 2.33 12 2.66 12 3 C10.37581255 3.08090971 8.75048255 3.13914995 7.125 3.1875 C5.76761719 3.23970703 5.76761719 3.23970703 4.3828125 3.29296875 C3.20332031 3.14794922 3.20332031 3.14794922 2 3 C1.34 2.01 0.68 1.02 0 0 Z " fill="#373737" transform="translate(492,1139)"/>
<path d="M0 0 C0.99 0.33 1.98 0.66 3 1 C3.33 3.97 3.66 6.94 4 10 C0.48283697 6.48283697 0.45323837 4.80432667 0 0 Z " fill="#C1C1C1" transform="translate(606,1001)"/>
<path d="M0 0 C0.33 0 0.66 0 1 0 C1.49230769 7.38461538 1.49230769 7.38461538 -1 10.5 C-1.66 10.995 -2.32 11.49 -3 12 C-2.25749403 7.91621717 -1.17076699 3.98060777 0 0 Z " fill="#B2B2B2" transform="translate(583,140)"/>
<path d="M0 0 C0.66 0 1.32 0 2 0 C1.67 0.99 1.34 1.98 1 3 C0.34 3 -0.32 3 -1 3 C-1 3.66 -1 4.32 -1 5 C-2.32 4.67 -3.64 4.34 -5 4 C-5 3.01 -5 2.02 -5 1 C-3.35 1.33 -1.7 1.66 0 2 C0 1.34 0 0.68 0 0 Z " fill="#C9C9C9" transform="translate(564,144)"/>
<path d="M0 0 C2.18975773 3.28463659 2.99806563 6.20696275 4 10 C3.01 9.67 2.02 9.34 1 9 C0.67 6.03 0.34 3.06 0 0 Z " fill="#3F3F3F" transform="translate(572,904)"/>
<path d="M0 0 C0.99 0 1.98 0 3 0 C3 0.99 3 1.98 3 3 C4.65 3.33 6.3 3.66 8 4 C5.39417629 4.93065133 4.35801776 5.14917407 1.75 4.0625 C1.1725 3.711875 0.595 3.36125 0 3 C0 2.01 0 1.02 0 0 Z " fill="#6B6B6B" transform="translate(483,1134)"/>
<path d="M0 0 C0.66 0.33 1.32 0.66 2 1 C-0.57404971 4.86107457 -2.61020259 4.94319692 -7 6 C-4.74259377 3.66475218 -2.7194239 1.81294927 0 0 Z " fill="#6D6D6D" transform="translate(579,1104)"/>
</svg>
