<?xml version="1.0" encoding="UTF-8"?>
<svg version="1.1" xmlns="http://www.w3.org/2000/svg" width="494" height="512">
<path d="M0 0 C163.02 0 326.04 0 494 0 C494 168.96 494 337.92 494 512 C330.98 512 167.96 512 0 512 C0 343.04 0 174.08 0 0 Z " fill="#FEFEFE" transform="translate(0,0)"/>
<path d="M0 0 C2.31051422 0.87730625 4.65472582 1.54940489 7.03735352 2.20239258 C10.66642818 3.27042534 13.8075803 4.36998312 16.84985352 6.70239258 C16.84985352 7.36239258 16.84985352 8.02239258 16.84985352 8.70239258 C18.02547852 9.16645508 18.02547852 9.16645508 19.22485352 9.63989258 C21.84985352 10.70239258 21.84985352 10.70239258 23.84985352 11.70239258 C23.84985352 12.36239258 23.84985352 13.02239258 23.84985352 13.70239258 C24.57172852 13.92926758 25.29360352 14.15614258 26.03735352 14.38989258 C29.46223763 15.98817183 31.2700151 17.93827999 33.84985352 20.70239258 C35.05740401 21.8698695 36.26577638 23.03649677 37.47485352 24.20239258 C40.14222503 26.86976409 41.97302976 29.417951 43.84985352 32.70239258 C44.94357707 34.08571388 46.04923023 35.45963325 47.16235352 36.82739258 C52.36196487 43.45413131 57.37207264 50.00298614 56.84985352 58.70239258 C57.50985352 58.70239258 58.16985352 58.70239258 58.84985352 58.70239258 C58.84985352 61.01239258 58.84985352 63.32239258 58.84985352 65.70239258 C59.83985352 66.03239258 60.82985352 66.36239258 61.84985352 66.70239258 C62.76391602 68.48754883 62.76391602 68.48754883 63.47485352 70.76489258 C63.71461914 71.49836914 63.95438477 72.2318457 64.20141602 72.98754883 C66.22194879 81.44700833 66.00044736 89.92667321 65.97485352 98.57739258 C65.97842042 99.92114352 65.98232403 101.26489362 65.98657227 102.60864258 C65.98463867 104.50743164 65.98463867 104.50743164 65.98266602 106.44458008 C65.98153809 107.59812988 65.98041016 108.75167969 65.97924805 109.94018555 C65.84985352 112.70239258 65.84985352 112.70239258 64.84985352 114.70239258 C64.69559995 116.05353957 64.57531337 117.40868456 64.47485352 118.76489258 C64.01207178 123.37031726 63.27568845 130.27655765 59.84985352 133.70239258 C59.66422852 135.28020508 59.66422852 135.28020508 59.47485352 136.88989258 C58.55317992 142.51210151 56.28614981 146.19963038 52.78735352 150.57739258 C50.62580705 153.34819847 49.4627967 155.44123555 48.78735352 158.88989258 C47.71221244 163.26213294 46.32603603 164.92144656 42.84985352 167.70239258 C42.18985352 167.70239258 41.52985352 167.70239258 40.84985352 167.70239258 C40.84985352 168.36239258 40.84985352 169.02239258 40.84985352 169.70239258 C39.27657288 170.63205841 37.69463162 171.54811453 36.08982849 172.42224121 C33.82299718 173.66417515 33.82299718 173.66417515 31.75257874 175.22375488 C20.74914301 182.22609436 7.56786608 180.48661186 -4.96655273 180.35864258 C-7.59105495 180.35251778 -10.21556369 180.34877286 -12.84007263 180.34729004 C-18.32476529 180.33993855 -23.80895232 180.31017893 -29.29345703 180.26489258 C-36.30284495 180.20712765 -43.31182717 180.18643513 -50.32142735 180.17752838 C-57.0365286 180.16867357 -63.75151462 180.13812823 -70.46655273 180.10864258 C-71.73673311 180.10488113 -73.00691349 180.10111969 -74.31558418 180.09724426 C-77.93320192 180.08340248 -81.55046606 180.05608509 -85.16796875 180.0246582 C-86.22230606 180.02242249 -87.27664337 180.02018677 -88.3629303 180.0178833 C-95.1440448 179.94036844 -101.52051203 179.12574341 -108.15014648 177.70239258 C-108.15014648 177.04239258 -108.15014648 176.38239258 -108.15014648 175.70239258 C-110.13014648 175.37239258 -112.11014648 175.04239258 -114.15014648 174.70239258 C-114.48014648 173.71239258 -114.81014648 172.72239258 -115.15014648 171.70239258 C-117.15031115 170.49357161 -117.15031115 170.49357161 -119.15014648 169.70239258 C-119.15014648 169.04239258 -119.15014648 168.38239258 -119.15014648 167.70239258 C-119.81014648 167.70239258 -120.47014648 167.70239258 -121.15014648 167.70239258 C-121.15014648 167.04239258 -121.15014648 166.38239258 -121.15014648 165.70239258 C-121.81014648 165.70239258 -122.47014648 165.70239258 -123.15014648 165.70239258 C-126.15014648 161.31777719 -126.15014648 161.31777719 -126.15014648 158.70239258 C-126.81014648 158.70239258 -127.47014648 158.70239258 -128.15014648 158.70239258 C-128.72764648 157.67114258 -129.30514648 156.63989258 -129.90014648 155.57739258 C-131.3013775 153.10021631 -132.75053635 150.85184026 -134.40014648 148.51489258 C-136.15014648 145.70239258 -136.15014648 145.70239258 -136.15014648 141.70239258 C-136.81014648 141.70239258 -137.47014648 141.70239258 -138.15014648 141.70239258 C-138.25327148 140.69176758 -138.35639648 139.68114258 -138.46264648 138.63989258 C-139.05614666 135.24075522 -139.99074424 132.77584017 -141.39135742 129.67041016 C-144.6633406 121.18409858 -144.49412823 111.82089337 -144.46582031 102.85986328 C-144.46265579 100.77103604 -144.48622741 98.68362467 -144.51147461 96.5949707 C-144.55029239 88.1905804 -143.5322967 80.75418255 -141.15014648 72.70239258 C-140.73960363 70.95578484 -140.34253028 69.20592397 -139.96264648 67.45239258 C-139.69452148 66.21489258 -139.42639648 64.97739258 -139.15014648 63.70239258 C-138.49014648 63.70239258 -137.83014648 63.70239258 -137.15014648 63.70239258 C-137.21202148 62.65051758 -137.27389648 61.59864258 -137.33764648 60.51489258 C-137.13439448 56.38210188 -136.410476 55.05102889 -134.15014648 51.70239258 C-133.07966901 49.395589 -132.12547976 47.05205911 -131.15014648 44.70239258 C-130.82014648 44.04239258 -130.49014648 43.38239258 -130.15014648 42.70239258 C-129.49014648 42.70239258 -128.83014648 42.70239258 -128.15014648 42.70239258 C-128.02639648 42.10426758 -127.90264648 41.50614258 -127.77514648 40.88989258 C-127.15014648 38.70239258 -127.15014648 38.70239258 -125.15014648 35.70239258 C-124.49014648 35.70239258 -123.83014648 35.70239258 -123.15014648 35.70239258 C-122.94131836 34.9934082 -122.73249023 34.28442383 -122.51733398 33.55395508 C-120.77935377 29.92902493 -118.25083685 27.67487769 -115.27514648 25.07739258 C-114.7453418 24.60043945 -114.21553711 24.12348633 -113.66967773 23.63208008 C-105.91227756 16.70239258 -105.91227756 16.70239258 -103.15014648 16.70239258 C-103.15014648 16.04239258 -103.15014648 15.38239258 -103.15014648 14.70239258 C-102.18077148 14.24864258 -101.21139648 13.79489258 -100.21264648 13.32739258 C-97.07935067 12.04453036 -97.07935067 12.04453036 -96.15014648 9.70239258 C-93.08867752 7.73430539 -90.74849681 7.50248423 -87.15014648 7.70239258 C-86.82014648 6.71239258 -86.49014648 5.72239258 -86.15014648 4.70239258 C-84.11889648 3.82348633 -84.11889648 3.82348633 -81.65014648 3.13989258 C-79.23519243 2.49854541 -79.23519243 2.49854541 -77.15014648 1.70239258 C-76.82014648 1.04239258 -76.49014648 0.38239258 -76.15014648 -0.29760742 C-73.85312856 -1.09226767 -71.62246121 -1.75486843 -69.27514648 -2.36010742 C-68.01959961 -2.70170898 -66.76405273 -3.04331055 -65.47045898 -3.39526367 C-45.13703658 -8.08243592 -19.5124339 -7.60141894 0 0 Z " fill="#000000" transform="translate(288.150146484375,212.297607421875)"/>
<path d="M0 0 C1.2485686 0.00138269 1.2485686 0.00138269 2.5223608 0.00279331 C3.47453487 0.00141865 4.42670895 0.00004398 5.40773678 -0.00137234 C6.98729404 0.00402058 6.98729404 0.00402058 8.59876156 0.00952244 C10.25221081 0.0093034 10.25221081 0.0093034 11.93906307 0.00907993 C15.60226021 0.00977961 19.26540723 0.01757459 22.92859554 0.02539158 C25.46065398 0.02725556 27.99271277 0.02867956 30.52477169 0.0296793 C36.52067179 0.03311437 42.51655019 0.04100514 48.51244158 0.05102879 C55.33699987 0.06219105 62.16155901 0.06770066 68.98612416 0.07272422 C83.02815593 0.08318779 97.07017162 0.10078653 111.11218929 0.12304783 C111.11218929 0.78304783 111.11218929 1.44304783 111.11218929 2.12304783 C112.30843929 2.22617283 113.50468929 2.32929783 114.73718929 2.43554783 C124.62845905 3.2882435 131.44846651 11.33365096 137.64539242 18.33447361 C145.74141221 28.20655101 144.0198269 44.05584929 143.11218929 56.12304783 C142.78218929 57.11304783 142.45218929 58.10304783 142.11218929 59.12304783 C141.84285897 62.08568137 141.66798486 65.04809669 141.49109554 68.01757908 C141.11218929 71.12304783 141.11218929 71.12304783 140.10828304 74.13086033 C139.06534529 77.26376355 138.77852626 79.89623432 138.61218929 83.18554783 C138.18610208 89.90997872 137.23160666 96.48262056 136.11218929 103.12304783 C132.2489264 102.32232881 130.03743922 100.80452693 127.11218929 98.12304783 C127.11218929 97.46304783 127.11218929 96.80304783 127.11218929 96.12304783 C126.49343929 95.81367283 125.87468929 95.50429783 125.23718929 95.18554783 C123.86218929 94.49804783 122.48718929 93.81054783 121.11218929 93.12304783 C121.11218929 92.46304783 121.11218929 91.80304783 121.11218929 91.12304783 C119.79218929 90.79304783 118.47218929 90.46304783 117.11218929 90.12304783 C117.11218929 89.46304783 117.11218929 88.80304783 117.11218929 88.12304783 C116.41093929 88.01992283 115.70968929 87.91679783 114.98718929 87.81054783 C111.72106144 87.02951725 109.08712188 85.65995899 106.11218929 84.12304783 C106.08504195 81.89394911 106.06572675 79.66475416 106.04968929 77.43554783 C106.03808773 76.19418064 106.02648617 74.95281345 106.01453304 73.67382908 C106.09840064 70.62440312 106.48276147 68.08506112 107.11218929 65.12304783 C107.32917416 62.68799545 107.51509674 60.25003399 107.67468929 57.81054783 C107.75847836 56.55629002 107.84226742 55.3020322 107.92859554 54.00976658 C107.98918148 53.05714939 108.04976742 52.1045322 108.11218929 51.12304783 C108.77218929 51.12304783 109.43218929 51.12304783 110.11218929 51.12304783 C110.05208512 49.18468817 109.96327212 47.24720292 109.86218929 45.31054783 C109.81578304 44.23160252 109.76937679 43.1526572 109.72156429 42.04101658 C109.36105303 39.14317646 109.36105303 39.14317646 107.68768978 37.46196079 C103.66504439 35.37072762 99.76190213 35.73118188 95.29480648 35.78247166 C94.29935818 35.78203358 93.30390987 35.7815955 92.27829647 35.78114414 C88.98835283 35.78323398 85.69891891 35.80657472 82.40906429 35.83007908 C80.12791885 35.83567433 77.8467698 35.83994476 75.56561947 35.84294224 C69.5617137 35.85439656 63.55802565 35.88386904 57.55420589 35.91705418 C51.42773032 35.94774226 45.30121957 35.96144489 39.17468929 35.97656345 C27.1537603 36.00873797 15.1329929 36.05994161 3.11218929 36.12304783 C1.94375194 40.53485102 2.15594707 44.40374398 2.42468929 48.93554783 C2.46013851 49.71736423 2.49558773 50.49918064 2.53211117 51.30468845 C2.73549877 54.93834457 3.09698532 58.06995363 4.10437679 61.58789158 C5.37156249 66.03286468 5.67946996 70.2742969 5.92468929 74.87304783 C5.98849789 75.72254002 6.05230648 76.5720322 6.11804867 77.44726658 C6.16381039 78.26324314 6.20957211 79.0792197 6.25672054 79.91992283 C6.32403378 81.02352146 6.32403378 81.02352146 6.39270687 82.14941502 C6.02352918 84.7468323 5.14213548 85.51281743 3.11218929 87.12304783 C0.23252352 88.61594581 -2.66694749 89.99971845 -5.61827946 91.34179783 C-9.85795271 93.35723137 -12.66022337 95.75663953 -15.88781071 99.12304783 C-16.54781071 99.12304783 -17.20781071 99.12304783 -17.88781071 99.12304783 C-17.88781071 99.78304783 -17.88781071 100.44304783 -17.88781071 101.12304783 C-23.63781071 104.12304783 -23.63781071 104.12304783 -25.88781071 104.12304783 C-26.00374577 103.43678318 -26.11968082 102.75051853 -26.23912907 102.04345798 C-26.76456347 98.94441909 -27.29487474 95.84623438 -27.82531071 92.74804783 C-28.00771305 91.66781345 -28.19011539 90.58757908 -28.37804508 89.47461033 C-28.55529118 88.44336033 -28.73253727 87.41211033 -28.91515446 86.34961033 C-29.07749577 85.39650974 -29.23983707 84.44340916 -29.40709782 83.46142673 C-29.7849175 81.11387815 -29.7849175 81.11387815 -30.88781071 79.12304783 C-31.07245398 76.64062158 -31.21408125 74.17128445 -31.32531071 71.68554783 C-31.5688009 66.93880374 -31.91949545 62.401235 -32.95031071 57.74804783 C-33.98626357 52.69197939 -34.07480257 47.76436279 -34.07531071 42.62304783 C-34.0760358 41.83236912 -34.0767609 41.04169041 -34.07750797 40.22705173 C-34.045978 36.9472264 -33.93147586 34.25404329 -32.88781071 31.12304783 C-32.22781071 31.12304783 -31.56781071 31.12304783 -30.88781071 31.12304783 C-30.93937321 30.39730564 -30.99093571 29.67156345 -31.04406071 28.92382908 C-30.8646077 25.70713397 -30.0274192 24.05689206 -28.38781071 21.31054783 C-27.92374821 20.52035252 -27.45968571 19.7301572 -26.98156071 18.91601658 C-26.62062321 18.32433689 -26.25968571 17.7326572 -25.88781071 17.12304783 C-25.22781071 17.12304783 -24.56781071 17.12304783 -23.88781071 17.12304783 C-23.88781071 16.46304783 -23.88781071 15.80304783 -23.88781071 15.12304783 C-22.89781071 15.12304783 -21.90781071 15.12304783 -20.88781071 15.12304783 C-20.88781071 14.46304783 -20.88781071 13.80304783 -20.88781071 13.12304783 C-19.89781071 13.12304783 -18.90781071 13.12304783 -17.88781071 13.12304783 C-17.84656071 12.19492283 -17.80531071 11.26679783 -17.76281071 10.31054783 C-16.88781071 7.12304783 -16.88781071 7.12304783 -13.88781071 5.37304783 C-12.89781071 4.96054783 -11.90781071 4.54804783 -10.88781071 4.12304783 C-10.55781071 3.46304783 -10.22781071 2.80304783 -9.88781071 2.12304783 C-7.5606507 1.74903997 -5.22663209 1.4154005 -2.88781071 1.12304783 C-1.88781071 0.12304783 -1.88781071 0.12304783 0 0 Z " fill="#010101" transform="translate(193.88781070709229,122.87695217132568)"/>
<path d="M0 0 C2 2 2 2 2.0625 4.875 C0.79691698 8.59730299 -0.60579146 9.24350886 -4.03125 10.94921875 C-8.93620373 13.56714049 -12.6621429 17.29868484 -15.75 21.875 C-16.4925 22.90625 -17.235 23.9375 -18 25 C-18.99 25 -19.98 25 -21 25 C-21.144375 25.61875 -21.28875 26.2375 -21.4375 26.875 C-22 29 -22 29 -23 31 C-23.66 31 -24.32 31 -25 31 C-25 31.66 -25 32.32 -25 33 C-27.33294775 33.04241723 -29.66702567 33.04092937 -32 33 C-33 32 -33 32 -33.30078125 29.28515625 C-32.93072906 25.24341735 -31.68335527 23.59891668 -29.1875 20.4375 C-27.08827127 17.74176912 -25.11430049 15.201874 -23.4296875 12.2265625 C-21.47638944 9.18454093 -19.361304 9.0727566 -16 8 C-15.30062468 6.68352881 -14.63270867 5.34977849 -14 4 C-11.625 2.875 -11.625 2.875 -9 2 C-8.34 1.62875 -7.68 1.2575 -7 0.875 C-4.50177844 -0.21797193 -2.69993175 -0.28420334 0 0 Z " fill="#ECECEC" transform="translate(210,237)"/>
<path d="M0 0 C33 0 66 0 100 0 C100 0.66 100 1.32 100 2 C49.51 2.495 49.51 2.495 -2 3 C-3.13250661 7.53002642 -2.96102511 11.20004231 -2.6875 15.8125 C-2.65205078 16.59431641 -2.61660156 17.37613281 -2.58007812 18.18164062 C-2.37669052 21.81529674 -2.01520398 24.9469058 -1.0078125 28.46484375 C0.2593732 32.90981685 0.56728067 37.15124907 0.8125 41.75 C0.87630859 42.59949219 0.94011719 43.44898438 1.00585938 44.32421875 C1.05162109 45.14019531 1.09738281 45.95617187 1.14453125 46.796875 C1.18940674 47.53260742 1.23428223 48.26833984 1.28051758 49.02636719 C0.91534454 51.59560901 -0.01918141 52.38726628 -2 54 C-3.9375 55.203125 -3.9375 55.203125 -6 56.25 C-7.0209375 56.78367187 -7.0209375 56.78367187 -8.0625 57.328125 C-10 58 -10 58 -13 57 C-12.030625 56.54625 -11.06125 56.0925 -10.0625 55.625 C-6.92920418 54.34213779 -6.92920418 54.34213779 -6 52 C-5.01 52 -4.02 52 -3 52 C-3 51.34 -3 50.68 -3 50 C-2.34 50 -1.68 50 -1 50 C-1 44.39 -1 38.78 -1 33 C-1.66 33 -2.32 33 -3 33 C-5.71667939 23.41076859 -6.36901501 14.88140184 -6 5 C-5.01 5 -4.02 5 -3 5 C-3 4.01 -3 3.02 -3 2 C-2.01 2 -1.02 2 0 2 C0 1.34 0 0.68 0 0 Z " fill="#494949" transform="translate(199,156)"/>
<path d="M0 0 C0.82989944 -0.0071553 1.65979889 -0.01431061 2.5148468 -0.02168274 C3.87546989 -0.02571609 3.87546989 -0.02571609 5.26358032 -0.02983093 C6.22159042 -0.03640213 7.17960052 -0.04297333 8.16664124 -0.04974365 C11.34039384 -0.06947265 14.51409918 -0.08113708 17.68789673 -0.09111023 C19.31274427 -0.09722352 19.31274427 -0.09722352 20.97041702 -0.10346031 C26.70143697 -0.12431722 32.43243298 -0.13862181 38.16348267 -0.147995 C44.08757322 -0.15907148 50.0112894 -0.193487 55.93524742 -0.23316669 C60.48712879 -0.25928479 65.03892019 -0.26768246 69.5908699 -0.27127647 C71.77497517 -0.27615319 73.95907614 -0.28779786 76.14310837 -0.30631447 C79.19789274 -0.33060799 82.2516981 -0.32975885 85.30654907 -0.32279968 C86.20958267 -0.33560974 87.11261627 -0.3484198 88.04301453 -0.36161804 C92.167995 -0.32733705 94.37683496 -0.17521275 97.98443604 1.98806763 C100.57370826 4.88466828 100.43479636 6.57296778 100.22695923 10.39717102 C100.18184204 11.47482727 100.13672485 12.55248352 100.09024048 13.66279602 C100.03223267 14.48263977 99.97422485 15.30248352 99.91445923 16.14717102 C99.25445923 16.14717102 98.59445923 16.14717102 97.91445923 16.14717102 C97.92606079 17.09978821 97.93766235 18.0524054 97.94961548 19.03388977 C97.95863892 20.28814758 97.96766235 21.5424054 97.97695923 22.83467102 C97.98856079 24.07603821 98.00016235 25.3174054 98.01211548 26.59638977 C97.91445923 30.14717102 97.91445923 30.14717102 97.41445923 32.61592102 C96.73341752 36.06369468 96.80845152 39.46232033 96.85195923 42.95967102 C96.85647095 43.65254211 96.86098267 44.34541321 96.8656311 45.0592804 C96.87732766 46.7552817 96.89525999 48.45123805 96.91445923 50.14717102 C95.42945923 49.65217102 95.42945923 49.65217102 93.91445923 49.14717102 C94.0534007 46.04265553 94.20180223 42.93866267 94.35195923 39.83467102 C94.39127563 38.9535968 94.43059204 38.07252258 94.47109985 37.16474915 C94.51299438 36.31719055 94.55488892 35.46963196 94.59805298 34.59638977 C94.63471069 33.81610413 94.67136841 33.03581848 94.70913696 32.23188782 C94.91445923 30.14717102 94.91445923 30.14717102 95.91445923 27.14717102 C95.99712409 25.22810185 96.02186585 23.30627629 96.01211548 21.38545227 C96.00889282 20.26719055 96.00567017 19.14892883 96.00234985 17.9967804 C95.99397095 16.8295343 95.98559204 15.66228821 95.97695923 14.45967102 C95.97244751 13.28082336 95.96793579 12.10197571 95.96328735 10.8874054 C95.95149196 7.97394313 95.93503193 5.06058239 95.91445923 2.14717102 C82.7801827 2.25454011 69.64596265 2.3671463 56.51178932 2.48651028 C50.41360944 2.54176471 44.31542479 2.59518873 38.2171936 2.64448547 C32.33628426 2.69209185 26.45543467 2.74443328 20.57459641 2.80011177 C18.32664851 2.82055224 16.07868422 2.83926247 13.83070755 2.85624504 C10.69140929 2.88025161 7.55222472 2.91031128 4.41299438 2.94184875 C3.47576035 2.94760422 2.53852631 2.95335968 1.57289124 2.95928955 C0.72031235 2.96907837 -0.13226654 2.97886719 -1.01068115 2.98895264 C-1.7536463 2.99540519 -2.49661144 3.00185774 -3.26209068 3.00850582 C-5.18453711 3.03912556 -5.18453711 3.03912556 -7.08554077 4.14717102 C-7.08554077 3.15717102 -7.08554077 2.16717102 -7.08554077 1.14717102 C-4.37454939 0.24350723 -2.78601543 0.01651772 0 0 Z " fill="#AFAFAF" transform="translate(204.08554077148438,157.8528289794922)"/>
<path d="M0 0 C0.68429077 -0.00095673 1.36858154 -0.00191345 2.0736084 -0.00289917 C3.52286877 -0.0035808 4.97213218 -0.00172773 6.42138672 0.00244141 C8.64687928 0.00778998 10.87217001 0.0024959 13.09765625 -0.00390625 C14.50260461 -0.00324547 15.90755285 -0.0019643 17.3125 0 C18.59962891 0.00112793 19.88675781 0.00225586 21.21289062 0.00341797 C24.15625 0.1328125 24.15625 0.1328125 25.15625 1.1328125 C27.70381104 1.41587484 30.25135022 1.58097036 32.80859375 1.75390625 C35.15625 2.1328125 35.15625 2.1328125 37.15625 4.1328125 C38.47372324 4.83029833 39.80539193 5.50241207 41.15625 6.1328125 C36.92230096 6.28677428 33.29526913 6.26418238 29.20703125 5.13671875 C23.092515 3.71962597 17.02749813 3.87952607 10.78125 3.9453125 C9.04875 3.9462793 9.04875 3.9462793 7.28125 3.94726562 C-6.17079243 3.85953907 -6.17079243 3.85953907 -19.21875 6.6953125 C-22.58181476 7.87069801 -25.27387194 8.27787822 -28.84375 8.1328125 C-29.17375 9.1228125 -29.50375 10.1128125 -29.84375 11.1328125 C-31.875 12.01171875 -31.875 12.01171875 -34.34375 12.6953125 C-36.75870405 13.33665967 -36.75870405 13.33665967 -38.84375 14.1328125 C-39.17375 14.7928125 -39.50375 15.4528125 -39.84375 16.1328125 C-42.15085878 16.73177343 -44.46063718 17.08936215 -46.8125 17.47265625 C-47.4828125 17.69050781 -48.153125 17.90835938 -48.84375 18.1328125 C-49.17375 19.1228125 -49.50375 20.1128125 -49.84375 21.1328125 C-52.90625 22.3203125 -52.90625 22.3203125 -55.84375 23.1328125 C-55.84375 23.7928125 -55.84375 24.4528125 -55.84375 25.1328125 C-57.49375 25.7928125 -59.14375 26.4528125 -60.84375 27.1328125 C-60.78125 24.8203125 -60.78125 24.8203125 -59.84375 22.1328125 C-56.34226158 20.25238353 -53.8357194 19.1328125 -49.84375 19.1328125 C-49.84375 18.4728125 -49.84375 17.8128125 -49.84375 17.1328125 C-43.21875 13.1328125 -43.21875 13.1328125 -39.84375 13.1328125 C-39.84375 12.1428125 -39.84375 11.1528125 -39.84375 10.1328125 C-38.19375 9.8028125 -36.54375 9.4728125 -34.84375 9.1328125 C-34.84375 8.4728125 -34.84375 7.8128125 -34.84375 7.1328125 C-33.95623047 7.05933594 -33.95623047 7.05933594 -33.05078125 6.984375 C-26.73349909 6.3947705 -26.73349909 6.3947705 -20.84375 4.1328125 C-20.51375 3.4728125 -20.18375 2.8128125 -19.84375 2.1328125 C-17.15625 1.75390625 -17.15625 1.75390625 -13.84375 1.5703125 C-8.74732857 1.27582588 -5.18575942 0.00454436 0 0 Z " fill="#9A9A9A" transform="translate(240.84375,203.8671875)"/>
<path d="M0 0 C2 1.375 2 1.375 4 3 C4 3.66 4 4.32 4 5 C4.99 5.33 5.98 5.66 7 6 C7 6.66 7 7.32 7 8 C7.66 8 8.32 8 9 8 C9 8.66 9 9.32 9 10 C11.33214148 11.20628008 13.49642139 12.1654738 16 13 C16 13.99 16 14.98 16 16 C17.26457031 16.19916016 17.26457031 16.19916016 18.5546875 16.40234375 C19.65039062 16.57894531 20.74609375 16.75554687 21.875 16.9375 C22.96554688 17.11152344 24.05609375 17.28554688 25.1796875 17.46484375 C28 18 28 18 30 19 C31.53232128 19.09448001 33.06871178 19.12629928 34.60394287 19.12698364 C36.05912323 19.13121338 36.05912323 19.13121338 37.54370117 19.13552856 C38.61177002 19.13350433 39.67983887 19.1314801 40.78027344 19.12939453 C42.46337616 19.13202301 42.46337616 19.13202301 44.18048096 19.13470459 C47.9067945 19.13912206 51.63306093 19.13618467 55.359375 19.1328125 C57.94289153 19.13348576 60.526408 19.13445597 63.10992432 19.13571167 C68.53390156 19.13718866 73.957861 19.13512974 79.38183594 19.13037109 C85.64494794 19.12493955 91.90802733 19.1266833 98.17113853 19.1321975 C104.19926384 19.13729178 110.22737327 19.13674001 116.25550079 19.13381577 C118.81834162 19.13314859 121.38118328 19.13396762 123.94402313 19.13629532 C127.53008724 19.13883642 131.11608897 19.13496007 134.70214844 19.12939453 C136.29210632 19.13243088 136.29210632 19.13243088 137.91418457 19.13552856 C142.72224821 19.12171371 147.27397801 19.01347349 152 18 C148.95718068 20.65514948 147.09747786 21.37500671 143.07530212 21.3742218 C142.08441589 21.38123611 141.09352966 21.38825043 140.07261658 21.39547729 C138.99154129 21.38783356 137.910466 21.38018982 136.79663086 21.37231445 C135.08124619 21.37779045 135.08124619 21.37779045 133.33120728 21.38337708 C129.54226932 21.39149658 125.75375735 21.37785443 121.96484375 21.36328125 C119.3289032 21.36276256 116.69296226 21.36328059 114.05702209 21.36479187 C108.52469807 21.3656749 102.99249654 21.35459989 97.46020508 21.33618164 C91.08804798 21.31508702 84.71607123 21.31148848 78.34388632 21.3177436 C72.19508209 21.32346803 66.04635077 21.31764512 59.8975544 21.30657005 C57.29140031 21.30273389 54.68524083 21.30156324 52.0790844 21.3031559 C48.42233061 21.30352928 44.76584424 21.29082735 41.10913086 21.2746582 C40.04222519 21.27713562 38.97531952 21.27961304 37.87608337 21.28216553 C31.05754446 21.23436536 24.66443749 20.43967921 18 19 C18 18.34 18 17.68 18 17 C16.02 16.67 14.04 16.34 12 16 C11.67 15.01 11.34 14.02 11 13 C8.99983534 11.79117904 8.99983534 11.79117904 7 11 C7 10.34 7 9.68 7 9 C6.34 9 5.68 9 5 9 C5 8.34 5 7.68 5 7 C4.34 7 3.68 7 3 7 C0 2.61538462 0 2.61538462 0 0 Z " fill="#666666" transform="translate(162,371)"/>
<path d="M0 0 C0.66 0 1.32 0 2 0 C2 0.99 2 1.98 2 3 C2.66 3 3.32 3 4 3 C5.75005667 8.27742004 6.27369124 12.80114305 6.1953125 18.33984375 C6.1924826 19.10680069 6.18965271 19.87375763 6.18673706 20.66395569 C6.17563475 23.08863621 6.15054967 25.51293309 6.125 27.9375 C6.1149573 29.5917915 6.10583372 31.24608885 6.09765625 32.90039062 C6.07572817 36.93373923 6.04126843 40.9668048 6 45 C5.34 45 4.68 45 4 45 C4.01160156 46.20398438 4.02320313 47.40796875 4.03515625 48.6484375 C4.04453434 50.22395679 4.05363452 51.79947775 4.0625 53.375 C4.07087891 54.1690625 4.07925781 54.963125 4.08789062 55.78125 C4.11328125 61.7734375 4.11328125 61.7734375 3 64 C2.63001536 66.39044762 2.30323597 68.78767159 2 71.1875 C1.36907916 76.1313563 0.71645233 81.06799335 0 86 C-1.98 86.495 -1.98 86.495 -4 87 C-4 86.34 -4 85.68 -4 85 C-4.99 85 -5.98 85 -7 85 C-7 84.34 -7 83.68 -7 83 C-7.66 83 -8.32 83 -9 83 C-8.67 82.01 -8.34 81.02 -8 80 C-7.566875 80.474375 -7.13375 80.94875 -6.6875 81.4375 C-4.97690387 83.23686957 -4.97690387 83.23686957 -2 84 C-2.01160156 83.31292969 -2.02320313 82.62585938 -2.03515625 81.91796875 C-2.04417969 81.01691406 -2.05320312 80.11585938 -2.0625 79.1875 C-2.07410156 78.29417969 -2.08570313 77.40085937 -2.09765625 76.48046875 C-2 74 -2 74 -1 71 C-0.72889239 67.77683176 -0.55520499 64.5538617 -0.37890625 61.32421875 C0.00472949 57.9585073 0.92239252 55.1991472 2 52 C2.25082853 49.9442404 2.43935044 47.87984049 2.5625 45.8125 C2.76166324 42.58117809 2.97296004 40.08111988 4 37 C4.95449319 24.39542372 5.13543588 11.73813916 0 0 Z " fill="#6F6F6F" transform="translate(332,142)"/>
<path d="M0 0 C6.15234375 -0.09765625 6.15234375 -0.09765625 8 0 C8.33 0.33 8.66 0.66 9 1 C8.98826472 2.93925578 8.89032944 4.87829258 8.75 6.8125 C8.68296875 7.87082031 8.6159375 8.92914063 8.546875 10.01953125 C7.95865185 13.22534743 7.32719113 14.73775374 5 17 C1.375 17.3125 1.375 17.3125 -2 17 C-3 16 -3 16 -3.09765625 13.05859375 C-3.08605469 11.86363281 -3.07445312 10.66867187 -3.0625 9.4375 C-3.05347656 8.23996094 -3.04445312 7.04242188 -3.03515625 5.80859375 C-3.02355469 4.88175781 -3.01195312 3.95492188 -3 3 C-2.01 2.67 -1.02 2.34 0 2 C0 1.34 0 0.68 0 0 Z " fill="#F4F4F4" transform="translate(167,282)"/>
<path d="M0 0 C0.33 0 0.66 0 1 0 C1.12559479 7.41009255 1.12559479 7.41009255 0.50219727 10.33813477 C0.01781302 12.9055832 -0.12915998 15.22022624 -0.1328125 17.828125 C-0.13410156 18.70984375 -0.13539063 19.5915625 -0.13671875 20.5 C-0.13285156 21.4075 -0.12898437 22.315 -0.125 23.25 C-0.12886719 24.17296875 -0.13273438 25.0959375 -0.13671875 26.046875 C-0.13542969 26.9234375 -0.13414062 27.8 -0.1328125 28.703125 C-0.13168457 29.50395508 -0.13055664 30.30478516 -0.12939453 31.12988281 C-0.20465286 33.01421774 -0.20465286 33.01421774 1 34 C1.07258946 36.18639453 1.08373783 38.37500389 1.0625 40.5625 C1.05347656 41.76003906 1.04445312 42.95757812 1.03515625 44.19140625 C1.02355469 45.11824219 1.01195312 46.04507813 1 47 C1.66 47 2.32 47 3 47 C3 50.3 3 53.6 3 57 C3.99 57.33 4.98 57.66 6 58 C6 59.98 6 61.96 6 64 C6.66 64 7.32 64 8 64 C8 65.65 8 67.3 8 69 C8.66 69 9.32 69 10 69 C10 70.32 10 71.64 10 73 C10.99 73 11.98 73 13 73 C15.14285714 80.42857143 15.14285714 80.42857143 16 84 C15.34 84 14.68 84 14 84 C13.4225 82.96875 12.845 81.9375 12.25 80.875 C10.84876898 78.39782373 9.39961013 76.14944769 7.75 73.8125 C6 71 6 71 6 67 C5.34 67 4.68 67 4 67 C3.896875 65.989375 3.79375 64.97875 3.6875 63.9375 C3.09399768 60.53835035 2.1589621 58.07323604 0.7590332 54.9675293 C-2.53319764 46.43356714 -2.31522453 37.05500467 -2.26074219 28.04760742 C-2.24999769 25.93704633 -2.26071016 23.8273327 -2.2734375 21.71679688 C-2.27998981 14.27041984 -1.90385082 7.22617636 0 0 Z " fill="#616161" transform="translate(146,287)"/>
<path d="M0 0 C1.2485686 0.00138269 1.2485686 0.00138269 2.5223608 0.00279331 C3.47453487 0.00141865 4.42670895 0.00004398 5.40773678 -0.00137234 C6.46077496 0.00222294 7.51381313 0.00581821 8.59876156 0.00952244 C10.25221081 0.0093034 10.25221081 0.0093034 11.93906307 0.00907993 C15.60226021 0.00977961 19.26540723 0.01757459 22.92859554 0.02539158 C25.46065398 0.02725556 27.99271277 0.02867956 30.52477169 0.0296793 C36.52067179 0.03311437 42.51655019 0.04100514 48.51244158 0.05102879 C55.33699987 0.06219105 62.16155901 0.06770066 68.98612416 0.07272422 C83.02815593 0.08318779 97.07017162 0.10078653 111.11218929 0.12304783 C111.11218929 0.78304783 111.11218929 1.44304783 111.11218929 2.12304783 C113.09218929 2.61804783 113.09218929 2.61804783 115.11218929 3.12304783 C113.13218929 3.12304783 111.15218929 3.12304783 109.11218929 3.12304783 C109.11218929 2.46304783 109.11218929 1.80304783 109.11218929 1.12304783 C95.04795706 1.23015775 80.98378049 1.34296139 66.91964722 1.46238708 C60.38985136 1.51766707 53.86005108 1.57109504 47.33020687 1.62036228 C41.03433785 1.66793115 34.73852527 1.72027096 28.44272327 1.77598858 C26.03485606 1.79644613 23.62697335 1.81515344 21.21907902 1.83212185 C17.85925444 1.85609084 14.49953768 1.8861553 11.13977718 1.91772556 C10.1334927 1.92348103 9.12720821 1.92923649 8.09043026 1.93516636 C7.18032696 1.94495518 6.27022366 1.954744 5.33254147 1.96482944 C4.13928045 1.97450827 4.13928045 1.97450827 2.92191315 1.98438263 C1.09107906 1.92715193 1.09107906 1.92715193 0.11218929 3.12304783 C-2.22078504 3.1639772 -4.55486295 3.16546506 -6.88781071 3.12304783 C-6.88781071 3.78304783 -6.88781071 4.44304783 -6.88781071 5.12304783 C-8.53781071 5.45304783 -10.18781071 5.78304783 -11.88781071 6.12304783 C-11.88781071 6.78304783 -11.88781071 7.44304783 -11.88781071 8.12304783 C-13.53781071 8.45304783 -15.18781071 8.78304783 -16.88781071 9.12304783 C-16.88781071 8.46304783 -16.88781071 7.80304783 -16.88781071 7.12304783 C-15.91843571 6.66929783 -14.94906071 6.21554783 -13.95031071 5.74804783 C-10.81701489 4.46518562 -10.81701489 4.46518562 -9.88781071 2.12304783 C-7.5606507 1.74903997 -5.22663209 1.4154005 -2.88781071 1.12304783 C-1.88781071 0.12304783 -1.88781071 0.12304783 0 0 Z " fill="#646464" transform="translate(193.88781070709229,122.87695217132568)"/>
<path d="M0 0 C15.20308917 -0.02334822 30.40617752 -0.04098865 45.60928059 -0.05181217 C52.66815604 -0.05697103 59.72702036 -0.06400595 66.78588867 -0.07543945 C73.59395135 -0.08646147 80.40200244 -0.09227914 87.21007347 -0.09487724 C89.81167979 -0.09672954 92.41328545 -0.10034642 95.01488686 -0.10573006 C98.64966849 -0.11295475 102.28440183 -0.11399033 105.91918945 -0.11352539 C107.00244003 -0.11712067 108.08569061 -0.12071594 109.20176697 -0.12442017 C110.19034698 -0.1230455 111.178927 -0.12167084 112.19746399 -0.12025452 C113.05749684 -0.12117631 113.9175297 -0.1220981 114.80362415 -0.12304783 C117 0 117 0 120 1 C120 1.66 120 2.32 120 3 C118.68 3 117.36 3 116 3 C116 2.34 116 1.68 116 1 C101.31839324 1.10719632 86.63683799 1.21995002 71.95532513 1.33933926 C65.13860983 1.39464249 58.3218893 1.44811973 51.50512695 1.49731445 C44.93044524 1.54476725 38.35581676 1.59728725 31.7811985 1.65294075 C29.26892221 1.67337031 26.75663135 1.69208238 24.24432945 1.70907402 C20.73404029 1.73310461 17.22385184 1.76316121 13.71362305 1.79467773 C12.66777542 1.8004332 11.6219278 1.80618866 10.54438782 1.81211853 C9.11200272 1.82680176 9.11200272 1.82680176 7.65068054 1.84178162 C6.40487732 1.85146044 6.40487732 1.85146044 5.13390636 1.8613348 C2.81217481 1.92147242 2.81217481 1.92147242 0 3 C0 2.01 0 1.02 0 0 Z " fill="#C8C8C8" transform="translate(189,122)"/>
<path d="M0 0 C0.66 0 1.32 0 2 0 C1.99476318 0.59538574 1.98952637 1.19077148 1.98413086 1.80419922 C1.96338001 4.49445547 1.95034593 7.18469489 1.9375 9.875 C1.92912109 10.81214844 1.92074219 11.74929687 1.91210938 12.71484375 C1.90888672 13.61074219 1.90566406 14.50664062 1.90234375 15.4296875 C1.89448853 16.67081299 1.89448853 16.67081299 1.88647461 17.93701172 C1.86647862 20.06411757 1.86647862 20.06411757 3 22 C3.26440811 25.44097783 3.44459913 28.87548501 3.60546875 32.32226562 C3.46639287 35.96489454 3.46639287 35.96489454 5 39 C5.07319621 41.69654854 5.09242537 44.36691458 5.0625 47.0625 C5.05798828 47.82111328 5.05347656 48.57972656 5.04882812 49.36132812 C5.0370068 51.24091871 5.01907078 53.12046899 5 55 C4.67 55 4.34 55 4 55 C2.38716926 49.97941397 1.709914 45.56082409 1.5 40.25 C1.28466482 35.62267453 0.94093626 31.15800574 -0.0625 26.625 C-1.09845286 21.56893156 -1.18699186 16.64131496 -1.1875 11.5 C-1.1882251 10.70932129 -1.1889502 9.91864258 -1.18969727 9.10400391 C-1.1581673 5.82417857 -1.04366515 3.13099546 0 0 Z " fill="#3B3B3B" transform="translate(161,154)"/>
<path d="M0 0 C0.33 1.32 0.66 2.64 1 4 C0.34 4 -0.32 4 -1 4 C-0.938125 4.969375 -0.87625 5.93875 -0.8125 6.9375 C-0.79649271 10.88329627 -1.87493397 14.11938849 -3.24609375 17.7890625 C-5.54241975 24.52336569 -5.18609389 31.42093468 -5.18530273 38.44482422 C-5.18747232 40.59753707 -5.2056055 42.74972252 -5.22460938 44.90234375 C-5.27130789 56.19824083 -3.93730809 66.36926816 0 77 C-3.43978118 74.70681254 -3.80478215 73.84177166 -5 70 C-5.3496418 67.66905466 -5.68554487 65.33595238 -6 63 C-6.33 62.67 -6.66 62.34 -7 62 C-7.09795311 60.62390118 -7.12798088 59.24286118 -7.12939453 57.86328125 C-7.13254669 56.98567139 -7.13569885 56.10806152 -7.13894653 55.20385742 C-7.1369223 54.24970947 -7.13489807 53.29556152 -7.1328125 52.3125 C-7.13376923 51.33966064 -7.13472595 50.36682129 -7.13571167 49.36450195 C-7.13639358 47.303222 -7.13453853 45.24193992 -7.13037109 43.18066406 C-7.125023 40.01362312 -7.13031572 36.846724 -7.13671875 33.6796875 C-7.13605797 31.68229135 -7.13477681 29.68489529 -7.1328125 27.6875 C-7.13483673 26.73335205 -7.13686096 25.7792041 -7.13894653 24.79614258 C-7.13579437 23.91853271 -7.13264221 23.04092285 -7.12939453 22.13671875 C-7.12859894 21.36030029 -7.12780334 20.58388184 -7.12698364 19.78393555 C-7 18 -7 18 -6 17 C-5.63239269 14.67182036 -5.29758419 12.3381615 -5 10 C-4.01 9.67 -3.02 9.34 -2 9 C-2.04125 8.071875 -2.0825 7.14375 -2.125 6.1875 C-2 3 -2 3 0 0 Z " fill="#8A8A8A" transform="translate(150,272)"/>
<path d="M0 0 C2.53595869 2.53595869 2.24710183 4.15169139 2.27789307 7.61132812 C2.2738446 8.37896484 2.26979614 9.14660156 2.265625 9.9375 C2.26753845 10.73220703 2.2694519 11.52691406 2.27142334 12.34570312 C2.27278649 14.03369461 2.26908102 15.72169653 2.26074219 17.40966797 C2.25015691 19.96216266 2.26057372 22.5139352 2.2734375 25.06640625 C2.28353745 36.49471251 1.33919844 46.33280384 -3 57 C-3.391875 57.99 -3.78375 58.98 -4.1875 60 C-4.455625 60.66 -4.72375 61.32 -5 62 C-5.66 61.67 -6.32 61.34 -7 61 C-6.25 54.375 -6.25 54.375 -4 51 C-2.40446058 46.30723701 -1.66005858 41.82640888 -1.24609375 36.91796875 C-1 35 -1 35 0 33 C0.08649451 30.51900266 0.11565054 28.06655072 0.09765625 25.5859375 C0.09553383 24.49147812 0.09553383 24.49147812 0.09336853 23.37490845 C0.08776531 21.04156415 0.07521235 18.70831536 0.0625 16.375 C0.05748541 14.79427222 0.05292243 13.21354293 0.04882812 11.6328125 C0.03779484 7.75517146 0.02052811 3.87760193 0 0 Z " fill="#909090" transform="translate(353,292)"/>
<path d="M0 0 C3.875 1.875 3.875 1.875 5 3 C5.07244053 5.01964199 5.08377188 7.04167124 5.0625 9.0625 C5.05347656 10.16722656 5.04445313 11.27195313 5.03515625 12.41015625 C5.02355469 13.26480469 5.01195312 14.11945313 5 15 C4.34 15 3.68 15 3 15 C3.01160156 15.95261719 3.02320313 16.90523437 3.03515625 17.88671875 C3.04417969 19.14097656 3.05320312 20.39523438 3.0625 21.6875 C3.07410156 22.92886719 3.08570313 24.17023438 3.09765625 25.44921875 C3 29 3 29 2.5 31.46875 C1.81895829 34.91652366 1.89399229 38.31514931 1.9375 41.8125 C1.94201172 42.50537109 1.94652344 43.19824219 1.95117188 43.91210938 C1.96286844 45.60811068 1.98080076 47.30406703 2 49 C1.01 48.67 0.02 48.34 -1 48 C-0.86105852 44.89548451 -0.712657 41.79149165 -0.5625 38.6875 C-0.52318359 37.80642578 -0.48386719 36.92535156 -0.44335938 36.01757812 C-0.40146484 35.17001953 -0.35957031 34.32246094 -0.31640625 33.44921875 C-0.26141968 32.27879028 -0.26141968 32.27879028 -0.20532227 31.0847168 C0 29 0 29 1 26 C1.09351594 24.26236803 1.13069921 22.52139529 1.1328125 20.78125 C1.13410156 19.76675781 1.13539063 18.75226563 1.13671875 17.70703125 C1.13285156 16.64871094 1.12898438 15.59039062 1.125 14.5 C1.12886719 13.44167969 1.13273437 12.38335937 1.13671875 11.29296875 C1.13542969 10.27847656 1.13414062 9.26398438 1.1328125 8.21875 C1.13168457 7.28998047 1.13055664 6.36121094 1.12939453 5.40429688 C1.09857734 2.85441818 1.09857734 2.85441818 0 0 Z " fill="#8E8E8E" transform="translate(299,159)"/>
<path d="M0 0 C0.33 0 0.66 0 1 0 C2.37664 6.30848621 3.14955138 12.48975442 3.4375 18.9375 C3.71656065 24.89429076 4.68340966 30.29159183 6.30078125 36.02734375 C7.53590102 41.2783278 7.74858817 46.62498837 8 52 C9.65 51.34 11.3 50.68 13 50 C13 50.66 13 51.32 13 52 C12.34 52 11.68 52 11 52 C11 52.66 11 53.32 11 54 C9.68 53.67 8.36 53.34 7 53 C5.256242 47.3820349 4.37711972 41.93261541 3.70117188 36.078125 C3.54957713 32.75109876 3.54957713 32.75109876 2 30 C1.92680379 27.30345146 1.90757463 24.63308542 1.9375 21.9375 C1.94201172 21.17888672 1.94652344 20.42027344 1.95117188 19.63867188 C1.9629932 17.75908129 1.98092922 15.87953101 2 14 C1.34 14 0.68 14 0 14 C0 9.38 0 4.76 0 0 Z " fill="#A8A8A8" transform="translate(160,175)"/>
<path d="M0 0 C0.33 0 0.66 0 1 0 C1.12559479 7.41009255 1.12559479 7.41009255 0.50219727 10.33813477 C0.01781302 12.9055832 -0.12915998 15.22022624 -0.1328125 17.828125 C-0.13410156 18.70984375 -0.13539063 19.5915625 -0.13671875 20.5 C-0.13285156 21.4075 -0.12898437 22.315 -0.125 23.25 C-0.12886719 24.17296875 -0.13273438 25.0959375 -0.13671875 26.046875 C-0.13542969 26.9234375 -0.13414062 27.8 -0.1328125 28.703125 C-0.13168457 29.50395508 -0.13055664 30.30478516 -0.12939453 31.12988281 C-0.20465286 33.01421774 -0.20465286 33.01421774 1 34 C1.07258946 36.18639453 1.08373783 38.37500389 1.0625 40.5625 C1.05347656 41.76003906 1.04445312 42.95757812 1.03515625 44.19140625 C1.02355469 45.11824219 1.01195312 46.04507813 1 47 C1.66 47 2.32 47 3 47 C2.67 48.32 2.34 49.64 2 51 C-3.43872023 44.61541538 -2.1861945 36.43963631 -2.18530273 28.50024414 C-2.18747585 26.3365471 -2.20561956 24.17337175 -2.22460938 22.00976562 C-2.25419124 14.48264292 -1.95477026 7.3218052 0 0 Z " fill="#3D3D3D" transform="translate(146,287)"/>
<path d="M0 0 C3.34373475 0.55728913 6.03312999 1.35173889 9 3 C9 3.66 9 4.32 9 5 C10.175625 5.4640625 10.175625 5.4640625 11.375 5.9375 C14 7 14 7 16 8 C16 8.66 16 9.32 16 10 C16.721875 10.226875 17.44375 10.45375 18.1875 10.6875 C21.61238411 12.28577925 23.42016159 14.23588741 26 17 C27.26685994 18.27479434 28.53782538 19.5455196 29.8125 20.8125 C30.875 21.875 31.9375 22.9375 33 24 C32.67 24.66 32.34 25.32 32 26 C31.16855469 25.14535156 30.33710938 24.29070312 29.48046875 23.41015625 C28.38307952 22.29400823 27.28540855 21.17813718 26.1875 20.0625 C25.64029297 19.49853516 25.09308594 18.93457031 24.52929688 18.35351562 C21.22039606 14.98970438 21.22039606 14.98970438 17 13 C17 12.34 17 11.68 17 11 C15.68 11 14.36 11 13 11 C11.25 9.625 11.25 9.625 10 8 C10 7.34 10 6.68 10 6 C8.68 6 7.36 6 6 6 C6 5.34 6 4.68 6 4 C5.071875 3.7834375 5.071875 3.7834375 4.125 3.5625 C2 3 2 3 0 2 C0 1.34 0 0.68 0 0 Z " fill="#797979" transform="translate(296,216)"/>
<path d="M0 0 C0.93423645 3.01031744 1.04449911 3.86650268 0 7 C-0.13490682 8.47076252 -0.22375856 9.94605761 -0.28125 11.421875 C-0.31863281 12.28296875 -0.35601562 13.1440625 -0.39453125 14.03125 C-0.42933594 14.9284375 -0.46414063 15.825625 -0.5 16.75 C-0.72966809 22.56825817 -1.05737349 28.24997831 -2 34 C-3.98 34.495 -3.98 34.495 -6 35 C-6 34.34 -6 33.68 -6 33 C-6.99 33 -7.98 33 -9 33 C-9 32.34 -9 31.68 -9 31 C-9.66 31 -10.32 31 -11 31 C-10.505 29.515 -10.505 29.515 -10 28 C-9.566875 28.474375 -9.13375 28.94875 -8.6875 29.4375 C-6.97690387 31.23686957 -6.97690387 31.23686957 -4 32 C-4.01160156 31.31292969 -4.02320313 30.62585938 -4.03515625 29.91796875 C-4.04417969 29.01691406 -4.05320312 28.11585938 -4.0625 27.1875 C-4.07410156 26.29417969 -4.08570313 25.40085938 -4.09765625 24.48046875 C-4 22 -4 22 -3 19 C-2.72889239 15.77683176 -2.55520499 12.5538617 -2.37890625 9.32421875 C-1.99697674 5.97347639 -1.17734333 3.15070421 0 0 Z " fill="#5C5C5C" transform="translate(334,194)"/>
<path d="M0 0 C6.15234375 -0.09765625 6.15234375 -0.09765625 8 0 C8.33 0.33 8.66 0.66 9 1 C8.98826472 2.93925578 8.89032944 4.87829258 8.75 6.8125 C8.68296875 7.87082031 8.6159375 8.92914063 8.546875 10.01953125 C7.95865185 13.22534743 7.32719113 14.73775374 5 17 C1.375 17.3125 1.375 17.3125 -2 17 C-3 16 -3 16 -3.09765625 13.05859375 C-3.08605469 11.86363281 -3.07445312 10.66867187 -3.0625 9.4375 C-3.05347656 8.23996094 -3.04445312 7.04242188 -3.03515625 5.80859375 C-3.02355469 4.88175781 -3.01195312 3.95492188 -3 3 C-2.01 2.67 -1.02 2.34 0 2 C0 1.34 0 0.68 0 0 Z M2 1 C-0.96909598 4.27301919 -1.34354794 6.38065762 -1.1875 10.75 C-1.16042969 11.73484375 -1.13335937 12.7196875 -1.10546875 13.734375 C-1.07066406 14.48203125 -1.03585938 15.2296875 -1 16 C0.98 16 2.96 16 5 16 C7.3992233 11.35150485 7.19957409 7.08913926 7 2 C5.35 1.67 3.7 1.34 2 1 Z " fill="#878787" transform="translate(167,282)"/>
<path d="M0 0 C0.66 0 1.32 0 2 0 C3.38226016 2.76452033 3.09525387 5.0461363 3.0625 8.125 C3.05347656 9.22070312 3.04445312 10.31640625 3.03515625 11.4453125 C3.02355469 12.28835937 3.01195312 13.13140625 3 14 C6.40312738 12.94124926 9.01353231 11.99097846 12 10 C12.33 9.01 12.66 8.02 13 7 C13.99 7 14.98 7 16 7 C16 6.34 16 5.68 16 5 C17.32 5.33 18.64 5.66 20 6 C18.71372289 7.17260611 17.42080217 8.3379283 16.125 9.5 C15.40570313 10.1496875 14.68640625 10.799375 13.9453125 11.46875 C12 13 12 13 10 13 C10 13.66 10 14.32 10 15 C4.25 18 4.25 18 2 18 C1.66191314 15.93827387 1.32972639 13.8755797 1 11.8125 C0.814375 10.66394531 0.62875 9.51539063 0.4375 8.33203125 C0.06510523 5.49584607 -0.08596021 2.85280436 0 0 Z " fill="#2C2C2C" transform="translate(166,209)"/>
<path d="M0 0 C0.66 0 1.32 0 2 0 C2 0.99 2 1.98 2 3 C2.66 3 3.32 3 4 3 C4.33 4.65 4.66 6.3 5 8 C5.66 8 6.32 8 7 8 C7.0825 9.051875 7.165 10.10375 7.25 11.1875 C8.07394057 15.37586455 9.30019248 16.80931839 12 20 C14.13815565 24.81085022 14.17818302 28.83269246 14 34 C13.67 34 13.34 34 13 34 C12.80664062 33.36191406 12.61328125 32.72382813 12.4140625 32.06640625 C12.15367187 31.24011719 11.89328125 30.41382813 11.625 29.5625 C11.36976563 28.73878906 11.11453125 27.91507812 10.8515625 27.06640625 C10.19117773 24.82201984 10.19117773 24.82201984 8 24 C8 21.69 8 19.38 8 17 C7.34 17 6.68 17 6 17 C5.7525 16.05125 5.505 15.1025 5.25 14.125 C3.87513627 9.27312581 1.92865028 4.65310286 0 0 Z " fill="#9F9F9F" transform="translate(339,254)"/>
<path d="M0 0 C1.32 0 2.64 0 4 0 C3.67 0.99 3.34 1.98 3 3 C0.96875 3.87890625 0.96875 3.87890625 -1.5 4.5625 C-3.91495405 5.20384717 -3.91495405 5.20384717 -6 6 C-6.33 6.66 -6.66 7.32 -7 8 C-9.30710878 8.59896093 -11.61688718 8.95654965 -13.96875 9.33984375 C-14.97421875 9.66662109 -14.97421875 9.66662109 -16 10 C-16.33 10.99 -16.66 11.98 -17 13 C-20.0625 14.1875 -20.0625 14.1875 -23 15 C-23 15.66 -23 16.32 -23 17 C-24.65 17.66 -26.3 18.32 -28 19 C-27.9375 16.6875 -27.9375 16.6875 -27 14 C-23.49851158 12.11957103 -20.9919694 11 -17 11 C-17 10.34 -17 9.68 -17 9 C-13.66666667 7.33333333 -10.33333333 5.66666667 -7 4 C-6.29359375 3.61585938 -5.5871875 3.23171875 -4.859375 2.8359375 C-3 2 -3 2 0 2 C0 1.34 0 0.68 0 0 Z " fill="#757575" transform="translate(208,212)"/>
<path d="M0 0 C2 1.375 2 1.375 4 3 C4 3.66 4 4.32 4 5 C4.99 5.33 5.98 5.66 7 6 C7 6.66 7 7.32 7 8 C7.66 8 8.32 8 9 8 C9 8.66 9 9.32 9 10 C11.33214148 11.20628008 13.49642139 12.1654738 16 13 C16 13.99 16 14.98 16 16 C16.763125 16.12375 17.52625 16.2475 18.3125 16.375 C21 17 21 17 24 19 C22.02 19 20.04 19 18 19 C18 18.34 18 17.68 18 17 C16.02 16.67 14.04 16.34 12 16 C11.67 15.01 11.34 14.02 11 13 C8.99983534 11.79117904 8.99983534 11.79117904 7 11 C7 10.34 7 9.68 7 9 C6.34 9 5.68 9 5 9 C5 8.34 5 7.68 5 7 C4.34 7 3.68 7 3 7 C0 2.61538462 0 2.61538462 0 0 Z " fill="#6F6F6F" transform="translate(162,371)"/>
<path d="M0 0 C0.66 0.33 1.32 0.66 2 1 C1.3503125 1.76183594 1.3503125 1.76183594 0.6875 2.5390625 C-2.98937293 6.99743142 -2.98937293 6.99743142 -4.375 12.5 C-4.25125 13.325 -4.1275 14.15 -4 15 C-1.69 15.33 0.62 15.66 3 16 C2.67 16.99 2.34 17.98 2 19 C-4.43222143 18.51454933 -4.43222143 18.51454933 -7 16.1875 C-8 14 -8 14 -7.8125 12.0625 C-7.544375 11.381875 -7.27625 10.70125 -7 10 C-6.7525 9.195625 -6.505 8.39125 -6.25 7.5625 C-4.69596444 4.3767271 -2.5907747 2.38623986 0 0 Z " fill="#4F4F4F" transform="translate(182,254)"/>
<path d="M0 0 C0 2.31 0 4.62 0 7 C-0.66 7 -1.32 7 -2 7 C-2 7.66 -2 8.32 -2 9 C-3.96466413 10.06775224 -5.96855359 11.06553465 -8 12 C-8.66 11.67 -9.32 11.34 -10 11 C-6.375 8 -6.375 8 -3 8 C-2.95745644 6.00045254 -2.95919217 3.99958364 -3 2 C-3.33 1.67 -3.66 1.34 -4 1 C-9.59613999 1.15101369 -9.59613999 1.15101369 -14 4 C-14.99 3.67 -15.98 3.34 -17 3 C-16 1 -16 1 -13.375 -0.125 C-8.65023826 -1.34993823 -4.64905547 -1.54968516 0 0 Z " fill="#5F5F5F" transform="translate(214,237)"/>
<path d="M0 0 C1.64846769 0.44876616 3.29373455 0.90930488 4.9375 1.375 C5.85402344 1.63023437 6.77054687 1.88546875 7.71484375 2.1484375 C10 3 10 3 11 5 C11.99 5.33 12.98 5.66 14 6 C14 6.66 14 7.32 14 8 C14.61875 8.309375 15.2375 8.61875 15.875 8.9375 C17.25 9.625 18.625 10.3125 20 11 C20 11.66 20 12.32 20 13 C20.66 13.33 21.32 13.66 22 14 C20.68 14 19.36 14 18 14 C18 13.34 18 12.68 18 12 C17.01 12 16.02 12 15 12 C15 11.01 15 10.02 15 9 C14.01 9 13.02 9 12 9 C12 8.34 12 7.68 12 7 C10.4221875 6.6596875 10.4221875 6.6596875 8.8125 6.3125 C4.8402094 5.20639469 2.70400363 3.11370115 0 0 Z " fill="#727272" transform="translate(301,208)"/>
<path d="M0 0 C5.67702806 6.40804263 5.32125639 16.80796211 5 25 C4.34 24.67 3.68 24.34 3 24 C2.68758545 21.28553021 2.48663408 18.66090639 2.375 15.9375 C2.33632813 15.17888672 2.29765625 14.42027344 2.2578125 13.63867188 C2.16326438 11.75952805 2.08053244 9.87979664 2 8 C1.34 8 0.68 8 0 8 C0 5.36 0 2.72 0 0 Z " fill="#3F3F3F" transform="translate(349,279)"/>
<path d="M0 0 C0.99 0.33 1.98 0.66 3 1 C2.43410156 1.62648437 1.86820313 2.25296875 1.28515625 2.8984375 C0.55167969 3.71570313 -0.18179688 4.53296875 -0.9375 5.375 C-1.66839844 6.18710937 -2.39929688 6.99921875 -3.15234375 7.8359375 C-5.02989471 9.85924167 -5.02989471 9.85924167 -6 12 C-6.99 12 -7.98 12 -9 12 C-9.2165625 12.928125 -9.2165625 12.928125 -9.4375 13.875 C-10 16 -10 16 -11 18 C-11.66 17.67 -12.32 17.34 -13 17 C-11.87548273 14.0280615 -10.77706209 11.66559313 -9 9 C-8.01 8.67 -7.02 8.34 -6 8 C-5.67 7.01 -5.34 6.02 -5 5 C-3.5625 3.3125 -3.5625 3.3125 -2 2 C-1.34 2 -0.68 2 0 2 C0 1.34 0 0.68 0 0 Z " fill="#A8A8A8" transform="translate(198,250)"/>
<path d="M0 0 C0.33 0 0.66 0 1 0 C1.18175781 1.26714844 1.36351562 2.53429687 1.55078125 3.83984375 C1.80426527 5.53912554 2.05819546 7.23834081 2.3125 8.9375 C2.43044922 9.76830078 2.54839844 10.59910156 2.66992188 11.45507812 C3.54435634 17.21737704 4.9797911 22.53428144 7 28 C3.56021882 25.70681254 3.19521785 24.84177166 2 21 C1.6503582 18.66905466 1.31445513 16.33595238 1 14 C0.67 13.67 0.34 13.34 0 13 C-0.07258946 10.81360547 -0.08373783 8.62499611 -0.0625 6.4375 C-0.05347656 5.23996094 -0.04445312 4.04242188 -0.03515625 2.80859375 C-0.02355469 1.88175781 -0.01195312 0.95492188 0 0 Z " fill="#CBCBCB" transform="translate(143,321)"/>
<path d="M0 0 C2.67733998 2.67031284 3.00280229 4.03721441 3.29296875 7.890625 C3.27314945 9.34404009 3.23754845 10.79731167 3.1875 12.25 C3.16719727 13.36761719 3.16719727 13.36761719 3.14648438 14.5078125 C3.11127204 16.33885416 3.05746851 18.16952169 3 20 C2.67 20 2.34 20 2 20 C-0.46254726 13.38190423 -0.18935472 6.99560484 0 0 Z " fill="#565656" transform="translate(163,189)"/>
<path d="M0 0 C0.33 0 0.66 0 1 0 C1.06058594 1.13179687 1.12117187 2.26359375 1.18359375 3.4296875 C1.26799917 4.91147145 1.35264717 6.3932416 1.4375 7.875 C1.47681641 8.62136719 1.51613281 9.36773437 1.55664062 10.13671875 C1.71573624 14.19986864 1.71573624 14.19986864 3 18 C3.13415472 20.6723621 3.04318541 23.32250488 3 26 C0.62160624 22.43240937 0.40672049 19.98688387 -0.125 15.75 C-0.29257813 14.46609375 -0.46015625 13.1821875 -0.6328125 11.859375 C-0.98082228 8.20157003 -1.13976321 4.67111371 -1 1 C-0.67 0.67 -0.34 0.34 0 0 Z " fill="#BABABA" transform="translate(196,162)"/>
<path d="M0 0 C0.99 0 1.98 0 3 0 C2.34 2.64 1.68 5.28 1 8 C0.34 8 -0.32 8 -1 8 C-1.33 13.61 -1.66 19.22 -2 25 C-2.33 25 -2.66 25 -3 25 C-3 18.73 -3 12.46 -3 6 C-2.01 5.67 -1.02 5.34 0 5 C0 3.35 0 1.7 0 0 Z " fill="#CDCDCD" transform="translate(162,146)"/>
<path d="M0 0 C2.29141286 -0.05384521 4.58318188 -0.09272087 6.875 -0.125 C8.78925781 -0.15980469 8.78925781 -0.15980469 10.7421875 -0.1953125 C14 0 14 0 16 2 C17.31747324 2.69748583 18.64914193 3.36959957 20 4 C12.91923749 4.40850553 6.80074041 2.90420731 0 1 C0 0.67 0 0.34 0 0 Z " fill="#A1A1A1" transform="translate(262,206)"/>
<path d="M0 0 C0.33 0 0.66 0 1 0 C1.144375 1.134375 1.28875 2.26875 1.4375 3.4375 C1.61171478 6.80777201 1.61171478 6.80777201 3 8 C3.07205511 9.68608966 3.08386068 11.37500659 3.0625 13.0625 C3.05347656 13.98160156 3.04445312 14.90070313 3.03515625 15.84765625 C3.02355469 16.55792969 3.01195312 17.26820313 3 18 C2.34 18 1.68 18 1 18 C1 18.66 1 19.32 1 20 C0.01 20 -0.98 20 -2 20 C-1.505 18.515 -1.505 18.515 -1 17 C-0.34 17 0.32 17 1 17 C0.835 16.236875 0.67 15.47375 0.5 14.6875 C-0.16562149 9.77854151 -0.07920078 4.94564886 0 0 Z " fill="#CDCDCD" transform="translate(199,190)"/>
<path d="M0 0 C0.33 0 0.66 0 1 0 C1.02692484 2.29160319 1.04636124 4.58329546 1.0625 6.875 C1.07410156 8.15117187 1.08570313 9.42734375 1.09765625 10.7421875 C1 14 1 14 0 16 C-0.2275015 17.87056791 -0.40962811 19.74685958 -0.5625 21.625 C-0.64628906 22.62789062 -0.73007812 23.63078125 -0.81640625 24.6640625 C-0.87699219 25.43492187 -0.93757813 26.20578125 -1 27 C-1.33 27 -1.66 27 -2 27 C-2.20871753 17.75845174 -2.14982548 9.0599788 0 0 Z " fill="#B1B1B1" transform="translate(335,190)"/>
<path d="M0 0 C0 2.9355647 -0.15755581 5.19185271 -1 8 C-1.61875 8.433125 -2.2375 8.86625 -2.875 9.3125 C-5.68392982 11.54312074 -6.18153624 13.79183204 -7.19140625 17.16015625 C-8 19 -8 19 -11 21 C-9.35433477 15.31497465 -6.70967216 10.23318364 -4 5 C-3.34 5 -2.68 5 -2 5 C-1.855625 4.360625 -1.71125 3.72125 -1.5625 3.0625 C-1 1 -1 1 0 0 Z " fill="#767676" transform="translate(162,250)"/>
<path d="M0 0 C0.33 0.66 0.66 1.32 1 2 C1.66 2 2.32 2 3 2 C3 5.63 3 9.26 3 13 C2.34 13 1.68 13 1 13 C0.67 13.66 0.34 14.32 0 15 C0 10.05 0 5.1 0 0 Z " fill="#C6C6C6" transform="translate(338,159)"/>
<path d="M0 0 C0.66 0 1.32 0 2 0 C1.67 3.63 1.34 7.26 1 11 C-0.32 11.33 -1.64 11.66 -3 12 C-3 11.34 -3 10.68 -3 10 C-3.99 10 -4.98 10 -6 10 C-6 9.34 -6 8.68 -6 8 C-6.66 8 -7.32 8 -8 8 C-7.67 7.01 -7.34 6.02 -7 5 C-6.5875 5.474375 -6.175 5.94875 -5.75 6.4375 C-3.86673565 8.36284249 -3.86673565 8.36284249 0 9 C0 6.03 0 3.06 0 0 Z " fill="#A9A9A9" transform="translate(331,217)"/>
<path d="M0 0 C0.8125 1.6875 0.8125 1.6875 1 4 C-1.3125 6.75 -1.3125 6.75 -4 9 C-4.66 9 -5.32 9 -6 9 C-6 9.66 -6 10.32 -6 11 C-8.31 12.32 -10.62 13.64 -13 15 C-13.33 14.34 -13.66 13.68 -14 13 C-13.38125 12.731875 -12.7625 12.46375 -12.125 12.1875 C-9.7004767 11.04443152 -9.7004767 11.04443152 -8 8 C-7.01 8 -6.02 8 -5 8 C-4.731875 7.4225 -4.46375 6.845 -4.1875 6.25 C-2.98280141 3.9674132 -1.59201885 2.0262058 0 0 Z " fill="#737373" transform="translate(335,371)"/>
<path d="M0 0 C0.66 0.33 1.32 0.66 2 1 C1.67 1.99 1.34 2.98 1 4 C0.01 4 -0.98 4 -2 4 C-2 4.66 -2 5.32 -2 6 C-2.99 6 -3.98 6 -5 6 C-5 6.66 -5 7.32 -5 8 C-5.66 8 -6.32 8 -7 8 C-7.12375 8.639375 -7.2475 9.27875 -7.375 9.9375 C-7.58125 10.618125 -7.7875 11.29875 -8 12 C-8.99 12.495 -8.99 12.495 -10 13 C-8.125 7.25 -8.125 7.25 -7 5 C-6.34 5 -5.68 5 -5 5 C-5 4.34 -5 3.68 -5 3 C-2.625 1.3125 -2.625 1.3125 0 0 Z " fill="#8A8A8A" transform="translate(175,132)"/>
<path d="M0 0 C0.33 0 0.66 0 1 0 C1 2.31 1 4.62 1 7 C0.01 7 -0.98 7 -2 7 C-2.66 9.31 -3.32 11.62 -4 14 C-4.99 14 -5.98 14 -7 14 C-7 14.99 -7 15.98 -7 17 C-7.66 16.67 -8.32 16.34 -9 16 C-7.09069621 12.52233953 -5.31979871 9.39289555 -2.8125 6.3125 C-1.07143605 4.09114254 -0.40750887 2.75068487 0 0 Z " fill="#9B9B9B" transform="translate(345,354)"/>
<path d="M0 0 C0.33 0 0.66 0 1 0 C1.125 7.75 1.125 7.75 0 10 C-0.22467831 11.53668865 -0.40796805 13.07968054 -0.5625 14.625 C-0.64628906 15.44226563 -0.73007812 16.25953125 -0.81640625 17.1015625 C-0.87699219 17.72804688 -0.93757813 18.35453125 -1 19 C-1.33 19 -1.66 19 -2 19 C-2.05428973 16.77110504 -2.09292338 14.54182529 -2.125 12.3125 C-2.15980469 10.45044922 -2.15980469 10.45044922 -2.1953125 8.55078125 C-2.01032021 5.18762143 -1.45767895 3.0014413 0 0 Z " fill="#202020" transform="translate(353,317)"/>
<path d="M0 0 C1.32 0.33 2.64 0.66 4 1 C2.71372289 2.17260611 1.42080217 3.3379283 0.125 4.5 C-0.59429687 5.1496875 -1.31359375 5.799375 -2.0546875 6.46875 C-4 8 -4 8 -6 8 C-6 8.66 -6 9.32 -6 10 C-7.32 10.33 -8.64 10.66 -10 11 C-10 10.34 -10 9.68 -10 9 C-9.030625 8.360625 -8.06125 7.72125 -7.0625 7.0625 C-3.75744775 5.28938993 -3.75744775 5.28938993 -3 2 C-2.01 2 -1.02 2 0 2 C0 1.34 0 0.68 0 0 Z " fill="#5D5D5D" transform="translate(182,214)"/>
<path d="M0 0 C0 3 0 3 -1 5 C-1.66 5 -2.32 5 -3 5 C-3 5.66 -3 6.32 -3 7 C-3.99 7 -4.98 7 -6 7 C-6.33 7.99 -6.66 8.98 -7 10 C-7.66 10 -8.32 10 -9 10 C-9 10.66 -9 11.32 -9 12 C-9.66 11.67 -10.32 11.34 -11 11 C-9.875 8.625 -9.875 8.625 -8 6 C-6.00827818 5.30899447 -4.00838196 4.64097297 -2 4 C-0.57944932 1.99863756 -0.57944932 1.99863756 0 0 Z " fill="#7F7F7F" transform="translate(196,241)"/>
<path d="M0 0 C1.32 0 2.64 0 4 0 C4.33 1.65 4.66 3.3 5 5 C5.66 5 6.32 5 7 5 C7 5.99 7 6.98 7 8 C7.99 8 8.98 8 10 8 C9.67 9.32 9.34 10.64 9 12 C7.49707257 10.18992669 5.99772829 8.37687764 4.5 6.5625 C3.6646875 5.55316406 2.829375 4.54382813 1.96875 3.50390625 C0 1 0 1 0 0 Z " fill="#BABABA" transform="translate(329,242)"/>
<path d="M0 0 C1.485 0.99 1.485 0.99 3 2 C3.40961596 4.32115711 3.73128549 6.65834501 4 9 C4.65146849 11.33762223 5.31526605 13.67190457 6 16 C6 16.66 6 17.32 6 18 C5.34 18 4.68 18 4 18 C3.896875 16.989375 3.79375 15.97875 3.6875 14.9375 C3.15598198 11.89335136 2.67714254 10.01398515 1.4375 7.3125 C0 4 0 4 0 0 Z " fill="#7F7F7F" transform="translate(146,336)"/>
<path d="M0 0 C3.28715877 2.19143918 4.0353959 3.53044818 5.75 7 C6.42289062 8.3303125 6.42289062 8.3303125 7.109375 9.6875 C7.55023438 10.8321875 7.55023438 10.8321875 8 12 C7.67 12.66 7.34 13.32 7 14 C6.34 13.34 5.68 12.68 5 12 C5 11.01 5 10.02 5 9 C4.01 8.67 3.02 8.34 2 8 C0.04457812 5.01540871 0 3.73585209 0 0 Z " fill="#4C4C4C" transform="translate(337,253)"/>
<path d="M0 0 C1.32 0 2.64 0 4 0 C3.67 0.99 3.34 1.98 3 3 C0.96875 3.87890625 0.96875 3.87890625 -1.5 4.5625 C-3.91495405 5.20384717 -3.91495405 5.20384717 -6 6 C-6.33 6.66 -6.66 7.32 -7 8 C-8.32 7.67 -9.64 7.34 -11 7 C-9.73461631 6.15841464 -8.46246221 5.32700252 -7.1875 4.5 C-6.47980469 4.0359375 -5.77210938 3.571875 -5.04296875 3.09375 C-3 2 -3 2 0 2 C0 1.34 0 0.68 0 0 Z " fill="#575757" transform="translate(208,212)"/>
<path d="M0 0 C1.58409994 0.11487748 3.16728963 0.24234508 4.75 0.375 C6.07257813 0.47941406 6.07257813 0.47941406 7.421875 0.5859375 C9.99066382 0.99850055 11.75841015 1.71160957 14 3 C13.67 3.99 13.34 4.98 13 6 C11.7315625 5.319375 11.7315625 5.319375 10.4375 4.625 C6.93953355 2.97141586 3.73040305 1.96990479 0 1 C0 0.67 0 0.34 0 0 Z " fill="#C2C2C2" transform="translate(282,210)"/>
<path d="M0 0 C0.66 0 1.32 0 2 0 C2 0.99 2 1.98 2 3 C2.66 3 3.32 3 4 3 C5.45184478 7.53701494 6.23509196 11.18061476 6 16 C3.8508083 12.77621244 2.975006 10.01585352 1.875 6.3125 C1.52179688 5.13300781 1.16859375 3.95351562 0.8046875 2.73828125 C0.53914063 1.83464844 0.27359375 0.93101562 0 0 Z " fill="#9F9F9F" transform="translate(332,142)"/>
<path d="M0 0 C0.66 0 1.32 0 2 0 C2 0.99 2 1.98 2 3 C2.66 3 3.32 3 4 3 C4.33 4.65 4.66 6.3 5 8 C5.66 8 6.32 8 7 8 C7 9.65 7 11.3 7 13 C4.20836288 10.59231297 3.10282443 8.23853384 1.8125 4.8125 C1.46832031 3.91144531 1.12414062 3.01039063 0.76953125 2.08203125 C0.51558594 1.39496094 0.26164062 0.70789063 0 0 Z " fill="#C5C5C5" transform="translate(339,254)"/>
<path d="M0 0 C1.32 0.33 2.64 0.66 4 1 C3.67 1.66 3.34 2.32 3 3 C0.4375 3.625 0.4375 3.625 -2 4 C-2 4.66 -2 5.32 -2 6 C-3.65 6.33 -5.3 6.66 -7 7 C-7 6.34 -7 5.68 -7 5 C-6.030625 4.54625 -5.06125 4.0925 -4.0625 3.625 C-0.92920418 2.34213779 -0.92920418 2.34213779 0 0 Z " fill="#848484" transform="translate(184,125)"/>
<path d="M0 0 C1.44010481 0.25662245 2.8770687 0.53090821 4.3125 0.8125 C5.11300781 0.96332031 5.91351563 1.11414063 6.73828125 1.26953125 C9.23445587 2.07572236 10.32422106 3.02052002 12 5 C10.35 5 8.7 5 7 5 C7 4.34 7 3.68 7 3 C4.69 3 2.38 3 0 3 C0 2.01 0 1.02 0 0 Z " fill="#494949" transform="translate(280,210)"/>
<path d="M0 0 C0.33 0 0.66 0 1 0 C2.40454548 6.11980533 3.23268915 11.71739294 3 18 C2.67 18 2.34 18 2 18 C-0.1583195 11.92972642 -0.20852314 6.40629424 0 0 Z " fill="#CECECE" transform="translate(162,194)"/>
<path d="M0 0 C1.73246868 3.46493736 0.76936705 7.29783208 0 11 C-1.5625 13.5625 -1.5625 13.5625 -3 15 C-3.04254356 13.00045254 -3.04080783 10.99958364 -3 9 C-2.67 8.67 -2.34 8.34 -2 8 C-1.835 6.845 -1.67 5.69 -1.5 4.5 C-1 1 -1 1 0 0 Z " fill="#C2C2C2" transform="translate(146,281)"/>
<path d="M0 0 C0.33 0 0.66 0 1 0 C1.1799928 5.21979128 0.97094808 9.07262981 -1 14 C-1.33 14 -1.66 14 -2 14 C-2.1799928 8.78020872 -1.97094808 4.92737019 0 0 Z " fill="#1E1E1E" transform="translate(334,186)"/>
<path d="M0 0 C2.84550012 0.66010476 5.52325999 1.51724966 8.25 2.5625 C8.95640625 2.83191406 9.6628125 3.10132813 10.390625 3.37890625 C10.92171875 3.58386719 11.4528125 3.78882813 12 4 C12 4.33 12 4.66 12 5 C10.02 5 8.04 5 6 5 C6 4.34 6 3.68 6 3 C3.03 2.505 3.03 2.505 0 2 C0 1.34 0 0.68 0 0 Z " fill="#B0B0B0" transform="translate(174,385)"/>
<path d="M0 0 C2.9719385 1.12451727 5.33440687 2.22293791 8 4 C8 4.66 8 5.32 8 6 C8.66 6.33 9.32 6.66 10 7 C8.68 7 7.36 7 6 7 C6 6.34 6 5.68 6 5 C5.01 5 4.02 5 3 5 C3 4.01 3 3.02 3 2 C2.01 2 1.02 2 0 2 C0 1.34 0 0.68 0 0 Z " fill="#939393" transform="translate(313,215)"/>
<path d="M0 0 C2.31 0 4.62 0 7 0 C7 0.33 7 0.66 7 1 C5.35 1 3.7 1 2 1 C2 1.66 2 2.32 2 3 C-0.64738916 4.4606285 -1.89448334 5 -5 5 C-5 4.34 -5 3.68 -5 3 C-3.35 2.67 -1.7 2.34 0 2 C0 1.34 0 0.68 0 0 Z " fill="#CECECE" transform="translate(206,211)"/>
<path d="M0 0 C2.64 0 5.28 0 8 0 C7.67 0.99 7.34 1.98 7 3 C4.69 2.67 2.38 2.34 0 2 C0 1.34 0 0.68 0 0 Z " fill="#2D2D2D" transform="translate(177,270)"/>
<path d="M0 0 C2 3 2 3 2 7 C1.34 7 0.68 7 0 7 C0 7.66 0 8.32 0 9 C-0.99 9 -1.98 9 -3 9 C-2.67 8.01 -2.34 7.02 -2 6 C-1.34 6 -0.68 6 0 6 C0 4.02 0 2.04 0 0 Z " fill="#BFBFBF" transform="translate(200,201)"/>
<path d="M0 0 C0.99 0 1.98 0 3 0 C2.34 2.64 1.68 5.28 1 8 C0.34 8 -0.32 8 -1 8 C-1.33 8.99 -1.66 9.98 -2 11 C-1.855625 10.29875 -1.71125 9.5975 -1.5625 8.875 C-0.98521625 5.92443859 -0.48304859 2.96729849 0 0 Z " fill="#A0A0A0" transform="translate(162,146)"/>
<path d="M0 0 C0.66 0 1.32 0 2 0 C2 2.31 2 4.62 2 7 C1.34 7 0.68 7 0 7 C-0.33 7.66 -0.66 8.32 -1 9 C-0.67 6.03 -0.34 3.06 0 0 Z " fill="#363636" transform="translate(176,283)"/>
<path d="M0 0 C0.99 0 1.98 0 3 0 C1.84414715 3.91211733 0.64465038 6.8745041 -2 10 C-2 8.35 -2 6.7 -2 5 C-1.34 5 -0.68 5 0 5 C0 3.35 0 1.7 0 0 Z " fill="#CBCBCB" transform="translate(152,262)"/>
<path d="M0 0 C0.66 0.33 1.32 0.66 2 1 C1.67 1.99 1.34 2.98 1 4 C-1.5625 5.1875 -1.5625 5.1875 -4 6 C-3.67 4.35 -3.34 2.7 -3 1 C-2.01 0.67 -1.02 0.34 0 0 Z " fill="#A5A5A5" transform="translate(184,225)"/>
<path d="M0 0 C0 2.83967231 -0.40267181 5.23735711 -1 8 C-1.99 8.33 -2.98 8.66 -4 9 C-4 7.68 -4 6.36 -4 5 C-3.34 5 -2.68 5 -2 5 C-1.7834375 4.0409375 -1.7834375 4.0409375 -1.5625 3.0625 C-1 1 -1 1 0 0 Z " fill="#616161" transform="translate(162,250)"/>
<path d="M0 0 C0.33 0.66 0.66 1.32 1 2 C0.34 2 -0.32 2 -1 2 C-1 2.99 -1 3.98 -1 5 C-2.98 5.66 -4.96 6.32 -7 7 C-2.25 1.125 -2.25 1.125 0 0 Z " fill="#515151" transform="translate(203,249)"/>
<path d="M0 0 C3.96 0 7.92 0 12 0 C12 0.33 12 0.66 12 1 C11.07767578 1.09087891 11.07767578 1.09087891 10.13671875 1.18359375 C9.32847656 1.26738281 8.52023438 1.35117188 7.6875 1.4375 C6.88699219 1.51871094 6.08648437 1.59992188 5.26171875 1.68359375 C2.83912821 1.95265693 2.83912821 1.95265693 0 3 C0 2.01 0 1.02 0 0 Z " fill="#D9D9D9" transform="translate(189,122)"/>
</svg>
