<svg width="19" height="16" viewBox="0 0 19 16" fill="none" xmlns="http://www.w3.org/2000/svg">
<g clip-path="url(#clip0_10978_125822)">
<path d="M3.58887 6.86145C3.58887 6.45337 3.91968 6.12256 4.32776 6.12256C4.73583 6.12256 5.06664 6.45337 5.06664 6.86145V14.9892H3.58887V6.86145Z" fill="#7C7C7C"/>
<path d="M11.7168 6.86145C11.7168 6.45337 12.0476 6.12256 12.4557 6.12256C12.8638 6.12256 13.1946 6.45337 13.1946 6.86145V14.9892H11.7168V6.86145Z" fill="#7C7C7C"/>
<path d="M12.8249 6.86133C13.0289 6.86133 13.1943 7.02673 13.1943 7.23077C13.1943 7.43481 13.0289 7.60022 12.8249 7.60022L3.95823 7.60022C3.75419 7.60022 3.58878 7.43481 3.58878 7.23077C3.58878 7.02673 3.75419 6.86133 3.95823 6.86133L12.8249 6.86133Z" fill="#7C7C7C"/>
</g>
<g clip-path="url(#clip1_10978_125822)">
<path d="M6.75537 4.75061C6.75537 4.34253 7.08618 4.01172 7.49426 4.01172C7.90234 4.01172 8.23315 4.34253 8.23315 4.75061V12.8784H6.75537V4.75061Z" fill="#7C7C7C"/>
<path d="M14.8835 4.75061C14.8835 4.34253 15.2144 4.01172 15.6224 4.01172C16.0305 4.01172 16.3613 4.34253 16.3613 4.75061V12.8784H14.8835V4.75061Z" fill="#7C7C7C"/>
<path d="M15.9916 4.75C16.1957 4.75 16.3611 4.91541 16.3611 5.11944C16.3611 5.32348 16.1957 5.48889 15.9916 5.48889L7.12497 5.48889C6.92093 5.48889 6.75553 5.32348 6.75553 5.11944C6.75553 4.91541 6.92093 4.75 7.12497 4.75L15.9916 4.75Z" fill="#7C7C7C"/>
</g>
<defs>
<clipPath id="clip0_10978_125822">
<rect width="12.6667" height="10.5556" fill="white" transform="translate(2.11108 3.16699)"/>
</clipPath>
<clipPath id="clip1_10978_125822">
<rect width="11.6111" height="10.5556" fill="white" transform="translate(5.27783 1.05566)"/>
</clipPath>
</defs>
</svg>
