<?xml version="1.0" encoding="UTF-8"?>
<svg version="1.1" xmlns="http://www.w3.org/2000/svg" width="1428" height="410">
<path d="M0 0 C471.24 0 942.48 0 1428 0 C1428 135.3 1428 270.6 1428 410 C956.76 410 485.52 410 0 410 C0 274.7 0 139.4 0 0 Z " fill="#FEFEFE" transform="translate(0,0)"/>
<path d="M0 0 C366.96 0 733.92 0 1112 0 C1112 24.42 1112 48.84 1112 74 C745.04 74 378.08 74 0 74 C0 49.58 0 25.16 0 0 Z " fill="#010101" transform="translate(173,133)"/>
<path d="M0 0 C0.66677261 -0.00336868 1.33354523 -0.00673737 2.02052307 -0.01020813 C3.42497501 -0.00991033 4.82949383 0.00524127 6.23364258 0.03442383 C8.37069478 0.07406643 10.50151898 0.0551406 12.63867188 0.02929688 C14.00913841 0.03685866 15.37959128 0.04781487 16.75 0.0625 C17.98548584 0.07450439 19.22097168 0.08650879 20.49389648 0.09887695 C23.88073485 0.75005365 26.27083072 1.51692291 28.81855774 3.91481018 C31.37488167 8.11955956 30.65473335 13.30970812 30.52734375 18.0625 C30.51885406 19.25401169 30.51036438 20.44552338 30.50161743 21.67314148 C30.46806199 25.47442475 30.39276967 29.27357789 30.31640625 33.07421875 C30.28630983 35.65296413 30.25893348 38.2317428 30.234375 40.81054688 C30.17336564 47.12908259 30.05594459 53.44302014 29.94140625 59.76171875 C38.85140625 59.76171875 47.76140625 59.76171875 56.94140625 59.76171875 C56.94140625 60.42171875 56.94140625 61.08171875 56.94140625 61.76171875 C58.02421875 61.85453125 58.02421875 61.85453125 59.12890625 61.94921875 C62.86557035 63.02869949 64.46792888 64.80728744 66.94140625 67.76171875 C67.75390625 70.07421875 67.75390625 70.07421875 67.94140625 71.76171875 C68.60140625 71.76171875 69.26140625 71.76171875 69.94140625 71.76171875 C69.94140625 118.29171875 69.94140625 164.82171875 69.94140625 212.76171875 C69.28140625 212.76171875 68.62140625 212.76171875 67.94140625 212.76171875 C67.79703125 213.81359375 67.65265625 214.86546875 67.50390625 215.94921875 C66.50056374 219.33123382 65.20278536 220.67308259 62.19140625 222.48046875 C56.08393853 225.6727181 50.11860216 225.31665385 43.37890625 225.07421875 C42.17943359 225.05166016 40.97996094 225.02910156 39.74414062 225.00585938 C36.80856822 224.94738184 33.87566817 224.86547624 30.94140625 224.76171875 C30.94806808 225.40207565 30.95472992 226.04243256 30.96159363 226.70219421 C31.02798417 233.36936419 31.07322245 240.03644019 31.10620117 246.70385742 C31.12128386 249.19185195 31.14175279 251.67981992 31.16772461 254.16772461 C31.20412962 257.74469563 31.22113809 261.32131497 31.234375 264.8984375 C31.24985886 266.0100676 31.26534271 267.12169769 31.28129578 268.26701355 C31.28152237 269.307715 31.28174896 270.34841644 31.28198242 271.4206543 C31.28864426 272.33332565 31.29530609 273.24599701 31.3021698 274.18632507 C30.85930892 277.34778945 29.81064309 279.19136189 27.94140625 281.76171875 C23.17646517 284.93834614 17.74385252 284.13362871 12.17236328 284.13232422 C10.08022187 284.13668992 7.99020464 284.17299496 5.8984375 284.2109375 C4.5612051 284.21680774 3.22396272 284.22077575 1.88671875 284.22265625 C0.67516113 284.23087402 -0.53639648 284.2390918 -1.78466797 284.24755859 C-5.70980021 283.66508185 -7.293852 282.56466286 -10.05859375 279.76171875 C-11.87177586 276.77413695 -12.31031195 274.55975939 -12.31865597 271.08521461 C-12.32572156 270.1439172 -12.33278715 269.20261979 -12.34006685 268.23279822 C-12.33765177 267.20187721 -12.33523668 266.1709562 -12.33274841 265.10879517 C-12.33798509 264.01113528 -12.34322177 262.91347539 -12.34861714 261.78255308 C-12.36366125 258.09148977 -12.36432326 254.40056456 -12.36499023 250.70947266 C-12.3726087 248.06839921 -12.3809865 245.42733749 -12.39021301 242.78627014 C-12.41306177 235.60244956 -12.42098329 228.41865853 -12.42603946 221.23480654 C-12.42929622 216.74949357 -12.43581853 212.26418919 -12.44304085 207.77888107 C-12.46260558 195.36070087 -12.47901087 182.94252865 -12.48191738 170.52433205 C-12.48210495 169.72969448 -12.48229252 168.93505691 -12.48248577 168.11633941 C-12.48285203 166.50541806 -12.48321572 164.89449672 -12.48357689 163.28357537 C-12.4837597 162.48391151 -12.48394251 161.68424766 -12.48413086 160.86035156 C-12.48440168 159.65939231 -12.48440168 159.65939231 -12.48467798 158.43417124 C-12.4882207 145.45685263 -12.51524968 132.47969983 -12.55262875 119.50243874 C-12.59069674 106.17942803 -12.61007474 92.85649964 -12.61037689 79.53343332 C-12.61096176 72.05271972 -12.61947252 64.572204 -12.64837456 57.09154129 C-12.67286823 50.72261575 -12.68018508 44.35396028 -12.66512703 37.98500039 C-12.65794989 34.73547406 -12.66156225 31.4865931 -12.68153763 28.23710442 C-12.70187851 24.71380346 -12.69151506 21.19189155 -12.67332458 17.66860962 C-12.68652455 16.64215006 -12.69972452 15.61569049 -12.71332449 14.55812609 C-12.66004992 10.05131733 -12.56665484 6.76427964 -9.72755527 3.1275692 C-6.31960627 0.10665728 -4.51296412 0.0014728 0 0 Z " fill="#040404" transform="translate(82.05859375,28.23828125)"/>
<path d="M0 0 C1.35206365 -0.01651623 2.70404154 -0.04375 4.05566406 -0.08203125 C6.01297023 -0.13713289 7.97119802 -0.15559361 9.92919922 -0.17333984 C11.09999023 -0.19315918 12.27078125 -0.21297852 13.47705078 -0.23339844 C17.64176022 0.50043049 20.32562241 1.93501056 22.78857422 5.35009766 C23.68687829 8.98637944 23.60258094 12.55150186 23.5572052 16.28186035 C23.56727071 17.39741444 23.57733622 18.51296853 23.58770674 19.66232729 C23.61402543 23.40832353 23.59735003 27.15289144 23.58081055 30.89892578 C23.59057563 33.58121634 23.60266996 36.26340571 23.61753845 38.94566345 C23.64808127 45.47933828 23.64602141 52.01261409 23.63208763 58.54633033 C23.62127334 63.85608384 23.62179343 69.16572247 23.63040733 74.47547913 C23.63221952 75.60880796 23.63221952 75.60880796 23.63406831 76.76503232 C23.63655894 78.29989703 23.63906993 79.8347617 23.64160105 81.36962634 C23.66388556 95.76394313 23.64860257 110.1580364 23.62101474 124.55233175 C23.59829421 136.90483016 23.60997738 149.25691433 23.64624023 161.609375 C23.6883409 175.95198529 23.70748825 190.29433872 23.69121569 204.6370101 C23.68955603 206.16624542 23.68793268 207.69548079 23.68634605 209.22471619 C23.68556111 209.97713979 23.68477617 210.72956339 23.68396745 211.50478771 C23.68007489 216.80852983 23.69280202 222.1120831 23.71207619 227.41578674 C23.73518995 233.87889865 23.73360308 240.3414334 23.70016304 246.80450976 C23.68374516 250.10270045 23.68235146 253.39968132 23.70376205 256.69787407 C23.72505614 260.2723376 23.70345818 263.84401788 23.67073059 267.41833496 C23.68702776 268.46258904 23.70332493 269.50684312 23.72011596 270.58274126 C23.59447468 277.40592277 23.59447468 277.40592277 21.28638303 280.11003113 C17.3582174 283.05067456 14.16378494 283.98228729 9.19091797 283.97900391 C7.97726562 283.9809375 6.76361328 283.98287109 5.51318359 283.98486328 C4.2634375 283.96101563 3.01369141 283.93716797 1.72607422 283.91259766 C0.47246094 283.92355469 -0.78115234 283.93451172 -2.07275391 283.94580078 C-12.23748704 283.8647423 -12.23748704 283.8647423 -16.08251953 281.56494141 C-18.21142578 279.35009766 -18.21142578 279.35009766 -18.21142578 275.35009766 C-18.87142578 275.35009766 -19.53142578 275.35009766 -20.21142578 275.35009766 C-20.21142578 258.52009766 -20.21142578 241.69009766 -20.21142578 224.35009766 C-29.00711083 224.38965846 -29.00711083 224.38965846 -37.80273438 224.44018555 C-39.43976318 224.44393188 -39.43976318 224.44393188 -41.10986328 224.44775391 C-42.23054199 224.45299072 -43.3512207 224.45822754 -44.50585938 224.46362305 C-47.21142578 224.35009766 -47.21142578 224.35009766 -49.21142578 223.35009766 C-49.21142578 222.69009766 -49.21142578 222.03009766 -49.21142578 221.35009766 C-50.07767578 221.00978516 -50.07767578 221.00978516 -50.96142578 220.66259766 C-53.86048027 218.97148254 -55.33951952 217.1256828 -57.21142578 214.35009766 C-58.1685491 210.70421441 -58.34083988 207.26437958 -58.35186768 203.50549316 C-58.35757782 202.33627823 -58.36328796 201.16706329 -58.36917114 199.9624176 C-58.370289 198.68849655 -58.37140686 197.4145755 -58.37255859 196.10205078 C-58.37719044 194.73998379 -58.38221559 193.37791809 -58.38760376 192.01585388 C-58.40069002 188.32378371 -58.40716472 184.63173168 -58.41161442 180.93964195 C-58.41454979 178.6321272 -58.41865536 176.32461737 -58.42311859 174.0171051 C-58.43678035 166.7945602 -58.44645483 159.57202659 -58.45032048 152.34946966 C-58.4548054 144.01648384 -58.47237882 135.6836617 -58.50132108 127.35072565 C-58.52293188 120.90473676 -58.53302435 114.45879396 -58.5343616 108.01276922 C-58.53540958 104.16450034 -58.54131649 100.31638561 -58.55918121 96.46815491 C-58.57565276 92.85001117 -58.57782204 89.23213767 -58.56904221 85.6139698 C-58.56790425 83.65521914 -58.58162662 81.69647747 -58.59579468 79.73777771 C-58.58744095 77.98395531 -58.58744095 77.98395531 -58.57891846 76.19470215 C-58.58038502 75.18077141 -58.58185158 74.16684067 -58.58336258 73.12218475 C-57.97644346 68.59874781 -55.72529625 65.41851459 -52.21142578 62.60009766 C-47.9673118 59.41701217 -45.18333041 59.22816383 -40.01220703 59.25244141 C-38.80371094 59.25566406 -37.59521484 59.25888672 -36.35009766 59.26220703 C-35.08746094 59.27058594 -33.82482422 59.27896484 -32.52392578 59.28759766 C-30.61256836 59.29436523 -30.61256836 59.29436523 -28.66259766 59.30126953 C-25.51216014 59.31306892 -22.3618163 59.32953168 -19.21142578 59.35009766 C-19.22808037 58.37077019 -19.22808037 58.37077019 -19.24507141 57.37165833 C-19.35571141 50.57481571 -19.43111281 43.77822898 -19.48608398 36.98071289 C-19.51122417 34.44414886 -19.54534115 31.90765723 -19.58862305 29.37133789 C-19.6492924 25.72475315 -19.67764152 22.07912633 -19.69970703 18.43212891 C-19.72551346 17.29862503 -19.75131989 16.16512115 -19.77790833 14.99726868 C-19.78071802 7.105668 -19.78071802 7.105668 -16.8059082 3.1574707 C-11.45158577 -0.57246709 -6.39826423 0.05722402 0 0 Z " fill="#020202" transform="translate(1364.21142578125,28.64990234375)"/>
<path d="M0 0 C366.96 0 733.92 0 1112 0 C1112 24.42 1112 48.84 1112 74 C894.53 74 677.06 74 453 74 C453 73.34 453 72.68 453 72 C453.80230639 72.00092179 454.60461279 72.00184359 455.4312315 72.00279331 C474.99694102 72.02492442 494.56264803 72.04144848 514.12836742 72.05181217 C523.5903843 72.05695781 533.0523928 72.06396735 542.5144043 72.07543945 C550.76615048 72.08543938 559.01789058 72.09186602 567.26964265 72.09408849 C571.63462057 72.09538661 575.99958112 72.09841518 580.36455345 72.10573006 C584.48243272 72.11257421 588.60028766 72.11460007 592.71817207 72.11310768 C594.22045398 72.11338027 595.72273679 72.11533517 597.22501373 72.11920547 C605.4010875 72.13921624 613.47652087 71.91841218 621.62038136 71.11710262 C622.40565551 71.07845876 623.19092966 71.03981489 624 71 C624.33 71.33 624.66 71.66 625 72 C626.56396946 72.09811667 628.13237311 72.12631896 629.69941711 72.12698364 C631.22633682 72.13121338 631.22633682 72.13121338 632.78410339 72.13552856 C633.91149429 72.13350433 635.03888519 72.1314801 636.20043945 72.12939453 C637.97197388 72.13202301 637.97197388 72.13202301 639.77929688 72.13470459 C643.03982892 72.13836963 646.3003208 72.13748068 649.56085229 72.1343255 C653.00469562 72.13178678 656.44853632 72.13414553 659.89237976 72.13571167 C665.71430945 72.1375375 671.53622652 72.13512519 677.3581543 72.13037109 C683.26506379 72.12560174 689.17194802 72.1254813 695.07885742 72.13037109 C703.63200368 72.13732244 712.18513382 72.13914846 720.73828125 72.1328125 C721.43144015 72.1322992 722.12459905 72.13178591 722.83876276 72.13125706 C741.29881307 72.11463229 759.7457572 71.98905349 778.19343567 71.26150513 C779.46402328 71.21371918 780.7346109 71.16593323 782.04370117 71.11669922 C783.11287277 71.07036346 784.18204437 71.02402771 785.28361511 70.97628784 C788 71 788 71 789.93159783 71.49361694 C793.4153818 72.34651161 796.98158367 72.13674384 800.54904175 72.12698364 C801.42054528 72.12854363 802.29204882 72.13010362 803.18996155 72.13171089 C806.11607871 72.13570568 809.04214416 72.13253698 811.96826172 72.12939453 C814.06433645 72.13074934 816.16041094 72.13252973 818.25648499 72.13470459 C823.95742546 72.1392722 829.65834789 72.13749136 835.35928869 72.1343255 C841.33051954 72.13179512 847.30174883 72.13414165 853.27297974 72.13571167 C863.31219764 72.13753278 873.35140821 72.13513004 883.390625 72.13037109 C894.97385115 72.12494339 906.55705966 72.12668048 918.14028537 72.1321975 C928.09464413 72.13674799 938.04899759 72.13736927 948.00335705 72.13475883 C953.94387992 72.13320479 959.88439452 72.132978 965.82491684 72.13629532 C971.42107141 72.13920164 977.01720348 72.13714794 982.61335564 72.13140106 C984.65865097 72.13008756 986.70394823 72.13044338 988.74924278 72.13266373 C998.58263737 72.14234741 1008.30525004 72.09079018 1018.09906197 71.11654472 C1021.21762836 70.99125682 1023.93891442 71.42843092 1027 72 C1029.74541361 72.08609802 1032.46399609 72.12676664 1035.20849609 72.11352539 C1036.00916504 72.11367142 1036.80983398 72.11381744 1037.63476562 72.1139679 C1040.26435109 72.1132748 1042.8938645 72.10551076 1045.5234375 72.09765625 C1047.35332195 72.09578993 1049.18320691 72.09436704 1051.01309204 72.09336853 C1055.81676628 72.08956023 1060.62041003 72.0797444 1065.42407227 72.06866455 C1071.19441599 72.05661018 1076.96476995 72.05204016 1082.73512268 72.04621124 C1091.49010296 72.0365317 1100.2450164 72.01736334 1109 72 C1109 48.57 1109 25.14 1109 1 C743.03 1 377.06 1 0 1 C0 0.67 0 0.34 0 0 Z " fill="#434243" transform="translate(173,133)"/>
<path d="M0 0 C0.66 0.33 1.32 0.66 2 1 C2 91.09 2 181.18 2 274 C0.68 274.66 -0.64 275.32 -2 276 C-4.09230769 271.56923077 -4.09230769 271.56923077 -3.625 268.6875 C-3.315625 267.8521875 -3.315625 267.8521875 -3 267 C-2.67 267 -2.34 267 -2 267 C-1.86810145 251.72442283 -1.73765925 236.44883368 -1.60884857 221.17323017 C-1.54897766 214.0769881 -1.48866892 206.98075031 -1.42724609 199.88452148 C-1.37357346 193.68354002 -1.32080707 187.48255154 -1.26903296 181.28155392 C-1.24171076 178.01265623 -1.21386483 174.74376451 -1.18519592 171.47487831 C-1.15289614 167.78314695 -1.12196804 164.09140754 -1.09179688 160.3996582 C-1.07692104 158.63299034 -1.07692104 158.63299034 -1.06174469 156.83063221 C-1.01419774 150.52068267 -0.99796165 144.21195619 -1.02172852 137.90194702 C-1.02478115 136.90176423 -1.02478115 136.90176423 -1.02789545 135.88137573 C-1.03780401 132.67387428 -1.05268372 129.46656832 -1.07671356 126.25913715 C-1.08108681 125.11825736 -1.08546005 123.97737757 -1.08996582 122.80192566 C-1.09659492 121.79966037 -1.10322403 120.79739508 -1.11005402 119.76475811 C-1.00249333 117.06263704 -0.5434462 114.64277929 0 112 C0.08410291 110.38394853 0.12207072 108.76501172 0.12025452 107.14677429 C0.12162918 106.19751572 0.12300385 105.24825714 0.12442017 104.27023315 C0.12082489 103.24092682 0.11722961 102.21162048 0.11352539 101.15112305 C0.11367142 100.05799301 0.11381744 98.96486298 0.1139679 97.83860779 C0.11327188 94.22962451 0.10549396 90.620693 0.09765625 87.01171875 C0.09579097 84.50779753 0.09436758 82.00387594 0.09336853 79.49995422 C0.08994201 73.58564584 0.08206247 67.67135402 0.07201904 61.75705415 C0.05973246 54.36082586 0.05437139 46.96459526 0.04882812 39.56835938 C0.03810611 26.37889684 0.02123254 13.18944959 0 0 Z " fill="#353434" transform="translate(1385,33)"/>
<path d="M0 0 C5.12255069 0.46327002 10.24303931 0.3957186 15.38277245 0.37893867 C16.57431435 0.3790847 17.76585625 0.37923073 18.99350548 0.37938118 C22.22417383 0.37880863 25.45479744 0.37383344 28.68545699 0.36680722 C32.0753489 0.36050681 35.46524192 0.35996464 38.85513878 0.35878181 C45.25798763 0.35568806 51.66081917 0.34750132 58.06366044 0.33743232 C65.36002581 0.32621009 72.65639205 0.32074541 79.95276392 0.31573689 C94.94677701 0.30531683 109.94077396 0.2877557 124.9347744 0.26541328 C124.9347744 0.92541328 124.9347744 1.58541328 124.9347744 2.26541328 C47.7147744 2.26541328 -29.5052256 2.26541328 -109.0652256 2.26541328 C-109.0652256 1.60541328 -109.0652256 0.94541328 -109.0652256 0.26541328 C-107.91787941 0.2676339 -106.77053322 0.26985451 -105.58841896 0.27214241 C-94.75982964 0.29244067 -83.9312442 0.30741762 -73.10264015 0.31722546 C-67.53596133 0.3224373 -61.96929791 0.32950408 -56.40262794 0.34085274 C-51.02747382 0.351742 -45.65233448 0.35770292 -40.27717018 0.36029053 C-38.22954005 0.3621339 -36.1819107 0.36573351 -34.13428688 0.37114334 C-31.25968636 0.37843394 -28.38514643 0.37940085 -25.5105381 0.37893867 C-24.24925339 0.38433159 -24.24925339 0.38433159 -22.96248817 0.38983345 C-19.26476693 0.38342761 -15.8344838 0.23173788 -12.16239357 -0.30418205 C-8.01675085 -0.88972378 -4.1459595 -0.44355486 0 0 Z " fill="#0F1013" transform="translate(303.0652256011963,204.73458671569824)"/>
<path d="M0 0 C0.66 0 1.32 0 2 0 C2 24.09 2 48.18 2 73 C-8.456875 73.0309375 -8.456875 73.0309375 -19.125 73.0625 C-21.31527832 73.071604 -23.50555664 73.08070801 -25.76220703 73.09008789 C-27.51074157 73.09301028 -29.25927678 73.09555807 -31.0078125 73.09765625 C-32.3544397 73.1053302 -32.3544397 73.1053302 -33.72827148 73.11315918 C-38.27114806 73.11378856 -42.52905329 72.92957093 -47 72 C-47 71.67 -47 71.34 -47 71 C-31.49 71 -15.98 71 0 71 C0 47.57 0 24.14 0 0 Z " fill="#090A0B" transform="translate(1282,134)"/>
<path d="M0 0 C1.16781006 0.00523682 2.33562012 0.01047363 3.53881836 0.01586914 C4.79887695 0.0190918 6.05893555 0.02231445 7.35717773 0.02563477 C8.6976732 0.03399136 10.03816799 0.04245632 11.37866211 0.05102539 C12.72306153 0.05603879 14.06746271 0.06060197 15.41186523 0.06469727 C18.71334151 0.07653051 22.01473014 0.09301568 25.31616211 0.11352539 C25.31616211 0.44352539 25.31616211 0.77352539 25.31616211 1.11352539 C16.73616211 1.11352539 8.15616211 1.11352539 -0.68383789 1.11352539 C-0.6490332 4.80926758 -0.61422852 8.50500977 -0.57836914 12.31274414 C-0.55497022 15.89370959 -0.53675548 19.47466651 -0.51904297 23.05566406 C-0.50396028 25.54365859 -0.48349135 28.03162656 -0.45751953 30.51953125 C-0.42111452 34.09650227 -0.40410605 37.67312161 -0.39086914 41.25024414 C-0.37538528 42.36187424 -0.35990143 43.47350433 -0.34394836 44.61882019 C-0.34372177 45.65952164 -0.34349518 46.70022308 -0.34326172 47.77246094 C-0.33659988 48.68513229 -0.32993805 49.59780365 -0.32307434 50.53813171 C-0.75697574 53.63563674 -1.93488068 55.55145983 -3.68383789 58.11352539 C-4.34383789 57.78352539 -5.00383789 57.45352539 -5.68383789 57.11352539 C-5.18883789 56.61852539 -5.18883789 56.61852539 -4.68383789 56.11352539 C-4.56599229 54.40091836 -4.51651268 52.68355515 -4.49438477 50.96704102 C-4.47766724 49.86920288 -4.46094971 48.77136475 -4.44372559 47.64025879 C-4.43015015 46.44549927 -4.41657471 45.25073975 -4.40258789 44.01977539 C-4.38417847 42.80277954 -4.36576904 41.58578369 -4.34680176 40.33190918 C-4.28782935 36.42583213 -4.23510268 32.51971077 -4.18383789 28.61352539 C-4.11643937 23.47801039 -4.04277031 18.34264396 -3.96508789 13.20727539 C-3.95151245 12.01251587 -3.93793701 10.81775635 -3.9239502 9.58679199 C-3.90723267 8.48895386 -3.89051514 7.39111572 -3.87329102 6.26000977 C-3.86076294 5.28817749 -3.84823486 4.31634521 -3.83532715 3.31506348 C-3.61112338 0.05679198 -3.29997622 0.13958782 0 0 Z " fill="#4B4B4B" transform="translate(113.683837890625,251.886474609375)"/>
<path d="M0 0 C4.25435079 0.1179762 8.50845821 0.2422037 12.76245117 0.37231445 C14.2106424 0.4157163 15.65888654 0.45738744 17.10717773 0.49731445 C19.18489559 0.55489062 21.26234573 0.61862028 23.33984375 0.68359375 C25.21724243 0.73858032 25.21724243 0.73858032 27.13256836 0.79467773 C30 1 30 1 31 2 C31.14197566 3.67062969 31.21716037 5.34699115 31.26538086 7.02294922 C31.29889145 8.09431122 31.33240204 9.16567322 31.3669281 10.26950073 C31.39924026 11.43611237 31.43155243 12.602724 31.46484375 13.8046875 C31.54336449 16.24870613 31.62214872 18.69271631 31.70117188 21.13671875 C31.82094115 25.0101603 31.93774952 28.88364447 32.04956055 32.75732422 C32.15893512 36.48175391 32.27990251 40.20566776 32.40234375 43.9296875 C32.43263168 45.09225067 32.46291962 46.25481384 32.49412537 47.4526062 C32.54911949 49.06910568 32.54911949 49.06910568 32.60522461 50.71826172 C32.63329697 51.66788788 32.66136932 52.61751404 32.69029236 53.59591675 C32.85268581 56.25985851 32.85268581 56.25985851 35 59 C33.68 58.34 32.36 57.68 31 57 C31 55.68 31 54.36 31 53 C30.34 53 29.68 53 29 53 C29 36.17 29 19.34 29 2 C20.20422272 2.07912274 20.20422272 2.07912274 11.40869141 2.18017578 C10.31733887 2.1851709 9.22598633 2.19016602 8.1015625 2.1953125 C6.98088379 2.20578613 5.86020508 2.21625977 4.70556641 2.22705078 C2 2 2 2 0 0 Z " fill="#767677" transform="translate(1315,251)"/>
<path d="M0 0 C1.97161865 1.16889954 1.97161865 1.16889954 4 3 C4.48101807 5.41081238 4.48101807 5.41081238 4.45410156 8.29760742 C4.45379944 9.37850143 4.45349731 10.45939545 4.45318604 11.57304382 C4.43254089 12.73874405 4.41189575 13.90444427 4.390625 15.10546875 C4.38496521 16.29981033 4.37930542 17.49415192 4.37347412 18.72468567 C4.35105175 22.54602847 4.30084195 26.36643975 4.25 30.1875 C4.2299427 32.7753771 4.2116906 35.36326887 4.1953125 37.95117188 C4.15456654 44.30143038 4.07628024 50.6496704 4 57 C12.91 57 21.82 57 31 57 C31 57.33 31 57.66 31 58 C30.14277344 58.06058594 29.28554687 58.12117188 28.40234375 58.18359375 C21.21540637 58.70835901 21.21540637 58.70835901 14.0625 59.5625 C6.15210356 60.69255663 6.15210356 60.69255663 3.34863281 59.00732422 C1.19574084 55.80292926 1.61410691 52.36092763 1.671875 48.6328125 C1.67374817 47.80224335 1.67562134 46.97167419 1.67755127 46.11593628 C1.68427863 44.35231532 1.6982067 42.58870945 1.71875 40.82519531 C1.7494818 38.16977529 1.75968411 35.51495408 1.765625 32.859375 C1.80903381 23.52845421 2.08674308 14.29185824 3 5 C2.34 5 1.68 5 1 5 C0.67 3.35 0.34 1.7 0 0 Z " fill="#353533" transform="translate(108,31)"/>
<path d="M0 0 C0.66 0 1.32 0 2 0 C5.24727345 5.26723095 5.37334093 9.39949939 5.1875 15.375 C5.17396484 16.20644531 5.16042969 17.03789062 5.14648438 17.89453125 C5.11139059 19.92997066 5.05759228 21.96507291 5 24 C3.68 24.33 2.36 24.66 1 25 C0.67 16.75 0.34 8.5 0 0 Z " fill="#0F0F0F" transform="translate(1345,252)"/>
<path d="M0 0 C1.97558594 0.93481445 1.97558594 0.93481445 4 3 C4.5905274 6.0074256 4.46399264 8.9886383 4.390625 12.04296875 C4.38496521 12.9265657 4.37930542 13.81016266 4.37347412 14.72053528 C4.35107867 17.54340743 4.30087727 20.36501138 4.25 23.1875 C4.22993906 25.10089313 4.21168758 27.01430615 4.1953125 28.92773438 C4.15120357 33.61897842 4.08215485 38.30927418 4 43 C3.67 43 3.34 43 3 43 C2.23244619 37.56011469 1.83921066 32.3029676 1.875 26.8125 C1.87693359 26.08361572 1.87886719 25.35473145 1.88085938 24.60375977 C1.93242756 18.04242451 2.3639765 11.53059848 3 5 C2.34 5 1.68 5 1 5 C0.67 3.35 0.34 1.7 0 0 Z " fill="#1D1D1C" transform="translate(108,31)"/>
<path d="M0 0 C0.99 0.33 1.98 0.66 3 1 C1.2163271 3.29834001 0.34080992 3.95096838 -2.58789062 4.37231445 C-3.60044922 4.3693335 -4.61300781 4.36635254 -5.65625 4.36328125 C-7.31333984 4.36231445 -7.31333984 4.36231445 -9.00390625 4.36132812 C-10.73447266 4.3371582 -10.73447266 4.3371582 -12.5 4.3125 C-13.65371094 4.31572266 -14.80742188 4.31894531 -15.99609375 4.32226562 C-24.5994224 4.26705173 -24.5994224 4.26705173 -28 2 C-26.78098999 1.96241577 -26.78098999 1.96241577 -25.53735352 1.92407227 C-21.87889248 1.80850882 -18.22071472 1.68560416 -14.5625 1.5625 C-13.28310547 1.52318359 -12.00371094 1.48386719 -10.68554688 1.44335938 C-8.86313477 1.38051758 -8.86313477 1.38051758 -7.00390625 1.31640625 C-5.87799072 1.27974854 -4.7520752 1.24309082 -3.59204102 1.20532227 C-1.07146559 1.28781955 -1.07146559 1.28781955 0 0 Z " fill="#101111" transform="translate(141,248)"/>
<path d="M0 0 C0.66 0 1.32 0 2 0 C2 3.96 2 7.92 2 12 C1.01 12 0.02 12 -1 12 C-1.33 12.99 -1.66 13.98 -2 15 C-2.18032787 4.36065574 -2.18032787 4.36065574 0 0 Z " fill="#09090A" transform="translate(109,36)"/>
<path d="M0 0 C0.33 0.66 0.66 1.32 1 2 C-5.6 2 -12.2 2 -19 2 C-19 1.34 -19 0.68 -19 0 C-12.61799436 -0.92642017 -6.35559012 -1.45018425 0 0 Z " fill="#0E0F12" transform="translate(550,205)"/>
<path d="M0 0 C1.984375 0.98828125 1.984375 0.98828125 4 3 C4.29561076 5.87038052 4.37943016 8.33754745 4.25 11.1875 C4.23195313 11.93708984 4.21390625 12.68667969 4.1953125 13.45898438 C4.14824109 15.3065371 4.07649766 17.15343159 4 19 C3.67 19 3.34 19 3 19 C3 14.38 3 9.76 3 5 C2.34 5 1.68 5 1 5 C0.67 3.35 0.34 1.7 0 0 Z " fill="#373737" transform="translate(108,31)"/>
<path d="M0 0 C0.99 0.33 1.98 0.66 3 1 C3.6875 3.0625 3.6875 3.0625 4 5 C1.69 5.33 -0.62 5.66 -3 6 C-2 4 -1 2 0 0 Z " fill="#0D0D0D" transform="translate(1350,30)"/>
<path d="M0 0 C3 4 3 4 2.85546875 6.796875 C2.63503906 7.77140625 2.41460937 8.7459375 2.1875 9.75 C1.97480469 10.73484375 1.76210937 11.7196875 1.54296875 12.734375 C1.36378906 13.48203125 1.18460937 14.2296875 1 15 C0.67 15 0.34 15 0 15 C0 10.05 0 5.1 0 0 Z " fill="#070807" transform="translate(72,270)"/>
<path d="M0 0 C0.66 0.33 1.32 0.66 2 1 C2.75 3.9375 2.75 3.9375 3 7 C2.34 7.66 1.68 8.32 1 9 C-1.09230769 4.56923077 -1.09230769 4.56923077 -0.625 1.6875 C-0.41875 1.130625 -0.2125 0.57375 0 0 Z " fill="#0C0D0C" transform="translate(1382,300)"/>
</svg>
