<?xml version="1.0" encoding="UTF-8"?>
<svg version="1.1" xmlns="http://www.w3.org/2000/svg" width="822" height="794">
<path d="M0 0 C271.26 0 542.52 0 822 0 C822 262.02 822 524.04 822 794 C550.74 794 279.48 794 0 794 C0 531.98 0 269.96 0 0 Z " fill="#F6F6F6" transform="translate(0,0)"/>
<path d="M0 0 C168.96 0 337.92 0 512 0 C512 168.96 512 337.92 512 512 C502.1 512 492.2 512 482 512 C482 372.08 482 232.16 482 88 C445.04 88 408.08 88 370 88 C370 141.13 370 194.26 370 249 C372.97 249.66 375.94 250.32 379 251 C398.47301859 258.84006189 411.36741867 272.59402447 420.09765625 291.359375 C423.27053521 299.3314327 424.36921362 307.35316276 424.3125 315.875 C424.30758545 316.75414062 424.3026709 317.63328125 424.29760742 318.5390625 C424.17934107 325.09890258 423.39163574 330.85282381 421 337 C420.64808594 337.969375 420.29617188 338.93875 419.93359375 339.9375 C413.23736759 357.26370893 401.77986126 370.69481614 385 379 C368.62666912 385.78552968 347.91994736 388.59948154 331 382 C312.24087996 374.04158544 297.83960976 360.94523005 289.71484375 342.00390625 C283.48644325 325.55110637 283.50761944 304.47901171 290.59375 288.37890625 C294.97981466 279.19016479 300.74150113 272.07153754 308 265 C308.87398438 264.11248047 308.87398438 264.11248047 309.765625 263.20703125 C317.50795548 255.91438158 329.32039526 249 340 249 C340 195.54 340 142.08 340 87 C284.56 87 229.12 87 172 87 C172 140.46 172 193.92 172 249 C174.31 249.33 176.62 249.66 179 250 C181.13647461 250.75268555 181.13647461 250.75268555 182.90234375 251.63671875 C183.89028931 252.12676392 183.89028931 252.12676392 184.89819336 252.62670898 C185.57116455 252.97677002 186.24413574 253.32683105 186.9375 253.6875 C187.99626343 254.23096069 187.99626343 254.23096069 189.07641602 254.78540039 C194.11452966 257.42302506 198.75619775 260.18243116 203 264 C204.10214844 264.98226562 204.10214844 264.98226562 205.2265625 265.984375 C216.40003962 276.52257081 225.15414904 291.25861767 226.1887207 306.84277344 C226.26744248 309.91867069 226.2730325 312.98574236 226.25 316.0625 C226.25773438 317.09955078 226.26546875 318.13660156 226.2734375 319.20507812 C226.22742949 337.34373468 218.39642847 353.29723537 206.125 366.375 C191.46554543 380.16359588 172.84875393 385.92635124 153.10546875 385.33984375 C134.57852306 384.35923125 120.04029903 377.18127524 107 364 C106.37738281 363.41089844 105.75476563 362.82179688 105.11328125 362.21484375 C92.72634466 349.54954903 87.70849809 330.88535084 87.7578125 313.71777344 C88.01472856 295.91991304 95.79655122 279.28977238 108.30859375 266.671875 C116.9624235 258.51756429 129.63262253 249 142 249 C142 195.87 142 142.74 142 88 C105.04 88 68.08 88 30 88 C30 227.92 30 367.84 30 512 C20.1 512 10.2 512 0 512 C0 343.04 0 174.08 0 0 Z " fill="#000000" transform="translate(146,99)"/>
<path d="M0 0 C9.24556676 5.36423399 16.12175902 13.11015327 19.015625 23.64453125 C20.55374528 35.06340243 20.11528869 45.10049471 14.375 55.3125 C13.99085938 55.99828125 13.60671875 56.6840625 13.2109375 57.390625 C7.91190024 65.68163568 -1.27519599 70.89267187 -10.625 73.3125 C-23.31086423 74.94312593 -33.50614791 73.30960784 -43.875 65.625 C-52.87274043 58.01152733 -57.33356974 49.04131236 -58.4375 37.4375 C-59.02947356 25.36638703 -56.23579345 16.62464263 -48.125 7.5 C-47.3 6.778125 -46.475 6.05625 -45.625 5.3125 C-44.3565625 4.075 -44.3565625 4.075 -43.0625 2.8125 C-30.48338132 -7.29572037 -13.8741039 -7.06900674 0 0 Z " fill="#F5F5F5" transform="translate(322.625,380.6875)"/>
<path d="M0 0 C10.1212661 -0.56229256 19.41675213 2.42871202 27.609375 8.5078125 C37.10462465 18.69783652 41.15628997 28.30920674 41.171875 42.2578125 C40.38156886 52.47431546 35.71066769 62.28314715 28.171875 69.2578125 C17.21698409 78.03829217 5.8996306 79.75327573 -7.828125 78.2578125 C-11.22269534 77.38222888 -13.89935724 76.16020406 -16.828125 74.2578125 C-17.900625 73.6184375 -18.973125 72.9790625 -20.078125 72.3203125 C-28.43095213 66.05569215 -34.0650121 58.3344028 -36.828125 48.2578125 C-38.40088982 36.09184524 -36.69375974 25.46450621 -29.55078125 15.390625 C-23.56433035 7.97882865 -15.81174052 2.72549178 -6.515625 0.4453125 C-4.34149216 0.33476337 -2.16795219 0.197631 0 0 Z " fill="#F5F5F5" transform="translate(498.828125,375.7421875)"/>
</svg>
