<?xml version="1.0" encoding="UTF-8"?>
<svg version="1.1" xmlns="http://www.w3.org/2000/svg" width="3020" height="1408">
<path d="M0 0 C996.6 0 1993.2 0 3020 0 C3020 464.64 3020 929.28 3020 1408 C2023.4 1408 1026.8 1408 0 1408 C0 943.36 0 478.72 0 0 Z " fill="#FEFEFE" transform="translate(0,0)"/>
<path d="M0 0 C2.67392521 0.018338 5.34750248 0.02050809 8.02148438 0.02026367 C21.26630614 0.04588509 34.3029217 0.29734308 47.29492188 3.14331055 C48.101875 3.31282227 48.90882813 3.48233398 49.74023438 3.65698242 C51.35694264 3.99659446 52.97285153 4.34003681 54.58789062 4.6875 C57.97061865 5.40108621 61.36488431 6.0525181 64.76074219 6.70043945 C67.84600805 7.38304958 70.78311375 8.37775067 73.76367188 9.41674805 C76.17728608 10.25159406 78.60249613 11.02201379 81.04492188 11.76831055 C81.78742188 11.99647461 82.52992188 12.22463867 83.29492188 12.4597168 C90.43339207 14.39643243 97.29736803 15.4926117 104.66992188 16.01831055 C145.75650799 19.53152203 184.06867885 36.54124087 216.04492188 62.20581055 C216.60195801 62.6524707 217.15899414 63.09913086 217.73291016 63.55932617 C224.53729766 69.06812565 231.00881064 74.93432177 237.41992188 80.89331055 C238.07412109 81.49892822 238.72832031 82.1045459 239.40234375 82.72851562 C245.15733058 88.13958186 250.34963043 93.89107436 255.08789062 100.21362305 C263.33931494 111.12798315 272.50887297 118.22004476 283.86914062 125.71020508 C288.32976452 128.77638349 292.14493077 132.46578002 296.04492188 136.20581055 C297.29108301 137.25206667 298.5410764 138.29377585 299.79492188 139.33081055 C342.66515216 177.01512588 369.69107595 243.38153723 375.04492188 299.20581055 C375.26386569 303.82966354 375.34468581 308.45266225 375.41992188 313.08081055 C375.60181998 323.77204165 377.42131416 332.23834355 381.29150391 342.1262207 C388.22323635 361.2592398 389.27589109 382.44651684 389.29492188 402.58081055 C389.29592896 403.32603973 389.29693604 404.07126892 389.29797363 404.83908081 C389.28646989 417.49201689 388.48518299 429.7623019 386.04492188 442.20581055 C385.90038574 442.94992187 385.75584961 443.6940332 385.60693359 444.46069336 C384.25951367 451.15452036 382.58148548 457.6844055 380.41992188 464.1628418 C380.14124268 465.00306885 379.86256348 465.8432959 379.57543945 466.70898438 C379.03128129 468.32065698 378.46978889 469.92662844 377.88745117 471.52490234 C374.98909916 479.98786918 376.75112124 487.03969718 379.41992188 495.33081055 C391.56398453 535.29573733 388.65464599 578.82314515 380.04492188 619.20581055 C380.93179688 619.44944336 381.81867187 619.69307617 382.73242188 619.9440918 C388.23993739 622.04188367 391.89323127 626.12886396 396.04492188 630.20581055 C396.61597656 630.75237305 397.18703125 631.29893555 397.77539062 631.86206055 C409.54540636 644.23162132 412.62572609 661.59519306 412.48242188 678.01831055 C412.47484863 679.24227539 412.46727539 680.46624023 412.45947266 681.72729492 C412.13256241 699.73837926 407.54350445 714.96497504 394.99804688 728.3425293 C393.04492188 730.20581055 393.04492188 730.20581055 391.04492188 731.20581055 C391.04345531 732.16511726 391.04198875 733.12442398 391.04047775 734.1128006 C391.00379943 757.51009906 390.94424103 780.90725531 390.86101913 804.30443573 C390.82129644 815.61938194 390.78886963 826.93425927 390.77392578 838.24926758 C390.7608741 848.11731295 390.73382007 857.98520635 390.69030881 867.8531661 C390.6677729 873.07285545 390.65200645 878.29235791 390.65303802 883.51210022 C390.65378931 888.43697795 390.6356522 893.3614438 390.60375404 898.28621483 C390.59531766 900.0823141 390.59346189 901.87845991 390.59911919 903.67457008 C390.63806141 917.9531481 389.19104034 931.75721815 382.29492188 944.58081055 C381.95130615 945.24089111 381.60769043 945.90097168 381.25366211 946.58105469 C378.15587083 952.34840694 374.47951541 957.38340085 370.04492188 962.20581055 C369.34625 962.9844043 368.64757813 963.76299805 367.92773438 964.56518555 C360.46145591 972.48316058 351.87647001 977.56202537 342.04492188 982.01831055 C341.41706787 982.30851074 340.78921387 982.59871094 340.14233398 982.89770508 C323.50900882 990.10555019 300.77192487 989.7461266 284.04492188 983.20581055 C275.06164136 979.42690128 267.28343899 974.77542179 260.04492188 968.20581055 C259.201875 967.45557617 258.35882812 966.7053418 257.49023438 965.93237305 C243.79773532 953.07224476 234.61956969 934.86037786 233.78931999 915.96123505 C233.67160211 911.1460968 233.72187908 906.3331058 233.77124023 901.51733398 C233.77861176 899.67930616 233.78449964 897.84127188 233.78903198 896.00323486 C233.80094322 892.07354377 233.8214039 888.14402618 233.8481884 884.21440887 C233.88870224 877.99360603 233.89848249 871.7729832 233.90223694 865.55206299 C233.91642132 847.87229279 233.95157383 830.19288487 234.06176758 812.51342773 C234.12250979 802.72731962 234.14756369 792.94179996 234.13282877 783.15550637 C234.1266184 777.98708195 234.13893337 772.8201783 234.19572258 767.65203094 C234.24904467 762.79545559 234.25580966 757.9410159 234.22751999 753.0842514 C234.22545048 751.30811037 234.24035921 749.53185128 234.27397728 747.75602722 C234.60215655 737.90406197 234.60215655 737.90406197 230.85833931 729.03992462 C228.26811683 726.37542726 228.26811683 726.37542726 225.52054691 724.24277115 C216.6063838 716.90813897 212.58774467 703.26270726 211.04492188 692.20581055 C210.08094134 677.92367792 209.20224451 662.55776506 215.04492188 649.20581055 C215.40714844 648.31764648 215.769375 647.42948242 216.14257812 646.5144043 C221.05889365 635.59851727 230.10294275 624.52048612 241.04492188 619.20581055 C242.03492188 619.20581055 243.02492188 619.20581055 244.04492188 619.20581055 C243.8515625 618.30604492 243.65820312 617.4062793 243.45898438 616.47924805 C235.91561181 579.21050636 236.0378706 536.86685278 249.09179688 500.8112793 C251.43017002 491.96571202 249.33045908 484.62192083 246.79492188 476.01831055 C244.44178504 467.65048249 242.28335882 459.32410546 240.73242188 450.76831055 C240.58579102 449.97980713 240.43916016 449.19130371 240.28808594 448.37890625 C239.81726355 445.6601539 239.42074469 442.93942018 239.04492188 440.20581055 C238.86904541 438.93817871 238.69316895 437.67054688 238.51196289 436.36450195 C236.45333023 420.15251189 236.66679233 403.84804406 236.58862305 387.53198242 C236.38772205 352.2263912 232.05817496 319.07211975 215.2890625 287.56762695 C213.83027602 284.79833723 212.4140466 282.00893442 210.99804688 279.2175293 C188.78935155 235.6187707 160.424443 205.23029016 117.38476562 181.6940918 C112.71305069 179.1387692 108.11605061 176.49806587 103.54492188 173.76831055 C87.37426692 164.49633053 69.06726721 158.22467319 50.98242188 153.89331055 C49.983479 153.65402832 49.983479 153.65402832 48.96435547 153.40991211 C22.38001209 147.39307096 -6.12703768 151.8376743 -31.95507812 159.20581055 C-32.93814941 159.48021973 -33.9212207 159.75462891 -34.93408203 160.03735352 C-63.80586944 168.17398904 -92.24165513 179.06240789 -114.95507812 199.20581055 C-116.50958119 200.51779523 -118.06424033 201.82960593 -119.62304688 203.13647461 C-121.27875514 204.52770216 -122.92640299 205.92795469 -124.57226562 207.33081055 C-126.83748214 209.26078027 -129.11435173 211.175563 -131.40039062 213.08081055 C-162.63222687 239.23654271 -182.05717143 270.77089119 -194.95507812 309.20581055 C-195.41696533 310.57141113 -195.41696533 310.57141113 -195.88818359 311.96459961 C-200.29925418 325.18551057 -203.61797967 338.65465026 -206.83007812 352.20581055 C-207.02947998 353.04630951 -207.22888184 353.88680847 -207.43432617 354.7527771 C-208.00595563 357.17352598 -208.57179995 359.59553345 -209.13476562 362.01831055 C-209.30422699 362.74037186 -209.47368835 363.46243317 -209.64828491 364.20637512 C-212.53990624 376.79329696 -212.42362462 388.56131882 -210.49023438 401.30737305 C-205.67167486 436.40899635 -208.76084843 471.62312145 -219.95507812 505.20581055 C-220.46131121 513.60430034 -218.50910593 520.84735845 -216.3515625 528.9128418 C-212.00656854 545.88513921 -210.46611563 562.71282239 -210.61889648 580.19213867 C-210.64274053 583.10062002 -210.63938964 586.00819174 -210.6328125 588.91674805 C-210.64997258 599.51360119 -211.17345882 609.74861288 -212.95507812 620.20581055 C-212.18019043 620.49770264 -211.40530273 620.78959473 -210.60693359 621.09033203 C-199.73882489 625.6619016 -191.76627538 637.68097157 -187.09570312 648.04174805 C-183.71970216 657.40668222 -182.50191715 665.67888684 -182.64257812 675.64331055 C-182.63935547 676.7809082 -182.63613281 677.91850586 -182.6328125 679.09057617 C-182.73222445 694.9332268 -185.64983793 710.64735198 -195.95507812 723.20581055 C-196.95911367 723.96436844 -196.95911367 723.96436844 -197.98343277 724.73825073 C-201.86715892 727.70852079 -203.71611277 730.00665582 -204.685112 734.86920166 C-205.05855848 739.58547876 -204.96515643 744.29983231 -204.89160156 749.02612305 C-204.89266005 750.84368925 -204.89729645 752.66125634 -204.90522766 754.47880554 C-204.91468455 758.38440104 -204.899076 762.28879853 -204.86385345 766.19424438 C-204.80833469 772.38278824 -204.809749 778.57053878 -204.81866455 784.75927734 C-204.8261633 794.56101344 -204.79644627 804.36222025 -204.7504456 814.16383839 C-204.66851679 831.681358 -204.63107481 849.19888628 -204.63505387 866.7165947 C-204.63474245 872.85410596 -204.61234538 878.99100816 -204.57151842 885.12837887 C-204.54960116 888.96738575 -204.54418074 892.80630103 -204.542593 896.64536476 C-204.53838034 898.40927029 -204.52735747 900.17317666 -204.50854683 901.93698692 C-204.25600453 926.45896194 -211.58701418 948.47400769 -228.93945312 966.34643555 C-245.16720489 982.23389369 -264.75588625 987.73678537 -286.79174805 987.55297852 C-306.57653837 987.10457276 -324.17876462 979.43643538 -338.56835938 965.71362305 C-352.01961524 951.62960705 -361.1829393 933.21699539 -361.0594635 913.47647095 C-361.05840368 912.31978411 -361.05840368 912.31978411 -361.05732244 911.13972986 C-361.05395183 908.5596753 -361.0435982 905.97969429 -361.03344727 903.3996582 C-361.02993039 901.54823397 -361.02696354 899.69680863 -361.02450562 897.84538269 C-361.01883513 893.85994415 -361.01082411 889.87451922 -361.00148201 885.88908768 C-360.98830103 879.58582066 -360.99003688 873.28261477 -360.99571228 866.9793396 C-360.99663236 865.91524419 -360.99755244 864.85114879 -360.99850041 863.75480807 C-361.00147145 860.47805876 -361.00463631 857.20130967 -361.0078125 853.92456055 C-361.02061107 840.35250715 -361.02256033 826.78074299 -360.97924805 813.20874023 C-360.94775882 803.30845329 -360.94443345 793.40860599 -360.97400755 783.50830686 C-360.98856063 778.270262 -360.98872028 773.03309666 -360.95460701 767.79512405 C-360.92279454 762.86824917 -360.9282281 757.94281787 -360.96210861 753.01597023 C-360.96792447 751.20960774 -360.96009983 749.40314116 -360.93751717 747.59691048 C-360.51053694 738.15856313 -360.51053694 738.15856313 -363.72787285 729.6152153 C-365.72410534 727.85189699 -367.65312651 726.52860612 -369.95507812 725.20581055 C-383.05343494 711.96137541 -385.36141755 693.31947279 -385.32397461 675.56103516 C-384.96145283 658.30235667 -379.43457483 641.99467505 -367.30273438 629.4050293 C-357.48260921 620.20581055 -357.48260921 620.20581055 -353.95507812 620.20581055 C-354.28507812 619.54581055 -354.61507813 618.88581055 -354.95507812 618.20581055 C-358.28574211 590.48728475 -357.0827557 560.54879332 -348.84912109 533.80004883 C-346.5625346 526.12639546 -346.59214422 519.73169716 -349.70507812 512.26831055 C-367.79058759 464.56450296 -364.19941064 411.03614565 -348.95507812 363.20581055 C-348.42398437 362.02639893 -347.89289063 360.8469873 -347.34570312 359.63183594 C-345.19520296 353.94418973 -345.66223532 348.13699455 -345.80273438 342.14331055 C-345.83097894 339.54435492 -345.85896497 336.94539647 -345.88671875 334.34643555 C-345.94512602 330.30131864 -346.01663303 326.25650466 -346.09204102 322.21166992 C-346.39262111 304.74139482 -345.62776396 288.31491944 -341.95507812 271.20581055 C-341.77571213 270.36191772 -341.59634613 269.5180249 -341.4115448 268.64855957 C-338.72767943 256.16540691 -335.36198897 244.00191246 -330.27929688 232.2644043 C-329.397523 230.22774075 -328.5457091 228.17783944 -327.72460938 226.1159668 C-316.1011241 197.44924799 -297.83699222 170.27542703 -275.52539062 148.7722168 C-273.1636718 146.41637289 -271.03357041 143.87080967 -268.86474609 141.33837891 C-267.04240542 139.30333086 -265.13746179 137.43841661 -263.15820312 135.55737305 C-258.83893272 131.26393382 -255.51417717 126.56938067 -252.14257812 121.51831055 C-240.23397662 104.13525957 -226.61349594 89.13424212 -209.70214844 76.51293945 C-208.03182264 75.26322951 -206.38010649 73.99183014 -204.72851562 72.7175293 C-177.21246174 51.879081 -141.35967311 36.77521651 -108.20507812 27.76831055 C-101.68494002 25.99483298 -95.82139391 23.37956264 -89.76757812 20.39331055 C-61.30588909 6.39413699 -31.66848993 -0.22395975 0 0 Z " fill="#020202" transform="translate(1506.955078125,210.794189453125)"/>
<path d="M0 0 C1.39290504 -0.01248528 1.39290504 -0.01248528 2.81394958 -0.02522278 C5.89578396 -0.04939515 8.97740693 -0.05810423 12.05932617 -0.06469727 C14.19683396 -0.07365892 16.33434108 -0.08278067 18.47184753 -0.09205627 C22.95846076 -0.10856909 27.44499917 -0.11625041 31.93164062 -0.11914062 C37.68213595 -0.12452318 43.43192838 -0.16218859 49.18222523 -0.20788479 C53.5994473 -0.23762338 58.0164996 -0.24486351 62.4338131 -0.24586678 C64.55373029 -0.25007633 66.67364767 -0.26253993 68.79346657 -0.28338432 C71.75997191 -0.31022853 74.72484163 -0.30549346 77.69140625 -0.29296875 C78.56795868 -0.30780304 79.44451111 -0.32263733 80.34762573 -0.33792114 C84.71216813 -0.28542437 86.47504813 -0.14206906 89.99906921 2.65635681 C93.73861476 7.51244503 94.37791698 10.5608357 94.35229492 16.55639648 C94.3684082 17.2950293 94.38452148 18.03366211 94.40112305 18.79467773 C94.40654919 24.94792763 93.33202447 29.67368932 89.17260742 34.45092773 C85.52530943 37.48088151 82.49434168 39.60318743 78.03979492 41.30639648 C77.32336983 42.61366742 76.66229088 43.95187775 76.03979492 45.30639648 C75.69218864 45.86447841 75.34458237 46.42256033 74.98644257 46.99755383 C70.50392596 55.04975833 71.49966988 64.38774667 71.55737305 73.31347656 C71.555185 75.24605078 71.55118495 77.17862366 71.54551697 79.1111908 C71.536974 83.26087672 71.54070483 87.41030356 71.55393982 91.55997658 C71.57433556 98.12964408 71.56427301 104.69905243 71.54968262 111.26872253 C71.52068942 126.40322676 71.53136515 141.53765408 71.54238129 156.67217255 C71.55206851 170.53978223 71.55327226 184.40725588 71.52250051 198.27484244 C71.50916854 204.79721179 71.51502809 211.31918951 71.53586578 217.84153521 C71.54488772 221.90983031 71.53734523 225.97797637 71.52545357 230.04625893 C71.52333311 231.92308565 71.52798311 233.79993506 71.54015923 235.67672348 C71.62219824 249.0851479 71.20620287 261.18936406 61.33276367 271.39624023 C52.8493525 278.46334085 43.80939536 280.1556564 33.03979492 279.30639648 C24.63436742 277.43984469 17.77574886 272.47421374 12.76138401 265.53801441 C7.60091146 256.9138178 8.36092729 247.91553461 8.44384766 238.20166016 C8.44194154 236.27056035 8.43778131 234.33946166 8.43154907 232.40837097 C8.42278498 228.26464652 8.42946194 224.121342 8.44820976 219.9776516 C8.47740684 213.41600755 8.46947964 206.85472173 8.45631409 200.29304504 C8.43568133 187.54326574 8.4512262 174.79366124 8.4717865 162.04389191 C8.49695078 145.82635245 8.5097089 129.6089114 8.48183018 113.39136869 C8.47191611 106.87845375 8.48191197 100.36597307 8.50773799 93.8531059 C8.51997165 89.78914373 8.51567645 85.72531486 8.50716019 81.66134834 C8.50662839 79.78815988 8.5128752 77.91495422 8.52670097 76.04181671 C8.69825772 57.36647144 8.69825772 57.36647144 0.03979492 41.30639648 C-2.70065721 39.42904757 -5.52330247 37.8060528 -8.40161133 36.15014648 C-12.38367344 33.28062997 -13.97090357 30.01163784 -14.96020508 25.30639648 C-15.13176072 22.49963361 -15.23652218 19.73918916 -15.27270508 16.93139648 C-15.30170898 16.18889648 -15.33071289 15.44639648 -15.3605957 14.68139648 C-15.42125808 9.39910338 -14.39639925 6.52673145 -10.96020508 2.30639648 C-7.86525221 -0.78855639 -4.15536441 0.00312925 0 0 Z " fill="#FCFCFC" transform="translate(1183.960205078125,871.693603515625)"/>
<path d="M0 0 C0.91884979 -0.00817749 1.83769958 -0.01635498 2.78439331 -0.02478027 C5.83371321 -0.04965038 8.88298652 -0.06615388 11.93237305 -0.08056641 C13.49240083 -0.08855192 13.49240083 -0.08855192 15.08394432 -0.09669876 C20.58801919 -0.12343658 26.09207132 -0.14281001 31.59619141 -0.15722656 C37.28611786 -0.17388159 42.97546592 -0.21866504 48.66517353 -0.26959801 C53.03605325 -0.30322506 57.40679488 -0.314799 61.77779198 -0.32045364 C63.87539277 -0.327178 65.97298411 -0.34243065 68.07045937 -0.36634445 C71.0057883 -0.39790286 73.93954652 -0.39804673 76.875 -0.390625 C77.74220169 -0.40703033 78.60940338 -0.42343567 79.50288391 -0.44033813 C83.9108676 -0.39469333 85.5844366 -0.24955947 89.12956238 2.61703491 C94.57720495 9.62604024 93.8926856 17.64074946 93.1315918 26.19287109 C91.71988235 33.40228805 86.5554389 36.3020248 80.7644043 40.25537109 C75.06711764 44.44803308 72.74106127 49.35047864 71.1315918 56.19287109 C70.95293482 58.99219971 70.86249265 61.68834261 70.8800354 64.48420715 C70.87706526 65.29167584 70.87409512 66.09914452 70.87103498 66.93108195 C70.86342906 69.62234086 70.86987499 72.31337931 70.8762207 75.00463867 C70.87346919 76.94016161 70.86978831 78.87568343 70.86524963 80.811203 C70.85714979 84.97285806 70.85496614 89.13445943 70.85719681 93.2961216 C70.86003443 99.881841 70.84566091 106.46745352 70.82821655 113.05314636 C70.78123317 131.77817177 70.75725171 150.50318973 70.75073242 169.22827148 C70.74697813 179.57495648 70.72891971 189.92152031 70.69563806 200.26815337 C70.67545624 206.80943589 70.67303808 213.35040523 70.68391824 219.89170611 C70.68653172 223.96866749 70.67249023 228.04544782 70.6538372 232.12236214 C70.64853041 234.00646554 70.64998601 235.89060261 70.6588726 237.77469254 C70.71870734 251.57878713 69.71499409 261.61082157 59.66674805 271.98583984 C52.16216484 278.51910565 44.5440214 280.030394 34.7253418 279.68115234 C26.85634716 278.61199546 20.80992466 274.61388081 15.1315918 269.19287109 C7.38078762 258.58331552 7.14361255 248.15351209 7.29272461 235.47875977 C7.28974171 233.53072419 7.28363581 231.58269131 7.27467346 229.63467407 C7.26211454 225.46739559 7.27131127 221.30095941 7.29798126 217.13374901 C7.34004826 210.53921623 7.33263834 203.94528139 7.31903076 197.35066223 C7.30330483 186.92108919 7.32042266 176.49187319 7.3517015 166.06234485 C7.40710994 147.37753552 7.41554129 128.69271656 7.39819789 110.00784093 C7.39354013 103.45704602 7.40623719 96.90658205 7.43330336 90.3558439 C7.44760412 86.28009256 7.44985576 82.20439379 7.44926262 78.12862015 C7.45163964 76.24406979 7.45918431 74.35951751 7.47237587 72.47501183 C7.48981703 69.89506833 7.48865222 67.31574601 7.48321533 64.73576355 C7.49283775 63.99723009 7.50246016 63.25869663 7.51237416 62.49778336 C7.45476071 54.62324278 5.345402 47.66167688 -0.05200195 41.81787109 C-2.75314861 39.4013614 -5.71406097 37.50989784 -8.81762695 35.64990234 C-12.10167213 33.31666643 -13.60206934 30.99188767 -14.8684082 27.19287109 C-15.14766321 23.73935325 -15.14580444 20.2814427 -15.1809082 16.81787109 C-15.20991211 15.87169922 -15.23891602 14.92552734 -15.26879883 13.95068359 C-15.30924054 9.52076082 -15.32462863 6.93975568 -12.97387695 3.09130859 C-8.96837929 -0.52032752 -5.14989168 0.02512186 0 0 Z " fill="#FDFDFC" transform="translate(1779.868408203125,871.80712890625)"/>
<path d="M0 0 C33.34980604 -0.41345363 33.34980604 -0.41345363 49 2 C50.96743907 2.28261368 52.93488768 2.56516097 54.90234375 2.84765625 C103.55595336 10.04005927 155.62834077 26.4897891 187.02734375 66.76953125 C197.58599551 81.09647821 207.69044619 98.94665476 213 116 C212.67 116.99 212.34 117.98 212 119 C203.45424982 109.54347826 203.45424982 109.54347826 199.5625 105 C192.10367967 96.47808344 183.96808973 88.90392606 175 82 C174.31228516 81.46826172 173.62457031 80.93652344 172.91601562 80.38867188 C146.74096355 60.27994088 117.86614526 47.87441519 85.875 39.8125 C59.27151375 33.08144452 35.18316982 19.17967268 10.97607422 6.54296875 C7.33616223 4.65582816 3.67526034 2.81718682 0 1 C0 0.67 0 0.34 0 0 Z " fill="#FAFAFA" transform="translate(1609,334)"/>
<path d="M0 0 C4.15658223 1.4966798 7.79915192 3.55771677 11.5 5.9375 C12.10730957 6.3279248 12.71461914 6.71834961 13.34033203 7.12060547 C19.43211235 11.13395802 24.92426994 15.72911114 30.37768555 20.56640625 C31.53888905 21.59252919 32.70795407 22.60978273 33.88208008 23.62109375 C44.25429852 32.5747272 54.21250032 42.27281825 62.68359375 53.05859375 C64.4766695 55.33546734 66.29731967 57.56634264 68.16015625 59.78515625 C87.92681473 83.35887093 106.22600709 108.1364516 115 138 C115.24411621 138.80711426 115.48823242 139.61422852 115.73974609 140.44580078 C121.5689688 160.57717702 120.49993015 181.26443577 120 202 C117.12219456 200.56109728 117.01523944 198.83082367 115.92578125 195.83203125 C115.51336182 194.72601562 115.10094238 193.62 114.67602539 192.48046875 C114.22606201 191.27003906 113.77609863 190.05960938 113.3125 188.8125 C102.04753838 159.18537608 86.7470084 131.54381339 68 106 C66.86304688 104.43572266 66.86304688 104.43572266 65.703125 102.83984375 C62.03164081 97.86190077 58.22242145 93.01760091 54.30249023 88.23461914 C51.51807834 84.83667215 48.75397197 81.42264919 46 78 C45.52272461 77.40912598 45.04544922 76.81825195 44.55371094 76.20947266 C36.08663181 65.60305691 29.86686456 53.96926962 23.57128906 41.98193359 C21.21336605 37.50715552 18.80506325 33.06094775 16.375 28.625 C15.93696045 27.82449219 15.4989209 27.02398437 15.04760742 26.19921875 C11.34677576 19.49994286 7.40086032 12.96269752 3.35107422 6.46923828 C0 1.0905614 0 1.0905614 0 0 Z " fill="#FAFAFA" transform="translate(1734,431)"/>
<path d="M0 0 C-3.0331688 0.9453369 -5.08099785 0.99586748 -8.17578125 0.328125 C-8.99095215 0.15958008 -9.80612305 -0.00896484 -10.64599609 -0.18261719 C-11.52594238 -0.36985352 -12.40588867 -0.55708984 -13.3125 -0.75 C-42.42774094 -6.52167724 -71.65965216 -8.63708651 -101 -3 C-101.89444824 -2.82839355 -102.78889648 -2.65678711 -103.71044922 -2.47998047 C-115.01282532 -0.23793848 -125.93858503 2.80387096 -136.87744141 6.40649414 C-145.23635171 9.14274869 -153.68446647 11.30663283 -162.23974609 13.33032227 C-164.9429246 13.98615268 -167.635102 14.67981551 -170.32843018 15.37475586 C-180.68600932 18.02699965 -191.13668171 20.1247139 -201.625 22.1875 C-203.42845287 22.5458847 -205.23183866 22.9046071 -207.03515625 23.26367188 C-208.76556507 23.60707296 -210.49603171 23.95018285 -212.2265625 24.29296875 C-213.02035309 24.45024948 -213.81414368 24.60753021 -214.63198853 24.76957703 C-218.7456129 25.57819827 -222.85992043 26.33582273 -227 27 C-223.5472152 22.08323444 -219.23568971 18.87382099 -214.4375 15.375 C-213.59396973 14.75963379 -212.75043945 14.14426758 -211.88134766 13.51025391 C-203.27030474 7.33161857 -194.36365718 1.95288183 -185 -3 C-184.09636719 -3.48178711 -183.19273438 -3.96357422 -182.26171875 -4.45996094 C-169.47664929 -11.18043008 -156.43508309 -16.52046977 -142.75 -21.0625 C-142.05880066 -21.29251709 -141.36760132 -21.52253418 -140.65545654 -21.75952148 C-92.0141594 -37.81145389 -41.20488543 -31.98939692 0 0 Z " fill="#FAFAFA" transform="translate(1691,301)"/>
<path d="M0 0 C0.33 0 0.66 0 1 0 C0.9278125 0.90234375 0.855625 1.8046875 0.78125 2.734375 C-2.29525699 44.84542811 2.3304759 88.62254523 17.25244141 128.33300781 C29.76309848 161.63917659 32.80358848 191.52342303 32 227 C29.79610754 224.95369827 28.3273856 223.04924406 26.95043945 220.38085938 C26.57607254 219.66160278 26.20170563 218.94234619 25.81599426 218.20129395 C25.41909897 217.42330444 25.02220367 216.64531494 24.61328125 215.84375 C24.19257858 215.02741089 23.77187592 214.21107178 23.33842468 213.36999512 C22.44546444 211.63307434 21.55547062 209.89462581 20.66821289 208.15478516 C19.34341606 205.56054047 18.00551746 202.97339433 16.66601562 200.38671875 C8.88481048 185.2574576 2.23089621 169.76195825 -3.6875 153.8125 C-4.06414795 152.80058594 -4.4407959 151.78867187 -4.82885742 150.74609375 C-9.75356316 137.3898075 -13.85940323 123.88616551 -17 110 C-17.15243164 109.35546875 -17.30486328 108.7109375 -17.46191406 108.046875 C-22.4080785 86.68115389 -20.40526605 65.27077589 -16 44 C-15.773125 42.85660156 -15.54625 41.71320313 -15.3125 40.53515625 C-12.17324327 26.54584343 -6.95246613 12.52971918 0 0 Z " fill="#FAFAFA" transform="translate(1223,443)"/>
<path d="M0 0 C2.63065055 1.31532528 2.94903518 2.57624555 4.21484375 5.21484375 C4.64740479 6.11364258 5.07996582 7.01244141 5.52563477 7.93847656 C5.99155029 8.9281543 6.45746582 9.91783203 6.9375 10.9375 C7.42984131 11.97745117 7.92218262 13.01740234 8.42944336 14.08886719 C13.64676762 25.21716284 18.40155491 36.52495525 23.11535645 47.87341309 C25.98441379 54.77031498 28.87265595 61.65924139 31.75616455 68.55010986 C32.93564658 71.37056798 34.11322775 74.1918139 35.29052734 77.01318359 C38.93446536 85.73792142 42.60523841 94.44748589 46.39161682 103.11141968 C61.63653645 138.00036975 69.34370251 172.81207718 64 211 C62 210 62 210 60.625 206.37109375 C60.07941997 204.72785663 59.53810945 203.08319865 59 201.4375 C49.9163068 174.77555526 37.77224598 149.09485079 24.36767578 124.33886719 C11.94438219 101.39059121 4.42420392 75.83632622 1 50 C0.91144745 49.33426971 0.8228949 48.66853943 0.73165894 47.9826355 C0.04221753 42.35042707 -0.13207105 36.82252589 -0.09765625 31.15234375 C-0.0962413 30.25504044 -0.09482635 29.35773712 -0.09336853 28.4332428 C-0.0878251 25.60129286 -0.07528358 22.76942555 -0.0625 19.9375 C-0.05747767 18.00325636 -0.05291606 16.06901147 -0.04882812 14.13476562 C-0.03787429 9.42314583 -0.02064953 4.71158687 0 0 Z " fill="#FAFAF9" transform="translate(1786,585)"/>
<path d="M0 0 C-2.68406622 2.1259141 -5.27009479 3.71894919 -8.38671875 5.12890625 C-9.23403564 5.51868652 -10.08135254 5.9084668 -10.9543457 6.31005859 C-11.85628662 6.72336426 -12.75822754 7.13666992 -13.6875 7.5625 C-44.13427063 21.8438409 -73.35836254 43.30368764 -93.88671875 70.25 C-96.81144717 74.05593126 -99.87760154 77.73990504 -102.9375 81.4375 C-107.75277319 87.25592455 -107.75277319 87.25592455 -112.515625 93.1171875 C-122.45414581 105.45096332 -133.29404927 116.3685251 -145 127 C-145.87914062 127.80566406 -146.75828125 128.61132812 -147.6640625 129.44140625 C-152.72916667 134 -152.72916667 134 -155 134 C-155 134.66 -155 135.32 -155 136 C-157.08203125 137.9453125 -157.08203125 137.9453125 -159.8125 140.125 C-161.15248047 141.21167969 -161.15248047 141.21167969 -162.51953125 142.3203125 C-165 144 -165 144 -168 144 C-159.69173224 123.26696158 -149.57189806 103.48289575 -137 85 C-136.15298048 83.72179482 -135.30665807 82.44312749 -134.4609375 81.1640625 C-125.40481415 67.59637916 -115.20859612 54.85751484 -104 43 C-103.16210938 42.10925781 -102.32421875 41.21851563 -101.4609375 40.30078125 C-74.96620747 12.9279838 -38.01500987 -1.3983723 0 0 Z " fill="#FAFAF9" transform="translate(1507,253)"/>
<path d="M0 0 C0.99 0.495 0.99 0.495 2 1 C1.32195312 2.02996094 0.64390625 3.05992187 -0.0546875 4.12109375 C-13.74008633 25.00998661 -26.19231028 46.4424394 -34.9375 69.9375 C-35.18330811 70.5960498 -35.42911621 71.25459961 -35.68237305 71.93310547 C-40.86589804 86.5608759 -43.98199205 101.41729207 -46.45184326 116.7013855 C-50.32072874 140.48965843 -55.83239061 163.05086144 -63.39794922 185.92163086 C-66.14289305 194.23189676 -68.66176459 202.56791095 -71 211 C-71.33 211 -71.66 211 -72 211 C-72.48495085 208.08419491 -72.96301802 205.16751246 -73.4375 202.25 C-73.57220703 201.44433594 -73.70691406 200.63867188 -73.84570312 199.80859375 C-75.83439624 187.48839735 -76.23743839 175.2055729 -76.25 162.75 C-76.25133942 161.96030823 -76.25267883 161.17061646 -76.25405884 160.35699463 C-76.24938678 147.58680065 -75.47053732 135.1534043 -73.41015625 122.53125 C-73.02082222 120.12850282 -72.67590813 117.72372201 -72.34375 115.3125 C-67.48828782 81.49372702 -54.79097409 49.83673119 -31 25 C-30.37867188 24.32710938 -29.75734375 23.65421875 -29.1171875 22.9609375 C-20.60049081 14.01662424 -10.16712843 6.93108981 0 0 Z " fill="#FAFAFA" transform="translate(1339,309)"/>
<path d="M0 0 C0.66 0 1.32 0 2 0 C2.23074219 0.55236328 2.46148438 1.10472656 2.69921875 1.67382812 C7.73126772 13.67715443 12.99507163 25.45332578 19 37 C19.38269043 37.74459473 19.76538086 38.48918945 20.15966797 39.25634766 C24.47698675 47.65606461 28.89872581 55.95792535 33.75 64.0625 C53.15773518 96.54714678 66.54414389 126.06683025 66.125 164.375 C66.11493716 165.99739023 66.10581722 167.61978659 66.09765625 169.2421875 C66.07593419 173.16161383 66.04159219 177.08073625 66 181 C65.34 181 64.68 181 64 181 C63.72961914 180.41847168 63.45923828 179.83694336 63.18066406 179.23779297 C57.66977781 167.43304041 51.93951491 155.82018672 45.62841797 144.42211914 C41.18703304 136.39236358 36.93578882 128.27253522 32.72631836 120.11914062 C30.26288898 115.34886676 27.79107379 110.58645672 25.23828125 105.86328125 C14.48644842 85.93951802 5.79107122 65.43840277 2 43 C1.690625 41.36998047 1.690625 41.36998047 1.375 39.70703125 C-0.79814838 26.5926844 -0.18027948 13.24776819 0 0 Z " fill="#F9F9F9" transform="translate(1187,631)"/>
<path d="M0 0 C2.76057256 2.40067054 3.92149292 4.73352267 5.27734375 8.109375 C5.70297607 9.15996094 6.1286084 10.21054687 6.56713867 11.29296875 C7.01935791 12.43378906 7.47157715 13.57460938 7.9375 14.75 C8.40969971 15.92691406 8.88189941 17.10382812 9.3684082 18.31640625 C10.65252572 21.52339723 11.92405106 24.73523048 13.19116211 27.94897461 C14.02098825 30.05322134 14.85319528 32.15651673 15.68554688 34.25976562 C17.09002965 37.81281105 18.48670073 41.36883847 19.87722778 44.92736816 C20.41646997 46.30672007 20.95705417 47.6855481 21.49899292 49.06384277 C22.2585196 50.99888667 23.01113017 52.93647452 23.76171875 54.875 C24.410802 56.54175781 24.410802 56.54175781 25.07299805 58.2421875 C26 61 26 61 26 64 C18.74 64 11.48 64 4 64 C-0.66510309 42.79498596 -2.33470285 21.63769252 0 0 Z " fill="#F6F6F5" transform="translate(1789,760)"/>
<path d="M0 0 C3.32736159 2.7568281 4.9276966 6.45841803 6.79296875 10.2578125 C7.31930656 11.31329788 7.31930656 11.31329788 7.85627747 12.3901062 C8.5944178 13.87309396 9.32968456 15.35751505 10.06225586 16.84326172 C11.1882536 19.12652813 12.32281903 21.40537238 13.45898438 23.68359375 C14.17498033 25.12475112 14.89049218 26.56614913 15.60546875 28.0078125 C15.94603806 28.69320099 16.28660736 29.37858948 16.63749695 30.08474731 C19 34.88281934 19 34.88281934 19 36 C13.39 36 7.78 36 2 36 C0.26057363 27.80278203 -0.25240816 20.17733574 -0.125 11.8125 C-0.11597656 10.66974609 -0.10695313 9.52699219 -0.09765625 8.34960938 C-0.07436393 5.5661769 -0.04165999 2.78320771 0 0 Z " fill="#F2F2F2" transform="translate(1192,788)"/>
<path d="M0 0 C0.66 0 1.32 0 2 0 C2.05872928 3.8124338 2.09383916 7.62474906 2.125 11.4375 C2.14175781 12.50677734 2.15851563 13.57605469 2.17578125 14.67773438 C2.21520778 21.12397159 1.66458433 26.76763898 0 33 C-0.33 33 -0.66 33 -1 33 C-1.02906612 28.43751341 -1.04682113 23.8750507 -1.0625 19.3125 C-1.07087891 18.01892578 -1.07925781 16.72535156 -1.08789062 15.39257812 C-1.09111328 14.14541016 -1.09433594 12.89824219 -1.09765625 11.61328125 C-1.10551147 9.89298706 -1.10551147 9.89298706 -1.11352539 8.13793945 C-1.01075807 5.29736223 -0.65316416 2.75956208 0 0 Z " fill="#2A2A2A" transform="translate(1223,455)"/>
<path d="M0 0 C4.77609498 1.64178265 8.79382904 4.26546702 13 7 C11.35 8.98 9.7 10.96 8 13 C4.48901975 8.98745115 2.23462006 4.79016959 0 0 Z " fill="#EBEBEA" transform="translate(1734,431)"/>
<path d="M0 0 C1.65 0 3.3 0 5 0 C5.69965443 1.26418246 6.38434763 2.53665402 7.0625 3.8125 C7.63677734 4.87404297 7.63677734 4.87404297 8.22265625 5.95703125 C9 8 9 8 8 11 C6.66072279 9.54712339 5.32873153 8.08752741 4 6.625 C3.2575 5.81289063 2.515 5.00078125 1.75 4.1640625 C0 2 0 2 0 0 Z " fill="#DDDDDD" transform="translate(1813,442)"/>
<path d="M0 0 C0.99 0 1.98 0 3 0 C3 3.3 3 6.6 3 10 C0.16671013 7.16671013 -0.7191375 5.64553172 -2 2 C-1.34 1.34 -0.68 0.68 0 0 Z " fill="#DBDAD9" transform="translate(1252,660)"/>
<path d="M0 0 C0.66 0.99 1.32 1.98 2 3 C1.0479279 4.00596297 0.08812654 5.00461563 -0.875 6 C-1.40867187 6.556875 -1.94234375 7.11375 -2.4921875 7.6875 C-4 9 -4 9 -6 9 C-5.34 7.35 -4.68 5.7 -4 4 C-3.34 4 -2.68 4 -2 4 C-2 3.34 -2 2.68 -2 2 C-1.34 2 -0.68 2 0 2 C0 1.34 0 0.68 0 0 Z " fill="#EDEEED" transform="translate(1140,836)"/>
<path d="M0 0 C0.66 0 1.32 0 2 0 C2.66 2.31 3.32 4.62 4 7 C2.02 7.99 2.02 7.99 0 9 C0 6.03 0 3.06 0 0 Z " fill="#C7C6C7" transform="translate(1187,631)"/>
<path d="M0 0 C0.33 0 0.66 0 1 0 C0.67 5.61 0.34 11.22 0 17 C-0.33 17 -0.66 17 -1 17 C-1 13.7 -1 10.4 -1 7 C-1.66 6.67 -2.32 6.34 -3 6 C-2.01 4.02 -1.02 2.04 0 0 Z " fill="#B2B2B2" transform="translate(1223,443)"/>
<path d="M0 0 C0.66 0.33 1.32 0.66 2 1 C1.38125 1.721875 0.7625 2.44375 0.125 3.1875 C-1.83666353 5.78381938 -2.95316 7.94671666 -4 11 C-4.99 10.67 -5.98 10.34 -7 10 C-3.535 5.05 -3.535 5.05 0 0 Z " fill="#1D1D1D" transform="translate(1207,388)"/>
<path d="M0 0 C5.61 0 11.22 0 17 0 C17 0.33 17 0.66 17 1 C13.04 1 9.08 1 5 1 C5 1.66 5 2.32 5 3 C2.525 2.01 2.525 2.01 0 1 C0 0.67 0 0.34 0 0 Z " fill="#D9DAD9" transform="translate(1609,334)"/>
<path d="M0 0 C0.66 0 1.32 0 2 0 C1.67 2.97 1.34 5.94 1 9 C-0.32 9.33 -1.64 9.66 -3 10 C-2.49287967 6.28111761 -1.88391785 3.26545761 0 0 Z " fill="#1D1D1D" transform="translate(1256,1120)"/>
<path d="M0 0 C2 3 2 3 3 6 C1.02 6.33 -0.96 6.66 -3 7 C-3.33 6.01 -3.66 5.02 -4 4 C-2.68 2.68 -1.36 1.36 0 0 Z " fill="#EDEDED" transform="translate(1815,436)"/>
<path d="M0 0 C5.28 0 10.56 0 16 0 C14.68 0.99 13.36 1.98 12 3 C11.34 2.67 10.68 2.34 10 2 C8.29636178 1.77377919 6.58671299 1.59111527 4.875 1.4375 C3.96492188 1.35371094 3.05484375 1.26992187 2.1171875 1.18359375 C1.41851563 1.12300781 0.71984375 1.06242188 0 1 C0 0.67 0 0.34 0 0 Z " fill="#BCBCBC" transform="translate(1491,253)"/>
<path d="M0 0 C0.66 0.66 1.32 1.32 2 2 C0.02 4.97 0.02 4.97 -2 8 C-2.66 7.34 -3.32 6.68 -4 6 C-3.34 4.68 -2.68 3.36 -2 2 C-1.34 2 -0.68 2 0 2 C0 1.34 0 0.68 0 0 Z " fill="#151615" transform="translate(1882,1162)"/>
<path d="M0 0 C0.66 0 1.32 0 2 0 C1.67 2.31 1.34 4.62 1 7 C0.34 7 -0.32 7 -1 7 C-1.625 5.1875 -1.625 5.1875 -2 3 C-1.34 2.01 -0.68 1.02 0 0 Z " fill="#101010" transform="translate(1803,611)"/>
<path d="M0 0 C4.875 1.75 4.875 1.75 6 4 C3.36 3.67 0.72 3.34 -2 3 C-1.34 2.67 -0.68 2.34 0 2 C0 1.34 0 0.68 0 0 Z " fill="#D5D5D5" transform="translate(1685,298)"/>
</svg>
