<?xml version="1.0" encoding="UTF-8"?>
<svg version="1.1" xmlns="http://www.w3.org/2000/svg" width="680" height="488">
<path d="M0 0 C224.4 0 448.8 0 680 0 C680 161.04 680 322.08 680 488 C455.6 488 231.2 488 0 488 C0 326.96 0 165.92 0 0 Z " fill="#F6F6F6" transform="translate(0,0)"/>
<path d="M0 0 C7.28100952 5.2787319 11.15696021 10.47088063 14 19 C14 49.36 14 79.72 14 111 C145.34 111 276.68 111 412 111 C412 80.64 412 50.28 412 19 C416.41473577 9.06684452 420.14241721 2.6498032 430 -2 C438.01435611 -4.53988159 447.21492903 -3.8248705 454.78125 -0.32421875 C462.35156681 4.1939809 466.27141568 10.81424704 469 19 C469.09797799 20.64398787 469.13923213 22.29163656 469.14717102 23.93852234 C469.15790398 25.4671566 469.15790398 25.4671566 469.16885376 27.02667236 C469.17288712 28.70282623 469.17288712 28.70282623 469.17700195 30.4128418 C469.18685875 32.17912682 469.18685875 32.17912682 469.19691467 33.98109436 C469.21666313 37.88712922 469.22831684 41.79315065 469.23828125 45.69921875 C469.24232998 47.04592217 469.24644694 48.39262538 469.25063133 49.73932838 C469.26968036 56.06860784 469.2839105 62.39787567 469.2922433 68.72717828 C469.30200708 76.02220067 469.32830495 83.31691894 469.36874419 90.61183423 C469.39895881 96.2569862 469.41371732 101.90205128 469.41702431 107.54728252 C469.41936925 110.91564328 469.4282559 114.28367906 469.45348549 117.65195274 C469.47783438 121.41494296 469.47691892 125.17714065 469.4699707 128.94018555 C469.48278076 130.04750031 469.49559082 131.15481506 469.50878906 132.29568481 C469.46113333 139.38650546 468.55581899 145.17515736 463.58801746 150.51880932 C458.05164225 155.44066741 453.05597373 156.29628202 445.86391735 156.26006222 C445.04506041 156.26386789 444.22620347 156.26767356 443.38253269 156.27159455 C440.62696234 156.28193588 437.87159702 156.27799948 435.11601257 156.27415466 C433.12511821 156.27860568 431.13422562 156.28391927 429.14333564 156.29002339 C423.66310355 156.30423003 418.1829281 156.30586617 412.70268023 156.30542648 C406.7959358 156.30707232 400.88921488 156.3201344 394.98248291 156.33161926 C382.73561059 156.35329552 370.48875218 156.36187711 358.2418634 156.36665427 C357.24338297 156.36704603 357.24338297 156.36704603 356.22473121 156.36744571 C355.55774741 156.36770598 354.89076361 156.36796626 354.20356818 156.36823442 C346.81344766 156.37131628 339.42333071 156.37782084 332.03321266 156.3844471 C309.71471043 156.40409458 287.39621206 156.42049939 265.07770061 156.42332363 C264.36381094 156.42341769 263.64992126 156.42351175 262.91439856 156.42360866 C260.02128908 156.42398715 257.12817959 156.42435114 254.23507011 156.42471164 C252.05751093 156.42498336 249.87995175 156.42526004 247.70239258 156.42553711 C246.98284406 156.42562513 246.26329554 156.42571315 245.52194253 156.42580384 C222.91083014 156.4287096 200.29980323 156.45080842 177.6887207 156.48706055 C152.28989708 156.52778112 126.89113169 156.55148215 101.49227363 156.55178314 C98.78426062 156.55187997 96.07624763 156.55204669 93.36823463 156.55226326 C92.36804994 156.55232943 92.36804994 156.55232943 91.34765949 156.55239694 C81.27928716 156.55344769 71.21099219 156.56807969 61.14264488 156.58978081 C49.69186485 156.61425323 38.24123496 156.62160547 26.79043587 156.60653328 C20.94640619 156.59934776 15.10267324 156.60029284 9.25867653 156.62294388 C3.90994109 156.64347704 -1.43826843 156.64098626 -6.78699782 156.62006903 C-8.72305178 156.61656333 -10.65914326 156.62152962 -12.595148 156.63577347 C-15.22620211 156.65388511 -17.85539633 156.64117918 -20.48639393 156.62082577 C-21.23884743 156.63338914 -21.99130093 156.64595251 -22.76655605 156.6588966 C-28.57672562 156.56262076 -32.4512783 154.55777702 -37 151 C-41.31376589 146.4591938 -43.24602432 142.12651204 -43.26069641 135.86566162 C-43.26778122 134.8536821 -43.27486603 133.84170258 -43.28216553 132.79905701 C-43.27968811 131.69973343 -43.27721069 130.60040985 -43.2746582 129.46777344 C-43.27976913 128.3013179 -43.28488007 127.13486237 -43.29014587 125.93305969 C-43.3040509 122.07511265 -43.30308404 118.21734413 -43.30078125 114.359375 C-43.30368568 112.35378397 -43.30659486 110.34819288 -43.310188 108.34260297 C-43.32127581 102.03518719 -43.32172556 95.72783096 -43.31567383 89.42041016 C-43.30964234 82.93057476 -43.32192557 76.44095662 -43.3432439 69.95115829 C-43.36090995 64.36623566 -43.36685316 58.78138186 -43.36360615 53.19643235 C-43.36180011 49.86667789 -43.36568895 46.53720131 -43.37832069 43.20745087 C-43.39069619 39.48806691 -43.38388548 35.76918105 -43.37231445 32.04980469 C-43.37995819 30.95857803 -43.38760193 29.86735138 -43.39547729 28.74305725 C-43.32227718 18.06451089 -40.99626813 10.92548374 -33.51171875 3.17578125 C-24.74636093 -4.417227 -10.10658668 -6.19235536 0 0 Z " fill="#000000" transform="translate(103,186)"/>
<path d="M0 0 C1.64996298 -0.00570846 3.29992202 -0.01267457 4.94987488 -0.02079773 C9.4148635 -0.03869279 13.8796552 -0.03756751 18.34466887 -0.03185534 C22.07959034 -0.02875784 25.81447431 -0.03486226 29.54939044 -0.04089409 C38.36482739 -0.05492605 47.18016741 -0.05338942 55.99560547 -0.04199219 C65.0729199 -0.0305153 74.14993873 -0.04458244 83.22721422 -0.07138866 C91.03640547 -0.09358185 98.84550418 -0.10017481 106.65472472 -0.09431225 C111.31186416 -0.09094976 115.96881421 -0.09331042 120.62592697 -0.11056328 C125.00751653 -0.12608788 129.38867002 -0.12201609 133.77024269 -0.10325813 C135.37215533 -0.0995873 136.97410067 -0.10263652 138.57598305 -0.11314392 C147.2741438 -0.16581336 155.00358456 0.00536565 162.73681641 4.40405273 C163.68301598 4.89045542 163.68301598 4.89045542 164.64833069 5.38668442 C167.23052566 7.03462142 168.58316046 8.71736302 169.25120163 11.70284462 C169.48019741 14.69465313 169.47857043 17.62004937 169.41796875 20.62011719 C169.41869196 21.7705334 169.41941517 22.92094961 169.42016029 24.10622692 C169.41568452 27.82730601 169.37001056 31.54657789 169.32275391 35.26733398 C169.31393129 37.56562431 169.30781078 39.86392665 169.30444336 42.16223145 C169.27299644 50.68052249 169.18922887 59.1985554 169.11181641 67.71655273 C168.98806641 86.75342773 168.86431641 105.79030273 168.73681641 125.40405273 C108.34681641 125.07405273 47.95681641 124.74405273 -14.26318359 124.40405273 C-14.59318359 115.49405273 -14.92318359 106.58405273 -15.26318359 97.40405273 C-20.15570757 83.94961179 -24.39354428 75.83887239 -37.26318359 69.40405273 C-37.36496409 62.4298963 -37.43480856 55.45593284 -37.48291016 48.48120117 C-37.50297185 46.11068565 -37.53022785 43.74021928 -37.56494141 41.36987305 C-37.61369777 37.95405922 -37.63620758 34.53890219 -37.65380859 31.12280273 C-37.67445374 30.07040405 -37.69509888 29.01800537 -37.71636963 27.93371582 C-37.71870356 20.20529224 -36.24282677 14.88217006 -31.18505859 8.97827148 C-30.46833984 8.3556543 -29.75162109 7.73303711 -29.01318359 7.09155273 C-28.30677734 6.45604492 -27.60037109 5.82053711 -26.87255859 5.16577148 C-18.45842841 -0.51502599 -9.76280284 -0.0304993 0 0 Z " fill="#010101" transform="translate(142.26318359375,106.595947265625)"/>
<path d="M0 0 C1.64188093 -0.00570998 3.28375789 -0.01267666 4.92562866 -0.02079773 C9.36363271 -0.03867316 13.80143844 -0.0375716 18.23946762 -0.03185534 C21.95216565 -0.02875591 25.664826 -0.03486419 29.37751865 -0.04089409 C38.13875553 -0.05491873 46.89989484 -0.0533947 55.66113281 -0.04199219 C64.68452504 -0.03050766 73.70762015 -0.04459694 82.73097324 -0.07138866 C90.49430966 -0.09357185 98.25755299 -0.1001773 106.02091885 -0.09431225 C110.65062519 -0.09094838 115.28014102 -0.09332001 119.90982056 -0.11056328 C124.26351497 -0.12607262 128.61677022 -0.1220329 132.97044754 -0.10325813 C134.56310571 -0.09958354 136.15579671 -0.10264765 137.74842453 -0.11314392 C148.17329308 -0.17657631 156.89637275 0.49447553 165.01171875 7.65405273 C165.62660156 8.17483398 166.24148438 8.69561523 166.875 9.23217773 C172.60495207 16.05413352 173.33414147 22.34077752 173.37109375 30.94702148 C173.39106415 32.57695793 173.39106415 32.57695793 173.41143799 34.23982239 C173.43159882 36.5248847 173.44107489 38.81006368 173.44042969 41.09521484 C173.44922161 44.59268886 173.52205432 48.08519777 173.59765625 51.58178711 C173.60938597 53.80768137 173.61732919 56.0335995 173.62109375 58.25952148 C173.64983582 59.30230759 173.67857788 60.34509369 173.70819092 61.41947937 C173.61880243 68.50022501 173.61880243 68.50022501 170.94836426 71.12490845 C168.91382371 72.39256989 166.86822145 73.39129594 164.69921875 74.40405273 C157.14533099 80.87881367 153.82166791 88.03670525 150.69921875 97.40405273 C150.36921875 106.31405273 150.03921875 115.22405273 149.69921875 124.40405273 C89.30921875 124.73405273 28.91921875 125.06405273 -33.30078125 125.40405273 C-33.46578125 106.38780273 -33.63078125 87.37155273 -33.80078125 67.77905273 C-33.87361328 61.77766113 -33.94644531 55.77626953 -34.02148438 49.59301758 C-34.05761719 42.25683594 -34.05761719 42.25683594 -34.06433105 38.82095337 C-34.07660518 36.4244295 -34.10472121 34.02795466 -34.14538574 31.63174438 C-34.20395894 27.99817295 -34.21203005 24.36761541 -34.20898438 20.73364258 C-34.23776924 19.66850119 -34.26655411 18.60335979 -34.29621124 17.50594139 C-34.21830909 10.56215347 -34.21830909 10.56215347 -31.77513123 7.47838211 C-29.70253913 5.79921142 -27.68754628 4.59076706 -25.30078125 3.40405273 C-24.65446495 3.07143086 -24.00814865 2.73880899 -23.34224701 2.39610767 C-15.9827073 -0.66681511 -7.82515618 -0.02463006 0 0 Z " fill="#010101" transform="translate(354.30078125,106.595947265625)"/>
<path d="M0 0 C23.23508124 -0.09028187 46.47002055 -0.16397131 69.70523262 -0.20724869 C80.49365644 -0.2278769 91.28196357 -0.25600255 102.0703125 -0.30175781 C111.47306581 -0.34161753 120.87573461 -0.36743092 130.27857006 -0.37635398 C135.2576696 -0.38157017 140.23652738 -0.39383565 145.21554947 -0.42292023 C149.90228819 -0.45007557 154.58868561 -0.45844473 159.27549553 -0.45243073 C160.99520536 -0.45353091 162.71492663 -0.46148413 164.43456841 -0.4768219 C166.78444407 -0.49675227 169.13303468 -0.4919289 171.48294067 -0.48101807 C173.45465587 -0.48654882 173.45465587 -0.48654882 175.46620369 -0.49219131 C179.61072146 0.085062 181.76697821 1.39175285 185 4 C186.375 6.25 186.375 6.25 187 8 C187.66 8 188.32 8 189 8 C189.4021875 7.1028125 189.4021875 7.1028125 189.8125 6.1875 C191.71162349 2.68911463 193.20036361 1.26654546 197 0 C199.38396733 -0.09269327 201.77052767 -0.12192405 204.15629578 -0.12025452 C204.88981492 -0.12110894 205.62333407 -0.12196337 206.37908107 -0.12284368 C208.84348428 -0.12449428 211.30781983 -0.11898397 213.7722168 -0.11352539 C215.53618366 -0.1132434 217.30015064 -0.11340148 219.06411743 -0.1139679 C223.85925164 -0.11425542 228.65436095 -0.10836599 233.44948936 -0.10139394 C238.45833444 -0.09515287 243.46718007 -0.094556 248.47602844 -0.09336853 C257.96387169 -0.09025744 267.45170345 -0.08204704 276.93954164 -0.07201904 C287.73988784 -0.06085102 298.54023458 -0.05534571 309.34058511 -0.05032361 C331.56039792 -0.03986425 353.78019497 -0.02152151 376 0 C376 14.52 376 29.04 376 44 C251.92 44 127.84 44 0 44 C0 29.48 0 14.96 0 0 Z " fill="#030303" transform="translate(128,242)"/>
<path d="M0 0 C12.87 0 25.74 0 39 0 C39.061875 6.001875 39.12375 12.00375 39.1875 18.1875 C39.22846802 21.01671021 39.22846802 21.01671021 39.27026367 23.90307617 C39.27903042 25.40803386 39.28667391 26.91299869 39.29296875 28.41796875 C39.30831665 29.1912854 39.32366455 29.96460205 39.33947754 30.76135254 C39.34170304 35.36888158 38.90590101 38.36390476 36 42 C32.31296857 44.45802095 29.39825909 44.40285195 25.125 44.4375 C24.41730469 44.47037109 23.70960938 44.50324219 22.98046875 44.53710938 C19.32153864 44.57458445 17.3518111 44.27654099 14.4519043 41.99707031 C11.44652846 38.32346743 10.25398211 34.97834933 8.88671875 30.48828125 C8.62744095 29.67884567 8.36816315 28.8694101 8.10102844 28.03544617 C7.28204648 25.46545599 6.48492227 22.88925049 5.6875 20.3125 C5.13350862 18.56923277 4.57818349 16.8263888 4.02148438 15.08398438 C0 2.40028746 0 2.40028746 0 0 Z " fill="#020202" transform="translate(510,353)"/>
<path d="M0 0 C12.87 0 25.74 0 39 0 C36.67903292 8.51021264 34.28938755 16.95111109 31.6875 25.375 C31.32205078 26.61894531 30.95660156 27.86289062 30.58007812 29.14453125 C26.92903075 40.86067291 26.92903075 40.86067291 21 44 C17.30859375 44.62890625 17.30859375 44.62890625 13.4375 44.5625 C12.15746094 44.56378906 10.87742187 44.56507813 9.55859375 44.56640625 C5.51178047 43.92229217 3.83547364 42.9093966 1 40 C-0.2737654 36.17870381 -0.12364186 32.59317169 -0.09765625 28.61328125 C-0.09664917 27.88894897 -0.09564209 27.1646167 -0.09460449 26.41833496 C-0.08937826 23.71637384 -0.07541698 21.0144353 -0.0625 18.3125 C-0.041875 12.269375 -0.02125 6.22625 0 0 Z " fill="#020202" transform="translate(83,353)"/>
</svg>
