<?xml version="1.0" encoding="UTF-8"?>
<svg version="1.1" xmlns="http://www.w3.org/2000/svg" width="2300" height="1856">
<path d="M0 0 C759 0 1518 0 2300 0 C2300 612.48 2300 1224.96 2300 1856 C1541 1856 782 1856 0 1856 C0 1243.52 0 631.04 0 0 Z " fill="#FEFEFE" transform="translate(0,0)"/>
<path d="M0 0 C65.67 0 131.34 0 199 0 C199 266.31 199 532.62 199 807 C-154.76 807 -508.52 807 -873 807 C-873 770.37 -873 733.74 -873 696 C-855.08074219 695.95101562 -837.16148437 695.90203125 -818.69921875 695.8515625 C-807.35611511 695.81618273 -796.01301611 695.7803192 -784.66992188 695.7421875 C-778.71085661 695.72218062 -772.75179096 695.70229635 -766.79272461 695.68261719 C-766.0458921 695.68014575 -765.29905959 695.67767431 -764.52959579 695.67512798 C-752.48551892 695.63545006 -740.44143272 695.60268958 -728.39732876 695.57250018 C-716.02926196 695.54134418 -703.66123463 695.50271715 -691.29321223 695.45720994 C-683.66655122 695.42938203 -676.03991894 695.40732442 -668.41322092 695.39273749 C-662.55695803 695.3809112 -656.70076314 695.35867112 -650.84454536 695.33261681 C-648.4480785 695.32356789 -646.05159627 695.31785709 -643.65511322 695.31578636 C-640.37455678 695.31244486 -637.09426794 695.29691629 -633.81376648 695.2784729 C-632.87307066 695.28040763 -631.93237484 695.28234237 -630.96317309 695.28433573 C-617.03783819 695.16788719 -606.15498352 692.07069589 -595.75 682.5 C-586.67302668 672.94529124 -582.85922039 662.02866985 -582.84178162 648.95144653 C-582.83437465 647.7615683 -582.83437465 647.7615683 -582.82681805 646.54765213 C-582.81150373 643.89912037 -582.80309893 641.25061274 -582.79467773 638.60205078 C-582.78509444 636.69970997 -582.77508409 634.79737128 -582.76467896 632.89503479 C-582.73767276 627.73647721 -582.71664001 622.57791053 -582.69667697 617.41932154 C-582.67479097 612.02610272 -582.64741507 606.63291184 -582.62062073 601.23971558 C-582.57072919 591.02950732 -582.52577723 580.81928352 -582.48259836 570.60904491 C-582.43319574 558.98395734 -582.37828883 547.35889781 -582.32291877 535.73383737 C-582.20915305 511.82258441 -582.10230224 487.91130455 -582 464 C-580.7038571 463.99945523 -579.4077142 463.99891047 -578.07229424 463.99834919 C-547.26165699 463.98428627 -516.45117183 463.94445126 -485.64061796 463.87314438 C-481.84325744 463.86437828 -478.04589647 463.85582835 -474.24853516 463.84741211 C-473.11461945 463.84489352 -473.11461945 463.84489352 -471.95779635 463.84232404 C-459.73904578 463.81569917 -447.52034212 463.8065622 -435.30156551 463.80395857 C-422.75151486 463.80089242 -410.20159922 463.77886951 -397.65160954 463.73947543 C-389.91585628 463.71578376 -382.18037303 463.70664406 -374.44458856 463.71648689 C-368.49943815 463.7224621 -362.55455726 463.70198344 -356.60947418 463.67193985 C-354.18040704 463.66373126 -351.75129382 463.66392728 -349.32223129 463.67340279 C-327.34033524 464.00264702 -327.34033524 464.00264702 -308.45068359 453.80224609 C-307.97195801 453.31062988 -307.49323242 452.81901367 -307 452.3125 C-306.46584473 451.78994629 -305.93168945 451.26739258 -305.38134766 450.72900391 C-301.04294167 446.3480254 -297.39696752 441.72337142 -295 436 C-294.62716527 435.11429793 -294.62716527 435.11429793 -294.24679852 434.2107029 C-291.06567545 425.37689404 -291.55878276 416.31294953 -291.56762695 407.05615234 C-291.55859992 405.14336518 -291.5482704 403.23058379 -291.53674316 401.31781006 C-291.50925767 396.14913012 -291.49990013 390.98056021 -291.49388909 385.81181669 C-291.4844834 380.40124402 -291.45827824 374.99075282 -291.43388367 369.58023071 C-291.39027534 359.34536541 -291.36169357 349.11051598 -291.33856028 338.87558615 C-291.31147822 327.21893889 -291.26756856 315.56237382 -291.22227156 303.90578532 C-291.12950645 279.93723482 -291.05778848 255.96865855 -291 232 C-289.70808904 231.99945523 -288.41617807 231.99891047 -287.08511829 231.99834919 C-256.38057838 231.98428869 -225.67619112 231.94446438 -194.9717349 231.87314438 C-191.18810689 231.86437819 -187.40447842 231.85582828 -183.62084961 231.84741211 C-182.49102636 231.84489352 -182.49102636 231.84489352 -181.33837839 231.84232404 C-169.16098466 231.81569339 -156.983638 231.80656179 -144.80621812 231.80395857 C-132.30024253 231.80089329 -119.79440247 231.77888029 -107.28848809 231.73947543 C-99.57883468 231.71577435 -91.86945229 231.70664833 -84.15976753 231.71648689 C-78.23638722 231.72245809 -72.31327776 231.70199818 -66.38996506 231.67193985 C-63.96854072 231.66372562 -61.54707016 231.663934 -59.12565041 231.67340279 C-46.60396557 231.71750314 -36.38485093 231.62674407 -25 226 C-23.00921768 225.30629243 -21.01111408 224.63234849 -19 224 C-19 223.34 -19 222.68 -19 222 C-13.52380952 217 -13.52380952 217 -11 217 C-10.74347656 216.48308594 -10.48695313 215.96617187 -10.22265625 215.43359375 C-9.26321857 213.52391427 -8.28872333 211.62179879 -7.30859375 209.72265625 C-6.68475523 208.50267605 -6.06106084 207.28262215 -5.4375 206.0625 C-5.12103516 205.45470703 -4.80457031 204.84691406 -4.47851562 204.22070312 C-1.35389778 198.07097757 -0.85078307 192.85097098 -0.84178162 186.03373718 C-0.83438713 184.84188812 -0.83438713 184.84188812 -0.82684326 183.6259613 C-0.81148295 180.95856947 -0.80311056 178.29120138 -0.79467773 175.6237793 C-0.78496074 173.68078051 -0.77481518 171.73778382 -0.76427555 169.79478931 C-0.73722967 164.59056463 -0.71605111 159.38633152 -0.69608307 154.1820755 C-0.67645972 149.29897785 -0.65155141 144.41591276 -0.6270752 139.53283691 C-0.55857043 125.25108244 -0.49855425 110.96928827 -0.4375 96.6875 C-0.293125 64.780625 -0.14875 32.87375 0 0 Z " fill="#FEFEFE" transform="translate(1452,524)"/>
<path d="M0 0 C1.06934955 -0.00507454 2.1386991 -0.01014909 3.24045318 -0.0153774 C5.00145649 -0.01612404 5.00145649 -0.01612404 6.79803562 -0.01688576 C8.04593154 -0.02126801 9.29382746 -0.02565027 10.5795384 -0.03016531 C14.04568528 -0.0421185 17.51181825 -0.04777637 20.97798169 -0.05234647 C24.71576385 -0.05830748 28.45352943 -0.06991624 32.19130039 -0.08063698 C41.22054344 -0.10515195 50.24979198 -0.11978805 59.27905807 -0.13269705 C61.83044833 -0.13641004 64.38183805 -0.14038319 66.93322778 -0.14444971 C82.78482792 -0.16969041 98.63642894 -0.19173858 114.48804474 -0.20417786 C118.15929194 -0.20710745 121.8305391 -0.21006913 125.50178623 -0.21308327 C126.41423293 -0.21382932 127.32667962 -0.21457537 128.26677621 -0.21534403 C143.03704477 -0.22798876 157.8071927 -0.26120023 172.57740491 -0.3028851 C187.75027161 -0.34535432 202.92307667 -0.36887876 218.09600264 -0.37409842 C226.61148775 -0.37750719 235.12678447 -0.38919895 243.64221096 -0.42220116 C250.89694954 -0.45027166 258.1514611 -0.4611705 265.40624975 -0.4500057 C269.10418114 -0.44483657 272.80163765 -0.44759064 276.49949932 -0.47247124 C280.51942144 -0.49929143 284.53830923 -0.48684408 288.55828953 -0.47098732 C289.71221524 -0.48486941 290.86614095 -0.49875149 292.0550341 -0.51305425 C306.44018007 -0.37389225 318.27674885 5.77857057 328.56208897 15.51201439 C332.31709136 19.3978531 334.76649076 23.13520003 336.74958897 28.13701439 C337.14146397 29.00326439 337.53333897 29.86951439 337.93708897 30.76201439 C339.61964336 35.6802503 339.87475997 40.54390321 339.8760888 45.70794666 C339.87884854 47.02379027 339.88160829 48.33963388 339.88445166 49.69535154 C339.8824639 51.15182186 339.88038444 52.60829205 339.87822342 54.06476212 C339.87957007 55.621274 339.88135396 57.17778556 339.88353565 58.7342965 C339.88827381 63.02809742 339.88676135 67.32187718 339.88425788 71.61567915 C339.88262766 76.28077577 339.88676325 80.94586781 339.89016706 85.61096299 C339.89532705 93.79271219 339.89673722 101.97445547 339.89571095 110.15620613 C339.89418856 122.32265793 339.89834211 134.48910317 339.90358557 146.6555537 C339.91326707 169.64661449 339.9160701 192.63767306 339.91664263 215.62873565 C339.91710177 233.37928945 339.91915802 251.12984237 339.92234325 268.88039589 C339.92324076 273.98565455 339.92413058 279.09091322 339.92501813 284.19617188 C339.92523918 285.46526774 339.92546023 286.73436359 339.92568797 288.0419169 C339.93184391 323.74897953 339.93579425 359.45604187 339.9353447 395.16310501 C339.93532892 396.52351409 339.93531318 397.88392318 339.93529749 399.24433226 C339.9352241 405.38654853 339.93513593 411.52876479 339.9350436 417.67098105 C339.93500248 420.40998625 339.93496233 423.14899145 339.93492229 425.88799665 C339.93490189 427.25891822 339.93488087 428.6298398 339.93485923 430.00076138 C339.93417889 473.35689217 339.94149781 516.71301479 339.95539951 560.0691433 C339.95890047 570.99377439 339.96236991 581.91840549 339.96566391 592.84303665 C339.96596822 593.85201789 339.96596822 593.85201789 339.96627868 594.88138259 C339.97716342 631.19036749 339.97914113 667.4993528 339.97843629 703.80833924 C339.97836166 708.91422661 339.97831295 714.02011398 339.97828197 719.12600136 C339.97827032 720.38324991 339.97825867 721.64049846 339.97824666 722.93584545 C339.97821585 743.19500265 339.98460997 763.45415296 339.99321424 783.71330811 C340.00167817 804.06240603 340.00269057 824.41149386 339.99610492 844.76059256 C339.99240093 856.85879335 339.99426687 868.95696352 340.00404726 881.05516107 C340.01002472 889.12948041 340.0087768 897.20377746 340.00157676 905.27809575 C339.99767631 909.88312866 339.99697378 914.4881021 340.00503411 919.09313093 C340.01230026 923.28095492 340.01039146 927.46866982 340.00111024 931.65648892 C339.99938635 933.16346952 340.00102568 934.6704586 340.00641145 936.17743056 C340.05693769 951.32752151 337.22933351 963.74998815 326.37458897 975.13701439 C313.56802403 986.96846017 299.66068639 987.57911462 283.10292912 987.51453781 C281.08018755 987.51766886 279.05744767 987.52211383 277.03471154 987.52775091 C271.46500063 987.5394479 265.89544544 987.53243541 260.32573702 987.52241705 C254.27059195 987.51481684 248.21547101 987.52458278 242.16032934 987.53214705 C231.54412024 987.54299328 220.92796264 987.5427478 210.31175518 987.53500557 C198.92160879 987.52674953 187.53148921 987.52501261 176.14134121 987.53121758 C175.06190784 987.53179885 175.06190784 987.53179885 173.96066773 987.53239187 C171.02972112 987.5339917 168.09877454 987.53563782 165.16782799 987.5373427 C137.87239892 987.55320875 110.57698782 987.55428767 83.28155613 987.54590034 C82.47283072 987.54565196 81.66410531 987.54540357 80.83087306 987.54514766 C79.6158448 987.54477448 79.6158448 987.54477448 78.37627052 987.54439375 C53.70526207 987.53682625 29.03426105 987.53486908 4.36325169 987.53846169 C2.71159825 987.53869412 1.05994481 987.53892559 -0.59170863 987.5391561 C-7.22890785 987.54008748 -13.86610707 987.54104348 -20.50330628 987.54203539 C-39.05738213 987.5447865 -57.61145799 987.54649824 -76.16553402 987.5473938 C-77.01046444 987.54743474 -77.85539487 987.54747567 -78.72592924 987.54751785 C-105.65176726 987.5487458 -132.57760269 987.54536439 -159.5034399 987.53884506 C-160.37684081 987.53863432 -161.25024172 987.53842357 -162.15010933 987.53820643 C-176.3338517 987.53477153 -190.51759401 987.53111317 -204.70133632 987.52743591 C-260.95679678 987.51286675 -317.21223582 987.51354296 -373.46769619 987.52812767 C-387.64425816 987.5317912 -401.82082013 987.53542433 -415.99738216 987.53884506 C-416.87026768 987.53905641 -417.7431532 987.53926775 -418.6424898 987.5394855 C-445.54008956 987.54595339 -472.43768753 987.548697 -499.33528805 987.5473938 C-500.60175469 987.54733267 -500.60175469 987.54733267 -501.89380653 987.54727031 C-520.42721909 987.5463329 -538.96063146 987.54443203 -557.49404383 987.54166229 C-564.12533321 987.54067485 -570.7566226 987.53973561 -577.38791199 987.53881016 C-579.03762582 987.53857799 -580.68733966 987.5383418 -582.33705349 987.53810157 C-607.00193718 987.53451977 -631.66681249 987.5375721 -656.33169513 987.54514766 C-657.54478325 987.54552024 -657.54478325 987.54552024 -658.7823782 987.54590034 C-659.58961376 987.54614839 -660.39684932 987.54639644 -661.22854657 987.546652 C-688.44472348 987.55492352 -715.66087883 987.55188924 -742.87705266 987.53605811 C-745.79875618 987.53440103 -748.72045972 987.53279092 -751.64216328 987.53121758 C-752.35920593 987.53082695 -753.07624859 987.53043633 -753.81501981 987.53003388 C-765.17518063 987.52411352 -776.53531465 987.52823981 -787.89547305 987.53652459 C-799.06207223 987.54445471 -810.2286265 987.54143199 -821.3952236 987.52748233 C-827.37009026 987.52032318 -833.3448552 987.51795315 -839.31971878 987.52870028 C-844.75281248 987.53837357 -850.185714 987.53429953 -855.61879363 987.5191583 C-857.57429367 987.51613133 -859.52980955 987.51814953 -861.48529706 987.52577611 C-877.210008 987.58276266 -890.02411093 986.05551622 -902.06291103 974.82451439 C-914.50822369 961.417386 -915.99234572 944.70990144 -915.88151455 927.38481712 C-915.88666256 925.32504729 -915.89395045 923.26528187 -915.90319729 921.20552635 C-915.92160583 915.6497064 -915.90883994 910.09437051 -915.88910699 904.53857112 C-915.87263393 898.70305879 -915.88154527 892.86757504 -915.88662624 887.03204918 C-915.89113719 877.23663733 -915.87533841 867.44141706 -915.84733486 857.64604759 C-915.81527872 846.34651063 -915.81530558 835.04731887 -915.83254963 823.74775738 C-915.84845218 812.84368877 -915.84165774 801.93974584 -915.82461262 791.03568268 C-915.81776819 786.41039783 -915.81874767 781.78521451 -915.82615757 777.15993118 C-915.83385874 771.70713934 -915.82156967 766.25473707 -915.79430866 760.80201149 C-915.78746415 758.8095134 -915.78728422 756.81697865 -915.79452419 754.82448196 C-915.85114025 737.20362176 -913.51877554 722.52970284 -900.81291103 709.26201439 C-893.44530399 702.27506704 -882.33560186 696.00880515 -871.94569016 696.01396656 C-871.06190132 696.01197551 -870.17811249 696.00998446 -869.26754218 696.00793308 C-868.29576174 696.01084592 -867.32398129 696.01375876 -866.32275295 696.01675987 C-864.77532525 696.01547824 -864.77532525 696.01547824 -863.19663638 696.01417071 C-859.7234143 696.01251735 -856.25024002 696.01803496 -852.77702236 696.023489 C-850.29385282 696.02377093 -847.81068319 696.02361303 -845.32751369 696.02304649 C-839.97295226 696.02281842 -834.61840583 696.02566358 -829.2638483 696.03128433 C-821.52202495 696.03940574 -813.7802075 696.04201521 -806.03838035 696.04327232 C-793.47827591 696.04546183 -780.91817796 696.05211919 -768.35807705 696.06157494 C-756.15592894 696.07075166 -743.9537826 696.07783122 -731.75163174 696.08208275 C-730.62372966 696.08247683 -730.62372966 696.08247683 -729.47304169 696.08287888 C-725.70086765 696.0841839 -721.92869359 696.08544761 -718.15651953 696.08669078 C-686.85447865 696.09706025 -655.55244583 696.11475008 -624.25041103 696.13701439 C-624.25409821 695.14825184 -624.25778538 694.15948929 -624.26158428 693.14076424 C-624.35048784 669.05234002 -624.41616401 644.96393715 -624.45765972 620.87538338 C-624.47826149 609.22620618 -624.50633651 597.57713753 -624.55216885 585.92803001 C-624.59210959 575.77150912 -624.61786118 565.61506688 -624.62676501 555.45846963 C-624.63196748 550.08347538 -624.6441455 544.70870607 -624.67333126 539.3337841 C-624.70061471 534.26783504 -624.70882998 529.20220216 -624.70284176 524.1361866 C-624.70393623 522.28354355 -624.71181266 520.43088921 -624.72723293 518.57831001 C-624.85192392 502.81609719 -622.63233842 488.89350542 -611.19572353 477.00029564 C-606.17261363 472.47949673 -601.08135986 469.27061801 -594.68791103 467.01201439 C-593.75849697 466.67943626 -592.82908291 466.34685814 -591.87150478 466.00420189 C-588.08087266 464.75007323 -584.82705393 464.0119763 -580.82264233 464.01396656 C-579.49397251 464.01097999 -579.49397251 464.01097999 -578.13846087 464.00793308 C-577.16959327 464.01084592 -576.20072567 464.01375876 -575.20249844 464.01675987 C-574.17002554 464.01590545 -573.13755265 464.01505102 -572.0737927 464.01417071 C-568.60367664 464.01251961 -565.1336086 464.01803127 -561.66349697 464.023489 C-559.18017993 464.02377098 -556.6968628 464.02361293 -554.2135458 464.02304649 C-548.8617303 464.02281855 -543.50992983 464.02566056 -538.15811825 464.03128433 C-530.4202909 464.03941008 -522.68246944 464.04201566 -514.94463828 464.04327232 C-502.39063471 464.04546115 -489.83663764 464.05211666 -477.2826376 464.06157494 C-465.08732543 464.07075342 -452.89201502 464.07783213 -440.6967001 464.08208275 C-439.9450281 464.08234547 -439.19335611 464.0826082 -438.41890618 464.08287888 C-434.64800277 464.08418391 -430.87709935 464.08544762 -427.10619593 464.08669078 C-395.82092957 464.09705813 -364.53567129 464.11474617 -333.25041103 464.13701439 C-333.25317641 462.65468771 -333.25317641 462.65468771 -333.25599766 461.14241505 C-333.30039582 437.09744368 -333.33326213 413.05247764 -333.35403538 389.00747395 C-333.36434816 377.3794967 -333.37840857 365.75154652 -333.40128994 354.12358665 C-333.42122371 343.98872232 -333.43412746 333.85387759 -333.43858802 323.7189942 C-333.44119541 318.3526174 -333.44732405 312.98629671 -333.46187115 307.6199379 C-333.47545479 302.56801997 -333.47963206 297.51618121 -333.4766264 292.46424675 C-333.47717621 290.6111292 -333.48114897 288.75800897 -333.48882198 286.90490723 C-333.49879546 284.37178211 -333.49637115 281.8389546 -333.49092007 279.30582237 C-333.49965859 278.20997768 -333.49965859 278.20997768 -333.50857365 277.0919947 C-333.43834729 264.98992171 -327.7354166 254.34373121 -319.87541103 245.44951439 C-309.00099963 235.86967578 -299.16544493 231.80872418 -284.6835165 231.89650536 C-283.64354236 231.89479651 -282.60356821 231.89308766 -281.5320797 231.89132702 C-278.06051503 231.88804272 -274.58914528 231.89901848 -271.11759853 231.90996361 C-268.62383942 231.91052795 -266.13007998 231.91021071 -263.63632107 231.9090786 C-258.27418943 231.90862372 -252.91211803 231.91428262 -247.5500021 231.92555428 C-239.79738759 231.94184033 -232.04479659 231.94702045 -224.29216683 231.94953026 C-211.71264241 231.9539025 -199.133144 231.96719879 -186.55363369 231.98613548 C-174.33716365 232.00450649 -162.1207007 232.01865702 -149.90421963 232.02715111 C-148.77380749 232.02793928 -148.77380749 232.02793928 -147.62055874 232.02874337 C-143.83975383 232.03135353 -140.05894887 232.03388093 -136.27814388 232.03636718 C-104.93554736 232.057085 -73.59298315 232.09244683 -42.25041103 232.13701439 C-42.25502 231.1440199 -42.25962896 230.15102541 -42.26437759 229.12794018 C-42.37553232 204.93069763 -42.45761413 180.73348833 -42.50947189 156.53604412 C-42.53521855 144.83417545 -42.57030145 133.13247575 -42.6276083 121.43071556 C-42.67755154 111.22767287 -42.70972775 101.02475261 -42.72085351 90.82159108 C-42.72735375 85.42247651 -42.74255735 80.02371208 -42.77906132 74.62471008 C-42.81319338 69.53490922 -42.82342938 64.44560018 -42.81594944 59.35569572 C-42.81731632 57.49540019 -42.8271456 55.63508689 -42.84643841 53.7748909 C-43.00251428 37.93915001 -40.39574001 25.28523375 -29.25041103 13.13701439 C-20.90702775 5.81652743 -11.31116305 0.02852977 0 0 Z M48.74958897 90.13701439 C48.53951172 153.53223197 48.53951172 153.53223197 48.36164951 216.92754173 C48.31172276 229.19682884 48.31172276 229.19682884 48.28457737 234.94307518 C48.26666173 238.95098096 48.25703915 242.958814 48.25247288 246.96675682 C48.24636803 252.08517251 48.22598397 257.20334754 48.19542754 262.32167363 C48.18663657 264.1963283 48.18278729 266.07101451 48.18454969 267.94568896 C48.19204981 279.3939094 48.1127377 289.64666872 41.62458897 299.57451439 C39.94631781 302.1754172 38.73358362 304.18503042 37.74958897 307.13701439 C35.93708897 308.13701439 35.93708897 308.13701439 33.74958897 309.13701439 C31.5221511 310.55679348 31.5221511 310.55679348 29.74958897 312.13701439 C29.74958897 312.79701439 29.74958897 313.45701439 29.74958897 314.13701439 C28.86954543 314.4137238 27.9895019 314.69043322 27.08279037 314.97552776 C23.82732923 316.03304559 23.82732923 316.03304559 21.18827629 317.40289402 C9.96769267 322.74157993 -1.78786636 321.8440007 -13.95085049 321.79643822 C-16.44535527 321.80490036 -18.93985345 321.81554854 -21.43434048 321.82820702 C-26.782815 321.85046964 -32.13097768 321.85768597 -37.47947025 321.8508606 C-45.21220021 321.84101918 -52.9446767 321.858863 -60.67736556 321.88322791 C-73.22637796 321.92202734 -85.77531734 321.93877509 -98.32438564 321.94145775 C-110.50671535 321.94410968 -122.68895985 321.9572698 -134.87126064 321.9844265 C-135.62355512 321.98609988 -136.37584959 321.98777325 -137.15094087 321.98949734 C-140.92539305 321.99795748 -144.69984473 322.00662278 -148.47429621 322.01539004 C-179.73299188 322.08773252 -210.99163172 322.12383332 -242.25041103 322.13701439 C-242.25187759 323.12577694 -242.25334415 324.11453949 -242.25485516 325.13326454 C-242.29149371 349.22180935 -242.35100043 373.3102156 -242.43431377 397.3986454 C-242.4740777 409.04776546 -242.50648367 420.69681821 -242.52140713 432.34599876 C-242.53443732 442.50259614 -242.56143701 452.65904527 -242.6050241 462.81555915 C-242.627608 468.19049798 -242.64332355 473.56525419 -242.64229488 478.94024467 C-242.64154647 484.00627972 -242.6595703 489.07191152 -242.69157887 494.13784218 C-242.70005086 495.99044898 -242.70184628 497.84310115 -242.69621372 499.69571877 C-242.6535484 515.89497064 -245.09454515 528.925452 -256.81291103 540.94951439 C-270.64468037 554.38324719 -285.98594569 553.86731827 -304.15617275 553.79643822 C-306.6606771 553.80490173 -309.16517486 553.81555054 -311.66966152 553.82820702 C-317.03667067 553.85045795 -322.40336915 553.85768948 -327.77039623 553.8508606 C-335.52989885 553.84101416 -343.28914912 553.85887117 -351.04861082 553.88322791 C-363.64143663 553.92201589 -376.23418969 553.9387744 -388.82707119 553.94145775 C-401.05106742 553.94411017 -413.27497876 553.95727526 -425.49894619 553.9844265 C-426.25396494 553.98609988 -427.00898369 553.98777325 -427.78688179 553.98949734 C-431.57504741 553.99795756 -435.36321252 554.00662284 -439.15137744 554.01539004 C-470.51771275 554.08771846 -501.8839924 554.12383112 -533.25041103 554.13701439 C-533.25372118 555.12431038 -533.25703133 556.11160637 -533.26044178 557.12882042 C-533.34145407 581.15751203 -533.43377521 605.18613995 -533.53793812 629.21474266 C-533.58804909 640.83481596 -533.63449225 652.45488225 -533.67228603 664.07500267 C-533.70523834 674.20368875 -533.74508754 684.33232026 -533.79320109 694.46094608 C-533.81843379 699.82341523 -533.84022467 705.18584832 -533.853755 710.54836082 C-533.86660456 715.59786272 -533.88869032 720.64724078 -533.91779423 725.69667435 C-533.92684735 727.54774129 -533.93255494 729.39882816 -533.93462467 731.24991608 C-533.93796324 733.78273437 -533.95348353 736.31520494 -533.97193813 738.84795189 C-533.9700034 739.57560218 -533.96806866 740.30325247 -533.9660753 741.05295277 C-534.0945328 752.89510531 -538.7148159 763.76631372 -546.75041103 772.44951439 C-557.84659688 782.84171261 -569.94595393 785.28002964 -584.70341396 785.29523277 C-585.73113745 785.30017075 -586.75886094 785.30510873 -587.81772757 785.31019634 C-591.24776112 785.32550583 -594.67777605 785.33391417 -598.10783291 785.34233665 C-600.57203744 785.35192033 -603.03624035 785.36193069 -605.50044155 785.37233543 C-610.79869959 785.39374862 -616.09695518 785.41220303 -621.3952322 785.42794037 C-629.0555534 785.45069878 -636.71584752 785.47883315 -644.37614566 785.50825965 C-656.80590182 785.55586258 -669.23566909 785.59914642 -681.6654501 785.63969994 C-693.73642243 785.67909208 -705.80738486 785.72053827 -717.87834072 785.76469994 C-718.6305725 785.76744944 -719.38280427 785.77019895 -720.15783095 785.77303177 C-726.04119303 785.79455222 -731.92455466 785.8161914 -737.80791616 785.83786809 C-766.62206111 785.94400072 -795.43623203 786.03978102 -824.25041103 786.13701439 C-824.25041103 822.76701439 -824.25041103 859.39701439 -824.25041103 897.13701439 C-470.49041103 897.13701439 -116.73041103 897.13701439 247.74958897 897.13701439 C247.74958897 630.82701439 247.74958897 364.51701439 247.74958897 90.13701439 C182.07958897 90.13701439 116.40958897 90.13701439 48.74958897 90.13701439 Z " fill="#010101" transform="translate(1403.2504110336304,433.8629856109619)"/>
<path d="M0 0 C0.66 0.33 1.32 0.66 2 1 C0.625 2.5 0.625 2.5 -1 4 C-1.66 4 -2.32 4 -3 4 C-3.061875 4.61875 -3.12375 5.2375 -3.1875 5.875 C-4 8 -4 8 -6.5625 9.25 C-7.366875 9.4975 -8.17125 9.745 -9 10 C-6.68116787 5.49115974 -3.93548431 3.06093224 0 0 Z " fill="#383736" transform="translate(798,906)"/>
</svg>
