<?xml version="1.0" encoding="UTF-8"?>
<svg version="1.1" xmlns="http://www.w3.org/2000/svg" width="2490" height="1696">
<path d="M0 0 C821.7 0 1643.4 0 2490 0 C2490 559.68 2490 1119.36 2490 1696 C1668.3 1696 846.6 1696 0 1696 C0 1136.32 0 576.64 0 0 Z " fill="#FEFEFE" transform="translate(0,0)"/>
<path d="M0 0 C6.68354295 -0.47651253 10.87520575 2.41746664 16.29370117 6.07055664 C18.16043086 7.2782958 20.02762576 8.48531618 21.89526367 9.69165039 C22.81855469 10.29734863 23.7418457 10.90304688 24.69311523 11.52709961 C28.46797538 13.98068949 32.31373446 16.30827884 36.16870117 18.63305664 C49.36677889 26.66724782 62.43600551 34.91147125 75.52026367 43.12915039 C85.66747855 49.49560079 95.84860912 55.78595634 106.1394043 61.91772461 C113.27514464 66.18117235 120.30128483 70.60563039 127.31713867 75.06274414 C147.73413579 88.03172479 168.30201355 100.77428984 188.98120117 113.32055664 C197.52181606 118.5046601 205.99451675 123.78459459 214.43041992 129.13696289 C227.86735765 137.66135399 241.36930888 146.07839782 254.98120117 154.32055664 C263.38821699 159.41335747 271.71020317 164.62436224 279.99047852 169.92041016 C287.00475782 174.40549616 294.04672624 178.84445218 301.10620117 183.25805664 C302.56981079 184.17445923 302.56981079 184.17445923 304.06298828 185.109375 C305.00021729 185.69468994 305.93744629 186.28000488 306.90307617 186.88305664 C307.80477539 187.44637695 308.70647461 188.00969727 309.63549805 188.59008789 C313.23664045 190.79782344 316.89331763 192.90686367 320.56420898 194.99633789 C321.15556641 195.41270508 321.74692383 195.82907227 322.35620117 196.25805664 C322.35620117 196.91805664 322.35620117 197.57805664 322.35620117 198.25805664 C310.48139915 198.88684089 298.60637014 199.51124294 286.73120117 200.13305664 C285.85455685 200.17900089 284.97791252 200.22494514 284.07470322 200.27228165 C260.28359042 201.51859501 236.49350546 202.72575341 212.68774414 203.66186523 C211.83632339 203.6962822 210.98490265 203.73069916 210.10768127 203.76615906 C208.58397422 203.82747789 207.06016786 203.88641989 205.53623962 203.94197083 C201.81823968 204.0919298 198.1399025 204.36532372 194.43896484 204.75585938 C189.52687072 205.26861123 184.63437856 205.51626412 179.69995117 205.68774414 C177.80167198 205.75981125 175.90339746 205.83200153 174.00512695 205.90429688 C173.00709045 205.94126678 172.00905396 205.97823669 170.98077393 206.0163269 C151.13982341 206.7575575 131.30910533 207.66468237 111.48120117 208.69555664 C110.26439667 208.75869049 109.04759216 208.82182434 107.79391479 208.88687134 C91.7132155 209.72541057 75.63915358 210.65044877 59.56643677 211.62896729 C58.52768402 211.69219177 57.48893127 211.75541626 56.41870117 211.82055664 C55.38373505 211.88362 54.34876892 211.94668335 53.28244019 212.01165771 C35.08057141 213.11314366 16.87549211 213.88349967 -1.34667969 214.55688477 C-14.61814423 215.04886649 -27.88164356 215.61998755 -41.14379883 216.32055664 C-41.91994537 216.36084991 -42.69609192 216.40114319 -43.49575806 216.44265747 C-45.68067839 216.55677688 -47.86538863 216.67422669 -50.05004883 216.79321289 C-51.25983398 216.85903564 -52.46961914 216.9248584 -53.71606445 216.99267578 C-56.80346005 217.20127841 -59.8712989 217.4620319 -62.95092773 217.75585938 C-68.40552666 218.26250642 -73.85051458 218.54453643 -79.32348633 218.75805664 C-80.29810822 218.79866211 -81.2727301 218.83926758 -82.27688599 218.88110352 C-85.35742499 219.0093065 -88.43808734 219.13407265 -91.51879883 219.25805664 C-94.59236215 219.38218225 -97.66587638 219.50718778 -100.73928833 219.63500977 C-102.63932496 219.71401549 -104.53944679 219.79101235 -106.43966675 219.86547852 C-111.28497017 220.0667386 -116.11055489 220.35950022 -120.94458008 220.7487793 C-127.88344173 221.30093658 -134.82235639 221.62003019 -141.77661133 221.90649414 C-143.12099414 221.96384444 -144.46536437 222.02149014 -145.8097229 222.07940674 C-148.65521931 222.20187787 -151.50074954 222.32350502 -154.34631348 222.44439697 C-178.1029884 223.45578715 -201.84091574 224.61193538 -225.57452393 226.07977295 C-238.78711517 226.89464755 -251.96757934 227.52300677 -265.20166016 227.84448242 C-277.12700222 228.17908707 -289.00091777 229.08706197 -300.89620972 229.96606445 C-312.33683218 230.80679412 -323.73583109 231.49073962 -335.20629883 231.75805664 C-348.39729587 232.07176463 -361.53839052 232.80511509 -374.70629883 233.63305664 C-394.07452225 234.84761383 -413.44579883 235.86155312 -432.83129883 236.75805664 C-453.21062089 237.70277364 -473.58570228 238.70099636 -493.95629883 239.82055664 C-495.10157043 239.8833783 -496.24684204 239.94619995 -497.42681885 240.01092529 C-508.1413223 240.60029854 -518.85488187 241.2020995 -529.56567383 241.85571289 C-530.32103928 241.90149979 -531.07640472 241.94728668 -531.85466003 241.99446106 C-535.14395157 242.19423048 -538.43278562 242.39779708 -541.72119141 242.61181641 C-549.07390983 243.06817784 -556.41914286 243.35505748 -563.78225708 243.57928467 C-579.73271875 244.06545863 -595.64766974 244.89095071 -611.57525635 245.87191772 C-619.02570429 246.33024268 -626.47711356 246.77224112 -633.92895508 247.20727539 C-635.07499836 247.2741817 -635.07499836 247.2741817 -636.24419403 247.34243965 C-656.23796584 248.5031149 -676.2445713 249.38018334 -696.25411701 250.2182169 C-698.31825008 250.30483467 -700.38234202 250.39237857 -702.44642639 250.48014832 C-704.9456169 250.58584257 -707.44490939 250.68916719 -709.94432068 250.789505 C-714.90502905 250.99860058 -719.8384906 251.2481462 -724.77954102 251.74169922 C-732.1767259 252.45578864 -739.59696448 252.70368746 -747.01964951 253.0163269 C-765.43945179 253.79622115 -783.85091512 254.71444641 -802.26098633 255.69555664 C-803.44867867 255.75869049 -804.636371 255.82182434 -805.86005402 255.88687134 C-815.64147619 256.40701189 -825.4227066 256.93071579 -835.20385742 257.45593262 C-843.72276588 257.91335212 -852.24178159 258.36868675 -860.76098633 258.82055664 C-862.53907401 258.91493358 -862.53907401 258.91493358 -864.35308266 259.01121712 C-881.70239944 259.9287201 -899.05403395 260.73964173 -916.41219521 261.4693737 C-931.52090465 262.10493433 -946.61303295 262.88087391 -961.70629883 263.82055664 C-974.70653507 264.62859813 -987.69467355 265.32887767 -1000.71411133 265.74243164 C-1014.82619788 266.19294681 -1028.916895 266.91605283 -1043.01376343 267.69943237 C-1051.13212074 268.15018186 -1059.25122498 268.58722598 -1067.37036133 269.02368164 C-1068.70636037 269.09557111 -1068.70636037 269.09557111 -1070.06934929 269.16891289 C-1095.19434322 270.51841392 -1120.32504221 271.75555268 -1145.45526123 273.00311279 C-1188.39869664 275.13523864 -1231.33931943 277.31297721 -1274.27661133 279.56542969 C-1277.12876069 279.71503646 -1279.98091041 279.8646363 -1282.83306122 280.01421547 C-1284.67944212 280.11105221 -1286.52582173 280.20791341 -1288.37220001 280.30480003 C-1300.6574113 280.94918726 -1312.94316065 281.58164073 -1325.22973633 282.19946289 C-1326.65046694 282.27101084 -1328.07119754 282.34255929 -1329.4919281 282.41410828 C-1335.80064132 282.73152531 -1342.10946046 283.04666109 -1348.41845703 283.35839844 C-1360.56507279 283.95003333 -1360.56507279 283.95003333 -1372.69458008 284.81274414 C-1379.12018282 285.34269076 -1385.53913219 285.46510745 -1391.98358154 285.58963013 C-1411.14778838 285.97488521 -1430.26183215 287.06664924 -1449.3918457 288.24194336 C-1454.58996595 288.56083882 -1459.78913125 288.83984821 -1464.99035645 289.1026001 C-1467.37079417 289.24206219 -1469.73590288 289.44051826 -1472.10961914 289.66381836 C-1480.52870195 290.22046104 -1480.52870195 290.22046104 -1483.61572266 287.55615234 C-1485.2413547 285.20331087 -1486.43517388 282.84718661 -1487.64379883 280.25805664 C-1488.54067404 278.81246303 -1489.45851299 277.3796471 -1490.39770508 275.96118164 C-1491.33536493 274.47772969 -1492.27150698 272.99331752 -1493.20629883 271.50805664 C-1493.71878174 270.6951416 -1494.23126465 269.88222656 -1494.75927734 269.04467773 C-1500.77625711 259.48352455 -1506.70941253 249.87059083 -1512.64379883 240.25805664 C-1514.76773153 236.81989593 -1516.89277428 233.38242422 -1519.01879883 229.94555664 C-1519.5519873 229.08357666 -1520.08517578 228.22159668 -1520.63452148 227.33349609 C-1524.72137348 220.73301694 -1528.83603095 214.15021337 -1532.95629883 207.57055664 C-1538.90465443 198.07024444 -1544.79062078 188.53291175 -1550.65600586 178.98120117 C-1555.79827683 170.61422221 -1560.99021785 162.2793491 -1566.20361328 153.95654297 C-1570.26804321 147.46624544 -1574.30795004 140.96138962 -1578.33129883 134.44555664 C-1582.92330355 127.00981842 -1587.57078435 119.61149472 -1592.25244141 112.23193359 C-1596.20689034 105.98457441 -1600.06458533 99.68140066 -1603.89746094 93.35888672 C-1606.70646013 88.74057837 -1609.60401908 84.21030733 -1612.71801758 79.78930664 C-1613.64379883 78.25805664 -1613.64379883 78.25805664 -1613.64379883 76.25805664 C-1612.03444458 76.19074341 -1612.03444458 76.19074341 -1610.39257812 76.12207031 C-1597.1127163 75.56555932 -1583.83336482 74.99741312 -1570.55413818 74.42596436 C-1567.17448234 74.28084388 -1563.79479807 74.13642016 -1560.41509914 73.99230862 C-1553.10208585 73.68040898 -1545.78923107 73.36508937 -1538.47656918 73.04505062 C-1534.86429683 72.88703476 -1531.25198041 72.73033429 -1527.63949585 72.57723999 C-1513.86416117 71.9924884 -1500.10530895 71.35204643 -1486.35864258 70.26196289 C-1470.68166748 69.02301268 -1454.98392901 68.41554744 -1439.27313232 67.78833008 C-1433.10295529 67.54125642 -1426.93307796 67.28686349 -1420.76323509 67.03160286 C-1418.65442298 66.94512944 -1416.54552614 66.8610831 -1414.43659973 66.77745056 C-1406.35782277 66.44810098 -1398.29489989 66.0103945 -1390.22782898 65.47337341 C-1384.53651322 65.13145783 -1378.84303878 65.01782544 -1373.14379883 64.88305664 C-1357.29624919 64.46114136 -1341.47951109 63.57441203 -1325.65234375 62.68737793 C-1310.20510421 61.82624665 -1294.75800501 61.06636521 -1279.30004883 60.42993164 C-1278.48246597 60.39624355 -1277.66488312 60.36255547 -1276.82252502 60.32784653 C-1268.69758216 59.99411871 -1260.57234739 59.66830245 -1252.44670868 59.35197449 C-1249.41563028 59.23348304 -1246.38465179 59.11255067 -1243.35368347 58.9912796 C-1241.26839187 58.90894577 -1239.18297977 58.83045555 -1237.09753418 58.75213623 C-1231.63849118 58.5340916 -1226.28441357 58.26431264 -1220.87072754 57.49813843 C-1215.70622974 56.9413618 -1210.49484472 56.86940973 -1205.30545807 56.68802261 C-1203.0094751 56.60765191 -1200.7136904 56.52287408 -1198.41790771 56.4369812 C-1195.1246832 56.31402175 -1191.83140924 56.19255003 -1188.53808594 56.07226562 C-1164.39345028 55.18748312 -1140.26006039 54.2456526 -1116.14379883 52.75805664 C-1096.31778797 51.54173818 -1076.48767295 50.56081536 -1056.64379883 49.69555664 C-1055.91609535 49.66376312 -1055.18839188 49.6319696 -1054.43863678 49.59921265 C-1036.01881139 48.7954886 -1017.59728174 48.05502697 -999.17245483 47.37463379 C-978.73343878 46.61909095 -958.3127148 45.66191183 -937.88867188 44.57666016 C-913.16982491 43.26627262 -888.4461301 42.05971935 -863.7216835 40.86020279 C-860.39625493 40.69871108 -857.07084999 40.53674143 -853.74545288 40.37460327 C-830.88797605 39.26048427 -808.02982753 38.17319323 -785.16719818 37.17000961 C-768.32324797 36.43031149 -751.48139248 35.64914916 -734.63989258 34.85571289 C-733.33255409 34.7941482 -732.02521561 34.7325835 -730.6782608 34.66915321 C-723.92958604 34.35126586 -717.18092877 34.03300884 -710.43228149 33.71453857 C-696.21381202 33.04359426 -681.99527209 32.37415434 -667.77661133 31.70727539 C-667.08160688 31.67467526 -666.38660243 31.64207514 -665.67053723 31.60848713 C-642.30692269 30.51291815 -618.94164893 29.46732038 -595.5737915 28.46682739 C-572.25009509 27.46371134 -548.94016046 26.24502875 -525.62838745 25.00027466 C-498.406585 23.54886155 -471.17901495 22.34402798 -443.93870068 21.2973299 C-440.97908892 21.18335866 -438.01954954 21.06756423 -435.06001091 20.95171165 C-433.05820766 20.87436972 -431.05627366 20.80043471 -429.05433655 20.72663879 C-423.84826368 20.52427376 -418.66917561 20.29579722 -413.484375 19.77612305 C-405.89691146 19.03591752 -398.28159971 18.78953167 -390.66715813 18.47267342 C-387.7878033 18.35276279 -384.90861076 18.22944516 -382.0294342 18.10533142 C-374.86023359 17.79695671 -367.69080259 17.49408797 -360.5213623 17.19134521 C-353.50865718 16.89500396 -346.4960692 16.59607635 -339.48364258 16.29321289 C-338.00240874 16.22934576 -338.00240874 16.22934576 -336.49125099 16.16418839 C-323.31245714 15.59243548 -310.14619183 14.91076922 -296.98033142 14.09631538 C-286.08985841 13.42551607 -275.19880264 12.90535846 -264.29614258 12.47680664 C-263.52655401 12.44653822 -262.75696545 12.4162698 -261.96405602 12.38508415 C-255.72008571 12.1409207 -249.47581422 11.90483816 -243.23150635 11.66949463 C-225.66050151 11.00630867 -208.10746874 10.27921035 -190.55871773 9.16175842 C-172.02658703 7.98628232 -153.47683792 7.19920778 -134.92591858 6.38588715 C-130.9777373 6.21227957 -127.02965557 6.03646358 -123.08157349 5.86061668 C-101.11409392 4.88222916 -79.14571988 3.9279083 -57.1751709 3.02081299 C-42.12003064 2.39758153 -27.07609783 1.61877693 -12.03367615 0.74128723 C-10.04267455 0.62964928 -8.05087436 0.53254276 -6.05908203 0.43603516 C-4.03690892 0.33065491 -2.01533937 0.1967138 0 0 Z " fill="#010101" transform="translate(1940.643798828125,215.741943359375)"/>
<path d="M0 0 C0 49.83 0 99.66 0 151 C-4.869197 151.60864962 -9.44901947 152.14446572 -14.30712891 152.35717773 C-16.0829686 152.43747475 -16.0829686 152.43747475 -17.89468384 152.51939392 C-19.1592038 152.57357986 -20.42372375 152.62776581 -21.7265625 152.68359375 C-23.07817216 152.74426429 -24.4297649 152.805313 -25.78134155 152.86671448 C-30.76683199 153.09238845 -35.75261006 153.31140883 -40.73840332 153.53027344 C-57.55012679 154.26918568 -74.3410126 155.10189376 -91.13027954 156.26170349 C-103.74722459 157.13224312 -116.37090347 157.83240932 -129 158.5 C-130.17949219 158.56314392 -131.35898438 158.62628784 -132.57421875 158.69134521 C-151.63915906 159.71081123 -170.70772634 160.60265468 -189.78515625 161.35351562 C-190.68999756 161.39028412 -191.59483887 161.42705261 -192.52709961 161.4649353 C-194.18795476 161.53230365 -195.84892029 161.59703619 -197.51000977 161.65835571 C-198.25178467 161.68875946 -198.99355957 161.71916321 -199.7578125 161.75048828 C-200.3883252 161.77474884 -201.01883789 161.7990094 -201.66845703 161.82400513 C-203.70706635 161.97788811 -205.73819865 162.22504005 -207.76568604 162.48753357 C-211.83288583 163.00911842 -215.89610618 163.26802771 -219.99121094 163.44897461 C-220.74719574 163.48492233 -221.50318054 163.52087006 -222.28207397 163.5579071 C-223.91334508 163.63509352 -225.54468309 163.71087666 -227.1760788 163.78538322 C-229.78894194 163.90483845 -232.40159043 164.02829652 -235.01422119 164.15272522 C-241.51981532 164.46178229 -248.02570101 164.76449915 -254.53161621 165.06671143 C-260.89105056 165.36231928 -267.25032275 165.6611221 -273.609375 165.96484375 C-274.93989332 166.02824353 -274.93989332 166.02824353 -276.2972908 166.09292412 C-288.55706161 166.68165344 -300.79130123 167.42483737 -313.03042603 168.35079956 C-321.39747986 168.97952205 -329.73664996 169.36993429 -338.125 169.5625 C-340.56518694 169.62305374 -343.00529735 169.68678609 -345.4453125 169.75390625 C-346.47156738 169.77783447 -347.49782227 169.8017627 -348.55517578 169.82641602 C-351.26304016 169.96286475 -353.90143623 170.19261781 -356.59326172 170.48730469 C-362.74162122 171.1268421 -368.88622214 171.27854253 -375.0625 171.44921875 C-385.67559441 171.78079314 -396.27310622 172.23365848 -406.875 172.83203125 C-407.55312241 172.87025938 -408.23124481 172.90848751 -408.92991638 172.94787407 C-412.47172167 173.14834902 -416.01336753 173.35149418 -419.55493164 173.55618286 C-427.40071958 174.00952144 -435.24727038 174.44945235 -443.09375 174.890625 C-443.90654922 174.93641756 -444.71934845 174.98221012 -445.55677795 175.02939034 C-463.72049821 176.05196619 -481.88783667 177.0011398 -500.05622101 177.93664932 C-504.11871361 178.14586114 -508.18118189 178.35554425 -512.24365234 178.56518555 C-513.03916945 178.60623633 -513.83468655 178.64728712 -514.65431023 178.68958187 C-516.2480726 178.77182711 -517.84183468 178.85407799 -519.43559647 178.93633461 C-521.01021837 179.01759443 -522.58484147 179.0988311 -524.15946579 179.18004417 C-539.64883572 179.97905693 -555.13723893 180.79532244 -570.625 181.625 C-571.78006042 181.6868045 -572.93512085 181.74860901 -574.12518311 181.81228638 C-584.428263 182.36435805 -594.73117482 182.91753752 -605.03125 183.5234375 C-606.05859253 183.58382454 -606.05859253 183.58382454 -607.10668945 183.64543152 C-610.40318174 183.83946625 -613.69964668 184.03395837 -616.99609375 184.22875977 C-626.85887067 184.80132947 -636.7256404 185.28377841 -646.59375 185.75390625 C-647.63627237 185.80368685 -647.63627237 185.80368685 -648.6998558 185.85447311 C-655.76651277 186.19180619 -662.83326827 186.52668408 -669.9004631 186.85257053 C-671.9159084 186.94588167 -673.93129087 187.04044185 -675.94665527 187.13548279 C-678.43800092 187.25279021 -680.92945205 187.36788629 -683.42102051 187.48036194 C-688.15171731 187.70500125 -692.85013595 187.93970625 -697.55200195 188.51855469 C-703.14637177 189.19220629 -708.7504053 189.24793607 -714.37890625 189.38671875 C-736.08150629 190.02393635 -757.74963162 191.36776956 -779.42412186 192.61142349 C-785.36909706 192.95166437 -791.31431977 193.28752367 -797.25952148 193.6237793 C-811.17326514 194.41146897 -825.08667614 195.20493385 -839 196 C-842.82845015 196.21875641 -846.65690068 196.43750628 -850.48535156 196.65625 C-851.37138156 196.70688252 -852.25741156 196.75751505 -853.17029095 196.80968189 C-859.744173 197.18524653 -866.3181338 197.55941425 -872.89214802 197.9326582 C-877.2184871 198.17847178 -881.54467709 198.42671235 -885.87075901 198.67700863 C-899.22470246 199.44809159 -912.57110258 200.1206531 -925.93929672 200.58343983 C-934.06718137 200.88400926 -942.17237169 201.37715923 -950.28662109 201.92895508 C-965.94610498 202.97053237 -981.61408442 203.78536193 -997.28927207 204.55042839 C-1001.01438704 204.73293181 -1004.73934145 204.9186561 -1008.46430969 205.10412598 C-1019.45910682 205.65102053 -1030.45412833 206.19335058 -1041.44921875 206.73431396 C-1050.04317026 207.1571846 -1058.63704501 207.58151066 -1067.23072177 208.00993299 C-1070.90201247 208.19283338 -1074.57335049 208.37459928 -1078.24484825 208.55329895 C-1093.62684706 209.30233728 -1108.99159058 210.16498748 -1124.35068226 211.30062103 C-1133.76821654 211.99567205 -1143.18550065 212.54286942 -1152.6171875 213 C-1154.24608984 213.08116292 -1155.87498049 213.16256072 -1157.50386047 213.24417114 C-1161.75650162 213.45641026 -1166.00932323 213.6647787 -1170.26220322 213.87216949 C-1173.80634194 214.0455657 -1177.35034977 214.22156613 -1180.89436626 214.39743996 C-1202.31148353 215.45935487 -1223.72976402 216.49516898 -1245.15771484 217.31640625 C-1254.64144175 217.69139708 -1264.09591451 218.27287317 -1273.5625 218.95703125 C-1284.43990853 219.73789205 -1295.31257486 220.34335264 -1306.20703125 220.81640625 C-1306.9293009 220.84780952 -1307.65157055 220.8792128 -1308.39572716 220.91156769 C-1313.53443992 221.13364414 -1318.67344168 221.34859539 -1323.8125 221.5625 C-1329.0331537 221.78036648 -1334.25367995 222.00083626 -1339.47400475 222.22645378 C-1341.52332282 222.31390108 -1343.57277509 222.39739073 -1345.62226868 222.48060608 C-1351.08046394 222.71488164 -1356.45559803 222.99659084 -1361.86445618 223.75892639 C-1367.20915014 224.36226904 -1372.60945051 224.45790415 -1377.98046875 224.68359375 C-1379.35689454 224.74425178 -1380.73330316 224.80530062 -1382.10969543 224.86671448 C-1387.18743499 225.09248066 -1392.26544952 225.31176348 -1397.34350586 225.53027344 C-1402.30601071 225.74398881 -1407.26834587 225.96117765 -1412.23046875 226.18359375 C-1412.93210333 226.21495359 -1413.63373791 226.24631344 -1414.35663414 226.27862358 C-1425.66162743 226.78955626 -1436.94084862 227.50918609 -1448.22836304 228.32528687 C-1456.92547285 228.94795533 -1465.59563637 229.36250481 -1474.3125 229.5625 C-1476.76701551 229.62280435 -1479.22145047 229.68650137 -1481.67578125 229.75390625 C-1482.70614502 229.77783447 -1483.73650879 229.8017627 -1484.7980957 229.82641602 C-1487.8520982 229.99198184 -1490.84220997 230.35760177 -1493.87297058 230.75697327 C-1497.64458843 231.18790476 -1501.4272708 231.31508251 -1505.21875 231.46484375 C-1506.09747269 231.50235245 -1506.97619537 231.53986115 -1507.88154602 231.57850647 C-1509.77030829 231.65891516 -1511.65913032 231.73793003 -1513.54800415 231.81567383 C-1518.60914833 232.02454262 -1523.6697719 232.24544715 -1528.73046875 232.46484375 C-1530.27609749 232.5314772 -1530.27609749 232.5314772 -1531.85295105 232.59945679 C-1541.0356048 232.99694692 -1550.21652268 233.42504814 -1559.39648438 233.88040161 C-1560.95031632 233.9573199 -1562.50418736 234.03345449 -1564.05810547 234.10861206 C-1573.4471858 234.5634251 -1582.82770643 235.11088092 -1592.20849609 235.7137146 C-1607.90986716 236.72238116 -1623.61066322 237.53251813 -1639.33065796 238.20410156 C-1646.44222031 238.50932585 -1653.55321589 238.82700485 -1660.6640625 239.1484375 C-1661.4056555 239.18195061 -1662.1472485 239.21546371 -1662.91131401 239.24999237 C-1681.00838672 240.07111883 -1699.09808854 241.02630834 -1717.1875 242 C-1718.36667118 242.06335918 -1718.36667118 242.06335918 -1719.569664 242.12799835 C-1735.23289621 242.96965876 -1750.89539211 243.82428176 -1766.55680847 244.69909668 C-1770.44253389 244.9160493 -1774.32831662 245.13194869 -1778.21411133 245.34765625 C-1782.87825426 245.6065748 -1787.54210455 245.87005723 -1792.20581055 246.13671875 C-1794.28173021 246.25274871 -1796.35765748 246.36864263 -1798.43359375 246.484375 C-1799.33636047 246.53728699 -1800.2391272 246.59019897 -1801.16925049 246.64471436 C-1807.81098964 247.00958363 -1814.3188805 247 -1821 247 C-1821 195.85 -1821 144.7 -1821 92 C-1804.85339068 90.84667076 -1788.76694978 89.69996338 -1772.60546875 89 C-1770.78833946 88.91832494 -1768.97122665 88.83628277 -1767.15412903 88.75390625 C-1762.44313957 88.54112632 -1757.73197908 88.33244309 -1753.02075195 88.125 C-1744.6321062 87.75490206 -1736.24379537 87.37724898 -1727.85546875 87 C-1726.94283201 86.95908234 -1726.03019527 86.91816467 -1725.08990288 86.87600708 C-1707.76719764 86.09816674 -1690.45003379 85.22637181 -1673.13363266 84.31993103 C-1667.35121575 84.01733839 -1661.56835977 83.7246003 -1655.78515625 83.4375 C-1654.28059473 83.36206354 -1652.77603723 83.28654662 -1651.27148438 83.2109375 C-1649.15914504 83.10479713 -1647.04678581 82.99922844 -1644.93432617 82.89550781 C-1637.01724672 82.50586489 -1629.10438157 82.07738247 -1621.19433594 81.5625 C-1598.5162007 80.08702598 -1575.82787448 79.01598389 -1553.125 78 C-1545.7524693 77.66960738 -1538.38004465 77.33699303 -1531.0078125 77 C-1530.10758614 76.95891617 -1529.20735977 76.91783234 -1528.27985382 76.87550354 C-1515.60828473 76.29421634 -1502.9461751 75.6136488 -1490.28488541 74.84181213 C-1475.9191008 73.96766311 -1461.54735864 73.30405376 -1447.16876221 72.68109131 C-1439.99500001 72.37013157 -1432.82164989 72.04993645 -1425.6484375 71.7265625 C-1424.9518742 71.69518314 -1424.2553109 71.66380379 -1423.53763962 71.63147354 C-1411.27083487 71.07671829 -1399.01502162 70.40447768 -1386.76025391 69.63110352 C-1376.81791488 69.01341543 -1366.87778037 68.61856682 -1356.92041016 68.34130859 C-1355.86128418 68.3098877 -1354.8021582 68.2784668 -1353.7109375 68.24609375 C-1352.79618652 68.22216553 -1351.88143555 68.1982373 -1350.93896484 68.17358398 C-1347.90533222 68.03181176 -1347.90533222 68.03181176 -1344.54052734 67.52954102 C-1338.9394303 66.79820542 -1333.30794306 66.61395895 -1327.66840363 66.36924744 C-1325.59762255 66.27938387 -1323.52704837 66.18561557 -1321.45648193 66.09094238 C-1317.798495 65.92431486 -1314.1403669 65.76105909 -1310.48217773 65.59893799 C-1304.64352041 65.34014811 -1298.80500083 65.07847772 -1292.96666718 64.81248474 C-1290.9485896 64.72136714 -1288.93038116 64.63316244 -1286.91217041 64.54504395 C-1281.26415375 64.28952353 -1275.63419116 63.99551207 -1270.00195312 63.49780273 C-1263.71337263 62.94457572 -1257.4228831 62.65748048 -1251.11600494 62.3998127 C-1249.00583443 62.31344754 -1246.89582662 62.22374003 -1244.78582764 62.13328552 C-1238.79327385 61.87703306 -1232.800463 61.62700169 -1226.80761719 61.37768555 C-1208.21985728 60.60254147 -1189.65688327 59.65549617 -1171.09179688 58.45288086 C-1162.27335319 57.88252179 -1153.45149637 57.42360803 -1144.625 57 C-1142.97289171 56.91887772 -1141.32079238 56.83757294 -1139.66870117 56.75610352 C-1130.63781749 56.3126392 -1121.60613349 55.88671439 -1112.57421875 55.46484375 C-1110.67301401 55.37565768 -1108.77180958 55.28646503 -1106.87060547 55.19726562 C-1103.26166878 55.02803171 -1099.65261599 54.86168428 -1096.04345703 54.69726562 C-1089.07715061 54.37523044 -1082.12316204 54.04019648 -1075.171875 53.46875 C-1069.73473715 53.02478799 -1064.31249612 52.80840646 -1058.8596344 52.66673279 C-1046.95159582 52.35027039 -1035.06822192 51.88196037 -1023.17578125 51.18359375 C-1005.50087591 50.17054518 -987.82108598 49.25346821 -970.140625 48.34375 C-968.68710389 48.26892061 -967.2335828 48.19409087 -965.78006172 48.11926079 C-957.55232675 47.69579986 -949.32453884 47.27337427 -941.09672982 46.85135502 C-935.77963296 46.578593 -930.46256228 46.30532537 -925.14550781 46.03173828 C-924.39679779 45.99321432 -923.64808776 45.95469036 -922.87668955 45.91499901 C-922.12947591 45.87655184 -921.38226226 45.83810467 -920.61240578 45.79849243 C-902.40846577 44.86183255 -884.20433859 43.92888205 -866 43 C-864.8997625 42.94382507 -863.79952499 42.88765015 -862.66594696 42.82977295 C-841.58680254 41.754028 -820.50871157 40.7094886 -799.41748047 39.89550781 C-788.87086465 39.4848698 -778.3669555 38.90000073 -767.84765625 38.03125 C-757.50436205 37.18804799 -747.16811879 36.6360298 -736.80078125 36.21875 C-736.05135002 36.18857788 -735.30191879 36.15840576 -734.52977753 36.12731934 C-729.12426843 35.91160073 -723.7184154 35.70523779 -718.3125 35.5 C-712.16255443 35.26553322 -706.01278683 35.02700096 -699.86328125 34.78125 C-699.10902988 34.75123901 -698.35477852 34.72122803 -697.57767105 34.69030762 C-685.70996611 34.212521 -673.87063733 33.51645797 -662.02078247 32.70671082 C-652.76795955 32.0839962 -643.5209885 31.66755974 -634.25338745 31.34455872 C-624.60697557 31.00395747 -614.97944061 30.45991782 -605.34539795 29.87161255 C-582.19582108 28.46631383 -559.03709953 27.2394593 -535.875 26.0625 C-534.64855396 26.00008307 -534.64855396 26.00008307 -533.39733124 25.93640518 C-512.25886857 24.8618357 -491.11796625 23.85611599 -469.97265625 22.92578125 C-468.96752487 22.88149805 -467.96239349 22.83721485 -466.92680359 22.79158974 C-457.08579181 22.35845496 -447.24462288 21.92947226 -437.40290737 21.5126152 C-419.46733719 20.75138056 -401.55303591 19.91665897 -383.64471436 18.65867615 C-375.32496857 18.07488116 -367.02603706 17.6486674 -358.6875 17.4375 C-350.1297406 17.2486815 -350.1297406 17.2486815 -341.609375 16.50390625 C-335.2880685 15.72352463 -328.9235046 15.67534163 -322.5625 15.5 C-315.16856028 15.29555927 -307.84597368 15.04601363 -300.49291992 14.23193359 C-295.4672419 13.76435998 -290.41836949 13.70417172 -285.375 13.5625 C-274.198822 13.20283054 -263.05567794 12.6110486 -251.89819336 11.88122559 C-239.26415341 11.05913299 -226.62538076 10.327229 -213.984375 9.62109375 C-212.25940355 9.52470202 -212.25940355 9.52470202 -210.4995842 9.42636299 C-190.95483755 8.33981627 -171.40534407 7.37135809 -151.8515625 6.46484375 C-151.17339304 6.43338697 -150.49522359 6.4019302 -149.79650354 6.36952019 C-138.70078102 5.85519618 -127.60474772 5.3476892 -116.50868225 4.84082794 C-106.75374236 4.39517168 -96.99890009 3.94748216 -87.24424267 3.49568224 C-85.2358417 3.40277301 -83.22742304 3.3102541 -81.21900177 3.21778488 C-63.5111032 2.40781403 -63.5111032 2.40781403 -45.81542969 1.37158203 C-45.07995848 1.32348798 -44.34448727 1.27539392 -43.58672905 1.22584248 C-40.48849683 1.01978234 -37.39185881 0.80136917 -34.29605103 0.56150818 C-22.8015771 -0.26680264 -11.64668933 0 0 0 Z " fill="#010101" transform="translate(2286,443)"/>
<path d="M0 0 C0.15033691 0.91773193 0.30067383 1.83546387 0.45556641 2.78100586 C3.45122831 21.02329622 6.5179005 39.24579856 9.90673828 57.41967773 C11.34417257 65.17890985 12.64816363 72.94661389 13.8631897 80.74331665 C15.0704727 88.49008966 16.35138404 96.22354241 17.64685059 103.95599365 C18.08092386 106.54749397 18.51373368 109.13920294 18.94628906 111.73095703 C20.3787712 120.31179211 21.81430297 128.8921155 23.25146484 137.47216797 C24.25261753 143.4493349 25.25265354 149.42668728 26.25157642 155.40422726 C26.79982959 158.68451247 27.34892549 161.96465137 27.89920044 165.24459839 C30.02088768 177.89157232 32.11679897 190.53685414 33.98254395 203.22434998 C35.00408141 210.1365946 36.17675633 217.01551816 37.39071655 223.89682007 C40.346416 240.68478122 42.98962937 257.51680601 45.55175781 274.36889648 C46.73523908 282.11973997 47.93438386 289.85189069 49.42578125 297.55078125 C52.02678617 311.07309495 53.97971075 324.71384178 56.09326172 338.31884766 C58.99662374 357.00170363 58.99662374 357.00170363 62.36083984 375.60498047 C63.40519436 381.15226612 64.23475379 386.72947101 65.0625 392.3125 C66.0764503 399.10881745 67.14224323 405.88105612 68.39477539 412.63745117 C69.91364499 421.07609213 71.28137651 429.54199176 72.6875 438 C72.95119385 439.58399094 72.95119385 439.58399094 73.22021484 441.19998169 C77.03536111 464.12160581 80.7649763 487.05685337 84.48565674 509.99395752 C85.67584532 517.32964604 86.86806939 524.66500098 88.0625 532 C88.23083344 533.03408997 88.39916687 534.06817993 88.57260132 535.13360596 C90.87535317 549.26660839 93.24614167 563.38608402 95.69067383 577.49520874 C97.18419905 586.12179563 98.61755054 594.75026109 99.86541748 603.41612244 C100.90074786 610.53578684 102.08844451 617.62793016 103.28125 624.72265625 C103.73119387 627.40866526 104.18026942 630.09481903 104.62915039 632.78100586 C104.74336366 633.46422661 104.85757692 634.14744736 104.9752512 634.85137177 C106.15262289 641.90119534 107.31062505 648.95416351 108.46484375 656.0078125 C108.66640076 657.23935059 108.86795776 658.47088867 109.07562256 659.73974609 C109.48643477 662.25088625 109.89712954 664.76204562 110.30770874 667.27322388 C113.35317065 685.8991373 116.40814213 704.52319021 119.53585815 723.13549805 C121.44402706 734.50422764 123.25576706 745.88704755 125.05059814 757.27416992 C128.3126715 777.96749087 131.72829612 798.63125642 135.60644531 819.21948242 C135.88053223 820.68091675 135.88053223 820.68091675 136.16015625 822.171875 C136.40004272 823.42822754 136.40004272 823.42822754 136.64477539 824.70996094 C137.13287494 827.85660957 137.14118854 830.82325774 137 834 C129.69542811 827.91285676 123.11962932 821.38090064 116.94140625 814.15625 C113.7744654 810.63884286 110.34994657 807.38310803 106.94140625 804.1015625 C105 802 105 802 105 800 C104.34 800 103.68 800 103 800 C103 799.34 103 798.68 103 798 C102.34 798 101.68 798 101 798 C99.51733398 796.51147461 99.51733398 796.51147461 97.80859375 794.46484375 C94.33706119 790.38379863 90.73946486 786.45830807 87.0625 782.5625 C86.42570312 781.88582275 85.78890625 781.20914551 85.1328125 780.51196289 C83.78453976 779.07942311 82.43573453 777.64738432 81.08642578 776.21582031 C78.95932198 773.95679924 76.83660048 771.69373071 74.71484375 769.4296875 C73.30994108 767.93224922 71.90499436 766.43485225 70.5 764.9375 C69.85426025 764.24793213 69.20852051 763.55836426 68.54321289 762.84790039 C64.95601824 759.0305015 61.3163664 755.28296391 57.57885742 751.61230469 C55.90891199 749.90698234 54.35642973 748.13215842 52.8125 746.3125 C49.09240792 741.96954847 45.02925215 737.99837813 40.91137695 734.03637695 C39.57130544 732.72704788 38.28096794 731.36720716 37 730 C37 729.34 37 728.68 37 728 C36.34 728 35.68 728 35 728 C33.5546875 726.53125 33.5546875 726.53125 31.875 724.5 C29.35742098 721.53322639 26.77831024 718.72425751 24 716 C20.72797872 712.7784145 17.70683945 709.41407855 14.71484375 705.93359375 C13.03995701 704.04505403 11.30052413 702.26844352 9.5 700.5 C6.47085622 697.51797623 3.668436 694.39544168 0.890625 691.1796875 C-1.2579885 688.70256698 -3.43659177 686.2545317 -5.625 683.8125 C-6.33914063 683.01457031 -7.05328125 682.21664062 -7.7890625 681.39453125 C-11.11261395 677.79499585 -14.61018153 674.38012455 -18.11328125 670.95703125 C-19.17973223 669.90889967 -20.24613804 668.86072214 -21.3125 667.8125 C-21.86228516 667.27947266 -22.41207031 666.74644531 -22.97851562 666.19726562 C-24.35715678 664.83575044 -25.68339727 663.42159498 -27 662 C-27 661.34 -27 660.68 -27 660 C-27.66 660 -28.32 660 -29 660 C-30.4453125 658.53125 -30.4453125 658.53125 -32.125 656.5 C-34.64257902 653.53322639 -37.22168976 650.72425751 -40 648 C-43.25029983 644.79970478 -46.24724245 641.45775424 -49.21875 638 C-51.0742521 635.91662922 -53.01223101 633.95718793 -55 632 C-58.25029983 628.79970478 -61.24724245 625.45775424 -64.21875 622 C-66.0742521 619.91662922 -68.01223101 617.95718793 -70 616 C-73.19861698 612.85040397 -76.14266626 609.56605849 -79.05859375 606.15625 C-82.2255346 602.63884286 -85.65005343 599.38310803 -89.05859375 596.1015625 C-91 594 -91 594 -91 592 C-91.66 592 -92.32 592 -93 592 C-94.375 590.6015625 -94.375 590.6015625 -96 588.625 C-98.86045355 585.25204852 -101.84869661 582.10326523 -105 579 C-108.62881522 575.41510388 -112.0406286 571.737064 -115.35546875 567.86328125 C-117.54516996 565.38231337 -119.89808131 563.09121792 -122.2578125 560.7734375 C-124.04715827 558.95199585 -125.71288532 557.06285721 -127.375 555.125 C-129.96634205 552.1153247 -132.67254783 549.28911384 -135.5 546.5 C-148.80954607 533.34971345 -148.80954607 533.34971345 -149.859375 526.8359375 C-150.00262207 525.97726074 -150.14586914 525.11858398 -150.29345703 524.23388672 C-150.44411621 523.2904541 -150.59477539 522.34702148 -150.75 521.375 C-151.09479905 519.3018241 -151.44125624 517.22892352 -151.7890625 515.15625 C-151.97887695 514.02058594 -152.16869141 512.88492188 -152.36425781 511.71484375 C-153.05661605 507.66917442 -153.78366147 503.63096452 -154.5234375 499.59375 C-154.65544556 498.87321442 -154.78745361 498.15267883 -154.92346191 497.41030884 C-155.45180127 494.5312928 -155.98138387 491.65251037 -156.51306152 488.77410889 C-156.8879212 486.74292747 -157.26047792 484.71133309 -157.6328125 482.6796875 C-157.84824707 481.51163574 -158.06368164 480.34358398 -158.28564453 479.14013672 C-158.89102271 475.73525503 -159.41500877 472.32044803 -159.93383789 468.90136719 C-161.00378553 461.88330322 -162.20200753 454.89111023 -163.42578125 447.8984375 C-163.65764051 446.5692368 -163.88942473 445.24002301 -164.12113953 443.91079712 C-164.60521556 441.13569407 -165.09022868 438.36075693 -165.57592773 435.5859375 C-166.18274953 432.11868538 -166.78717203 428.65102028 -167.39091206 425.1832304 C-169.69631745 411.94720792 -172.0320172 398.71861729 -174.5 385.51171875 C-177.22809607 370.90562761 -179.77388167 356.26900895 -182.30801773 341.62835693 C-182.82618776 338.63681687 -183.34580502 335.64552888 -183.86543179 332.65424156 C-186.51359792 317.40918096 -189.14775428 302.16178799 -191.7578125 286.91015625 C-192.60889636 281.94002205 -193.46041387 276.96996247 -194.3125 272 C-194.51925354 270.79388062 -194.72600708 269.58776123 -194.93902588 268.34509277 C-197.47725491 253.56045209 -200.11738306 238.80409174 -202.97146606 224.07727051 C-206.64343563 205.09484529 -209.78317027 186.0193897 -212.984375 166.953125 C-215.58819337 151.4465654 -218.36125627 135.97345165 -221.15966797 120.50097656 C-224.55434796 101.72877013 -227.9287406 82.95547521 -231.05981445 64.13720703 C-232.29548811 56.78988311 -233.72230351 49.51863194 -235.31738281 42.24121094 C-236.27739334 37.68287767 -237.01604874 33.10843047 -237.6875 28.5 C-237.81705078 27.65953125 -237.94660156 26.8190625 -238.08007812 25.953125 C-238.73056515 21.57524404 -239.02210019 17.43443909 -239 13 C-228.98223306 12.38022048 -218.96432649 11.76274753 -208.94625759 11.1478672 C-204.28954639 10.8619864 -199.63287851 10.57544095 -194.97631836 10.28710938 C-162.5508325 8.28024594 -130.12217056 6.3706946 -97.65325928 5.22259521 C-74.80052128 4.40134501 -51.99589404 3.00213362 -29.1829958 1.45701599 C-27.20894973 1.32332812 -25.23485402 1.19037403 -23.26075745 1.05743408 C-20.83858581 0.89362804 -18.41656625 0.72755108 -15.99473572 0.55877686 C-10.64937972 0.19551493 -5.35786789 -0.09916629 0 0 Z " fill="#000000" transform="translate(1930,643)"/>
<path d="M0 0 C1.00546875 0.00902344 2.0109375 0.01804687 3.046875 0.02734375 C3.77390625 0.03894531 4.5009375 0.05054688 5.25 0.0625 C4.03711692 11.39481053 2.21667734 22.60172897 0.27856445 33.83056641 C-1.11125209 41.96184906 -2.36000517 50.10726553 -3.5546875 58.26953125 C-5.12914331 69.01137996 -6.78252558 79.73870917 -8.484375 90.4609375 C-8.66463069 91.59705695 -8.66463069 91.59705695 -8.84852791 92.75612831 C-9.47277937 96.68916553 -10.09795586 100.62205507 -10.72360229 104.55487061 C-14.63865428 129.1687106 -18.5055454 153.78756675 -22.1875 178.4375 C-24.28202843 192.45930526 -26.43555544 206.45917162 -28.8269043 220.43383789 C-30.87863861 232.55649787 -32.68022811 244.7157588 -34.5 256.875 C-37.66781059 278.03469139 -40.95173144 299.17360647 -44.30786133 320.30419922 C-46.31278922 332.93351324 -48.29932999 345.56533143 -50.25 358.203125 C-50.45727504 359.54498884 -50.66455548 360.88685184 -50.87184143 362.22871399 C-51.86164735 368.63856599 -52.8484378 375.04887097 -53.83178711 381.4597168 C-54.18856653 383.773937 -54.54541511 386.08814655 -54.90234375 388.40234375 C-55.06029419 389.43832703 -55.21824463 390.4743103 -55.38098145 391.54168701 C-56.23084354 397.03774091 -57.1917249 402.48947015 -58.32939148 407.93359375 C-58.93146055 410.98096097 -59.28399942 414.0385968 -59.625 417.125 C-61.39624041 432.21864464 -64.02404186 447.2140765 -66.74584961 462.16162109 C-67.43991832 466.05355064 -68.0200165 469.94056174 -68.48193359 473.86523438 C-68.57039551 474.61095703 -68.65885742 475.35667969 -68.75 476.125 C-68.89711426 477.3713623 -69.04422852 478.61772461 -69.19580078 479.90185547 C-69.67527242 483.69056863 -70.35387941 487.4165673 -71.09375 491.1640625 C-73.08863565 501.52347277 -74.6528683 511.94835995 -76.25 522.375 C-76.69586995 525.26975106 -77.142472 528.16438856 -77.58911133 531.059021 C-77.88361013 532.96850667 -78.17771891 534.87805255 -78.47143555 536.78765869 C-79.39211471 542.76858385 -80.33088765 548.74638409 -81.28125 554.72265625 C-82.30444179 561.167031 -83.29137116 567.61601945 -84.25 574.0703125 C-84.37379028 574.90340439 -84.49758057 575.73649628 -84.62512207 576.59483337 C-85.12660843 579.97429378 -85.6272343 583.35387611 -86.125 586.73388672 C-87.46123526 595.79697195 -88.86119091 604.83332448 -90.49330139 613.8487854 C-92.66439453 626.00872599 -94.46646059 638.2345823 -96.35845947 650.44055176 C-97.22263761 656.01354695 -98.089721 661.58609131 -98.95683479 667.15863037 C-99.17083425 668.53414411 -99.38473547 669.90967313 -99.59853935 671.28521729 C-100.96888353 680.10030233 -102.36164556 688.91145898 -103.78125 697.71875 C-106.25941845 713.11146918 -108.5730306 728.52936106 -110.89819336 743.94580078 C-113.02219179 758.01762323 -115.20821859 772.05996458 -117.75 786.0625 C-118.4521937 790.14342121 -119.13445778 794.22750489 -119.8125 798.3125 C-119.97298828 799.2715625 -120.13347656 800.230625 -120.29882812 801.21875 C-122.29020468 813.18300435 -124.06174258 825.16836344 -125.6875 837.1875 C-127.05705281 847.22575064 -128.50928756 857.24259227 -130.13671875 867.2421875 C-130.55135111 869.82505662 -130.9280046 872.41426427 -131.26953125 875.0078125 C-131.75 878.0625 -131.75 878.0625 -132.75 879.0625 C-134.1014116 879.26757949 -135.46233576 879.41052922 -136.82421875 879.52734375 C-138.14232544 879.64227173 -138.14232544 879.64227173 -139.48706055 879.75952148 C-140.46070557 879.83887939 -141.43435059 879.9182373 -142.4375 880 C-143.46206299 880.08644775 -144.48662598 880.17289551 -145.54223633 880.26196289 C-154.94515991 881.03623872 -164.35766752 881.64160348 -173.77270508 882.24633789 C-183.23386904 882.8657315 -192.67875536 883.62403173 -202.125 884.4375 C-218.38535701 885.83422886 -234.65868922 887.02740084 -250.9375 888.1875 C-252.14323669 888.27376648 -253.34897339 888.36003296 -254.59124756 888.44891357 C-267.97300497 889.40457414 -281.35428092 890.3250345 -294.75 891.0625 C-292.65739406 874.7119134 -290.40309257 858.42896155 -287.6171875 842.1796875 C-286.76127879 837.18356921 -286.02343308 832.17766325 -285.33349609 827.15600586 C-284.59301284 821.88718598 -283.77832609 816.62965798 -282.96875 811.37109375 C-282.70620422 809.66561119 -282.70620422 809.66561119 -282.43835449 807.92567444 C-280.43213498 794.94135203 -278.34348174 781.97048466 -276.25 769 C-275.8684024 766.63217551 -275.48689187 764.26433698 -275.10546875 761.89648438 C-274.8234964 760.14611374 -274.8234964 760.14611374 -274.53582764 758.36038208 C-273.78780368 753.71649059 -273.03982902 749.07259119 -272.29211426 744.4286499 C-271.93646558 742.22032069 -271.5805974 740.01202682 -271.2244873 737.80377197 C-268.91334423 723.46618604 -266.67422728 709.11916382 -264.487854 694.76205444 C-261.71475834 676.5749114 -258.86190659 658.40325353 -255.875 640.25 C-252.77497644 621.40499778 -249.7397274 602.55028775 -246.75 583.6875 C-246.59170212 582.68885925 -246.59170212 582.68885925 -246.4302063 581.67004395 C-238.75903179 533.28422115 -238.75903179 533.28422115 -231.25634766 484.87207031 C-228.45672806 466.59669091 -225.60441822 448.32938762 -222.75 430.0625 C-222.54874512 428.77327637 -222.34749023 427.48405273 -222.14013672 426.15576172 C-220.59381175 416.27702902 -218.99171271 406.41024415 -217.28125 396.55859375 C-217.15128128 395.80975922 -217.02131256 395.06092468 -216.8874054 394.28939819 C-216.75609726 393.53292999 -216.62478912 392.77646179 -216.48950195 391.99707031 C-216.22212569 390.45638755 -215.95479167 388.91569745 -215.6875 387.375 C-215.5566098 386.62085815 -215.4257196 385.86671631 -215.29086304 385.08972168 C-213.43849907 374.38974005 -211.76036188 363.68819861 -210.390625 352.9140625 C-209.01003221 342.18766078 -207.17490671 331.52785684 -205.37731934 320.86523438 C-202.73768031 305.19307154 -200.21197196 289.50474048 -197.75488281 273.80297852 C-197.51891617 272.29573005 -197.28291442 270.78848707 -197.046875 269.28125 C-196.93285339 268.55264267 -196.81883179 267.82403534 -196.70135498 267.073349 C-196.08999057 263.18007434 -195.45747086 259.29144937 -194.796875 255.40625 C-193.15448145 245.64554863 -191.72801185 235.84912697 -190.25 226.0625 C-186.50521906 201.26650523 -186.50521906 201.26650523 -184.75 191.0625 C-181.55504223 172.27036916 -178.52854845 153.45451262 -175.5625 134.625 C-175.28028595 132.83382751 -175.28028595 132.83382751 -174.99237061 131.00646973 C-174.00028611 124.70881687 -173.0088543 118.41106138 -172.01757812 112.11328125 C-170.1194873 100.05554948 -168.21930656 87.99815031 -166.31148052 75.94195461 C-165.65282346 71.77931289 -164.995953 67.61639484 -164.34049034 63.45324898 C-163.83413629 60.24070319 -163.32506309 57.02858811 -162.81640625 53.81640625 C-162.63656189 52.67091309 -162.45671753 51.52541992 -162.27142334 50.34521484 C-161.50804632 45.53935852 -160.7110105 40.75695812 -159.72241211 35.99194336 C-158.59547957 30.50737692 -157.8511403 24.98728655 -157.125 19.4375 C-156.9909375 18.43332031 -156.856875 17.42914062 -156.71875 16.39453125 C-156.39293123 13.95089048 -156.07006186 11.50690027 -155.75 9.0625 C-148.75035365 8.57808437 -141.75035065 8.09913114 -134.75 7.625 C-133.72024048 7.55524963 -132.69048096 7.48549927 -131.6295166 7.41363525 C-119.02215763 6.56410871 -106.42449009 5.74450758 -93.79296875 5.35375977 C-89.99849603 5.23165672 -86.26875291 5.03688721 -82.5 4.5703125 C-75.1532656 3.68941296 -67.73716126 3.67041803 -60.34765625 3.45703125 C-59.18621094 3.41964844 -58.02476562 3.38226562 -56.828125 3.34375 C-55.78043945 3.31345703 -54.73275391 3.28316406 -53.65332031 3.25195312 C-50.92333821 3.073811 -48.42686383 2.59928812 -45.75 2.0625 C-43.76128009 1.93056475 -41.76957147 1.83992296 -39.77734375 1.78125 C-38.62943359 1.74386719 -37.48152344 1.70648437 -36.29882812 1.66796875 C-34.5112207 1.61576172 -34.5112207 1.61576172 -32.6875 1.5625 C-24.88354045 1.32928815 -17.13662411 0.96788129 -9.35961914 0.27197266 C-6.23301983 0.02100229 -3.13582078 -0.0373312 0 0 Z " fill="#010101" transform="translate(790.75,702.9375)"/>
<path d="M0 0 C0.15819214 1.04788696 0.15819214 1.04788696 0.31958008 2.11694336 C0.81507975 5.3907901 1.31378879 8.66414099 1.8125 11.9375 C2.0609668 13.58395508 2.0609668 13.58395508 2.31445312 15.26367188 C3.28011855 21.58604739 4.3205824 27.88872125 5.44921875 34.18359375 C6.53741587 40.26053141 7.55060453 46.345139 8.5 52.4453125 C8.62368454 53.23968216 8.74736908 54.03405182 8.87480164 54.85249329 C9.37739911 58.09023976 9.87765698 61.32833669 10.375 64.56689453 C11.80566408 73.86434821 13.38498341 83.08220452 15.28125 92.296875 C16.57746907 98.97522106 17.52453155 105.70613735 18.5 112.4375 C19.79327817 121.33897279 21.18397837 130.1949956 22.88354492 139.02867126 C24.40265858 146.98578518 25.59194351 154.99127726 26.80224609 163 C27.89443765 170.20389152 29.04752864 177.38006768 30.42456055 184.53588867 C31.93223542 192.4756865 33.23762706 200.44157024 34.48828125 208.42578125 C34.71397684 209.85447599 34.93993064 211.28312995 35.16612244 212.71174622 C35.63992106 215.70587895 36.11261298 218.70018297 36.58435059 221.69464111 C37.81103185 229.47851433 39.04692255 237.26092582 40.28515625 245.04296875 C40.46617197 246.18084335 40.46617197 246.18084335 40.65084457 247.34170532 C42.65377574 259.92227267 44.74092236 272.48543607 46.93286133 285.03442383 C49.03723763 297.10250172 50.99693942 309.19236286 52.94985962 321.28573608 C54.76150404 332.49768554 56.62360376 343.69784103 58.57894897 354.8855896 C61.71711212 372.84462233 64.48140414 390.85710883 67.19702148 408.88452148 C68.7179647 418.94508811 70.30559212 428.96439706 72.23803711 438.95483398 C73.88977122 447.58460792 75.25280544 456.26966325 76.6875 464.9375 C77.03689001 467.04143193 77.38633787 469.14535425 77.73583984 471.24926758 C82.09405461 497.51400802 86.39056011 523.78923683 90.625 550.07421875 C93.38706454 567.21089758 96.23328156 584.32967839 99.18267822 601.43513489 C100.72661138 610.3907024 102.24951213 619.34954823 103.75 628.3125 C104.04789429 630.08065063 104.04789429 630.08065063 104.35180664 631.88452148 C105.29051573 637.50994176 106.16796409 643.13508188 106.9453125 648.78515625 C107.98101198 656.14871452 109.32633582 663.44419379 110.68539429 670.75271606 C114.2445881 689.95951446 117.27090611 709.23512469 120.15869141 728.55322266 C121.79519464 739.45715158 123.55423934 750.31817112 125.56770325 761.15913391 C127.03282604 769.07257829 128.30559096 777.00761987 129.52410889 784.96224976 C131.8622484 800.20652081 134.4158933 815.40287361 137.17138672 830.57714844 C137.3559845 831.60057091 137.3559845 831.60057091 137.54431152 832.64466858 C137.87529555 834.47733144 138.20973495 836.30936932 138.54443359 838.14135742 C139 841 139 841 139 844 C108.09411004 846.72989708 77.17629633 849.15137673 46.22412109 851.29248047 C40.62212976 851.68002062 35.02059497 852.07379354 29.41915321 852.46918869 C25.02692486 852.77860864 20.63449015 853.08501228 16.24198532 853.39048004 C14.17279183 853.53470776 12.10365996 853.6798226 10.03459549 853.82588959 C7.17512148 854.02728068 4.31539542 854.22462156 1.45556641 854.42089844 C0.62668915 854.48006943 -0.20218811 854.53924042 -1.05618286 854.60020447 C-6.3830103 854.96025715 -11.6608162 855.04943573 -17 855 C-21.5304869 829.58141114 -26.03964749 804.15957351 -29.875 778.625 C-31.50648499 767.77853668 -33.3927441 756.98558971 -35.3125 746.1875 C-38.21222979 729.86890991 -40.85432298 713.52033149 -43.33911133 697.13354492 C-45.40527115 683.55153018 -47.64851673 670.00147051 -49.91764069 656.45226383 C-50.05060295 655.65832438 -50.18356522 654.86438494 -50.32055664 654.04638672 C-50.45589561 653.23835067 -50.59123459 652.43031462 -50.73067474 651.59779263 C-52.37630605 641.76437146 -53.99899705 631.9271698 -55.62109375 622.08984375 C-55.77633074 621.14852978 -55.93156773 620.20721581 -56.09150887 619.23737717 C-56.88690605 614.41391575 -57.68198415 609.59040185 -58.47680664 604.7668457 C-59.11513626 600.89309127 -59.75380871 597.01939363 -60.39282227 593.14575195 C-64.16437539 570.2828646 -67.91903431 547.41735935 -71.63218689 524.54490662 C-74.93541482 504.20370013 -78.29896178 483.87253651 -81.7890625 463.5625 C-84.63645406 446.99073603 -87.46620428 430.42501941 -89.96875 413.796875 C-91.28717873 405.04486637 -92.67855494 396.30433595 -94.0625 387.5625 C-94.43232812 385.22467189 -94.80211667 382.88683753 -95.17185974 380.54899597 C-95.41430483 379.01737313 -95.65711361 377.48580781 -95.90028381 375.95429993 C-96.52315172 372.02912795 -97.13983735 368.10314293 -97.74560547 364.17529297 C-99.00456774 356.04386515 -100.34541428 347.9425378 -101.89311218 339.86090088 C-103.301348 332.48994179 -104.5277107 325.09089725 -105.75 317.6875 C-106.00635895 316.14240373 -106.26279011 314.59731945 -106.51928711 313.05224609 C-108.86561776 298.89618579 -111.16639476 284.73266132 -113.46386719 270.56860352 C-115.29840289 259.26511675 -117.17584542 247.96990739 -119.08178711 236.67822266 C-120.36368523 229.0098652 -121.57587292 221.33276156 -122.7578125 213.6484375 C-122.91179504 212.64910187 -123.06577759 211.64976624 -123.22442627 210.62014771 C-123.98965245 205.64886676 -124.74979109 200.6768875 -125.50195312 195.70361328 C-127.21659865 184.4131285 -127.21659865 184.4131285 -129.4609375 173.21875 C-131.59748384 163.69507359 -132.96748907 154.03515785 -134.46887207 144.39556885 C-135.3463201 138.78593129 -136.24815921 133.18022956 -137.1484375 127.57421875 C-137.51475233 125.28857783 -137.88104442 123.00293326 -138.24731445 120.71728516 C-138.62314927 118.37401375 -138.99904561 116.03075222 -139.375 113.6875 C-139.56975922 112.47342468 -139.76451843 111.25934937 -139.96517944 110.00848389 C-142.48394152 94.3170216 -145.04013729 78.63289157 -147.67657471 62.96078491 C-149.7544258 50.60181466 -151.68988167 38.22450618 -153.55664062 25.83203125 C-154.19571354 21.74984744 -154.90682394 17.6804486 -155.62402344 13.61132812 C-156 11 -156 11 -156 7 C-132.38626988 5.49750426 -108.75788633 4.32969142 -85.12339592 3.20932388 C-66.72306184 2.33945205 -66.72306184 2.33945205 -48.328125 1.36328125 C-47.47121063 1.31528381 -46.61429626 1.26728638 -45.73141479 1.21783447 C-44.0973703 1.12617971 -42.46332687 1.03450571 -40.82928467 0.94281006 C-27.21020502 0.18090101 -13.64271798 -0.27592014 0 0 Z " fill="#010101" transform="translate(2116,634)"/>
<path d="M0 0 C0.36035085 8.64842037 -1.00569479 16.9833221 -2.3125 25.5 C-2.54516513 27.04755865 -2.777504 28.59516639 -3.00952148 30.14282227 C-4.29901366 38.69026964 -5.69128433 47.20944193 -7.2578125 55.7109375 C-8.28730243 61.47326058 -9.09413328 67.27065589 -9.9375 73.0625 C-11.88338233 86.39202395 -14.07460791 99.67001271 -16.33135986 112.94989014 C-17.2046096 118.09083281 -18.07344992 123.23250291 -18.9375 128.375 C-19.06522797 129.13486206 -19.19295593 129.89472412 -19.32455444 130.6776123 C-21.4752524 143.5095732 -23.43802558 156.36344242 -25.26342773 169.24560547 C-26.32090298 176.64194736 -27.50231259 183.99890795 -28.82408142 191.3513031 C-30.42577031 200.29709422 -31.83171924 209.27364692 -33.25 218.25 C-33.55675524 220.18465933 -33.8635598 222.11931083 -34.17041016 224.05395508 C-36.26258874 237.26141647 -38.32440798 250.47352701 -40.375 263.6875 C-46.01549366 300.03332285 -51.7222798 336.36782843 -57.68658447 372.66204834 C-60.57495125 390.24904828 -63.32627054 407.85447618 -66.0004425 425.47520447 C-66.82916591 430.92050774 -67.68675197 436.3609802 -68.55078125 441.80078125 C-69.7141529 449.13046921 -70.81327654 456.46735713 -71.875 463.8125 C-73.23311907 473.08055048 -74.69135455 482.32613005 -76.25 491.5625 C-78.58875535 505.42670903 -80.83933667 519.30430414 -83.0625 533.1875 C-83.23690613 534.27654633 -83.41131226 535.36559265 -83.59100342 536.48764038 C-85.89151214 550.87205303 -88.13456561 565.26106863 -90.2109375 579.6796875 C-91.05392522 585.46806162 -92.01913917 591.23359398 -93 597 C-96.65518013 618.21318122 -96.65518013 618.21318122 -99.546875 639.5390625 C-100.10462967 643.79915417 -100.92665598 647.98587686 -101.76098633 652.19921875 C-103.01693606 658.72554838 -103.90888965 665.29201257 -104.8125 671.875 C-106.2813032 682.50887582 -108.02415012 693.06474564 -109.9375 703.625 C-112.02163896 715.14076752 -113.90261274 726.66538052 -115.5625 738.25 C-118.04686316 755.5825927 -120.91021225 772.8364477 -123.875 790.09375 C-125.19401496 797.81833569 -126.35671184 805.54219952 -127.375 813.3125 C-129.01835542 825.81994912 -131.2215058 838.22481713 -133.41455078 850.64550781 C-134.30692428 855.75860699 -135.15695832 860.87856567 -136 866 C-138.89044369 863.53021166 -139.97028411 861.05744947 -141.3125 857.53125 C-141.74949219 856.39945313 -142.18648438 855.26765625 -142.63671875 854.1015625 C-143.08660156 852.91304687 -143.53648437 851.72453125 -144 850.5 C-144.87259482 848.21782892 -145.74773615 845.93663038 -146.625 843.65625 C-146.86812927 843.02423676 -147.11125854 842.39222351 -147.36175537 841.74105835 C-150.30933819 834.12686422 -153.41517164 826.57712496 -156.50372314 819.01931763 C-160.08282655 810.25903951 -163.6362741 801.48884783 -167.171875 792.7109375 C-167.43472982 792.05845598 -167.69758465 791.40597446 -167.96840477 790.73372078 C-169.61146735 786.65490686 -171.25377041 782.57578746 -172.89587021 778.49658585 C-175.26491845 772.61207125 -177.63522786 766.7280644 -180.0053463 760.84398079 C-180.60843681 759.34671938 -181.21150613 757.84944944 -181.81455421 756.35217094 C-185.97467029 746.02330028 -190.13906466 735.69616813 -194.30859375 725.37109375 C-194.55736708 724.75503139 -194.8061404 724.13896904 -195.06245232 723.50423813 C-196.29045035 720.46322802 -197.51847265 717.42222771 -198.74649048 714.38122559 C-207.59678088 692.46307908 -216.40944556 670.53036382 -225.17236328 648.57714844 C-227.97561378 641.55518759 -230.78482595 634.53561077 -233.59347534 627.51580811 C-235.05212174 623.87000234 -236.51042432 620.22405906 -237.96875 616.578125 C-238.50130036 615.2467441 -239.03385238 613.91536387 -239.56640625 612.58398438 C-241.36132812 608.09667969 -241.36132812 608.09667969 -243.15625 603.609375 C-243.46820313 602.83013672 -243.78015625 602.05089844 -244.1015625 601.24804688 C-244.69190726 599.77090163 -245.28050323 598.29305604 -245.8671875 596.81445312 C-247.75185678 592.07459044 -249.67683835 587.35285892 -251.62670898 582.63952637 C-252.93272694 579.47570529 -254.22716194 576.30720272 -255.52050781 573.13818359 C-256.16714705 571.56155721 -256.8187464 569.98695495 -257.47558594 568.41455078 C-258.40296604 566.19292015 -259.31242836 563.96466434 -260.21875 561.734375 C-260.63997131 560.74325714 -260.63997131 560.74325714 -261.06970215 559.7321167 C-263.93293262 552.5808308 -263.25609231 546.3850065 -261.86328125 538.90625 C-261.74395737 538.25157745 -261.62463348 537.59690491 -261.50169373 536.9223938 C-261.24506126 535.51620177 -260.98550693 534.11054033 -260.7232666 532.7053833 C-260.00825811 528.86654203 -259.3190883 525.02305715 -258.62890625 521.1796875 C-258.41722305 520.00386612 -258.41722305 520.00386612 -258.20126343 518.80429077 C-256.94082122 511.76086969 -255.82518729 504.69900409 -254.75 497.625 C-252.33107055 481.80955462 -249.70106081 466.03008148 -247.0625 450.25 C-246.95223228 449.59053375 -246.84196457 448.9310675 -246.72835541 448.25161743 C-245.74440817 442.36801962 -244.75962975 436.4845611 -243.77392578 430.60125732 C-242.60940822 423.64934717 -241.44974494 416.696685 -240.30078125 409.7421875 C-237.47471652 392.64986152 -234.54022557 375.57893191 -231.550354 358.51446533 C-229.01428062 344.02560444 -226.59024986 329.52172658 -224.25 315 C-222.12024982 301.78461583 -219.90899545 288.59608287 -217.45166016 275.43701172 C-215.1221284 262.86761389 -213.00819007 250.27807916 -211.1875 237.625 C-209.25025305 224.1907209 -206.95550798 210.82561366 -204.6484375 197.45092773 C-202.18650279 183.16901206 -199.84253343 168.8714121 -197.57495117 154.55737305 C-196.09316182 145.38915535 -194.53512216 136.23354668 -192.9765625 127.078125 C-192.59113509 124.81119974 -192.2057188 122.5442726 -191.8203125 120.27734375 C-191.22606437 116.78333984 -190.63169751 113.28935622 -190.03710938 109.79541016 C-187.32713972 93.8686738 -184.64627255 77.93743992 -182 62 C-181.65140838 59.90217414 -181.30277491 57.80435524 -180.95410156 55.70654297 C-180.69170685 54.12780899 -180.69170685 54.12780899 -180.42401123 52.5171814 C-179.7279895 48.33017945 -179.03165985 44.14322876 -178.33520508 39.95629883 C-177.98108684 37.82646207 -177.62725439 35.69657777 -177.27368164 33.56665039 C-176.75222328 30.42581738 -176.22972947 27.28515813 -175.70703125 24.14453125 C-175.54975052 23.19568558 -175.39246979 22.2468399 -175.23042297 21.26924133 C-175.08324326 20.38608749 -174.93606354 19.50293365 -174.78442383 18.59301758 C-174.65659012 17.82379471 -174.52875641 17.05457184 -174.39704895 16.26203918 C-173.97063448 13.83270084 -173.49250445 11.41672958 -173 9 C-149.76348005 6.7768998 -126.50160833 5.43733842 -103.1875 4.375 C-102.50269562 4.3437289 -101.81789124 4.31245781 -101.11233521 4.28023911 C-89.09784482 3.73266353 -77.08286083 3.19462636 -65.06494141 2.72753906 C-63.98207352 2.68480865 -62.89920563 2.64207825 -61.78352356 2.59805298 C-59.79720988 2.52040233 -57.81079537 2.44526365 -55.82426453 2.37338257 C-50.61692263 2.16982308 -45.46861867 1.77682333 -40.28681946 1.22595215 C-37.19193808 0.9201584 -34.10380971 0.78666327 -30.99609375 0.68359375 C-29.76052734 0.64169922 -28.52496094 0.59980469 -27.25195312 0.55664062 C-25.99318359 0.51732422 -24.73441406 0.47800781 -23.4375 0.4375 C-22.17486328 0.39431641 -20.91222656 0.35113281 -19.61132812 0.30664062 C-13.0703676 0.09145498 -6.5443918 -0.04974022 0 0 Z " fill="#010101" transform="translate(604,714)"/>
<path d="M0 0 C2.24951732 2.19251856 3.93255074 4.2873321 5.57421875 6.97265625 C6.06849365 7.77630615 6.56276855 8.57995605 7.07202148 9.40795898 C7.60512939 10.28395752 8.1382373 11.15995605 8.6875 12.0625 C9.253479 12.98426025 9.81945801 13.90602051 10.40258789 14.85571289 C12.27215314 17.90151986 14.13616208 20.95068547 16 24 C18.64291851 28.31429275 21.28917715 32.62652276 23.9375 36.9375 C24.60958496 38.03199463 25.28166992 39.12648926 25.97412109 40.25415039 C30.92500464 48.29859323 35.97070695 56.27818607 41.06225586 64.23413086 C45.06687229 70.50190246 48.96910358 76.82430088 52.82421875 83.18481445 C56.40464335 89.07260934 60.09659176 94.88446268 63.8125 100.6875 C68.6420665 108.23303715 73.36473696 115.83361366 78 123.5 C83.08924246 131.91570679 88.30391977 140.23871938 93.609375 148.51953125 C98.77286404 156.59752299 103.8025868 164.75444811 108.79248047 172.94067383 C109.39721191 173.92962646 110.00194336 174.9185791 110.625 175.9375 C111.23641846 176.97596573 111.84783691 178.01443146 112.4777832 179.08436584 C114.2660353 181.99542233 116.26316272 184.58195246 118.44168091 187.21157837 C131.277917 203.55503173 130.89017017 219.37719036 130.41951513 239.13546324 C130.33074469 243.50458877 130.32367688 247.87391671 130.30715942 252.24380493 C130.26400358 260.48210264 130.14962736 268.7177344 130.00826657 276.95486891 C129.85064231 286.34780737 129.77452593 295.74088741 129.70453048 305.13482356 C129.55901019 324.4247155 129.31348685 343.71214193 129 363 C125.91386221 359.22453798 123.39628798 355.39591351 121.0625 351.125 C120.2634498 349.68465777 119.46394376 348.24456837 118.6640625 346.8046875 C118.23512695 346.02963867 117.80619141 345.25458984 117.36425781 344.45605469 C114.91183227 340.04098651 112.42360615 335.64616331 109.9375 331.25 C109.39351563 330.28707031 108.84953125 329.32414062 108.2890625 328.33203125 C103.57068608 319.98829681 98.80980126 311.66907195 94.04660034 303.35089111 C88.59704284 293.8305818 83.20791721 284.27784742 77.86743164 274.69580078 C73.63133335 267.09990343 69.32530193 259.5452835 65 252 C49.0024588 224.07752272 49.0024588 224.07752272 42.57763672 212.4387207 C39.51968906 206.90853899 36.3939911 201.41916021 33.25 195.9375 C28.28029641 187.27083159 23.37805994 178.56807338 18.51074219 169.84350586 C17.98254883 168.89741455 17.45435547 167.95132324 16.91015625 166.9765625 C16.36943481 165.97095276 15.82871338 164.96534302 15.27160645 163.92926025 C13.61960127 160.95896832 11.7687079 158.20286244 9.81903076 155.41999817 C-0.73961519 139.67067339 -1.79056493 125.38119762 -1.31812119 107.00365376 C-1.23537756 103.22578276 -1.22910497 99.44768948 -1.21379089 95.66905212 C-1.17380558 88.55346865 -1.0677276 81.44056401 -0.93624753 74.32614654 C-0.78959756 66.21006758 -0.71913324 58.09384247 -0.65420687 49.97676289 C-0.51928159 33.31628797 -0.29148116 16.65848867 0 0 Z " fill="#010101" transform="translate(306,317)"/>
<path d="M0 0 C0.33 0 0.66 0 1 0 C1 52.14 1 104.28 1 158 C-0.98 155.525 -0.98 155.525 -3 153 C-2.01 152.67 -1.02 152.34 0 152 C0 101.84 0 51.68 0 0 Z " fill="#252425" transform="translate(434,522)"/>
<path d="M0 0 C0.33 0 0.66 0 1 0 C1 19.14 1 38.28 1 58 C-0.32 56.35 -1.64 54.7 -3 53 C-1.515 52.505 -1.515 52.505 0 52 C0 34.84 0 17.68 0 0 Z " fill="#1C1C1C" transform="translate(434,622)"/>
<path d="M0 0 C3.3 0 6.6 0 10 0 C10 0.33 10 0.66 10 1 C12.97 1.33 15.94 1.66 19 2 C19 2.33 19 2.66 19 3 C7.98080785 3.76370639 -2.95471804 4.13379211 -14 4 C-13.34 3.01 -12.68 2.02 -12 1 C-12 1.66 -12 2.32 -12 3 C-10.18674449 2.88648483 -8.37436643 2.75887039 -6.5625 2.625 C-5.55316406 2.55539063 -4.54382812 2.48578125 -3.50390625 2.4140625 C-2.26447266 2.20910156 -2.26447266 2.20910156 -1 2 C-0.67 1.34 -0.34 0.68 0 0 Z " fill="#E0E0E0" transform="translate(1218,247)"/>
<path d="M0 0 C0 0.33 0 0.66 0 1 C-3.63 1 -7.26 1 -11 1 C-11.33 1.99 -11.66 2.98 -12 4 C-12.99 4.33 -13.98 4.66 -15 5 C-15 4.34 -15 3.68 -15 3 C-15.66 2.67 -16.32 2.34 -17 2 C-17 2.66 -17 3.32 -17 4 C-17.66 3.67 -18.32 3.34 -19 3 C-21.204364 2.77049681 -23.41392173 2.58924067 -25.625 2.4375 C-26.81351563 2.35371094 -28.00203125 2.26992188 -29.2265625 2.18359375 C-30.59941406 2.09271484 -30.59941406 2.09271484 -32 2 C-32 1.67 -32 1.34 -32 1 C-21.31485445 0.32157806 -10.71092709 -0.15498126 0 0 Z " fill="#383938" transform="translate(932,264)"/>
<path d="M0 0 C4.29 0 8.58 0 13 0 C13 0.33 13 0.66 13 1 C11.35 1 9.7 1 8 1 C8 1.66 8 2.32 8 3 C8.99 3.33 9.98 3.66 11 4 C7.846632 4.70074844 5.27275026 5 2 5 C2 4.01 2 3.02 2 2 C1.34 1.34 0.68 0.68 0 0 Z " fill="#333333" transform="translate(789,518)"/>
<path d="M0 0 C1.98 0 3.96 0 6 0 C6 0.66 6 1.32 6 2 C6.66 2.66 7.32 3.32 8 4 C3.05 4 -1.9 4 -7 4 C-7 3.67 -7 3.34 -7 3 C-5.5459375 2.814375 -5.5459375 2.814375 -4.0625 2.625 C-2.5465625 2.315625 -2.5465625 2.315625 -1 2 C-0.67 1.34 -0.34 0.68 0 0 Z " fill="#D2D2D2" transform="translate(1514,233)"/>
<path d="M0 0 C1.9453125 0.77734375 1.9453125 0.77734375 4.125 1.9375 C5.21167969 2.50791016 5.21167969 2.50791016 6.3203125 3.08984375 C6.87460938 3.39019531 7.42890625 3.69054687 8 4 C8 4.66 8 5.32 8 6 C5.69 6 3.38 6 1 6 C1 5.34 1 4.68 1 4 C0.01 3.67 -0.98 3.34 -2 3 C-2 2.34 -2 1.68 -2 1 C-1.34 0.67 -0.68 0.34 0 0 Z " fill="#1F1F1F" transform="translate(2255,408)"/>
<path d="M0 0 C0.33 0.66 0.66 1.32 1 2 C3.52733235 2.65555119 3.52733235 2.65555119 6 3 C5.67 5.31 5.34 7.62 5 10 C2.59927045 7.11912454 0.52708963 4.43595166 -1 1 C-0.67 0.67 -0.34 0.34 0 0 Z " fill="#181818" transform="translate(425,448)"/>
<path d="M0 0 C2 3 2 3 2 5 C2.66 5 3.32 5 4 5 C3.67 6.32 3.34 7.64 3 9 C0.69 6.69 -1.62 4.38 -4 2 C-2.68 1.34 -1.36 0.68 0 0 Z " fill="#2A2B2A" transform="translate(1890,1285)"/>
<path d="M0 0 C4.29 0 8.58 0 13 0 C12.67 1.32 12.34 2.64 12 4 C10.35 3.67 8.7 3.34 7 3 C7 2.67 7 2.34 7 2 C4.69 1.67 2.38 1.34 0 1 C0 0.67 0 0.34 0 0 Z " fill="#313231" transform="translate(1812,649)"/>
<path d="M0 0 C0.33 0 0.66 0 1 0 C0.67 2.97 0.34 5.94 0 9 C-2.8290723 6.1709277 -3.37611108 5.61855575 -4 2 C-3.01 2 -2.02 2 -1 2 C-0.67 1.34 -0.34 0.68 0 0 Z " fill="#242424" transform="translate(468,1571)"/>
<path d="M0 0 C0.66 0 1.32 0 2 0 C2 0.99 2 1.98 2 3 C5.63 3 9.26 3 13 3 C13 3.33 13 3.66 13 4 C8.38 4 3.76 4 -1 4 C-1 1 -1 1 0 0 Z " fill="#222222" transform="translate(460,501)"/>
<path d="M0 0 C4.62 0 9.24 0 14 0 C14.33 0.99 14.66 1.98 15 3 C14.01 3.33 13.02 3.66 12 4 C11.34 3.34 10.68 2.68 10 2 C7.56747339 1.53837573 7.56747339 1.53837573 4.875 1.375 C3.96492188 1.30023438 3.05484375 1.22546875 2.1171875 1.1484375 C1.41851563 1.09945313 0.71984375 1.05046875 0 1 C0 0.67 0 0.34 0 0 Z " fill="#2B2B2B" transform="translate(2069,453)"/>
<path d="M0 0 C1.32 1.32 2.64 2.64 4 4 C3.67 4.99 3.34 5.98 3 7 C1.68 6.67 0.36 6.34 -1 6 C-0.67 4.02 -0.34 2.04 0 0 Z " fill="#141413" transform="translate(312,327)"/>
<path d="M0 0 C0 0.66 0 1.32 0 2 C-2.95664519 3.4783226 -5.74229737 3.06032783 -9 3 C-9.33 2.34 -9.66 1.68 -10 1 C-6.52674819 -0.1577506 -3.63932552 -0.06866652 0 0 Z " fill="#F7F7F7" transform="translate(1217,247)"/>
<path d="M0 0 C0.99 0 1.98 0 3 0 C3 1.65 3 3.3 3 5 C2.34 5 1.68 5 1 5 C0.34 6.32 -0.32 7.64 -1 9 C-0.67 6.03 -0.34 3.06 0 0 Z " fill="#1A1A1A" transform="translate(431,723)"/>
<path d="M0 0 C3.96 0 7.92 0 12 0 C11.01 0.33 10.02 0.66 9 1 C8.67 1.99 8.34 2.98 8 4 C7.34 4 6.68 4 6 4 C6 3.01 6 2.02 6 1 C4.02 1 2.04 1 0 1 C0 0.67 0 0.34 0 0 Z " fill="#323232" transform="translate(1722,654)"/>
<path d="M0 0 C0.99 0 1.98 0 3 0 C3 0.66 3 1.32 3 2 C4.32 1.67 5.64 1.34 7 1 C6.34 2.98 5.68 4.96 5 7 C2.65941363 4.87219421 1.29299694 2.88437779 0 0 Z " fill="#141514" transform="translate(431,460)"/>
<path d="M0 0 C0.33 0.99 0.66 1.98 1 3 C3.64 3 6.28 3 9 3 C9 3.33 9 3.66 9 4 C5.04 4 1.08 4 -3 4 C-3.33 3.34 -3.66 2.68 -4 2 C-2.68 1.34 -1.36 0.68 0 0 Z " fill="#202020" transform="translate(2233,411)"/>
<path d="M0 0 C2.31 0 4.62 0 7 0 C6.67 0.99 6.34 1.98 6 3 C3.69 3 1.38 3 -1 3 C-0.67 2.01 -0.34 1.02 0 0 Z " fill="#F7F7F7" transform="translate(1876,216)"/>
<path d="M0 0 C1.32 0 2.64 0 4 0 C4 1.65 4 3.3 4 5 C3.34 5 2.68 5 2 5 C1.67 5.66 1.34 6.32 1 7 C0.67 4.69 0.34 2.38 0 0 Z " fill="#1B1B1B" transform="translate(2081,1380)"/>
<path d="M0 0 C3.63 0 7.26 0 11 0 C10.67 1.32 10.34 2.64 10 4 C9.34 4 8.68 4 8 4 C8 3.01 8 2.02 8 1 C5.36 1 2.72 1 0 1 C0 0.67 0 0.34 0 0 Z " fill="#262626" transform="translate(658,525)"/>
<path d="M0 0 C0.33 0.66 0.66 1.32 1 2 C0.67 2.66 0.34 3.32 0 4 C0.66 4 1.32 4 2 4 C1.34 5.32 0.68 6.64 0 8 C-3 4.25 -3 4.25 -3 2 C-2.01 1.34 -1.02 0.68 0 0 Z " fill="#E8E8E8" transform="translate(348,376)"/>
<path d="M0 0 C1.32 0 2.64 0 4 0 C4 1.65 4 3.3 4 5 C2.68 5 1.36 5 0 5 C0 3.35 0 1.7 0 0 Z " fill="#1D1D1D" transform="translate(1981,770)"/>
<path d="M0 0 C0 0.33 0 0.66 0 1 C-1.60379341 1.05416188 -3.20811406 1.09286638 -4.8125 1.125 C-5.70582031 1.14820313 -6.59914063 1.17140625 -7.51953125 1.1953125 C-10 1 -10 1 -13 -1 C-8.15507803 -2.51403812 -4.7408989 -1.36602172 0 0 Z " fill="#E1E3E2" transform="translate(1028,259)"/>
<path d="M0 0 C1.32 0.66 2.64 1.32 4 2 C4 2.66 4 3.32 4 4 C3.01 4.33 2.02 4.66 1 5 C0.01 4.34 -0.98 3.68 -2 3 C-1.34 2.01 -0.68 1.02 0 0 Z " fill="#141413" transform="translate(2159,348)"/>
<path d="M0 0 C0.66 0 1.32 0 2 0 C2.66 1.32 3.32 2.64 4 4 C2.35 4.66 0.7 5.32 -1 6 C-0.67 4.02 -0.34 2.04 0 0 Z " fill="#EFEFEF" transform="translate(330,300)"/>
</svg>
