<svg width="14" height="14" viewBox="0 0 14 14" fill="none" xmlns="http://www.w3.org/2000/svg">
<g clip-path="url(#clip0_13370_31361)">
<path d="M12.0565 5.80149C11.9863 5.64111 11.8278 5.53751 11.6527 5.53751H7.98816L9.75328 0.589133C9.82366 0.391766 9.74541 0.172059 9.56609 0.0636461C9.38666 -0.0448259 9.15578 -0.0120197 9.01373 0.142016L2.02302 7.72265C1.90432 7.85135 1.87304 8.03813 1.94336 8.19852C2.01356 8.3589 2.17212 8.46249 2.34721 8.46249H4.72953C4.97311 8.46249 5.17048 8.26507 5.17048 8.02155C5.17048 7.77803 4.97311 7.58061 4.72953 7.58061H3.35361L8.19605 2.32956L6.9473 5.83024C6.89921 5.96529 6.9219 6.11532 7.00456 6.2325C7.08717 6.34967 7.22386 6.41934 7.36725 6.41934H10.6462L5.80449 11.6698L7.05342 8.16971C7.10163 8.03466 7.08117 7.88462 6.99851 7.76745C6.91585 7.65028 6.7815 7.58055 6.63811 7.58055H6.63376C6.42652 7.58055 6.25425 7.72353 6.20751 7.91619L4.24691 13.4107C4.17647 13.6081 4.25472 13.8278 4.43404 13.9362C4.50489 13.979 4.58379 13.9999 4.66204 13.9999C4.78192 13.9999 4.90044 13.951 4.9864 13.8578L11.9768 6.27724C12.0955 6.1486 12.1268 5.96188 12.0565 5.80149Z" fill="black"/>
</g>
<defs>
<clipPath id="clip0_13370_31361">
<rect width="14" height="14" fill="white"/>
</clipPath>
</defs>
</svg>
