<svg width="20" height="20" viewBox="0 0 20 20" fill="none" xmlns="http://www.w3.org/2000/svg">
<path d="M11.5 5C11.5 3.5 12.8431 2 14.5 2C17.5 2 18.111 4.27644 18 6.5C17.8676 9.15255 15 9 13 10.5C10.4002 12.4499 11 15 6.5 15C4.42434 15 2 13.5 2 11C2 9.5 3 7.5 5 7.5C6.5 7.5 7.4379 8 9 8C10.5 8 11.5 6.52505 11.5 5Z" stroke="#343434"/>
<path d="M11.5 8C11.5 6.5 12.8431 5 14.5 5C17.5 5 18.111 7.27644 18 9.5C17.8676 12.1526 15 12 13 13.5C10.4002 15.4499 11 18 6.5 18C4.42434 18 2 16.5 2 14C2 12.5 3 10.5 5 10.5C6.5 10.5 7.4379 11 9 11C10.5 11 11.5 9.52505 11.5 8Z" stroke="#343434"/>
<path d="M18 6L18 9" stroke="#343434"/>
</svg>
