<svg width="14" height="14" viewBox="0 0 14 14" fill="none" xmlns="http://www.w3.org/2000/svg">
<g clip-path="url(#clip0_13636_19366)">
<path d="M14 3.03073C14 2.61748 13.5919 2.28223 13.0888 2.28223H0.911217C0.40813 2.28223 0 2.61748 0 3.03073V4.53373C0 4.94698 0.40813 5.28223 0.911217 5.28223H13.0888C13.5919 5.28223 14 4.94698 14 4.53373V3.03073Z" fill="#00BAF7"/>
<path d="M14 8.81393C14 8.40068 13.5919 8.06543 13.0888 8.06543H0.911217C0.40813 8.06543 0 8.40068 0 8.81393V10.3169C0 10.7302 0.40813 11.0654 0.911217 11.0654H13.0888C13.5919 11.0654 14 10.7302 14 10.3169V8.81393Z" fill="#00BAF7"/>
</g>
<defs>
<clipPath id="clip0_13636_19366">
<rect width="14" height="14" fill="white"/>
</clipPath>
</defs>
</svg>
