<svg width="14" height="14" viewBox="0 0 14 14" fill="none" xmlns="http://www.w3.org/2000/svg">
<g clip-path="url(#clip0_13405_5653)">
<path d="M13.4532 6.45312H3.9447C3.64266 6.45312 3.39783 6.76652 3.39783 7.15312C3.39783 7.53973 3.64266 7.85312 3.9447 7.85312H13.4532C13.7552 7.85312 14 7.53973 14 7.15312C14 6.76652 13.7552 6.45312 13.4532 6.45312Z" fill="#343434"/>
<path d="M13.4532 2.35156H3.9447C3.64266 2.35156 3.39783 2.66495 3.39783 3.05156C3.39783 3.43817 3.64266 3.75156 3.9447 3.75156H13.4532C13.7552 3.75156 14 3.43817 14 3.05156C14 2.66495 13.7552 2.35156 13.4532 2.35156Z" fill="#343434"/>
<path d="M13.4532 10.5547H3.9447C3.64266 10.5547 3.39783 10.8681 3.39783 11.2547C3.39783 11.6413 3.64266 11.9547 3.9447 11.9547H13.4532C13.7552 11.9547 14 11.6413 14 11.2547C14 10.8681 13.7552 10.5547 13.4532 10.5547Z" fill="#343434"/>
<path d="M0.738281 3.63672C1.14602 3.63672 1.47656 3.30618 1.47656 2.89844C1.47656 2.4907 1.14602 2.16016 0.738281 2.16016C0.33054 2.16016 0 2.4907 0 2.89844C0 3.30618 0.33054 3.63672 0.738281 3.63672Z" fill="#343434"/>
<path d="M0.738281 7.73828C1.14602 7.73828 1.47656 7.40774 1.47656 7C1.47656 6.59226 1.14602 6.26172 0.738281 6.26172C0.33054 6.26172 0 6.59226 0 7C0 7.40774 0.33054 7.73828 0.738281 7.73828Z" fill="#343434"/>
<path d="M0.738281 11.8398C1.14602 11.8398 1.47656 11.5093 1.47656 11.1016C1.47656 10.6938 1.14602 10.3633 0.738281 10.3633C0.33054 10.3633 0 10.6938 0 11.1016C0 11.5093 0.33054 11.8398 0.738281 11.8398Z" fill="#343434"/>
</g>
<defs>
<clipPath id="clip0_13405_5653">
<rect width="14" height="14" fill="white"/>
</clipPath>
</defs>
</svg>
