<svg width="14" height="14" viewBox="0 0 14 14" fill="none" xmlns="http://www.w3.org/2000/svg">
<path d="M9.5 2.24545L9.5 11.7539C9.5 12.0559 9.81339 12.3008 10.2 12.3008C10.5866 12.3008 10.9 12.0559 10.9 11.7539L10.9 2.24545C10.9 1.94341 10.5866 1.69857 10.2 1.69857C9.81339 1.69857 9.5 1.94341 9.5 2.24545Z" fill="#343434"/>
<path d="M3.1001 2.24545L3.1001 11.7539C3.1001 12.0559 3.41349 12.3008 3.8001 12.3008C4.18671 12.3008 4.5001 12.0559 4.5001 11.7539L4.5001 2.24545C4.5001 1.94341 4.18671 1.69857 3.8001 1.69857C3.41349 1.69857 3.1001 1.94341 3.1001 2.24545Z" fill="#343434"/>
</svg>
