<svg width="14" height="14" viewBox="0 0 14 14" fill="none" xmlns="http://www.w3.org/2000/svg">
<g clip-path="url(#clip0_13602_14625)">
<path d="M11.9497 2.05023C10.6276 0.728137 8.86977 0 7 0C5.13023 0 3.37239 0.728137 2.05026 2.05023C0.728137 3.37239 0 5.13023 0 7C0 8.86977 0.728137 10.6276 2.05026 11.9498C3.37239 13.2719 5.13023 14 7 14C8.41132 14 9.77173 13.5818 10.9342 12.7906C11.1838 12.6206 11.2485 12.2805 11.0785 12.0308C10.9086 11.7811 10.5684 11.7164 10.3187 11.8864C9.33849 12.5536 8.1909 12.9062 7 12.9062C3.74328 12.9062 1.09375 10.2567 1.09375 7C1.09375 3.74328 3.74328 1.09375 7 1.09375C10.2567 1.09375 12.9062 3.74328 12.9062 7C12.9062 8.08719 12.6086 9.14955 12.0454 10.0723C11.888 10.3301 11.9695 10.6666 12.2273 10.824C12.485 10.9814 12.8216 10.8998 12.979 10.6421C13.6469 9.5477 14 8.28827 14 7C14 5.13023 13.2719 3.37239 11.9497 2.05023Z" fill="black"/>
<path d="M9.25274 4.7471C9.03916 4.53352 8.6929 4.53352 8.47935 4.7471L7.00003 6.22642L5.5207 4.7471C5.30712 4.53352 4.96087 4.53352 4.74731 4.7471C4.53376 4.96068 4.53373 5.30696 4.74731 5.52052L6.22661 6.99984L4.74728 8.47917C4.5337 8.69275 4.5337 9.03903 4.74728 9.25258C4.85406 9.35936 4.99401 9.41274 5.13398 9.41274C5.27395 9.41274 5.4139 9.35936 5.52067 9.25258L7.00003 7.77326L8.47935 9.25258C8.58613 9.35936 8.72607 9.41274 8.86605 9.41274C9.00602 9.41274 9.14596 9.35936 9.25274 9.25258C9.46632 9.039 9.46632 8.69272 9.25274 8.47917L7.77344 6.99984L9.25277 5.52052C9.46632 5.30696 9.46632 4.96068 9.25274 4.7471Z" fill="black"/>
</g>
<defs>
<clipPath id="clip0_13602_14625">
<rect width="14" height="14" fill="white"/>
</clipPath>
</defs>
</svg>
