<svg width="54" height="54" viewBox="0 0 54 54" fill="none" xmlns="http://www.w3.org/2000/svg">
<path d="M37.1544 8.98581C38.2625 9.44638 40.1303 10.9447 40.9258 11.6363L38.3926 16.1335C37.6284 14.7817 36.8743 13.9245 35.4665 12.7514C34.1284 11.6363 32.5294 11.3501 31.3112 11.0243L32.5586 8.02317C33.6099 8.09918 36.0463 8.52524 37.1544 8.98581Z" fill="#AFAFAF" stroke="white" stroke-linejoin="round"/>
<path d="M35.4664 12.7514C34.6279 12.0225 32.5293 11.3502 31.3111 11.0243C30.8693 11.6529 29.205 13.6478 29 14.5C26.295 21.8522 28.1278 26.2816 23.9103 36.6462C24.5579 36.8251 25.4941 37.0667 26.2188 37.6057C27.1279 38.2818 27.6249 39.2818 27.6249 40.0852C27.6249 40.0852 36.1278 27.7816 37.628 23.2818C38.3924 20.2345 37.355 17.3267 38.3924 16.1335C37.6279 14.7818 37.318 14.3612 35.4664 12.7514Z" fill="#AFAFAF" stroke="white" stroke-linejoin="round"/>
<path d="M37.6274 16.2819C37.6275 17.2818 38.3922 20.2349 37.6278 23.2822C36.1276 27.782 27.6246 40.0856 27.6246 40.0856C27.6246 40.0856 29.6275 26.2819 32.6275 19.2819C33.0275 18.0819 35.6274 15.7817 37.6274 16.2819Z" fill="#00BAF7" stroke="white" stroke-linejoin="round"/>
<path d="M26.2192 37.6057C25.4948 37.0671 24.5583 36.8251 23.9107 36.6462C23.6099 37.1528 22.6513 38.5659 22.1284 38.7818C21.4748 39.0516 19.5005 38.9142 18.0005 39.4998C16.5005 40.0853 15.0005 40.9998 11.0005 40.9998C10.5777 41.3655 11.0005 43.2709 12.5005 43.9998C14.0005 44.7286 17.0005 43.9998 20.0005 44.4998C21.5634 44.7602 22.6077 45.8836 23.7843 46.0693C25.1285 46.2815 26.8034 45.7166 27.1483 44.4895C27.6284 42.7817 27.0106 40.9128 27.6252 40.0853C27.6284 39.7818 27.1284 38.2818 26.2192 37.6057Z" fill="#AFAFAF" stroke="white" stroke-linejoin="round"/>
</svg>
