<svg width="54" height="54" viewBox="0 0 54 54" fill="none" xmlns="http://www.w3.org/2000/svg">
<path d="M37.473 23.4674C39.1531 20.4074 41.0966 13.1181 40.9963 10.7795C39.5 8.29375 37 6.79395 32.3823 9.26192C30.9028 12.7324 30.0752 18.5664 30 22.0369C32.1065 24.5621 34.3634 24.8606 37.473 23.4674Z" fill="#AFAFAF"/>
<path d="M40.9963 10.7795C41.0966 13.1181 39.1531 20.4074 37.473 23.4674C34.3634 24.8606 32.1065 24.5621 30 22.0369C30.0752 18.5664 30.9028 12.7324 32.3823 9.26192C37 6.79395 39.5 8.29375 40.9963 10.7795ZM40.9963 10.7795H40.9837" stroke="white" stroke-linecap="round" stroke-linejoin="round"/>
<path d="M32.7862 20.3075C31.1534 20.2264 27.7428 20.9561 20 36.6453C20 36.6453 20.9086 36.8345 22.1596 37.3345C23.3052 37.794 24.1875 39.2939 24.1875 39.2939C24.1875 39.2939 24.6615 38.375 25.1092 37.1994C26.6367 33.2399 32.378 33.6588 34.9853 26.8615C35.6964 25.0237 37 22.875 37 22.875C37 22.875 35.1433 20.4021 32.773 20.2939L32.7862 20.3075Z" fill="#00BAF7" stroke="white" stroke-linecap="round" stroke-linejoin="round"/>
<path d="M20.0865 36.3204C19.8214 36.6509 17.0188 37.9595 16.7915 38.105C15.9962 38.6337 14.8726 38.9113 14.4182 39.7838C14.4182 39.797 14.4055 39.8102 14.3929 39.8234C14.3045 40.0085 14.254 40.22 14.2288 40.458C14.2035 40.8016 13.9258 41.6477 13.8753 41.7666C13.8248 41.8856 13.2946 42.3879 13.08 42.9564C12.878 43.5248 13.08 44.1593 13.4461 44.3972C13.7996 44.6352 14.2162 44.4898 14.2162 44.4898C14.2162 44.4898 14.2919 44.8996 14.456 45.0846C14.6201 45.2697 14.9105 45.4548 15.0368 45.5209C15.163 45.5737 15.7058 45.3887 15.7058 45.3887C15.7058 45.3887 15.87 45.7985 16.2108 46.0232C16.5517 46.2479 16.943 46.2215 17.0061 46.1818C17.0693 46.1422 17.3849 45.8646 17.3849 45.8646C17.3849 45.8646 17.6247 46.1157 17.9151 46.2611C18.2054 46.4065 19.0387 46.0232 19.2028 45.9967C19.3669 45.9703 19.6446 45.5605 19.8845 45.587C20.1243 45.6266 20.2506 45.5209 20.3137 45.2697C20.339 45.1904 20.4399 45.0582 20.5788 44.8731C20.9197 44.4501 21.513 43.8024 21.816 43.3397C22.2452 42.6788 22.7502 41.1321 22.9648 40.7884C23.0532 40.643 23.1668 40.4183 23.3183 40.1275C23.4824 39.797 23.7096 39.4004 24 38.951C24 38.951 23.1794 37.7348 22.321 37.1796C21.5383 36.6641 20.1117 36.2939 20.1117 36.2939L20.0865 36.3204Z" fill="#AFAFAF" stroke="white" stroke-miterlimit="10"/>
</svg>
