<svg width="54" height="54" viewBox="0 0 54 54" fill="none" xmlns="http://www.w3.org/2000/svg">
<path d="M12 25.426C12 24.3244 12.9091 21.907 13.3636 20.8359C14.2727 22.366 16.7273 25.426 19.2727 25.426C22.0469 25.426 25.8577 24.0303 26.7886 22.76L27 22.213C27 22.3894 26.9254 22.5733 26.7886 22.76L19.7273 41.0323C18.8182 39.9613 16.7273 37.7274 15.6364 37.3602C14.5455 36.993 12.7576 37.5132 12 37.8192V25.426Z" fill="#AFAFAF" stroke="white" stroke-linejoin="round"/>
<path d="M27 16.1655V22.1823C27 24.0337 22.4167 25.885 19.2083 25.885C16.6417 25.885 14.1667 22.7994 13.25 21.2567L16.9167 13.3885C17.5278 12.9257 19.3917 12 21.9583 12C24.525 12 26.3889 14.777 27 16.1655Z" fill="#00BAF7" stroke="white" stroke-linejoin="round"/>
<path d="M42 25.426C42 24.3244 41.0909 21.907 40.6364 20.8359C39.7273 22.366 37.2727 25.426 34.7273 25.426C31.9531 25.426 28.1423 24.0303 27.2114 22.76L27 22.213C27 22.3894 27.0746 22.5733 27.2114 22.76L34.2727 41.0323C35.1818 39.9613 37.2727 37.7274 38.3636 37.3602C39.4545 36.993 41.2424 37.5132 42 37.8192V25.426Z" fill="#AFAFAF" stroke="white" stroke-linejoin="round"/>
<path d="M27 16.1655V22.1823C27 24.0337 31.5833 25.885 34.7917 25.885C37.3583 25.885 39.8333 22.7994 40.75 21.2567L37.0833 13.3885C36.4722 12.9257 34.6083 12 32.0417 12C29.475 12 27.6111 14.777 27 16.1655Z" fill="#00BAF7" stroke="white" stroke-linejoin="round"/>
</svg>
