<svg width="39" height="30" viewBox="0 0 39 30" fill="none" xmlns="http://www.w3.org/2000/svg">
<path d="M19.62 3.81C24.01 3.81 25.85 0.5 25.85 0.5C30.98 1.35 32.4 2.08 34.46 4.31C36.74 6.77 36.76 8.72 36.45 11.26C37.63 14.05 38.29 18.74 38.35 21.53C36.67 23.55 34.87 23.8 32.39 22.68C31.05 20.22 30.48 15.73 29.57 11.8C29.04 20.15 26.97 29.39 26.97 29.39C26.97 29.39 23.08 28.4 19.5 28.4H19.35C15.77 28.4 11.88 29.39 11.88 29.39C11.88 29.39 9.81 20.16 9.28 11.8C8.37 15.73 7.8 20.22 6.46 22.68C3.98 23.8 2.18 23.56 0.5 21.53C0.56 18.74 1.22 14.05 2.4 11.26C2.09 8.72 2.11 6.77 4.39 4.31C6.45 2.08 7.86 1.35 13 0.5C13 0.5 14.84 3.81 19.23 3.81H19.63H19.62Z" fill="#AFAFAF"/>
<path d="M29.5801 12.4798C29.5001 14.3598 31.05 20.22 32.39 22.68C34.87 23.8 36.67 23.56 38.35 21.53C38.29 18.74 37.63 14.05 36.45 11.26C34.86 9.72 32.8401 8.62982 30.3301 8.06982C30.2701 9.70982 29.6601 11.0698 29.5901 12.4798H29.5801Z" fill="#00BAF7"/>
<path d="M9.27 12.4798C9.35 14.3598 7.8 20.22 6.46 22.68C3.98 23.8 2.18 23.56 0.5 21.53C0.56 18.74 1.22 14.05 2.4 11.26C3.99 9.72 6.01 8.62982 8.52 8.06982C8.58 9.70982 9.19 11.0698 9.26 12.4798H9.27Z" fill="#00BAF7"/>
<path d="M36.4401 11.26C34.8501 9.72 32.8301 8.63 30.3201 8.07C27.8001 6.52 26.38 3.93 25.85 0.5C30.98 1.35 32.4 2.08 34.46 4.31C36.74 6.77 36.76 8.72 36.45 11.26" fill="#AFAFAF"/>
<path d="M2.4 11.26C3.99 9.72 6.01 8.62982 8.52 8.06982C11.04 6.51982 12.46 3.93 12.99 0.5C7.86003 1.35 6.44003 2.08 4.38003 4.31C2.10003 6.77 2.08003 8.72 2.39003 11.26" fill="#AFAFAF"/>
<path d="M10.6699 6.70996C10.6699 6.70996 12.5899 12.36 15.1999 13.48C15.1999 13.48 19.0499 15.65 19.4799 17.76C19.4799 17.76 18.9799 25.83 16.6699 28.64C16.6699 28.64 12.8599 25.25 11.3699 24.83C11.3699 24.83 9.83994 16.78 9.68994 11.84C9.68994 11.84 10.5699 9.62996 10.6599 6.70996H10.6699Z" fill="#AFAFAF"/>
<path d="M28.7299 6.70996C28.7299 6.70996 26.8099 12.36 24.1999 13.48C24.1999 13.48 20.3499 15.65 19.9199 17.76C19.9199 17.76 20.4199 25.83 22.7299 28.64C22.7299 28.64 26.5399 25.25 28.0299 24.83C28.0299 24.83 29.5599 16.78 29.7099 11.84C29.7099 11.84 28.8299 9.62996 28.7399 6.70996H28.7299Z" fill="#AFAFAF"/>
<path d="M25.85 0.5C25.85 0.5 24.01 3.81 19.62 3.81H19.63H19.23C14.84 3.81 13 0.5 13 0.5C7.86 1.35 6.45 2.08 4.39 4.31C2.11 6.77 2.09 8.72 2.4 11.26M25.85 0.5C30.98 1.35 32.4 2.08 34.46 4.31C36.74 6.77 36.76 8.72 36.45 11.26M25.85 0.5C26.38 3.93 27.8001 6.52 30.3201 8.07C32.8301 8.63 34.8501 9.72 36.4401 11.26M36.45 11.26C37.63 14.05 38.29 18.74 38.35 21.53M36.45 11.26C34.86 9.72 32.8401 8.62982 30.3301 8.06982C30.2701 9.70982 29.6601 11.0698 29.5901 12.4798H29.5801C29.5001 14.3598 31.05 20.22 32.39 22.68M38.35 21.53C36.67 23.55 34.87 23.8 32.39 22.68M38.35 21.53C36.67 23.56 34.87 23.8 32.39 22.68M32.39 22.68C31.05 20.22 30.48 15.73 29.57 11.8C29.04 20.15 26.97 29.39 26.97 29.39C26.97 29.39 23.08 28.4 19.5 28.4H19.35C15.77 28.4 11.88 29.39 11.88 29.39C11.88 29.39 9.81 20.16 9.28 11.8C8.37 15.73 7.8 20.22 6.46 22.68M6.46 22.68C3.98 23.8 2.18 23.56 0.5 21.53C0.56 18.74 1.22 14.05 2.4 11.26M6.46 22.68C7.8 20.22 9.35 14.3598 9.27 12.4798H9.26C9.19 11.0698 8.58 9.70982 8.52 8.06982M2.4 11.26C3.99 9.72 6.01 8.62982 8.52 8.06982M8.52 8.06982C11.04 6.51982 12.46 3.93 12.99 0.5C7.86003 1.35 6.44003 2.08 4.38003 4.31C2.10003 6.77 2.08003 8.72 2.39003 11.26M10.6699 6.70996C10.6699 6.70996 12.5899 12.36 15.1999 13.48C15.1999 13.48 19.0499 15.65 19.4799 17.76C19.4799 17.76 18.9799 25.83 16.6699 28.64C16.6699 28.64 12.8599 25.25 11.3699 24.83C11.3699 24.83 9.83994 16.78 9.68994 11.84C9.68994 11.84 10.5699 9.62996 10.6599 6.70996H10.6699ZM28.7299 6.70996C28.7299 6.70996 26.8099 12.36 24.1999 13.48C24.1999 13.48 20.3499 15.65 19.9199 17.76C19.9199 17.76 20.4199 25.83 22.7299 28.64C22.7299 28.64 26.5399 25.25 28.0299 24.83C28.0299 24.83 29.5599 16.78 29.7099 11.84C29.7099 11.84 28.8299 9.62996 28.7399 6.70996H28.7299Z" stroke="white" stroke-linecap="round" stroke-linejoin="round"/>
</svg>
