<svg width="18" height="18" viewBox="0 0 18 18" fill="none" xmlns="http://www.w3.org/2000/svg">
<path d="M3 16.5C2.5875 16.5 2.23438 16.3531 1.94063 16.0593C1.64688 15.7656 1.5 15.4125 1.5 15V4.49995C1.5 4.08745 1.64688 3.73433 1.94063 3.44058C2.23438 3.14683 2.5875 2.99995 3 2.99995H9.69375L8.19375 4.49995H3V15H13.5V9.78745L15 8.28745V15C15 15.4125 14.8531 15.7656 14.5594 16.0593C14.2656 16.3531 13.9125 16.5 13.5 16.5H3ZM6 12V8.81245L12.8813 1.9312C13.0313 1.7812 13.2 1.6687 13.3875 1.5937C13.575 1.5187 13.7625 1.4812 13.95 1.4812C14.15 1.4812 14.3406 1.5187 14.5219 1.5937C14.7031 1.6687 14.8688 1.7812 15.0188 1.9312L16.0688 2.99995C16.2063 3.14995 16.3125 3.31558 16.3875 3.49683C16.4625 3.67808 16.5 3.86245 16.5 4.04995C16.5 4.23745 16.4656 4.42183 16.3969 4.60308C16.3281 4.78433 16.2188 4.94995 16.0688 5.09995L9.1875 12H6ZM7.5 10.5H8.55L12.9 6.14995L12.375 5.62495L11.8313 5.09995L7.5 9.4312V10.5Z" fill="#343434"/>
</svg>
