<svg width="18" height="19" viewBox="0 0 18 19" fill="none" xmlns="http://www.w3.org/2000/svg">
<path d="M13.5703 8.08594C13.9586 8.08594 14.2734 7.77114 14.2734 7.38281C14.2734 6.99449 13.9586 6.67969 13.5703 6.67969C13.182 6.67969 12.8672 6.99449 12.8672 7.38281C12.8672 7.77114 13.182 8.08594 13.5703 8.08594Z" fill="#343434"/>
<path d="M15.1875 1.40625H14.2734V0.703125C14.2734 0.314789 13.9586 0 13.5703 0C13.182 0 12.8672 0.314789 12.8672 0.703125V1.40625H9.66797V0.703125C9.66797 0.314789 9.35318 0 8.96484 0C8.57651 0 8.26172 0.314789 8.26172 0.703125V1.40625H5.09766V0.703125C5.09766 0.314789 4.78287 0 4.39453 0C4.0062 0 3.69141 0.314789 3.69141 0.703125V1.40625H2.8125C1.26169 1.40625 0 2.66794 0 4.21875V15.1875C0 16.7383 1.26169 18 2.8125 18H8.19141C8.57974 18 8.89453 17.6852 8.89453 17.2969C8.89453 16.9085 8.57974 16.5938 8.19141 16.5938H2.8125C2.03709 16.5938 1.40625 15.9629 1.40625 15.1875V4.21875C1.40625 3.44334 2.03709 2.8125 2.8125 2.8125H3.69141V3.51562C3.69141 3.90396 4.0062 4.21875 4.39453 4.21875C4.78287 4.21875 5.09766 3.90396 5.09766 3.51562V2.8125H8.26172V3.51562C8.26172 3.90396 8.57651 4.21875 8.96484 4.21875C9.35318 4.21875 9.66797 3.90396 9.66797 3.51562V2.8125H12.8672V3.51562C12.8672 3.90396 13.182 4.21875 13.5703 4.21875C13.9586 4.21875 14.2734 3.90396 14.2734 3.51562V2.8125H15.1875C15.9629 2.8125 16.5938 3.44334 16.5938 4.21875V8.22656C16.5938 8.6149 16.9085 8.92969 17.2969 8.92969C17.6852 8.92969 18 8.6149 18 8.22656V4.21875C18 2.66794 16.7383 1.40625 15.1875 1.40625Z" fill="#343434"/>
<path d="M16.8294 11.7052L16.6397 11.4731L15.4901 12.6227L15.628 12.8103C15.8679 13.1366 15.9946 13.5246 15.9946 13.9323C15.9946 14.9789 15.1432 15.8303 14.0966 15.8303H13.8372V14.7831L11.9766 16.6438L13.8372 18.5044V17.4572H14.0966C16.0402 17.4572 17.6215 15.8759 17.6215 13.9323C17.6215 13.1211 17.3402 12.3302 16.8294 11.7052Z" fill="#343434"/>
<path d="M16.2035 11.0774L14.3429 9.2168V10.264H14.0835C12.1399 10.264 10.5586 11.8453 10.5586 13.7889C10.5586 14.6001 10.8399 15.391 11.3507 16.016L11.5404 16.248L12.69 15.0985L12.5521 14.9108C12.3122 14.5846 12.1855 14.1966 12.1855 13.7889C12.1855 12.7423 13.0369 11.8909 14.0835 11.8909H14.3429V12.938L16.2035 11.0774Z" fill="#343434"/>
<path d="M10.5117 8.08594C10.9 8.08594 11.2148 7.77114 11.2148 7.38281C11.2148 6.99449 10.9 6.67969 10.5117 6.67969C10.1234 6.67969 9.80859 6.99449 9.80859 7.38281C9.80859 7.77114 10.1234 8.08594 10.5117 8.08594Z" fill="#343434"/>
<path d="M7.45312 11.1445C7.84145 11.1445 8.15625 10.8297 8.15625 10.4414C8.15625 10.0531 7.84145 9.73828 7.45312 9.73828C7.0648 9.73828 6.75 10.0531 6.75 10.4414C6.75 10.8297 7.0648 11.1445 7.45312 11.1445Z" fill="#343434"/>
<path d="M4.39453 8.08594C4.78286 8.08594 5.09766 7.77114 5.09766 7.38281C5.09766 6.99449 4.78286 6.67969 4.39453 6.67969C4.00621 6.67969 3.69141 6.99449 3.69141 7.38281C3.69141 7.77114 4.00621 8.08594 4.39453 8.08594Z" fill="#343434"/>
<path d="M4.39453 11.1445C4.78286 11.1445 5.09766 10.8297 5.09766 10.4414C5.09766 10.0531 4.78286 9.73828 4.39453 9.73828C4.00621 9.73828 3.69141 10.0531 3.69141 10.4414C3.69141 10.8297 4.00621 11.1445 4.39453 11.1445Z" fill="#343434"/>
<path d="M4.39453 14.2031C4.78286 14.2031 5.09766 13.8883 5.09766 13.5C5.09766 13.1117 4.78286 12.7969 4.39453 12.7969C4.00621 12.7969 3.69141 13.1117 3.69141 13.5C3.69141 13.8883 4.00621 14.2031 4.39453 14.2031Z" fill="#343434"/>
<path d="M7.45312 14.2031C7.84145 14.2031 8.15625 13.8883 8.15625 13.5C8.15625 13.1117 7.84145 12.7969 7.45312 12.7969C7.0648 12.7969 6.75 13.1117 6.75 13.5C6.75 13.8883 7.0648 14.2031 7.45312 14.2031Z" fill="#343434"/>
<path d="M7.45312 8.08594C7.84145 8.08594 8.15625 7.77114 8.15625 7.38281C8.15625 6.99449 7.84145 6.67969 7.45312 6.67969C7.0648 6.67969 6.75 6.99449 6.75 7.38281C6.75 7.77114 7.0648 8.08594 7.45312 8.08594Z" fill="#343434"/>
</svg>
