<svg width="54" height="54" viewBox="0 0 54 54" fill="none" xmlns="http://www.w3.org/2000/svg">
<path d="M12 25.4112C12 24.3108 12.9091 21.896 13.3636 20.8262C14.2727 22.3545 16.7273 25.4112 19.2727 25.4112C22.0469 25.4112 25.8577 24.017 26.7886 22.7481L27 22.2017C27 22.3779 26.9254 22.5616 26.7886 22.7481L19.7273 41.0001C18.8182 39.9303 16.7273 37.6989 15.6364 37.3321C14.5455 36.9653 12.7576 37.4849 12 37.7906V25.4112Z" fill="#00BAF7" stroke="white" stroke-linejoin="round"/>
<path d="M27 16.1609V22.171C27 24.0203 22.4167 25.8696 19.2083 25.8696C16.6417 25.8696 14.1667 22.7874 13.25 21.2464L16.9167 13.387C17.5278 12.9246 19.3917 12 21.9583 12C24.525 12 26.3889 14.7739 27 16.1609Z" fill="#AFAFAF" stroke="white" stroke-linejoin="round"/>
<path d="M42 25.4112C42 24.3108 41.0909 21.896 40.6364 20.8262C39.7273 22.3545 37.2727 25.4112 34.7273 25.4112C31.9531 25.4112 28.1423 24.017 27.2114 22.7481L27 22.2017C27 22.3779 27.0746 22.5616 27.2114 22.7481L34.2727 41.0001C35.1818 39.9303 37.2727 37.6989 38.3636 37.3321C39.4545 36.9653 41.2424 37.4849 42 37.7906V25.4112Z" fill="#00BAF7" stroke="white" stroke-linejoin="round"/>
<path d="M27 16.1609V22.171C27 24.0203 31.5833 25.8696 34.7917 25.8696C37.3583 25.8696 39.8333 22.7874 40.75 21.2464L37.0833 13.387C36.4722 12.9246 34.6083 12 32.0417 12C29.475 12 27.6111 14.7739 27 16.1609Z" fill="#AFAFAF" stroke="white" stroke-linejoin="round"/>
</svg>
