<svg width="54" height="54" viewBox="0 0 54 54" fill="none" xmlns="http://www.w3.org/2000/svg">
<path d="M27.37 16.56C31.76 16.56 33.6 13.25 33.6 13.25C38.73 14.1 40.15 14.83 42.21 17.06C44.49 19.52 44.51 21.47 44.2 24.01C45.38 26.8 46.04 31.49 46.1 34.28C44.42 36.3 42.62 36.55 40.14 35.43C38.8 32.97 38.23 28.48 37.32 24.55C36.79 32.9 34.72 42.14 34.72 42.14C34.72 42.14 30.83 41.15 27.25 41.15H27.1C23.52 41.15 19.63 42.14 19.63 42.14C19.63 42.14 17.56 32.91 17.03 24.55C16.12 28.48 15.55 32.97 14.21 35.43C11.73 36.55 9.93 36.31 8.25 34.28C8.31 31.49 8.97 26.8 10.15 24.01C9.84 21.47 9.86 19.52 12.14 17.06C14.2 14.83 15.61 14.1 20.75 13.25C20.75 13.25 22.59 16.56 26.98 16.56H27.38H27.37Z" fill="#AFAFAF" stroke="white" stroke-width="0.5" stroke-linecap="round" stroke-linejoin="round"/>
<path d="M34.7193 42.1398C34.7193 42.1398 36.7893 32.8998 37.3193 24.5498V23.5C36.546 24.5 34.4995 26.5 32.4995 26.5C30.4995 26.5 28.166 26.1667 27.2493 26C25.9994 26.1667 23.1995 26.5 21.9995 26.5C20.7995 26.5 18.186 24.5 17.0293 23.5V24.5498C17.5593 32.9098 19.6293 42.1398 19.6293 42.1398C19.6293 42.1398 23.5193 41.1498 27.0993 41.1498H27.2493C30.8293 41.1498 34.7193 42.1398 34.7193 42.1398Z" fill="#00BAF7" stroke="white" stroke-width="0.5" stroke-linecap="round" stroke-linejoin="round"/>
<path d="M25.4795 16.9101C23.0595 15.9701 22.3795 15.8001 20.0395 16.1701C19.1695 18.3601 18.1095 19.7001 16.2695 20.8301C17.6695 25.7701 21.7095 27.3101 26.4295 26.0401C27.3195 24.4701 26.8695 18.8901 25.4795 16.9201V16.9101Z" fill="#AFAFAF" stroke="white" stroke-linecap="round" stroke-linejoin="round"/>
<path d="M28.8594 16.9101C31.2794 15.9701 31.9594 15.8001 34.2994 16.1701C35.1694 18.3601 36.2294 19.7001 38.0694 20.8301C36.6694 25.7701 32.6294 27.3101 27.9094 26.0401C27.0194 24.4701 27.4694 18.8901 28.8594 16.9201V16.9101Z" fill="#AFAFAF" stroke="white" stroke-linecap="round" stroke-linejoin="round"/>
<path d="M37.3301 25.2298C37.2501 27.1098 38.8001 32.9698 40.1401 35.4298C42.6201 36.5498 44.4201 36.3098 46.1001 34.2798C46.0401 31.4898 45.3801 26.7998 44.2001 24.0098C42.6101 22.4698 40.5901 21.3798 38.0801 20.8198C38.0201 22.4598 37.4101 23.8198 37.3401 25.2298H37.3301Z" fill="#AFAFAF" stroke="white" stroke-linecap="round" stroke-linejoin="round"/>
<path d="M17.02 25.2298C17.1 27.1098 15.55 32.9698 14.21 35.4298C11.73 36.5498 9.93 36.3098 8.25 34.2798C8.31 31.4898 8.97 26.7998 10.15 24.0098C11.74 22.4698 13.76 21.3798 16.27 20.8198C16.33 22.4598 16.94 23.8198 17.01 25.2298H17.02Z" fill="#AFAFAF" stroke="white" stroke-linecap="round" stroke-linejoin="round"/>
<path d="M44.1896 24.01C42.5996 22.47 40.5796 21.38 38.0696 20.82C35.5496 19.27 34.1296 16.68 33.5996 13.25C38.7296 14.1 40.1496 14.83 42.2096 17.06C44.4896 19.52 44.5096 21.47 44.1996 24.01" fill="#AFAFAF"/>
<path d="M44.1896 24.01C42.5996 22.47 40.5796 21.38 38.0696 20.82C35.5496 19.27 34.1296 16.68 33.5996 13.25C38.7296 14.1 40.1496 14.83 42.2096 17.06C44.4896 19.52 44.5096 21.47 44.1996 24.01" stroke="white" stroke-linecap="round" stroke-linejoin="round"/>
<path d="M10.15 24.01C11.74 22.47 13.76 21.38 16.27 20.82C18.79 19.27 20.21 16.68 20.74 13.25C15.61 14.1 14.19 14.83 12.13 17.06C9.85003 19.52 9.83003 21.47 10.14 24.01" fill="#AFAFAF"/>
<path d="M10.15 24.01C11.74 22.47 13.76 21.38 16.27 20.82C18.79 19.27 20.21 16.68 20.74 13.25C15.61 14.1 14.19 14.83 12.13 17.06C9.85003 19.52 9.83003 21.47 10.14 24.01" stroke="white" stroke-linecap="round" stroke-linejoin="round"/>
<path d="M27.1504 22.9702L27.2504 41.1402C27.2504 41.1402 29.4904 41.1402 32.0704 41.6002C32.0704 41.6002 31.6804 34.8002 31.6804 31.7802C31.6804 28.7602 32.7804 28.6002 32.7804 26.3302C32.7804 26.3302 29.2804 26.8202 27.9204 26.0402L27.1504 22.9702Z" fill="#AFAFAF" stroke="white" stroke-linecap="round" stroke-linejoin="round"/>
<path d="M27.2109 28.7202C27.2109 30.3502 31.6009 30.1902 31.6009 30.1902L27.2109 28.7202Z" fill="#AFAFAF"/>
<path d="M27.2109 28.7202C27.2109 30.3502 31.6009 30.1902 31.6009 30.1902" stroke="white" stroke-linecap="round" stroke-linejoin="round"/>
<path d="M27.2109 32.8599C27.2109 34.5799 31.4309 34.2699 31.4309 34.2699L27.2109 32.8599Z" fill="#AFAFAF"/>
<path d="M27.2109 32.8599C27.2109 34.5799 31.4309 34.2699 31.4309 34.2699" stroke="white" stroke-linecap="round" stroke-linejoin="round"/>
<path d="M27.2109 36.8301C27.2109 38.0901 31.8009 38.3901 31.8009 38.3901L27.2109 36.8301Z" fill="#AFAFAF"/>
<path d="M27.2109 36.8301C27.2109 38.0901 31.8009 38.3901 31.8009 38.3901" stroke="white" stroke-linecap="round" stroke-linejoin="round"/>
<path d="M27.1493 22.9702L27.0493 41.1402C27.0493 41.1402 24.8093 41.1402 22.2293 41.6002C22.2293 41.6002 22.7293 34.8202 22.7293 31.8002C22.7293 28.7802 21.0293 28.6102 21.0293 26.3402C21.0293 26.3402 25.0093 26.8202 26.3793 26.0402L27.1493 22.9702Z" fill="#AFAFAF" stroke="white" stroke-linecap="round" stroke-linejoin="round"/>
<path d="M27.0795 28.7202C27.0795 30.3502 22.6895 30.1902 22.6895 30.1902L27.0795 28.7202Z" fill="#AFAFAF"/>
<path d="M27.0795 28.7202C27.0795 30.3502 22.6895 30.1902 22.6895 30.1902" stroke="white" stroke-linecap="round" stroke-linejoin="round"/>
<path d="M27.0794 32.8599C27.0794 34.5799 22.8594 34.2699 22.8594 34.2699L27.0794 32.8599Z" fill="#AFAFAF"/>
<path d="M27.0794 32.8599C27.0794 34.5799 22.8594 34.2699 22.8594 34.2699" stroke="white" stroke-linecap="round" stroke-linejoin="round"/>
<path d="M27.0802 36.8301C27.0802 38.0901 22.4902 38.3901 22.4902 38.3901L27.0802 36.8301Z" fill="#AFAFAF"/>
<path d="M27.0802 36.8301C27.0802 38.0901 22.4902 38.3901 22.4902 38.3901" stroke="white" stroke-linecap="round" stroke-linejoin="round"/>
</svg>
