<svg width="54" height="54" viewBox="0 0 54 54" fill="none" xmlns="http://www.w3.org/2000/svg">
<path d="M27.37 16.56C31.76 16.56 33.6 13.25 33.6 13.25C38.73 14.1 40.15 14.83 42.21 17.06C44.49 19.52 44.51 21.47 44.2 24.01C45.38 26.8 46.04 31.49 46.1 34.28C44.42 36.3 42.62 36.55 40.14 35.43C38.8 32.97 38.23 28.48 37.32 24.55C36.79 32.9 34.72 42.14 34.72 42.14C34.72 42.14 30.83 41.15 27.25 41.15H27.1C23.52 41.15 19.63 42.14 19.63 42.14C19.63 42.14 17.56 32.91 17.03 24.55C16.12 28.48 15.55 32.97 14.21 35.43C11.73 36.55 9.93 36.31 8.25 34.28C8.31 31.49 8.97 26.8 10.15 24.01C9.84 21.47 9.86 19.52 12.14 17.06C14.2 14.83 15.61 14.1 20.75 13.25C20.75 13.25 22.59 16.56 26.98 16.56H27.38H27.37Z" fill="#AFAFAF" stroke="white" stroke-width="0.5" stroke-linecap="round" stroke-linejoin="round"/>
<path d="M37.3301 25.2298C37.2501 27.1098 38.8001 32.9698 40.1401 35.4298C42.6201 36.5498 44.4201 36.3098 46.1001 34.2798C46.0401 31.4898 45.3801 26.7998 44.2001 24.0098C42.6101 22.4698 40.5901 21.3798 38.0801 20.8198C38.0201 22.4598 37.4101 23.8198 37.3401 25.2298H37.3301Z" fill="#AFAFAF" stroke="white" stroke-linecap="round" stroke-linejoin="round"/>
<path d="M17.02 25.2298C17.1 27.1098 15.55 32.9698 14.21 35.4298C11.73 36.5498 9.93 36.3098 8.25 34.2798C8.31 31.4898 8.97 26.7998 10.15 24.0098C11.74 22.4698 13.76 21.3798 16.27 20.8198C16.33 22.4598 16.94 23.8198 17.01 25.2298H17.02Z" fill="#AFAFAF" stroke="white" stroke-linecap="round" stroke-linejoin="round"/>
<path d="M44.1896 24.01C42.5996 22.47 40.5796 21.38 38.0696 20.82C35.5496 19.27 34.1296 16.68 33.5996 13.25C38.7296 14.1 40.1496 14.83 42.2096 17.06C44.4896 19.52 44.5096 21.47 44.1996 24.01" fill="#AFAFAF"/>
<path d="M44.1896 24.01C42.5996 22.47 40.5796 21.38 38.0696 20.82C35.5496 19.27 34.1296 16.68 33.5996 13.25C38.7296 14.1 40.1496 14.83 42.2096 17.06C44.4896 19.52 44.5096 21.47 44.1996 24.01" stroke="white" stroke-linecap="round" stroke-linejoin="round"/>
<path d="M10.15 24.01C11.74 22.47 13.76 21.38 16.27 20.82C18.79 19.27 20.21 16.68 20.74 13.25C15.61 14.1 14.19 14.83 12.13 17.06C9.85003 19.52 9.83003 21.47 10.14 24.01" fill="#AFAFAF"/>
<path d="M10.15 24.01C11.74 22.47 13.76 21.38 16.27 20.82C18.79 19.27 20.21 16.68 20.74 13.25C15.61 14.1 14.19 14.83 12.13 17.06C9.85003 19.52 9.83003 21.47 10.14 24.01" stroke="white" stroke-linecap="round" stroke-linejoin="round"/>
<path d="M18.4195 19.46C18.4195 19.46 20.3395 25.11 22.9495 26.23C22.9495 26.23 26.7995 28.4 27.2295 30.51C27.2295 30.51 26.7295 38.58 24.4195 41.39C24.4195 41.39 20.6095 38 19.1195 37.58C19.1195 37.58 17.5895 29.53 17.4395 24.59C17.4395 24.59 18.3195 22.38 18.4095 19.46H18.4195Z" fill="#AFAFAF" stroke="white" stroke-linecap="round" stroke-linejoin="round"/>
<path d="M36.4799 19.46C36.4799 19.46 34.5599 25.11 31.9499 26.23C31.9499 26.23 28.0999 28.4 27.6699 30.51C27.6699 30.51 28.1699 38.58 30.4799 41.39C30.4799 41.39 34.2899 38 35.7799 37.58C35.7799 37.58 37.3099 29.53 37.4599 24.59C37.4599 24.59 36.5799 22.38 36.4899 19.46H36.4799Z" fill="#AFAFAF" stroke="white" stroke-linecap="round" stroke-linejoin="round"/>
<path d="M25 7.5C24.8333 9 25 9.5 23 12C21 14.5 18.5 13.5 15 15.5C19 18 18.5 24.1 22.5 26.5C24.0459 27.4275 25 27 27 30.5V8C27 8 25.5 8 25 7.5Z" fill="#00BAF7" stroke="white" stroke-linejoin="round"/>
<path d="M29.5 7.5C29.6667 9 29.5 9.5 31.5 12C33.5 14.5 36 13.5 39.5 15.5C35.5 18 36 24.1 32 26.5C30.4541 27.4275 29.5 27 27.5 30.5V8C27.5 8 29 8 29.5 7.5Z" fill="#00BAF7" stroke="white" stroke-linejoin="round"/>
</svg>
