<svg width="39" height="30" viewBox="0 0 39 30" fill="none" xmlns="http://www.w3.org/2000/svg">
<path d="M19.62 3.81C24.01 3.81 25.85 0.5 25.85 0.5C30.98 1.35 32.4 2.08 34.46 4.31C36.74 6.77 36.76 8.72 36.45 11.26C37.63 14.05 38.29 18.74 38.35 21.53C36.67 23.55 34.87 23.8 32.39 22.68C31.05 20.22 30.48 15.73 29.57 11.8C29.04 20.15 26.97 29.39 26.97 29.39C26.97 29.39 23.08 28.4 19.5 28.4H19.35C15.77 28.4 11.88 29.39 11.88 29.39C11.88 29.39 9.81 20.16 9.28 11.8C8.37 15.73 7.8 20.22 6.46 22.68C3.98 23.8 2.18 23.56 0.5 21.53C0.56 18.74 1.22 14.05 2.4 11.26C2.09 8.72 2.11 6.77 4.39 4.31C6.45 2.08 7.86 1.35 13 0.5C13 0.5 14.84 3.81 19.23 3.81H19.63H19.62Z" fill="#AFAFAF"/>
<path d="M17.73 4.16006C15.31 3.22006 14.63 3.05006 12.29 3.42006C11.42 5.61006 10.36 6.95006 8.52002 8.08006C9.92002 13.0201 13.96 14.5601 18.68 13.2901C19.57 11.7201 19.12 6.14006 17.73 4.17006V4.16006Z" fill="#00BAF7"/>
<path d="M21.1099 4.16006C23.5299 3.22006 24.2099 3.05006 26.5499 3.42006C27.4199 5.61006 28.4799 6.95006 30.3199 8.08006C28.9199 13.0201 24.8799 14.5601 20.1599 13.2901C19.2699 11.7201 19.7199 6.14006 21.1099 4.17006V4.16006Z" fill="#00BAF7"/>
<path d="M29.5801 12.4798C29.5001 14.3598 31.05 20.22 32.39 22.68C34.87 23.8 36.67 23.56 38.35 21.53C38.29 18.74 37.63 14.05 36.45 11.26C34.86 9.72 32.8401 8.62982 30.3301 8.06982C30.2701 9.70982 29.6601 11.0698 29.5901 12.4798H29.5801Z" fill="#AFAFAF"/>
<path d="M9.27 12.4798C9.35 14.3598 7.8 20.22 6.46 22.68C3.98 23.8 2.18 23.56 0.5 21.53C0.56 18.74 1.22 14.05 2.4 11.26C3.99 9.72 6.01 8.62982 8.52 8.06982C8.58 9.70982 9.19 11.0698 9.26 12.4798H9.27Z" fill="#AFAFAF"/>
<path d="M36.4401 11.26C34.8501 9.72 32.8301 8.63 30.3201 8.07C27.8001 6.52 26.38 3.93 25.85 0.5C30.98 1.35 32.4 2.08 34.46 4.31C36.74 6.77 36.76 8.72 36.45 11.26" fill="#AFAFAF"/>
<path d="M2.4 11.26C3.99 9.72 6.01 8.62982 8.52 8.06982C11.04 6.51982 12.46 3.93 12.99 0.5C7.86003 1.35 6.44003 2.08 4.38003 4.31C2.10003 6.77 2.08003 8.72 2.39003 11.26" fill="#AFAFAF"/>
<path d="M19.3999 10.2202L19.4999 28.3902C19.4999 28.3902 21.7399 28.3902 24.3199 28.8502C24.3199 28.8502 23.9299 22.0502 23.9299 19.0302C23.9299 16.0102 25.0299 15.8502 25.0299 13.5802C25.0299 13.5802 21.5299 14.0702 20.1699 13.2902L19.3999 10.2202Z" fill="#AFAFAF"/>
<path d="M19.46 15.9702C19.46 17.6002 23.85 17.4402 23.85 17.4402Z" fill="#AFAFAF"/>
<path d="M19.46 20.1099C19.46 21.8299 23.68 21.5199 23.68 21.5199Z" fill="#AFAFAF"/>
<path d="M19.46 24.0801C19.46 25.3401 24.05 25.6401 24.05 25.6401Z" fill="#AFAFAF"/>
<path d="M19.3999 10.2202L19.2998 28.3902C19.2998 28.3902 17.0598 28.3902 14.4798 28.8502C14.4798 28.8502 14.9798 22.0702 14.9798 19.0502C14.9798 16.0302 13.2798 15.8602 13.2798 13.5902C13.2798 13.5902 17.2598 14.0702 18.6298 13.2902L19.3999 10.2202Z" fill="#AFAFAF"/>
<path d="M19.3299 15.9702C19.3299 17.6002 14.9399 17.4402 14.9399 17.4402Z" fill="#AFAFAF"/>
<path d="M19.3299 20.1099C19.3299 21.8299 15.1099 21.5199 15.1099 21.5199Z" fill="#AFAFAF"/>
<path d="M19.3302 24.0801C19.3302 25.3401 14.7402 25.6401 14.7402 25.6401Z" fill="#AFAFAF"/>
<path d="M25.85 0.5C25.85 0.5 24.01 3.81 19.62 3.81H19.63H19.23C14.84 3.81 13 0.5 13 0.5C7.86 1.35 6.45 2.08 4.39 4.31C2.11 6.77 2.09 8.72 2.4 11.26M25.85 0.5C30.98 1.35 32.4 2.08 34.46 4.31C36.74 6.77 36.76 8.72 36.45 11.26M25.85 0.5C26.38 3.93 27.8001 6.52 30.3201 8.07C32.8301 8.63 34.8501 9.72 36.4401 11.26M36.45 11.26C37.63 14.05 38.29 18.74 38.35 21.53M36.45 11.26C34.86 9.72 32.8401 8.62982 30.3301 8.06982C30.2701 9.70982 29.6601 11.0698 29.5901 12.4798H29.5801C29.5001 14.3598 31.05 20.22 32.39 22.68M38.35 21.53C36.67 23.55 34.87 23.8 32.39 22.68M38.35 21.53C36.67 23.56 34.87 23.8 32.39 22.68M32.39 22.68C31.05 20.22 30.48 15.73 29.57 11.8C29.04 20.15 26.97 29.39 26.97 29.39C26.97 29.39 23.08 28.4 19.5 28.4H19.35C15.77 28.4 11.88 29.39 11.88 29.39C11.88 29.39 9.81 20.16 9.28 11.8C8.37 15.73 7.8 20.22 6.46 22.68M6.46 22.68C3.98 23.8 2.18 23.56 0.5 21.53C0.56 18.74 1.22 14.05 2.4 11.26M6.46 22.68C7.8 20.22 9.35 14.3598 9.27 12.4798H9.26C9.19 11.0698 8.58 9.70982 8.52 8.06982M2.4 11.26C3.99 9.72 6.01 8.62982 8.52 8.06982M8.52 8.06982C11.04 6.51982 12.46 3.93 12.99 0.5C7.86003 1.35 6.44003 2.08 4.38003 4.31C2.10003 6.77 2.08003 8.72 2.39003 11.26M19.3999 10.2202L19.4999 28.3902C19.4999 28.3902 21.7399 28.3902 24.3199 28.8502C24.3199 28.8502 23.9299 22.0502 23.9299 19.0302C23.9299 16.0102 25.0299 15.8502 25.0299 13.5802C25.0299 13.5802 21.5299 14.0702 20.1699 13.2902L19.3999 10.2202ZM19.3999 10.2202L19.2998 28.3902C19.2998 28.3902 17.0598 28.3902 14.4798 28.8502C14.4798 28.8502 14.9798 22.0702 14.9798 19.0502C14.9798 16.0302 13.2798 15.8602 13.2798 13.5902C13.2798 13.5902 17.2598 14.0702 18.6298 13.2902L19.3999 10.2202ZM19.46 15.9702C19.46 17.6002 23.85 17.4402 23.85 17.4402M19.46 20.1099C19.46 21.8299 23.68 21.5199 23.68 21.5199M19.46 24.0801C19.46 25.3401 24.05 25.6401 24.05 25.6401M19.3299 15.9702C19.3299 17.6002 14.9399 17.4402 14.9399 17.4402M19.3299 20.1099C19.3299 21.8299 15.1099 21.5199 15.1099 21.5199M19.3302 24.0801C19.3302 25.3401 14.7402 25.6401 14.7402 25.6401M17.73 4.16006C15.31 3.22006 14.63 3.05006 12.29 3.42006C11.42 5.61006 10.36 6.95006 8.52002 8.08006C9.92002 13.0201 13.96 14.5601 18.68 13.2901C19.57 11.7201 19.12 6.14006 17.73 4.17006V4.16006ZM21.1099 4.16006C23.5299 3.22006 24.2099 3.05006 26.5499 3.42006C27.4199 5.61006 28.4799 6.95006 30.3199 8.08006C28.9199 13.0201 24.8799 14.5601 20.1599 13.2901C19.2699 11.7201 19.7199 6.14006 21.1099 4.17006V4.16006Z" stroke="white" stroke-linecap="round" stroke-linejoin="round"/>
</svg>
