<svg width="54" height="54" viewBox="0 0 54 54" fill="none" xmlns="http://www.w3.org/2000/svg">
<path d="M26.7649 17.661C26.7649 17.661 21.1178 17.2034 16.4119 14C14.5295 16.7458 12.8041 21.322 11.7061 24.5254C10.2943 28.6445 11.3923 35.0508 11.7061 38.7119C12.6472 38.2542 14.0589 37.7966 16.4119 38.2542C17.5194 38.4696 19.0786 39.9322 19.7061 41C22.5296 36.4237 26.7649 28.6441 26.7649 22.6949V17.661Z" fill="#AFAFAF" stroke="white" stroke-linejoin="round"/>
<path d="M27.2351 17.661C27.2351 17.661 32.8822 17.2034 37.5881 14C39.4705 16.7458 41.1959 21.322 42.2939 24.5254C43.7057 28.6445 42.6077 35.0508 42.2939 38.7119C41.3528 38.2542 39.9411 37.7966 37.5881 38.2542C36.4806 38.4696 34.9214 39.9322 34.2939 41C31.4704 36.4237 27.2351 28.6441 27.2351 22.6949V17.661Z" fill="#AFAFAF" stroke="white" stroke-linejoin="round"/>
<path d="M27.2349 24.0679C25.7291 24.0679 22.5291 18.8814 21.5879 16.7458C22.5291 17.0509 25.7291 17.6611 27.2349 17.6611C28.7408 17.6611 31.9408 17.0509 32.882 16.7458C31.9408 18.8814 28.7408 24.0679 27.2349 24.0679Z" fill="#AFAFAF" stroke="white" stroke-linejoin="round"/>
<path d="M19.2355 20.8638C16.6949 20.4516 14.5296 20.4069 13.1179 21.3214C9.82351 26.356 11.2352 33.6781 11.7061 38.7113C12.6472 38.2537 14.147 38.0421 16.5 38.4998C17.6075 38.7151 19 39.9998 19.7061 40.9994C21.5882 38.2544 26.2941 29.1018 26.7649 24.0672C24.8825 22.695 22.059 21.3218 19.2355 20.8638Z" fill="#00BAF7" stroke="white" stroke-linejoin="round"/>
<path d="M34.7645 20.8638C37.3051 20.4516 39.4704 20.4069 40.8821 21.3214C44.1765 26.356 42.7648 33.6781 42.2939 38.7113C41.3528 38.2537 39.853 38.0421 37.5 38.4998C36.3925 38.7151 35 39.9998 34.2939 40.9994C32.4118 38.2544 27.7059 29.1018 27.2351 24.0672C29.1175 22.695 31.941 21.3218 34.7645 20.8638Z" fill="#00BAF7" stroke="white" stroke-linejoin="round"/>
</svg>
